<svg xmlns="http://www.w3.org/2000/svg" xmlns:xlink="http://www.w3.org/1999/xlink" width="512" zoomAndPan="magnify" viewBox="0 0 384 383.999986" height="512" preserveAspectRatio="xMidYMid meet" version="1.0"><defs><clipPath id="3be32bfba8"><path d="M 15.605469 23 L 365.105469 23 L 365.105469 372.5 L 15.605469 372.5 Z M 15.605469 23 " clip-rule="nonzero"/></clipPath></defs><g clip-path="url(#3be32bfba8)"><path fill="#fbd333" d="M 251.035156 123.460938 C 244.238281 98.097656 227.972656 76.898438 205.226562 63.765625 C 182.484375 50.632812 155.992188 47.144531 130.628906 53.941406 C 105.265625 60.742188 84.066406 77.007812 70.933594 99.75 C 43.828125 146.699219 59.972656 206.9375 106.921875 234.042969 C 122.070312 242.792969 138.878906 247.257812 155.914062 247.257812 C 164.453125 247.257812 173.050781 246.132812 181.519531 243.859375 C 206.882812 237.0625 228.082031 220.796875 241.214844 198.050781 C 254.34375 175.308594 257.828125 148.816406 251.035156 123.453125 Z M 233.675781 193.714844 C 221.710938 214.441406 202.382812 229.269531 179.269531 235.460938 C 156.144531 241.65625 132 238.476562 111.273438 226.507812 C 68.480469 201.800781 53.769531 146.894531 78.472656 104.105469 C 90.4375 83.375 109.765625 68.546875 132.878906 62.359375 C 140.597656 60.289062 148.433594 59.265625 156.21875 59.265625 C 171.746094 59.265625 187.066406 63.335938 200.875 71.3125 C 221.601562 83.273438 236.433594 102.601562 242.621094 125.71875 C 248.816406 148.839844 245.640625 172.984375 233.667969 193.714844 Z M 361.605469 88.96875 L 347.023438 86.75 C 345.765625 82.714844 344.148438 78.796875 342.175781 75.0625 L 350.917969 63.179688 C 352.195312 61.445312 352.015625 59.042969 350.492188 57.519531 L 330.785156 37.8125 C 329.261719 36.289062 326.859375 36.109375 325.125 37.386719 L 313.242188 46.128906 C 309.5 44.15625 305.589844 42.535156 301.554688 41.28125 L 299.335938 26.699219 C 299.007812 24.574219 297.179688 23 295.03125 23 L 267.164062 23 C 265.015625 23 263.1875 24.574219 262.863281 26.699219 L 260.640625 41.28125 C 256.609375 42.535156 252.691406 44.15625 248.953125 46.128906 L 237.070312 37.386719 C 235.335938 36.109375 232.933594 36.296875 231.410156 37.8125 L 218.589844 50.632812 C 217.191406 49.742188 215.769531 48.871094 214.316406 48.035156 C 158.691406 15.917969 87.308594 35.050781 55.199219 90.667969 C 39.644531 117.613281 35.507812 149 43.5625 179.058594 C 48.582031 197.789062 57.960938 214.609375 70.839844 228.386719 L 67.300781 249.070312 C 66.996094 250.871094 67.835938 252.660156 69.410156 253.574219 L 73.960938 256.203125 L 69.707031 263.566406 L 65.871094 261.347656 C 59.347656 257.582031 50.976562 259.820312 47.210938 266.34375 C 44.285156 271.414062 44.996094 277.589844 48.515625 281.863281 L 19.152344 332.722656 C 15.605469 338.867188 14.671875 346.050781 16.519531 352.941406 C 18.371094 359.835938 22.765625 365.589844 28.914062 369.136719 C 33.097656 371.550781 37.675781 372.707031 42.195312 372.707031 C 51.417969 372.707031 60.398438 367.925781 65.332031 359.378906 L 94.695312 308.527344 C 95.441406 308.648438 96.191406 308.722656 96.9375 308.722656 C 101.660156 308.722656 106.261719 306.269531 108.792969 301.894531 C 110.613281 298.746094 111.089844 295.0625 110.148438 291.535156 C 109.207031 288.007812 106.949219 285.054688 103.792969 283.234375 L 99.902344 280.992188 L 104.15625 273.628906 L 108.753906 276.285156 C 109.429688 276.675781 110.183594 276.863281 110.933594 276.863281 C 111.925781 276.863281 112.914062 276.523438 113.710938 275.863281 L 129.898438 262.414062 C 138.496094 264.386719 147.207031 265.359375 155.871094 265.359375 C 196.152344 265.359375 235.394531 244.464844 256.941406 207.140625 C 260.03125 201.789062 262.644531 196.296875 264.800781 190.703125 C 265.488281 191.144531 266.292969 191.414062 267.164062 191.414062 L 295.03125 191.414062 C 297.179688 191.414062 299.007812 189.839844 299.335938 187.714844 L 301.554688 173.128906 C 305.589844 171.875 309.507812 170.257812 313.242188 168.285156 L 325.125 177.027344 C 326.859375 178.304688 329.261719 178.113281 330.785156 176.597656 L 350.492188 156.894531 C 352.015625 155.371094 352.195312 152.96875 350.917969 151.234375 L 342.175781 139.351562 C 344.148438 135.605469 345.765625 131.695312 347.023438 127.660156 L 361.605469 125.441406 C 363.730469 125.117188 365.304688 123.289062 365.304688 121.140625 L 365.304688 93.273438 C 365.304688 91.125 363.730469 89.296875 361.605469 88.96875 Z M 57.796875 355.03125 C 52.847656 363.605469 41.839844 366.554688 33.273438 361.605469 C 29.136719 359.21875 26.175781 355.34375 24.9375 350.691406 C 23.6875 346.042969 24.320312 341.210938 26.707031 337.074219 L 55.632812 286.972656 L 86.730469 304.925781 L 57.800781 355.03125 Z M 101.738281 293.789062 C 102.082031 295.074219 101.914062 296.410156 101.253906 297.550781 C 99.890625 299.914062 96.851562 300.726562 94.484375 299.363281 L 56.570312 277.472656 C 54.203125 276.109375 53.390625 273.070312 54.753906 270.703125 C 55.667969 269.117188 57.339844 268.230469 59.058594 268.230469 C 59.898438 268.230469 60.75 268.441406 61.523438 268.890625 L 99.441406 290.78125 C 100.578125 291.433594 101.390625 292.507812 101.738281 293.789062 Z M 92.367188 276.640625 L 77.261719 267.917969 L 81.511719 260.554688 L 96.617188 269.277344 Z M 110.480469 267.230469 L 76.398438 247.546875 L 78.414062 235.757812 C 84.328125 241.023438 90.820312 245.726562 97.835938 249.773438 C 104.910156 253.859375 112.238281 257.101562 119.710938 259.5625 L 110.488281 267.222656 Z M 249.402344 202.796875 C 219.695312 254.257812 153.652344 271.960938 102.183594 242.242188 C 77.253906 227.847656 59.421875 204.609375 51.96875 176.800781 C 44.519531 148.992188 48.339844 119.949219 62.734375 95.019531 C 82.671875 60.488281 118.972656 41.160156 156.246094 41.160156 C 174.515625 41.160156 193.023438 45.800781 209.949219 55.574219 C 261.410156 85.285156 279.113281 151.328125 249.398438 202.796875 Z M 272.382812 143.332031 C 271.328125 122.0625 264.464844 101.3125 252.464844 83.550781 C 259.554688 74.96875 269.90625 70.054688 281.09375 70.054688 C 301.582031 70.054688 318.25 86.722656 318.25 107.210938 C 318.25 127.699219 301.582031 144.363281 281.09375 144.363281 C 278.148438 144.363281 275.21875 144.015625 272.382812 143.332031 Z M 356.597656 117.402344 L 342.953125 119.484375 C 341.242188 119.746094 339.839844 121 339.398438 122.675781 C 338.027344 127.863281 335.957031 132.855469 333.253906 137.5 C 332.382812 139 332.484375 140.875 333.507812 142.265625 L 341.683594 153.390625 L 327.265625 167.804688 L 316.144531 159.621094 C 314.746094 158.589844 312.871094 158.496094 311.378906 159.367188 C 306.734375 162.074219 301.742188 164.140625 296.546875 165.511719 C 294.871094 165.953125 293.617188 167.347656 293.355469 169.066406 L 291.273438 182.714844 L 270.886719 182.714844 L 269.660156 174.667969 C 271.335938 167.246094 272.265625 159.738281 272.46875 152.257812 C 275.296875 152.792969 278.179688 153.070312 281.082031 153.070312 C 306.363281 153.070312 326.941406 132.492188 326.941406 107.210938 C 326.941406 81.925781 306.363281 61.351562 281.082031 61.351562 C 268.007812 61.351562 255.863281 66.777344 247.175781 76.347656 C 241.089844 68.683594 233.957031 61.710938 225.855469 55.65625 L 234.902344 46.605469 L 246.023438 54.792969 C 247.421875 55.820312 249.296875 55.921875 250.789062 55.046875 C 255.433594 52.339844 260.425781 50.269531 265.621094 48.898438 C 267.296875 48.457031 268.550781 47.0625 268.8125 45.34375 L 270.894531 31.699219 L 291.28125 31.699219 L 293.363281 45.34375 C 293.625 47.058594 294.878906 48.457031 296.554688 48.898438 C 301.742188 50.269531 306.734375 52.339844 311.386719 55.046875 C 312.886719 55.914062 314.757812 55.8125 316.152344 54.792969 L 327.273438 46.605469 L 341.691406 61.023438 L 333.511719 72.144531 C 332.484375 73.546875 332.390625 75.417969 333.257812 76.910156 C 335.964844 81.554688 338.035156 86.546875 339.40625 91.742188 C 339.847656 93.417969 341.238281 94.671875 342.960938 94.933594 L 356.605469 97.015625 L 356.605469 117.402344 Z M 177.164062 108.8125 L 145.320312 140.65625 L 134.976562 130.308594 C 127.261719 122.597656 114.71875 122.605469 107.015625 130.308594 C 99.308594 138.023438 99.300781 150.558594 107.015625 158.273438 L 142.246094 193.503906 C 143.09375 194.351562 144.210938 194.78125 145.320312 194.78125 C 146.433594 194.78125 147.550781 194.351562 148.398438 193.503906 L 205.125 136.773438 C 212.839844 129.0625 212.839844 116.519531 205.125 108.8125 C 197.414062 101.109375 184.875 101.109375 177.164062 108.8125 Z M 198.972656 130.621094 L 145.328125 184.265625 L 113.179688 152.121094 C 108.863281 147.800781 108.863281 140.785156 113.179688 136.46875 C 115.335938 134.316406 118.171875 133.234375 121.007812 133.234375 C 123.847656 133.234375 126.675781 134.316406 128.832031 136.46875 L 142.253906 149.890625 C 143.949219 151.589844 146.707031 151.589844 148.414062 149.890625 L 183.332031 114.972656 C 187.648438 110.65625 194.664062 110.65625 198.980469 114.972656 C 203.296875 119.289062 203.296875 126.304688 198.980469 130.621094 Z M 198.972656 130.621094 " fill-opacity="1" fill-rule="nonzero"/></g></svg>