<svg xmlns="http://www.w3.org/2000/svg" xmlns:xlink="http://www.w3.org/1999/xlink" width="512" zoomAndPan="magnify" viewBox="0 0 384 383.999986" height="512" preserveAspectRatio="xMidYMid meet" version="1.0"><defs><clipPath id="ca6038cb86"><path d="M 20.226562 20.226562 L 363.726562 20.226562 L 363.726562 363.726562 L 20.226562 363.726562 Z M 20.226562 20.226562 " clip-rule="nonzero"/></clipPath></defs><g clip-path="url(#ca6038cb86)"><path fill="#fbd333" d="M 93.507812 123.898438 C 95.175781 125.566406 95.175781 128.273438 93.507812 129.949219 L 69.167969 154.292969 C 68.332031 155.125 67.234375 155.546875 66.144531 155.546875 C 65.054688 155.546875 63.957031 155.125 63.125 154.292969 L 49.726562 140.894531 C 48.058594 139.226562 48.058594 136.519531 49.726562 134.84375 C 51.394531 133.171875 54.101562 133.179688 55.777344 134.84375 L 66.152344 145.21875 L 87.472656 123.898438 C 89.140625 122.234375 91.847656 122.234375 93.523438 123.898438 Z M 87.457031 199.988281 L 66.136719 221.308594 L 55.761719 210.933594 C 54.097656 209.265625 51.386719 209.265625 49.714844 210.933594 C 48.039062 212.601562 48.046875 215.308594 49.714844 216.984375 L 63.109375 230.382812 C 63.945312 231.214844 65.039062 231.636719 66.132812 231.636719 C 67.222656 231.636719 68.320312 231.214844 69.152344 230.382812 L 93.496094 206.039062 C 95.160156 204.371094 95.160156 201.664062 93.496094 199.988281 C 91.828125 198.320312 89.117188 198.320312 87.445312 199.988281 Z M 87.457031 276.085938 L 66.136719 297.40625 L 55.761719 287.03125 C 54.097656 285.363281 51.386719 285.363281 49.714844 287.03125 C 48.039062 288.699219 48.046875 291.40625 49.714844 293.082031 L 63.109375 306.476562 C 63.945312 307.3125 65.039062 307.730469 66.132812 307.730469 C 67.222656 307.730469 68.320312 307.3125 69.152344 306.476562 L 93.496094 282.136719 C 95.160156 280.46875 95.160156 277.761719 93.496094 276.085938 C 91.828125 274.417969 89.117188 274.417969 87.445312 276.085938 Z M 121.476562 279.378906 C 121.476562 281.738281 123.394531 283.652344 125.753906 283.652344 L 216.742188 283.652344 C 219.101562 283.652344 221.019531 281.738281 221.019531 279.378906 C 221.019531 277.019531 219.101562 275.101562 216.742188 275.101562 L 125.753906 275.101562 C 123.394531 275.101562 121.476562 277.019531 121.476562 279.378906 Z M 178.875 298.902344 L 125.753906 298.902344 C 123.394531 298.902344 121.476562 300.820312 121.476562 303.179688 C 121.476562 305.535156 123.394531 307.453125 125.753906 307.453125 L 178.875 307.453125 C 181.234375 307.453125 183.152344 305.535156 183.152344 303.179688 C 183.152344 300.820312 181.234375 298.902344 178.875 298.902344 Z M 285.949219 245.6875 C 275.894531 251.496094 264.890625 254.253906 254.039062 254.253906 C 231.890625 254.253906 210.320312 242.765625 198.472656 222.242188 C 180.8125 191.667969 191.332031 152.425781 221.910156 134.765625 C 252.492188 117.117188 291.726562 127.625 309.386719 158.203125 C 327.042969 188.78125 316.523438 228.023438 285.949219 245.679688 Z M 301.980469 162.488281 C 286.683594 135.992188 252.675781 126.878906 226.183594 142.179688 C 199.691406 157.476562 190.578125 191.472656 205.875 217.976562 C 216.144531 235.753906 234.835938 245.707031 254.015625 245.707031 C 263.421875 245.707031 272.949219 243.320312 281.664062 238.285156 C 308.160156 222.984375 317.273438 188.988281 301.972656 162.488281 Z M 352.347656 360.699219 C 348.777344 362.757812 344.878906 363.734375 341.023438 363.734375 C 333.164062 363.734375 325.519531 359.65625 321.3125 352.382812 L 283.988281 287.738281 C 283.417969 286.753906 283.269531 285.585938 283.5625 284.496094 C 283.851562 283.398438 284.574219 282.464844 285.554688 281.902344 L 289.660156 279.527344 L 282.292969 266.757812 C 273.09375 270.171875 263.539062 271.824219 254.066406 271.824219 C 252.464844 271.824219 250.859375 271.769531 249.257812 271.675781 L 249.257812 325.195312 C 249.257812 336.96875 239.679688 346.546875 227.910156 346.546875 L 41.574219 346.546875 C 29.804688 346.546875 20.226562 336.96875 20.226562 325.195312 L 20.226562 85.035156 C 20.226562 73.265625 29.804688 63.6875 41.574219 63.6875 L 80.011719 63.6875 L 80.011719 57.144531 C 80.011719 49.65625 86.105469 43.554688 93.601562 43.554688 L 107.503906 43.554688 C 109.5625 30.375 121 20.253906 134.753906 20.253906 C 148.503906 20.253906 159.933594 30.375 162 43.554688 L 175.902344 43.554688 C 183.402344 43.554688 189.492188 49.65625 189.492188 57.144531 L 189.492188 63.6875 L 227.929688 63.6875 C 239.703125 63.6875 249.277344 73.265625 249.277344 85.035156 L 249.277344 108.757812 C 279.066406 107.097656 308.722656 121.871094 324.625 149.417969 C 344.792969 184.347656 336.113281 228.144531 306.042969 253.054688 L 313.417969 265.824219 L 317.523438 263.453125 C 319.566406 262.277344 322.183594 262.972656 323.367188 265.019531 L 360.691406 329.664062 C 366.953125 340.511719 363.21875 354.433594 352.375 360.699219 Z M 88.554688 78.78125 C 88.554688 81.558594 90.816406 83.816406 93.59375 83.816406 L 175.882812 83.816406 C 178.660156 83.816406 180.921875 81.558594 180.921875 78.78125 L 180.921875 57.152344 C 180.921875 54.375 178.660156 52.113281 175.882812 52.113281 L 158.039062 52.113281 C 155.679688 52.113281 153.765625 50.199219 153.765625 47.839844 C 153.765625 37.351562 145.226562 28.8125 134.738281 28.8125 C 124.25 28.8125 115.710938 37.351562 115.710938 47.839844 C 115.710938 50.199219 113.796875 52.113281 111.4375 52.113281 L 93.59375 52.113281 C 90.816406 52.113281 88.554688 54.375 88.554688 57.152344 Z M 240.707031 270.726562 C 217.519531 266.902344 196.15625 253.164062 183.4375 231.34375 C 183.320312 231.351562 183.207031 231.355469 183.085938 231.355469 L 125.753906 231.355469 C 123.394531 231.355469 121.476562 229.441406 121.476562 227.082031 C 121.476562 224.722656 123.394531 222.804688 125.753906 222.804688 L 179.097656 222.804688 C 176.929688 217.859375 175.277344 212.757812 174.144531 207.558594 L 125.761719 207.558594 C 123.402344 207.558594 121.484375 205.640625 121.484375 203.28125 C 121.484375 200.921875 123.402344 199.007812 125.761719 199.007812 L 172.753906 199.007812 C 171.6875 189.117188 172.457031 179.003906 175.105469 169.105469 C 176.394531 164.304688 178.097656 159.679688 180.171875 155.269531 L 125.765625 155.269531 C 123.410156 155.269531 121.492188 153.351562 121.492188 150.992188 C 121.492188 148.632812 123.410156 146.71875 125.765625 146.71875 L 184.425781 146.71875 C 184.5625 146.71875 184.703125 146.722656 184.832031 146.738281 C 188.332031 141.164062 192.5 136.042969 197.253906 131.46875 L 125.761719 131.46875 C 123.402344 131.46875 121.484375 129.550781 121.484375 127.191406 C 121.484375 124.832031 123.402344 122.917969 125.761719 122.917969 L 207.601562 122.917969 C 207.65625 122.917969 207.714844 122.917969 207.769531 122.925781 C 209.503906 121.742188 211.289062 120.609375 213.128906 119.546875 C 221.910156 114.480469 231.25 111.238281 240.714844 109.691406 L 240.714844 85.035156 C 240.714844 77.980469 234.96875 72.238281 227.914062 72.238281 L 189.480469 72.238281 L 189.480469 78.78125 C 189.480469 86.277344 183.386719 92.367188 175.890625 92.367188 L 93.601562 92.367188 C 86.105469 92.367188 80.011719 86.277344 80.011719 78.78125 L 80.011719 72.238281 L 41.574219 72.238281 C 34.519531 72.238281 28.777344 77.980469 28.777344 85.035156 L 28.777344 325.195312 C 28.777344 332.25 34.519531 337.996094 41.574219 337.996094 L 227.914062 337.996094 C 234.96875 337.996094 240.714844 332.257812 240.714844 325.195312 L 240.714844 270.71875 Z M 290.457031 253.503906 C 307.359375 243.75 319.445312 227.992188 324.5 209.140625 C 329.550781 190.292969 326.957031 170.59375 317.203125 153.699219 C 297.058594 118.8125 252.285156 106.8125 217.398438 126.957031 C 182.511719 147.101562 170.511719 191.875 190.65625 226.761719 C 204.171875 250.167969 228.785156 263.273438 254.054688 263.28125 C 266.445312 263.28125 278.984375 260.132812 290.457031 253.503906 Z M 297.070312 275.253906 L 305.992188 270.101562 L 299.117188 258.1875 C 297.691406 259.125 296.238281 260.039062 294.742188 260.90625 C 293.246094 261.769531 291.726562 262.582031 290.195312 263.335938 Z M 353.257812 333.941406 L 318.070312 273 L 293.535156 287.167969 L 328.722656 348.105469 C 332.628906 354.867188 341.308594 357.199219 348.078125 353.292969 C 354.839844 349.390625 357.171875 340.710938 353.265625 333.941406 Z M 353.257812 333.941406 " fill-opacity="1" fill-rule="nonzero"/></g></svg>