<svg xmlns="http://www.w3.org/2000/svg" xmlns:xlink="http://www.w3.org/1999/xlink" width="512" zoomAndPan="magnify" viewBox="0 0 384 383.999986" height="512" preserveAspectRatio="xMidYMid meet" version="1.0"><defs><clipPath id="7cbd401e74"><path d="M 43.277344 43.277344 L 340.722656 43.277344 L 340.722656 340.722656 L 43.277344 340.722656 Z M 43.277344 43.277344 " clip-rule="nonzero"/></clipPath><clipPath id="8eec23cc3e"><path d="M 192 43.277344 C 109.863281 43.277344 43.277344 109.863281 43.277344 192 C 43.277344 274.136719 109.863281 340.722656 192 340.722656 C 274.136719 340.722656 340.722656 274.136719 340.722656 192 C 340.722656 109.863281 274.136719 43.277344 192 43.277344 Z M 192 43.277344 " clip-rule="nonzero"/></clipPath><clipPath id="1a9327567c"><path d="M 0.277344 0.277344 L 297.722656 0.277344 L 297.722656 297.722656 L 0.277344 297.722656 Z M 0.277344 0.277344 " clip-rule="nonzero"/></clipPath><clipPath id="356a7de8d5"><path d="M 149 0.277344 C 66.863281 0.277344 0.277344 66.863281 0.277344 149 C 0.277344 231.136719 66.863281 297.722656 149 297.722656 C 231.136719 297.722656 297.722656 231.136719 297.722656 149 C 297.722656 66.863281 231.136719 0.277344 149 0.277344 Z M 149 0.277344 " clip-rule="nonzero"/></clipPath><clipPath id="cf1eb9d1a6"><rect x="0" width="298" y="0" height="298"/></clipPath><clipPath id="71db94a767"><path d="M 113.09375 113.09375 L 270.59375 113.09375 L 270.59375 270.59375 L 113.09375 270.59375 Z M 113.09375 113.09375 " clip-rule="nonzero"/></clipPath><clipPath id="499134808d"><path d="M 191.996094 113.09375 C 148.421875 113.09375 113.09375 148.421875 113.09375 191.996094 C 113.09375 235.574219 148.421875 270.898438 191.996094 270.898438 C 235.574219 270.898438 270.898438 235.574219 270.898438 191.996094 C 270.898438 148.421875 235.574219 113.09375 191.996094 113.09375 Z M 191.996094 113.09375 " clip-rule="nonzero"/></clipPath></defs><g clip-path="url(#7cbd401e74)"><g clip-path="url(#8eec23cc3e)"><g transform="matrix(1, 0, 0, 1, 43, 43)"><g clip-path="url(#cf1eb9d1a6)"><g clip-path="url(#1a9327567c)"><g clip-path="url(#356a7de8d5)"><path fill="#f6ce1e" d="M 0.277344 0.277344 L 297.722656 0.277344 L 297.722656 297.722656 L 0.277344 297.722656 Z M 0.277344 0.277344 " fill-opacity="1" fill-rule="nonzero"/></g></g></g></g></g></g><g clip-path="url(#71db94a767)"><g clip-path="url(#499134808d)"><path stroke-linecap="butt" transform="matrix(0.75, 0, 0, 0.75, 113.095179, 113.095172)" fill="none" stroke-linejoin="miter" d="M 105.201228 -0.0018958 C 47.102265 -0.0018958 -0.0019054 47.102275 -0.0019054 105.201238 C -0.0019054 163.305409 47.102265 210.404371 105.201228 210.404371 C 163.305399 210.404371 210.404361 163.305409 210.404361 105.201238 C 210.404361 47.102275 163.305399 -0.0018958 105.201228 -0.0018958 Z M 105.201228 -0.0018958 " stroke="#ffffff" stroke-width="72" stroke-opacity="1" stroke-miterlimit="4"/></g></g></svg>