<svg xmlns="http://www.w3.org/2000/svg" xmlns:xlink="http://www.w3.org/1999/xlink" width="512" zoomAndPan="magnify" viewBox="0 0 384 383.999986" height="512" preserveAspectRatio="xMidYMid meet" version="1.0"><defs><clipPath id="1ceb988804"><path d="M 38.398438 61.5 L 346 61.5 L 346 312.417969 L 38.398438 312.417969 Z M 38.398438 61.5 " clip-rule="nonzero"/></clipPath><clipPath id="76320b56c0"><path d="M 90.148438 61.5 L 293.851562 61.5 C 322.429688 61.5 345.601562 84.671875 345.601562 113.25 L 345.601562 260.667969 C 345.601562 289.25 322.429688 312.417969 293.851562 312.417969 L 90.148438 312.417969 C 61.570312 312.417969 38.398438 289.25 38.398438 260.667969 L 38.398438 113.25 C 38.398438 84.671875 61.570312 61.5 90.148438 61.5 Z M 90.148438 61.5 " clip-rule="nonzero"/></clipPath><clipPath id="8f5e4edbc3"><path d="M 0.398438 0.5 L 307.839844 0.5 L 307.839844 251.417969 L 0.398438 251.417969 Z M 0.398438 0.5 " clip-rule="nonzero"/></clipPath><clipPath id="5076511883"><path d="M 52.148438 0.5 L 255.851562 0.5 C 284.429688 0.5 307.601562 23.671875 307.601562 52.25 L 307.601562 199.667969 C 307.601562 228.25 284.429688 251.417969 255.851562 251.417969 L 52.148438 251.417969 C 23.570312 251.417969 0.398438 228.25 0.398438 199.667969 L 0.398438 52.25 C 0.398438 23.671875 23.570312 0.5 52.148438 0.5 Z M 52.148438 0.5 " clip-rule="nonzero"/></clipPath><clipPath id="a8171a6f5b"><rect x="0" width="308" y="0" height="252"/></clipPath></defs><g clip-path="url(#1ceb988804)"><g clip-path="url(#76320b56c0)"><g transform="matrix(1, 0, 0, 1, 38, 61)"><g clip-path="url(#a8171a6f5b)"><g clip-path="url(#8f5e4edbc3)"><g clip-path="url(#5076511883)"><path fill="#f6ce1e" d="M 0.398438 0.5 L 307.1875 0.5 L 307.1875 251.417969 L 0.398438 251.417969 Z M 0.398438 0.5 " fill-opacity="1" fill-rule="nonzero"/></g></g></g></g></g></g><path stroke-linecap="round" transform="matrix(-0.487698, -0.569781, 0.569781, -0.487698, 187.379539, 226.149592)" fill="none" stroke-linejoin="miter" d="M 18.499989 18.500608 L 114.534681 18.500552 " stroke="#ffffff" stroke-width="37" stroke-opacity="1" stroke-miterlimit="4"/><path stroke-linecap="round" transform="matrix(0.502909, -0.556401, 0.556401, 0.502909, 58.633853, 212.86387)" fill="none" stroke-linejoin="miter" d="M 18.498716 18.500035 L 124.34598 18.498067 " stroke="#ffffff" stroke-width="37" stroke-opacity="1" stroke-miterlimit="4"/><path stroke-linecap="round" transform="matrix(-0.528066, -0.532585, 0.532585, -0.528066, 307.153166, 231.934729)" fill="none" stroke-linejoin="miter" d="M 18.49876 18.501622 L 131.496925 18.498984 " stroke="#ffffff" stroke-width="37" stroke-opacity="1" stroke-miterlimit="4"/><path stroke-linecap="round" transform="matrix(0.458084, -0.593851, 0.593851, 0.458084, 175.642728, 213.692033)" fill="none" stroke-linejoin="miter" d="M 18.502268 18.501523 L 114.991307 18.500095 " stroke="#ffffff" stroke-width="37" stroke-opacity="1" stroke-miterlimit="4"/></svg>