<svg xmlns="http://www.w3.org/2000/svg" xmlns:xlink="http://www.w3.org/1999/xlink" width="512" zoomAndPan="magnify" viewBox="0 0 384 383.999986" height="512" preserveAspectRatio="xMidYMid meet" version="1.0"><defs><clipPath id="185ac4c311"><path d="M 95.644531 106.332031 L 292.453125 106.332031 L 292.453125 323.902344 L 95.644531 323.902344 Z M 95.644531 106.332031 " clip-rule="nonzero"/></clipPath><clipPath id="42c2790637"><path d="M 194.050781 106.332031 C 139.703125 106.332031 95.644531 155.035156 95.644531 215.113281 C 95.644531 275.1875 139.703125 323.890625 194.050781 323.890625 C 248.398438 323.890625 292.453125 275.1875 292.453125 215.113281 C 292.453125 155.035156 248.398438 106.332031 194.050781 106.332031 Z M 194.050781 106.332031 " clip-rule="nonzero"/></clipPath><clipPath id="5f999a9247"><path d="M 0.644531 0.332031 L 197.453125 0.332031 L 197.453125 217.902344 L 0.644531 217.902344 Z M 0.644531 0.332031 " clip-rule="nonzero"/></clipPath><clipPath id="a1fcba0821"><path d="M 99.050781 0.332031 C 44.703125 0.332031 0.644531 49.035156 0.644531 109.113281 C 0.644531 169.1875 44.703125 217.890625 99.050781 217.890625 C 153.398438 217.890625 197.453125 169.1875 197.453125 109.113281 C 197.453125 49.035156 153.398438 0.332031 99.050781 0.332031 Z M 99.050781 0.332031 " clip-rule="nonzero"/></clipPath><clipPath id="11a8ca0a30"><rect x="0" width="198" y="0" height="218"/></clipPath><clipPath id="32db36cb4e"><path d="M 106.980469 304.804688 L 277.019531 304.804688 L 277.019531 374.390625 L 106.980469 374.390625 Z M 106.980469 304.804688 " clip-rule="nonzero"/></clipPath><clipPath id="5cba1069b5"><path d="M 0.980469 0.804688 L 171.019531 0.804688 L 171.019531 70.390625 L 0.980469 70.390625 Z M 0.980469 0.804688 " clip-rule="nonzero"/></clipPath><clipPath id="8c8f8eb9c2"><rect x="0" width="172" y="0" height="71"/></clipPath><clipPath id="91020fb78f"><path d="M 160 171.664062 L 224 171.664062 L 224 234 L 160 234 Z M 160 171.664062 " clip-rule="nonzero"/></clipPath><clipPath id="eae541e49a"><path d="M 89.78125 260 L 139 260 L 139 305 L 89.78125 305 Z M 89.78125 260 " clip-rule="nonzero"/></clipPath><clipPath id="1da7c72a99"><path d="M 245 260 L 294.53125 260 L 294.53125 305 L 245 305 Z M 245 260 " clip-rule="nonzero"/></clipPath></defs><path fill="#f6ce1e" d="M 167.410156 49.140625 C 159.863281 49.140625 153.414062 54.472656 151.964844 61.878906 L 146.707031 88.890625 C 133.777344 93.777344 121.824219 100.609375 111.324219 109.226562 L 85.421875 100.304688 C 78.285156 97.847656 70.433594 100.796875 66.65625 107.316406 L 42.902344 148.480469 C 39.140625 155.019531 40.507812 163.316406 46.195312 168.261719 L 66.960938 186.320312 C 65.882812 192.960938 65.179688 199.714844 65.179688 206.65625 C 65.179688 213.601562 65.882812 220.355469 66.960938 226.992188 L 46.195312 245.050781 C 40.507812 250 39.140625 258.296875 42.902344 264.835938 L 66.65625 306 C 70.417969 312.535156 78.285156 315.484375 85.421875 313.042969 L 111.324219 304.121094 C 121.820312 312.734375 133.78125 319.539062 146.707031 324.425781 L 151.964844 351.4375 C 153.414062 358.839844 159.863281 364.175781 167.410156 364.175781 L 214.972656 364.175781 C 222.519531 364.175781 228.96875 358.839844 230.417969 351.4375 L 235.679688 324.425781 C 248.605469 319.539062 260.558594 312.707031 271.058594 304.089844 L 296.960938 313.011719 C 304.097656 315.46875 311.949219 312.535156 315.726562 306 L 339.480469 264.804688 C 343.242188 258.265625 341.875 250 336.1875 245.050781 L 315.421875 226.992188 C 316.5 220.355469 317.207031 213.601562 317.207031 206.65625 C 317.207031 199.714844 316.5 192.960938 315.421875 186.320312 L 336.1875 168.261719 C 341.875 163.316406 343.242188 155.019531 339.480469 148.480469 L 315.726562 107.316406 C 311.964844 100.78125 304.097656 97.832031 296.960938 100.273438 L 271.058594 109.195312 C 260.5625 100.582031 248.601562 93.777344 235.679688 88.890625 L 230.417969 61.878906 C 228.96875 54.472656 222.519531 49.140625 214.972656 49.140625 Z M 191.191406 143.652344 C 225.988281 143.652344 254.199219 171.863281 254.199219 206.65625 C 254.199219 241.453125 225.988281 269.664062 191.191406 269.664062 C 156.394531 269.664062 128.183594 241.453125 128.183594 206.65625 C 128.183594 171.863281 156.394531 143.652344 191.191406 143.652344 Z M 191.191406 143.652344 " fill-opacity="1" fill-rule="nonzero"/><g clip-path="url(#185ac4c311)"><g clip-path="url(#42c2790637)"><g transform="matrix(1, 0, 0, 1, 95, 106)"><g clip-path="url(#11a8ca0a30)"><g clip-path="url(#5f999a9247)"><g clip-path="url(#a1fcba0821)"><path fill="#ffffff" d="M 0.644531 0.332031 L 197.453125 0.332031 L 197.453125 217.902344 L 0.644531 217.902344 Z M 0.644531 0.332031 " fill-opacity="1" fill-rule="nonzero"/></g></g></g></g></g></g><g clip-path="url(#32db36cb4e)"><g transform="matrix(1, 0, 0, 1, 106, 304)"><g clip-path="url(#8c8f8eb9c2)"><g clip-path="url(#5cba1069b5)"><path fill="#ffffff" d="M 0.980469 0.804688 L 171.144531 0.804688 L 171.144531 70.390625 L 0.980469 70.390625 Z M 0.980469 0.804688 " fill-opacity="1" fill-rule="nonzero"/></g></g></g></g><g clip-path="url(#91020fb78f)"><path fill="#f6ce1e" d="M 223.0625 202.726562 C 223.0625 203.746094 223.011719 204.761719 222.914062 205.773438 C 222.8125 206.785156 222.664062 207.789062 222.464844 208.789062 C 222.265625 209.785156 222.019531 210.773438 221.726562 211.746094 C 221.429688 212.71875 221.085938 213.675781 220.699219 214.617188 C 220.308594 215.554688 219.875 216.472656 219.394531 217.371094 C 218.914062 218.269531 218.390625 219.140625 217.828125 219.988281 C 217.261719 220.832031 216.65625 221.648438 216.011719 222.433594 C 215.367188 223.222656 214.683594 223.976562 213.964844 224.695312 C 213.242188 225.414062 212.492188 226.097656 211.703125 226.742188 C 210.917969 227.386719 210.101562 227.992188 209.257812 228.558594 C 208.410156 229.121094 207.539062 229.644531 206.640625 230.125 C 205.742188 230.605469 204.824219 231.039062 203.886719 231.429688 C 202.945312 231.816406 201.988281 232.160156 201.015625 232.457031 C 200.042969 232.75 199.054688 232.996094 198.058594 233.195312 C 197.058594 233.394531 196.054688 233.542969 195.042969 233.644531 C 194.03125 233.742188 193.015625 233.792969 191.996094 233.792969 C 190.980469 233.792969 189.964844 233.742188 188.953125 233.644531 C 187.941406 233.542969 186.933594 233.394531 185.9375 233.195312 C 184.9375 232.996094 183.953125 232.75 182.980469 232.457031 C 182.003906 232.160156 181.050781 231.816406 180.109375 231.429688 C 179.167969 231.039062 178.25 230.605469 177.351562 230.125 C 176.457031 229.644531 175.585938 229.121094 174.738281 228.558594 C 173.890625 227.992188 173.074219 227.386719 172.289062 226.742188 C 171.503906 226.097656 170.75 225.414062 170.03125 224.695312 C 169.3125 223.976562 168.628906 223.222656 167.984375 222.433594 C 167.339844 221.648438 166.734375 220.832031 166.167969 219.988281 C 165.601562 219.140625 165.078125 218.269531 164.601562 217.371094 C 164.121094 216.472656 163.6875 215.554688 163.296875 214.617188 C 162.90625 213.675781 162.566406 212.71875 162.269531 211.746094 C 161.972656 210.773438 161.726562 209.785156 161.527344 208.789062 C 161.332031 207.789062 161.179688 206.785156 161.082031 205.773438 C 160.980469 204.761719 160.933594 203.746094 160.933594 202.726562 C 160.933594 201.710938 160.980469 200.695312 161.082031 199.683594 C 161.179688 198.671875 161.332031 197.664062 161.527344 196.667969 C 161.726562 195.667969 161.972656 194.683594 162.269531 193.710938 C 162.566406 192.734375 162.90625 191.78125 163.296875 190.839844 C 163.6875 189.898438 164.121094 188.980469 164.601562 188.082031 C 165.078125 187.1875 165.601562 186.316406 166.167969 185.46875 C 166.734375 184.621094 167.339844 183.804688 167.984375 183.019531 C 168.628906 182.234375 169.3125 181.480469 170.03125 180.761719 C 170.75 180.042969 171.503906 179.359375 172.289062 178.714844 C 173.074219 178.070312 173.890625 177.464844 174.738281 176.898438 C 175.585938 176.332031 176.457031 175.808594 177.351562 175.332031 C 178.25 174.851562 179.167969 174.417969 180.109375 174.027344 C 181.050781 173.636719 182.003906 173.296875 182.980469 173 C 183.953125 172.703125 184.9375 172.457031 185.9375 172.257812 C 186.933594 172.0625 187.941406 171.910156 188.953125 171.8125 C 189.964844 171.710938 190.980469 171.664062 191.996094 171.664062 C 193.015625 171.664062 194.03125 171.710938 195.042969 171.8125 C 196.054688 171.910156 197.058594 172.0625 198.058594 172.257812 C 199.054688 172.457031 200.042969 172.703125 201.015625 173 C 201.988281 173.296875 202.945312 173.636719 203.886719 174.027344 C 204.824219 174.417969 205.742188 174.851562 206.640625 175.332031 C 207.539062 175.808594 208.410156 176.332031 209.257812 176.898438 C 210.101562 177.464844 210.917969 178.070312 211.703125 178.714844 C 212.492188 179.359375 213.242188 180.042969 213.964844 180.761719 C 214.683594 181.480469 215.367188 182.234375 216.011719 183.019531 C 216.65625 183.804688 217.261719 184.621094 217.828125 185.46875 C 218.390625 186.316406 218.914062 187.1875 219.394531 188.082031 C 219.875 188.980469 220.308594 189.898438 220.699219 190.839844 C 221.085938 191.78125 221.429688 192.734375 221.726562 193.710938 C 222.019531 194.683594 222.265625 195.667969 222.464844 196.667969 C 222.664062 197.664062 222.8125 198.671875 222.914062 199.683594 C 223.011719 200.695312 223.0625 201.710938 223.0625 202.726562 Z M 223.0625 202.726562 " fill-opacity="1" fill-rule="nonzero"/></g><path fill="#f6ce1e" d="M 276.316406 229.355469 C 276.316406 230.082031 276.28125 230.808594 276.210938 231.53125 C 276.140625 232.253906 276.03125 232.972656 275.890625 233.683594 C 275.75 234.398438 275.574219 235.101562 275.363281 235.796875 C 275.152344 236.492188 274.90625 237.175781 274.628906 237.847656 C 274.351562 238.519531 274.039062 239.175781 273.695312 239.816406 C 273.355469 240.457031 272.980469 241.078125 272.578125 241.683594 C 272.171875 242.285156 271.742188 242.871094 271.28125 243.433594 C 270.820312 243.992188 270.332031 244.53125 269.816406 245.046875 C 269.304688 245.558594 268.765625 246.046875 268.203125 246.507812 C 267.644531 246.96875 267.058594 247.402344 266.457031 247.804688 C 265.851562 248.207031 265.230469 248.582031 264.585938 248.925781 C 263.945312 249.265625 263.289062 249.578125 262.617188 249.855469 C 261.949219 250.132812 261.265625 250.378906 260.570312 250.589844 C 259.875 250.800781 259.167969 250.976562 258.457031 251.117188 C 257.742188 251.261719 257.027344 251.367188 256.300781 251.4375 C 255.578125 251.507812 254.855469 251.542969 254.128906 251.542969 C 253.402344 251.542969 252.675781 251.507812 251.953125 251.4375 C 251.230469 251.367188 250.511719 251.261719 249.796875 251.117188 C 249.085938 250.976562 248.382812 250.800781 247.6875 250.589844 C 246.992188 250.378906 246.308594 250.132812 245.636719 249.855469 C 244.964844 249.578125 244.308594 249.265625 243.667969 248.925781 C 243.027344 248.582031 242.402344 248.207031 241.800781 247.804688 C 241.195312 247.402344 240.613281 246.96875 240.050781 246.507812 C 239.488281 246.046875 238.949219 245.558594 238.4375 245.046875 C 237.921875 244.53125 237.4375 243.992188 236.976562 243.433594 C 236.515625 242.871094 236.082031 242.285156 235.675781 241.683594 C 235.273438 241.078125 234.902344 240.457031 234.558594 239.816406 C 234.214844 239.175781 233.90625 238.519531 233.628906 237.847656 C 233.347656 237.175781 233.105469 236.492188 232.894531 235.796875 C 232.683594 235.101562 232.507812 234.398438 232.363281 233.683594 C 232.222656 232.972656 232.117188 232.253906 232.046875 231.53125 C 231.972656 230.808594 231.9375 230.082031 231.9375 229.355469 C 231.9375 228.628906 231.972656 227.902344 232.046875 227.179688 C 232.117188 226.457031 232.222656 225.738281 232.363281 225.027344 C 232.507812 224.3125 232.683594 223.609375 232.894531 222.914062 C 233.105469 222.21875 233.347656 221.535156 233.628906 220.863281 C 233.90625 220.191406 234.214844 219.535156 234.558594 218.894531 C 234.902344 218.253906 235.273438 217.632812 235.675781 217.027344 C 236.082031 216.421875 236.515625 215.839844 236.976562 215.277344 C 237.4375 214.714844 237.921875 214.179688 238.4375 213.664062 C 238.949219 213.152344 239.488281 212.664062 240.050781 212.203125 C 240.613281 211.742188 241.195312 211.308594 241.800781 210.90625 C 242.402344 210.5 243.027344 210.128906 243.667969 209.785156 C 244.308594 209.441406 244.964844 209.132812 245.636719 208.855469 C 246.308594 208.578125 246.992188 208.332031 247.6875 208.121094 C 248.382812 207.910156 249.085938 207.734375 249.796875 207.59375 C 250.511719 207.449219 251.230469 207.34375 251.953125 207.273438 C 252.675781 207.203125 253.402344 207.164062 254.128906 207.164062 C 254.855469 207.164062 255.578125 207.203125 256.300781 207.273438 C 257.027344 207.34375 257.742188 207.449219 258.457031 207.59375 C 259.167969 207.734375 259.875 207.910156 260.570312 208.121094 C 261.265625 208.332031 261.949219 208.578125 262.617188 208.855469 C 263.289062 209.132812 263.945312 209.441406 264.585938 209.785156 C 265.230469 210.128906 265.851562 210.5 266.457031 210.90625 C 267.058594 211.308594 267.644531 211.742188 268.203125 212.203125 C 268.765625 212.664062 269.304688 213.152344 269.816406 213.664062 C 270.332031 214.179688 270.820312 214.714844 271.28125 215.277344 C 271.742188 215.839844 272.171875 216.421875 272.578125 217.027344 C 272.980469 217.632812 273.355469 218.253906 273.695312 218.894531 C 274.039062 219.535156 274.351562 220.191406 274.628906 220.863281 C 274.90625 221.535156 275.152344 222.21875 275.363281 222.914062 C 275.574219 223.609375 275.75 224.3125 275.890625 225.027344 C 276.03125 225.738281 276.140625 226.457031 276.210938 227.179688 C 276.28125 227.902344 276.316406 228.628906 276.316406 229.355469 Z M 276.316406 229.355469 " fill-opacity="1" fill-rule="nonzero"/><path fill="#f6ce1e" d="M 152.6875 229.355469 C 152.6875 230.082031 152.652344 230.808594 152.578125 231.53125 C 152.507812 232.253906 152.402344 232.972656 152.261719 233.683594 C 152.117188 234.398438 151.941406 235.101562 151.730469 235.796875 C 151.519531 236.492188 151.273438 237.175781 150.996094 237.847656 C 150.71875 238.519531 150.410156 239.175781 150.066406 239.816406 C 149.722656 240.457031 149.351562 241.078125 148.945312 241.683594 C 148.542969 242.285156 148.109375 242.871094 147.648438 243.433594 C 147.1875 243.992188 146.699219 244.53125 146.1875 245.046875 C 145.671875 245.558594 145.136719 246.046875 144.574219 246.507812 C 144.011719 246.96875 143.429688 247.402344 142.824219 247.804688 C 142.21875 248.207031 141.597656 248.582031 140.957031 248.925781 C 140.316406 249.265625 139.660156 249.578125 138.988281 249.855469 C 138.316406 250.132812 137.632812 250.378906 136.9375 250.589844 C 136.242188 250.800781 135.539062 250.976562 134.824219 251.117188 C 134.113281 251.261719 133.394531 251.367188 132.671875 251.4375 C 131.949219 251.507812 131.222656 251.542969 130.496094 251.542969 C 129.769531 251.542969 129.046875 251.507812 128.320312 251.4375 C 127.597656 251.367188 126.878906 251.261719 126.167969 251.117188 C 125.457031 250.976562 124.75 250.800781 124.054688 250.589844 C 123.359375 250.378906 122.675781 250.132812 122.003906 249.855469 C 121.332031 249.578125 120.675781 249.265625 120.035156 248.925781 C 119.394531 248.582031 118.773438 248.207031 118.167969 247.804688 C 117.566406 247.402344 116.980469 246.96875 116.421875 246.507812 C 115.859375 246.046875 115.320312 245.558594 114.804688 245.046875 C 114.292969 244.53125 113.804688 243.992188 113.34375 243.433594 C 112.882812 242.871094 112.449219 242.285156 112.046875 241.683594 C 111.644531 241.078125 111.269531 240.457031 110.925781 239.816406 C 110.585938 239.175781 110.273438 238.519531 109.996094 237.847656 C 109.71875 237.175781 109.472656 236.492188 109.261719 235.796875 C 109.050781 235.101562 108.875 234.398438 108.734375 233.683594 C 108.59375 232.972656 108.484375 232.253906 108.414062 231.53125 C 108.34375 230.808594 108.308594 230.082031 108.308594 229.355469 C 108.308594 228.628906 108.34375 227.902344 108.414062 227.179688 C 108.484375 226.457031 108.59375 225.738281 108.734375 225.027344 C 108.875 224.3125 109.050781 223.609375 109.261719 222.914062 C 109.472656 222.21875 109.71875 221.535156 109.996094 220.863281 C 110.273438 220.191406 110.585938 219.535156 110.925781 218.894531 C 111.269531 218.253906 111.644531 217.632812 112.046875 217.027344 C 112.449219 216.421875 112.882812 215.839844 113.34375 215.277344 C 113.804688 214.714844 114.292969 214.179688 114.804688 213.664062 C 115.320312 213.152344 115.859375 212.664062 116.421875 212.203125 C 116.980469 211.742188 117.566406 211.308594 118.167969 210.90625 C 118.773438 210.5 119.394531 210.128906 120.035156 209.785156 C 120.675781 209.441406 121.332031 209.132812 122.003906 208.855469 C 122.675781 208.578125 123.359375 208.332031 124.054688 208.121094 C 124.75 207.910156 125.457031 207.734375 126.167969 207.59375 C 126.878906 207.449219 127.597656 207.34375 128.320312 207.273438 C 129.046875 207.203125 129.769531 207.164062 130.496094 207.164062 C 131.222656 207.164062 131.949219 207.203125 132.671875 207.273438 C 133.394531 207.34375 134.113281 207.449219 134.824219 207.59375 C 135.539062 207.734375 136.242188 207.910156 136.9375 208.121094 C 137.632812 208.332031 138.316406 208.578125 138.988281 208.855469 C 139.660156 209.132812 140.316406 209.441406 140.957031 209.785156 C 141.597656 210.128906 142.21875 210.5 142.824219 210.90625 C 143.429688 211.308594 144.011719 211.742188 144.574219 212.203125 C 145.136719 212.664062 145.671875 213.152344 146.1875 213.664062 C 146.699219 214.179688 147.1875 214.714844 147.648438 215.277344 C 148.109375 215.839844 148.542969 216.421875 148.945312 217.027344 C 149.351562 217.632812 149.722656 218.253906 150.066406 218.894531 C 150.410156 219.535156 150.71875 220.191406 150.996094 220.863281 C 151.273438 221.535156 151.519531 222.21875 151.730469 222.914062 C 151.941406 223.609375 152.117188 224.3125 152.261719 225.027344 C 152.402344 225.738281 152.507812 226.457031 152.578125 227.179688 C 152.652344 227.902344 152.6875 228.628906 152.6875 229.355469 Z M 152.6875 229.355469 " fill-opacity="1" fill-rule="nonzero"/><path fill="#f6ce1e" d="M 191.996094 242.667969 C 160.1875 242.667969 134.304688 268.550781 134.304688 300.359375 C 134.304688 302.8125 136.292969 304.800781 138.742188 304.800781 L 245.25 304.800781 C 247.703125 304.800781 249.691406 302.8125 249.691406 300.359375 C 249.691406 268.550781 223.808594 242.667969 191.996094 242.667969 Z M 191.996094 242.667969 " fill-opacity="1" fill-rule="nonzero"/><g clip-path="url(#eae541e49a)"><path fill="#f6ce1e" d="M 138.148438 261.378906 C 135.433594 260.800781 132.671875 260.421875 129.867188 260.421875 C 107.847656 260.421875 89.925781 278.339844 89.925781 300.359375 C 89.925781 302.8125 91.914062 304.800781 94.363281 304.800781 L 126.246094 304.800781 C 125.75 303.40625 125.429688 301.921875 125.429688 300.359375 C 125.429688 285.796875 130.1875 272.347656 138.148438 261.378906 Z M 138.148438 261.378906 " fill-opacity="1" fill-rule="nonzero"/></g><g clip-path="url(#1da7c72a99)"><path fill="#f6ce1e" d="M 254.128906 260.421875 C 251.324219 260.421875 248.5625 260.800781 245.847656 261.378906 C 253.808594 272.347656 258.566406 285.796875 258.566406 300.359375 C 258.566406 301.921875 258.246094 303.40625 257.75 304.800781 L 289.628906 304.800781 C 292.082031 304.800781 294.070312 302.8125 294.070312 300.359375 C 294.070312 278.339844 276.148438 260.421875 254.128906 260.421875 Z M 254.128906 260.421875 " fill-opacity="1" fill-rule="nonzero"/></g></svg>