<svg xmlns="http://www.w3.org/2000/svg" xmlns:xlink="http://www.w3.org/1999/xlink" width="512" zoomAndPan="magnify" viewBox="0 0 384 383.999986" height="512" preserveAspectRatio="xMidYMid meet" version="1.0"><defs><clipPath id="186a1a1775"><path d="M 11.144531 13.773438 L 372.855469 13.773438 L 372.855469 375.484375 L 11.144531 375.484375 Z M 11.144531 13.773438 " clip-rule="nonzero"/></clipPath><clipPath id="d262fefed1"><path d="M 192 13.773438 C 92.117188 13.773438 11.144531 94.746094 11.144531 194.628906 C 11.144531 294.511719 92.117188 375.484375 192 375.484375 C 291.882812 375.484375 372.855469 294.511719 372.855469 194.628906 C 372.855469 94.746094 291.882812 13.773438 192 13.773438 Z M 192 13.773438 " clip-rule="nonzero"/></clipPath><clipPath id="e5383e8c1a"><path d="M 0.144531 0.773438 L 361.855469 0.773438 L 361.855469 362.484375 L 0.144531 362.484375 Z M 0.144531 0.773438 " clip-rule="nonzero"/></clipPath><clipPath id="71d0c1a3ce"><path d="M 181 0.773438 C 81.117188 0.773438 0.144531 81.746094 0.144531 181.628906 C 0.144531 281.511719 81.117188 362.484375 181 362.484375 C 280.882812 362.484375 361.855469 281.511719 361.855469 181.628906 C 361.855469 81.746094 280.882812 0.773438 181 0.773438 Z M 181 0.773438 " clip-rule="nonzero"/></clipPath><clipPath id="7a820dc79c"><rect x="0" width="362" y="0" height="363"/></clipPath><clipPath id="2d9f5d6977"><path d="M 84.671875 85.800781 L 300.671875 85.800781 L 300.671875 301.800781 L 84.671875 301.800781 Z M 84.671875 85.800781 " clip-rule="nonzero"/></clipPath></defs><g clip-path="url(#186a1a1775)"><g clip-path="url(#d262fefed1)"><g transform="matrix(1, 0, 0, 1, 11, 13)"><g clip-path="url(#7a820dc79c)"><g clip-path="url(#e5383e8c1a)"><g clip-path="url(#71d0c1a3ce)"><path fill="#000000" d="M 0.144531 0.773438 L 361.855469 0.773438 L 361.855469 362.484375 L 0.144531 362.484375 Z M 0.144531 0.773438 " fill-opacity="1" fill-rule="nonzero"/></g></g></g></g></g></g><g clip-path="url(#2d9f5d6977)"><path fill="#fbd333" d="M 300.824219 145.253906 L 300.824219 142.328125 C 300.824219 129.5625 292.660156 118.667969 281.28125 114.589844 C 285.046875 111.636719 287.476562 107.054688 287.476562 101.90625 C 287.476562 93.023438 280.25 85.796875 271.367188 85.796875 C 262.484375 85.796875 255.257812 93.023438 255.257812 101.90625 C 255.257812 103.359375 255.457031 104.761719 255.8125 106.105469 C 237.527344 92.9375 215.570312 85.796875 192.746094 85.796875 C 169.917969 85.796875 147.964844 92.9375 129.679688 106.105469 C 130.042969 104.761719 130.234375 103.359375 130.234375 101.90625 C 130.234375 93.023438 123.011719 85.796875 114.125 85.796875 C 105.242188 85.796875 98.019531 93.023438 98.019531 101.90625 C 98.019531 107.050781 100.445312 111.636719 104.210938 114.589844 C 92.828125 118.667969 84.667969 129.5625 84.667969 142.328125 L 84.667969 145.253906 C 84.667969 149.796875 87.785156 153.625 91.992188 154.71875 C 87.132812 167.191406 84.667969 180.34375 84.667969 193.882812 C 84.667969 212.25 89.355469 230.355469 98.21875 246.316406 C 98.089844 247.140625 98.023438 247.980469 98.023438 248.839844 C 98.023438 253.984375 100.449219 258.570312 104.214844 261.523438 C 92.835938 265.601562 84.667969 276.496094 84.667969 289.261719 L 84.667969 292.1875 C 84.667969 297.578125 89.054688 301.96875 94.449219 301.96875 L 133.808594 301.96875 C 139.199219 301.96875 143.589844 297.582031 143.589844 292.1875 L 143.589844 290.160156 C 158.730469 297.894531 175.621094 301.964844 192.746094 301.964844 C 209.867188 301.964844 226.757812 297.890625 241.898438 290.160156 L 241.898438 292.1875 C 241.898438 297.578125 246.285156 301.96875 251.679688 301.96875 L 291.039062 301.96875 C 296.429688 301.96875 300.820312 297.582031 300.820312 292.1875 L 300.820312 289.261719 C 300.820312 276.496094 292.652344 265.601562 281.277344 261.523438 C 285.042969 258.570312 287.46875 253.988281 287.46875 248.839844 C 287.46875 247.980469 287.402344 247.136719 287.273438 246.316406 C 296.140625 230.359375 300.824219 212.25 300.824219 193.882812 C 300.824219 180.34375 298.359375 167.191406 293.5 154.71875 C 297.707031 153.625 300.824219 149.796875 300.824219 145.253906 Z M 271.367188 91.183594 C 277.28125 91.183594 282.09375 95.996094 282.09375 101.910156 C 282.09375 107.824219 277.28125 112.636719 271.367188 112.636719 C 265.453125 112.636719 260.640625 107.824219 260.640625 101.910156 C 260.640625 95.996094 265.453125 91.183594 271.367188 91.183594 Z M 114.132812 91.183594 C 120.046875 91.183594 124.859375 95.996094 124.859375 101.910156 C 124.859375 107.824219 120.046875 112.636719 114.132812 112.636719 C 108.214844 112.636719 103.40625 107.824219 103.40625 101.910156 C 103.40625 95.996094 108.214844 91.183594 114.132812 91.183594 Z M 90.054688 145.253906 L 90.054688 142.328125 C 90.054688 129.050781 100.855469 118.253906 114.132812 118.253906 C 127.40625 118.253906 138.207031 129.054688 138.207031 142.328125 L 138.207031 145.253906 C 138.207031 147.679688 136.234375 149.652344 133.808594 149.652344 L 94.453125 149.652344 C 92.027344 149.652344 90.054688 147.679688 90.054688 145.253906 Z M 114.132812 259.558594 C 108.214844 259.558594 103.40625 254.746094 103.40625 248.832031 C 103.40625 242.917969 108.214844 238.105469 114.132812 238.105469 C 120.046875 238.105469 124.859375 242.917969 124.859375 248.832031 C 124.859375 254.746094 120.046875 259.558594 114.132812 259.558594 Z M 138.214844 292.175781 C 138.214844 294.601562 136.238281 296.574219 133.8125 296.574219 L 94.453125 296.574219 C 92.027344 296.574219 90.054688 294.601562 90.054688 292.175781 L 90.054688 289.25 C 90.054688 275.972656 100.855469 265.171875 114.132812 265.171875 C 127.40625 265.171875 138.207031 275.976562 138.207031 289.25 L 138.207031 292.175781 Z M 295.445312 289.253906 L 295.445312 292.179688 C 295.445312 294.605469 293.46875 296.578125 291.042969 296.578125 L 251.683594 296.578125 C 249.257812 296.578125 247.285156 294.605469 247.285156 292.179688 L 247.285156 289.253906 C 247.285156 275.976562 258.085938 265.175781 271.363281 265.175781 C 284.636719 265.175781 295.4375 275.980469 295.4375 289.253906 Z M 271.367188 259.558594 C 265.453125 259.558594 260.640625 254.746094 260.640625 248.832031 C 260.640625 242.917969 265.453125 238.105469 271.367188 238.105469 C 277.28125 238.105469 282.09375 242.917969 282.09375 248.832031 C 282.09375 254.746094 277.28125 259.558594 271.367188 259.558594 Z M 284.652344 239.742188 C 281.746094 235.507812 276.878906 232.722656 271.367188 232.722656 C 262.484375 232.722656 255.257812 239.949219 255.257812 248.832031 C 255.257812 253.976562 257.683594 258.5625 261.453125 261.511719 C 251.738281 264.992188 244.375 273.441406 242.421875 283.777344 C 227.296875 292.152344 210.152344 296.574219 192.75 296.574219 C 175.34375 296.574219 158.199219 292.152344 143.074219 283.777344 C 141.125 273.441406 133.761719 264.996094 124.046875 261.511719 C 127.8125 258.5625 130.238281 253.980469 130.238281 248.832031 C 130.238281 239.953125 123.015625 232.722656 114.132812 232.722656 C 108.621094 232.722656 103.75 235.507812 100.84375 239.742188 C 93.773438 225.574219 90.054688 209.828125 90.054688 193.875 C 90.054688 180.410156 92.621094 167.351562 97.664062 155.023438 L 133.8125 155.023438 C 139.203125 155.023438 143.59375 150.640625 143.59375 145.246094 L 143.59375 142.320312 C 143.59375 130.4375 136.519531 120.179688 126.355469 115.527344 C 144.894531 99.792969 168.300781 91.175781 192.75 91.175781 C 217.199219 91.175781 240.601562 99.792969 259.140625 115.527344 C 248.984375 120.179688 241.902344 130.4375 241.902344 142.320312 L 241.902344 145.246094 C 241.902344 150.632812 246.289062 155.023438 251.683594 155.023438 L 287.832031 155.023438 C 292.878906 167.351562 295.445312 180.410156 295.445312 193.875 C 295.445312 209.828125 291.726562 225.574219 284.652344 239.738281 Z M 295.445312 145.253906 C 295.445312 147.679688 293.46875 149.652344 291.042969 149.652344 L 251.683594 149.652344 C 249.257812 149.652344 247.285156 147.679688 247.285156 145.253906 L 247.285156 142.328125 C 247.285156 129.050781 258.085938 118.253906 271.363281 118.253906 C 284.636719 118.253906 295.4375 129.054688 295.4375 142.328125 L 295.4375 145.253906 Z M 192.75 143.535156 C 165.398438 143.535156 143.144531 162.5 143.144531 185.8125 C 143.144531 200.089844 151.707031 213.464844 165.648438 221.234375 L 159.679688 237.324219 C 158.894531 239.441406 159.574219 241.785156 161.363281 243.160156 C 162.285156 243.867188 163.375 244.222656 164.46875 244.222656 C 165.503906 244.222656 166.542969 243.902344 167.433594 243.269531 L 188.9375 227.96875 C 190.195312 228.050781 191.476562 228.089844 192.75 228.089844 C 220.101562 228.089844 242.351562 209.125 242.351562 185.816406 C 242.351562 162.503906 220.101562 143.539062 192.75 143.539062 Z M 192.75 222.710938 C 191.292969 222.710938 189.820312 222.652344 188.390625 222.535156 C 187.757812 222.480469 187.125 222.65625 186.609375 223.023438 L 165.027344 238.378906 L 171.515625 220.894531 C 171.996094 219.601562 171.421875 218.15625 170.1875 217.546875 C 156.828125 210.914062 148.527344 198.753906 148.527344 185.816406 C 148.527344 165.46875 168.367188 148.921875 192.75 148.921875 C 217.132812 148.921875 236.96875 165.472656 236.96875 185.816406 C 236.96875 206.15625 217.132812 222.710938 192.75 222.710938 Z M 220.625 175.84375 C 220.625 177.328125 219.417969 178.53125 217.933594 178.53125 L 167.570312 178.53125 C 166.085938 178.53125 164.878906 177.328125 164.878906 175.84375 C 164.878906 174.359375 166.085938 173.152344 167.570312 173.152344 L 217.933594 173.152344 C 219.417969 173.152344 220.625 174.359375 220.625 175.84375 Z M 207.195312 195.785156 C 207.195312 197.269531 205.988281 198.476562 204.503906 198.476562 L 167.5625 198.476562 C 166.078125 198.476562 164.875 197.269531 164.875 195.785156 C 164.875 194.300781 166.078125 193.09375 167.5625 193.09375 L 204.503906 193.09375 C 205.988281 193.09375 207.195312 194.300781 207.195312 195.785156 Z M 207.195312 195.785156 " fill-opacity="1" fill-rule="nonzero"/></g></svg>