<svg xmlns="http://www.w3.org/2000/svg" xmlns:xlink="http://www.w3.org/1999/xlink" width="512" zoomAndPan="magnify" viewBox="0 0 384 383.999986" height="512" preserveAspectRatio="xMidYMid meet" version="1.0"><defs><clipPath id="0a515d65f4"><path d="M 11.144531 11.144531 L 372.855469 11.144531 L 372.855469 372.855469 L 11.144531 372.855469 Z M 11.144531 11.144531 " clip-rule="nonzero"/></clipPath><clipPath id="9e4f1823bb"><path d="M 192 11.144531 C 92.117188 11.144531 11.144531 92.117188 11.144531 192 C 11.144531 291.882812 92.117188 372.855469 192 372.855469 C 291.882812 372.855469 372.855469 291.882812 372.855469 192 C 372.855469 92.117188 291.882812 11.144531 192 11.144531 Z M 192 11.144531 " clip-rule="nonzero"/></clipPath><clipPath id="4e0edf2792"><path d="M 0.144531 0.144531 L 361.855469 0.144531 L 361.855469 361.855469 L 0.144531 361.855469 Z M 0.144531 0.144531 " clip-rule="nonzero"/></clipPath><clipPath id="c450693079"><path d="M 181 0.144531 C 81.117188 0.144531 0.144531 81.117188 0.144531 181 C 0.144531 280.882812 81.117188 361.855469 181 361.855469 C 280.882812 361.855469 361.855469 280.882812 361.855469 181 C 361.855469 81.117188 280.882812 0.144531 181 0.144531 Z M 181 0.144531 " clip-rule="nonzero"/></clipPath><clipPath id="79a9e50c54"><rect x="0" width="362" y="0" height="362"/></clipPath><clipPath id="799d48d282"><path d="M 1 1 L 213 1 L 213 241.839844 L 1 241.839844 Z M 1 1 " clip-rule="nonzero"/></clipPath><clipPath id="3dfd48d65f"><path d="M 147 135 L 252.660156 135 L 252.660156 240 L 147 240 Z M 147 135 " clip-rule="nonzero"/></clipPath><clipPath id="67f7b2e05c"><path d="M 49.425781 52.140625 L 144.429688 52.140625 L 144.429688 147.148438 L 49.425781 147.148438 Z M 49.425781 52.140625 " clip-rule="nonzero"/></clipPath><clipPath id="798788d70c"><path d="M 63.859375 41.277344 L 158.863281 41.277344 L 158.863281 136.28125 L 63.859375 136.28125 Z M 63.859375 41.277344 " clip-rule="nonzero"/></clipPath><clipPath id="8a9007d00f"><path d="M 55.75 52.140625 L 150.757812 52.140625 L 150.757812 147.148438 L 55.75 147.148438 Z M 55.75 52.140625 " clip-rule="nonzero"/></clipPath><clipPath id="13c52800d1"><rect x="0" width="254" y="0" height="242"/></clipPath></defs><g clip-path="url(#0a515d65f4)"><g clip-path="url(#9e4f1823bb)"><g transform="matrix(1, 0, 0, 1, 11, 11)"><g clip-path="url(#79a9e50c54)"><g clip-path="url(#4e0edf2792)"><g clip-path="url(#c450693079)"><path fill="#000000" d="M 0.144531 0.144531 L 361.855469 0.144531 L 361.855469 361.855469 L 0.144531 361.855469 Z M 0.144531 0.144531 " fill-opacity="1" fill-rule="nonzero"/></g></g></g></g></g></g><g transform="matrix(1, 0, 0, 1, 76, 68)"><g clip-path="url(#13c52800d1)"><g clip-path="url(#799d48d282)"><path fill="#fbd333" d="M 91.527344 144.699219 C 89.492188 144.175781 87.761719 143.429688 86.335938 142.460938 C 86.414062 141.871094 86.453125 141.273438 86.453125 140.664062 L 86.453125 92.820312 C 97.015625 85.816406 102.53125 72.125 103 51.746094 C 105.203125 47.335938 108.683594 46.882812 113.441406 50.378906 C 121.117188 57.542969 123.628906 68.726562 120.972656 83.929688 L 141.234375 84.328125 C 145.71875 84.4375 149.003906 85.101562 151.089844 86.320312 C 156.957031 89.863281 158.273438 95.054688 155.035156 101.90625 C 156.917969 107.660156 155.40625 112.910156 152.382812 115.597656 C 153.410156 121.972656 151.699219 127.480469 148.191406 130.832031 C 147.191406 136.253906 145.496094 140.226562 143.105469 142.753906 C 141.988281 143.890625 140.605469 144.539062 138.957031 144.699219 Z M 72.195312 144.699219 L 61 144.699219 C 58.78125 144.699219 56.964844 142.882812 56.964844 140.664062 L 56.964844 92.417969 C 56.964844 90.199219 58.78125 88.382812 61 88.382812 L 72.195312 88.382812 C 74.414062 88.382812 76.230469 90.199219 76.230469 92.417969 L 76.230469 140.664062 C 76.230469 142.882812 74.414062 144.699219 72.195312 144.699219 Z M 141.050781 208.390625 C 131.636719 216.625 121.164062 224.308594 109.628906 231.449219 C 108.027344 232.480469 105.914062 232.574219 104.1875 231.507812 C 70.660156 210.777344 46.128906 185.449219 30.371094 155.417969 C 14.640625 125.449219 7.71875 90.910156 9.371094 51.695312 C 9.386719 49.691406 10.59375 47.796875 12.570312 47.003906 L 104.964844 9.90625 C 106.140625 9.4375 107.492188 9.398438 108.757812 9.90625 L 201.152344 47.003906 C 202.957031 47.730469 204.265625 49.464844 204.347656 51.535156 C 205.488281 78.222656 202.660156 102.742188 195.789062 125.132812 C 197.203125 125.039062 198.628906 124.984375 200.070312 124.984375 C 201.394531 124.984375 202.714844 125.03125 204.019531 125.113281 C 211.058594 100.984375 213.667969 74.433594 211.855469 45.46875 L 211.855469 45.449219 C 211.800781 44.597656 211.535156 43.839844 211.09375 43.230469 C 210.660156 42.628906 210.023438 42.140625 209.222656 41.820312 L 108.433594 1.351562 C 107.910156 1.140625 107.382812 1.035156 106.863281 1.035156 C 106.339844 1.035156 105.816406 1.140625 105.289062 1.351562 L 4.5 41.820312 C 3.703125 42.140625 3.066406 42.628906 2.628906 43.230469 C 2.203125 43.820312 1.9375 44.554688 1.875 45.375 L 1.871094 45.46875 C -0.84375 88.824219 6.351562 126.761719 23.464844 159.28125 C 40.566406 191.792969 67.652344 219.023438 104.710938 240.964844 C 105.40625 241.375 106.140625 241.578125 106.863281 241.578125 C 107.585938 241.578125 108.320312 241.375 109.011719 240.964844 C 122 233.277344 133.757812 224.9375 144.292969 215.953125 C 143.050781 213.519531 141.96875 210.992188 141.050781 208.390625 Z M 106.863281 221.164062 C 118.5 213.773438 128.953125 205.792969 138.238281 197.230469 C 137.75 194.078125 137.496094 190.847656 137.496094 187.558594 C 137.496094 158.375 157.476562 133.855469 184.503906 126.9375 C 191.839844 105.285156 195.078125 81.394531 194.285156 55.230469 L 106.863281 20.128906 L 19.4375 55.230469 C 18.347656 91.359375 24.933594 123.15625 39.390625 150.707031 C 53.859375 178.28125 76.289062 201.734375 106.863281 221.164062 Z M 106.863281 221.164062 " fill-opacity="1" fill-rule="evenodd"/></g><g clip-path="url(#3dfd48d65f)"><path fill="#1e2025" d="M 194.066406 190.894531 C 194.132812 190.976562 194.171875 190.992188 194.277344 190.992188 C 194.382812 190.992188 194.417969 190.976562 194.484375 190.894531 L 214.941406 165.722656 C 217.792969 162.214844 223.046875 161.664062 226.554688 164.515625 C 230.0625 167.367188 230.605469 172.625 227.757812 176.132812 L 200.855469 209.242188 C 200.445312 209.75 199.96875 210.207031 199.449219 210.601562 L 199.402344 210.636719 C 195.890625 213.453125 190.667969 212.890625 187.832031 209.402344 L 172.378906 190.390625 C 169.527344 186.882812 170.074219 181.625 173.582031 178.773438 C 177.09375 175.921875 182.347656 176.46875 185.199219 179.976562 Z M 200.070312 135.207031 C 171.152344 135.207031 147.714844 158.644531 147.714844 187.558594 C 147.714844 216.476562 171.152344 239.914062 200.070312 239.914062 C 228.984375 239.914062 252.421875 216.476562 252.421875 187.558594 C 252.421875 158.644531 228.984375 135.207031 200.070312 135.207031 Z M 200.070312 135.207031 " fill-opacity="1" fill-rule="evenodd"/></g><g clip-path="url(#67f7b2e05c)"><path fill="#fbd333" d="M 49.425781 147.148438 L 49.425781 52.140625 L 144.429688 52.140625 L 144.429688 147.148438 Z M 49.425781 147.148438 " fill-opacity="1" fill-rule="nonzero"/></g><g clip-path="url(#798788d70c)"><path fill="#fbd333" d="M 63.859375 136.28125 L 63.859375 41.277344 L 158.863281 41.277344 L 158.863281 136.28125 Z M 63.859375 136.28125 " fill-opacity="1" fill-rule="nonzero"/></g><g clip-path="url(#8a9007d00f)"><path fill="#fbd333" d="M 55.75 147.148438 L 55.75 52.140625 L 150.757812 52.140625 L 150.757812 147.148438 Z M 55.75 147.148438 " fill-opacity="1" fill-rule="nonzero"/></g></g></g></svg>