<svg xmlns="http://www.w3.org/2000/svg" xmlns:xlink="http://www.w3.org/1999/xlink" width="512" zoomAndPan="magnify" viewBox="0 0 384 383.999986" height="512" preserveAspectRatio="xMidYMid meet" version="1.0"><defs><clipPath id="ee6f465ed9"><path d="M 11.144531 11.144531 L 372.855469 11.144531 L 372.855469 372.855469 L 11.144531 372.855469 Z M 11.144531 11.144531 " clip-rule="nonzero"/></clipPath><clipPath id="229709b34c"><path d="M 192 11.144531 C 92.117188 11.144531 11.144531 92.117188 11.144531 192 C 11.144531 291.882812 92.117188 372.855469 192 372.855469 C 291.882812 372.855469 372.855469 291.882812 372.855469 192 C 372.855469 92.117188 291.882812 11.144531 192 11.144531 Z M 192 11.144531 " clip-rule="nonzero"/></clipPath><clipPath id="88b309ebb0"><path d="M 0.144531 0.144531 L 361.855469 0.144531 L 361.855469 361.855469 L 0.144531 361.855469 Z M 0.144531 0.144531 " clip-rule="nonzero"/></clipPath><clipPath id="b41f0d774d"><path d="M 181 0.144531 C 81.117188 0.144531 0.144531 81.117188 0.144531 181 C 0.144531 280.882812 81.117188 361.855469 181 361.855469 C 280.882812 361.855469 361.855469 280.882812 361.855469 181 C 361.855469 81.117188 280.882812 0.144531 181 0.144531 Z M 181 0.144531 " clip-rule="nonzero"/></clipPath><clipPath id="621bb158c0"><rect x="0" width="362" y="0" height="362"/></clipPath><clipPath id="864b8b6e59"><path d="M 77 69 L 289 69 L 289 309.632812 L 77 309.632812 Z M 77 69 " clip-rule="nonzero"/></clipPath><clipPath id="caaf38e25c"><path d="M 223 203 L 328.660156 203 L 328.660156 308 L 223 308 Z M 223 203 " clip-rule="nonzero"/></clipPath><clipPath id="e4925a4eee"><path d="M 125.425781 120.140625 L 220.429688 120.140625 L 220.429688 215.144531 L 125.425781 215.144531 Z M 125.425781 120.140625 " clip-rule="nonzero"/></clipPath><clipPath id="a4552b9d61"><path d="M 139.859375 109.277344 L 234.863281 109.277344 L 234.863281 204.28125 L 139.859375 204.28125 Z M 139.859375 109.277344 " clip-rule="nonzero"/></clipPath><clipPath id="dd7f72fd49"><path d="M 131.75 120.140625 L 226.753906 120.140625 L 226.753906 215.144531 L 131.75 215.144531 Z M 131.75 120.140625 " clip-rule="nonzero"/></clipPath></defs><g clip-path="url(#ee6f465ed9)"><g clip-path="url(#229709b34c)"><g transform="matrix(1, 0, 0, 1, 11, 11)"><g clip-path="url(#621bb158c0)"><g clip-path="url(#88b309ebb0)"><g clip-path="url(#b41f0d774d)"><path fill="#b70021" d="M 0.144531 0.144531 L 361.855469 0.144531 L 361.855469 361.855469 L 0.144531 361.855469 Z M 0.144531 0.144531 " fill-opacity="1" fill-rule="nonzero"/></g></g></g></g></g></g><g clip-path="url(#864b8b6e59)"><path fill="#fbd333" d="M 167.527344 212.695312 C 165.492188 212.171875 163.761719 211.425781 162.335938 210.457031 C 162.410156 209.867188 162.449219 209.269531 162.449219 208.660156 L 162.449219 160.820312 C 173.011719 153.8125 178.527344 140.125 178.996094 119.746094 C 181.203125 115.335938 184.683594 114.878906 189.4375 118.375 C 197.117188 125.539062 199.628906 136.722656 196.96875 151.929688 L 217.230469 152.324219 C 221.71875 152.433594 225 153.097656 227.085938 154.316406 C 232.953125 157.859375 234.269531 163.050781 231.035156 169.902344 C 232.917969 175.65625 231.40625 180.90625 228.382812 183.597656 C 229.40625 189.96875 227.695312 195.476562 224.1875 198.832031 C 223.191406 204.25 221.496094 208.222656 219.105469 210.75 C 217.988281 211.886719 216.605469 212.535156 214.953125 212.695312 Z M 148.195312 212.695312 L 137 212.695312 C 134.777344 212.695312 132.964844 210.882812 132.964844 208.660156 L 132.964844 160.414062 C 132.964844 158.195312 134.777344 156.378906 137 156.378906 L 148.195312 156.378906 C 150.414062 156.378906 152.230469 158.195312 152.230469 160.414062 L 152.230469 208.660156 C 152.230469 210.882812 150.414062 212.695312 148.195312 212.695312 Z M 217.046875 276.386719 C 207.632812 284.621094 197.164062 292.304688 185.625 299.445312 C 184.027344 300.476562 181.914062 300.566406 180.1875 299.503906 C 146.660156 278.773438 122.128906 253.445312 106.367188 223.417969 C 90.640625 193.445312 83.71875 158.90625 85.371094 119.695312 C 85.386719 117.6875 86.59375 115.792969 88.570312 115 L 180.964844 77.90625 C 182.140625 77.433594 183.488281 77.398438 184.757812 77.90625 L 277.148438 115 L 277.148438 115.003906 C 278.957031 115.726562 280.261719 117.460938 280.34375 119.53125 C 281.488281 146.21875 278.65625 170.738281 271.785156 193.132812 C 273.199219 193.035156 274.628906 192.984375 276.066406 192.984375 C 277.394531 192.984375 278.710938 193.03125 280.019531 193.109375 C 287.054688 168.980469 289.667969 142.433594 287.851562 113.464844 L 287.851562 113.445312 C 287.800781 112.59375 287.53125 111.835938 287.09375 111.226562 C 286.65625 110.625 286.019531 110.136719 285.222656 109.816406 L 184.433594 69.351562 C 183.90625 69.140625 183.382812 69.035156 182.859375 69.035156 C 182.339844 69.035156 181.8125 69.140625 181.289062 69.351562 L 80.5 109.816406 C 79.703125 110.136719 79.066406 110.625 78.628906 111.226562 C 78.203125 111.816406 77.9375 112.550781 77.875 113.371094 L 77.871094 113.464844 C 75.15625 156.820312 82.351562 194.757812 99.460938 227.277344 C 116.566406 259.789062 143.652344 287.019531 180.710938 308.957031 C 181.402344 309.367188 182.140625 309.574219 182.863281 309.574219 C 183.582031 309.574219 184.320312 309.367188 185.011719 308.957031 C 197.996094 301.269531 209.753906 292.933594 220.289062 283.949219 C 219.050781 281.515625 217.96875 278.988281 217.046875 276.386719 Z M 182.863281 289.160156 C 194.496094 281.769531 204.953125 273.789062 214.238281 265.226562 C 213.75 262.074219 213.492188 258.84375 213.492188 255.554688 C 213.492188 226.371094 233.472656 201.851562 260.503906 194.933594 C 267.839844 173.28125 271.074219 149.390625 270.285156 123.230469 L 182.859375 88.128906 L 95.4375 123.230469 C 94.347656 159.359375 100.929688 191.152344 115.390625 218.707031 C 129.859375 246.28125 152.285156 269.730469 182.863281 289.160156 Z M 182.863281 289.160156 " fill-opacity="1" fill-rule="evenodd"/></g><g clip-path="url(#caaf38e25c)"><path fill="#171717" d="M 270.066406 258.890625 C 270.132812 258.972656 270.167969 258.988281 270.273438 258.988281 C 270.378906 258.988281 270.414062 258.972656 270.480469 258.890625 L 290.9375 233.71875 C 293.789062 230.210938 299.042969 229.664062 302.550781 232.511719 C 306.0625 235.363281 306.605469 240.621094 303.753906 244.128906 L 276.851562 277.238281 C 276.441406 277.746094 275.964844 278.203125 275.445312 278.597656 L 275.398438 278.632812 C 271.886719 281.445312 266.667969 280.886719 263.828125 277.394531 L 248.378906 258.386719 C 245.527344 254.878906 246.074219 249.621094 249.582031 246.769531 C 253.089844 243.917969 258.347656 244.464844 261.195312 247.972656 Z M 276.066406 203.203125 C 247.152344 203.203125 223.710938 226.640625 223.710938 255.554688 C 223.710938 284.472656 247.152344 307.910156 276.066406 307.910156 C 304.980469 307.910156 328.421875 284.472656 328.421875 255.554688 C 328.421875 226.640625 304.980469 203.203125 276.066406 203.203125 Z M 276.066406 203.203125 " fill-opacity="1" fill-rule="evenodd"/></g><g clip-path="url(#e4925a4eee)"><path fill="#fbd333" d="M 125.425781 215.144531 L 125.425781 120.140625 L 220.429688 120.140625 L 220.429688 215.144531 Z M 125.425781 215.144531 " fill-opacity="1" fill-rule="nonzero"/></g><g clip-path="url(#a4552b9d61)"><path fill="#fbd333" d="M 139.859375 204.28125 L 139.859375 109.277344 L 234.863281 109.277344 L 234.863281 204.28125 Z M 139.859375 204.28125 " fill-opacity="1" fill-rule="nonzero"/></g><g clip-path="url(#dd7f72fd49)"><path fill="#fbd333" d="M 131.75 215.144531 L 131.75 120.140625 L 226.753906 120.140625 L 226.753906 215.144531 Z M 131.75 215.144531 " fill-opacity="1" fill-rule="nonzero"/></g></svg>