<svg xmlns="http://www.w3.org/2000/svg" xmlns:xlink="http://www.w3.org/1999/xlink" width="512" zoomAndPan="magnify" viewBox="0 0 384 383.999986" height="512" preserveAspectRatio="xMidYMid meet" version="1.0"><defs><clipPath id="af5d99c014"><path d="M 11.144531 13.773438 L 372.855469 13.773438 L 372.855469 375.484375 L 11.144531 375.484375 Z M 11.144531 13.773438 " clip-rule="nonzero"/></clipPath><clipPath id="5671478055"><path d="M 192 13.773438 C 92.117188 13.773438 11.144531 94.746094 11.144531 194.628906 C 11.144531 294.511719 92.117188 375.484375 192 375.484375 C 291.882812 375.484375 372.855469 294.511719 372.855469 194.628906 C 372.855469 94.746094 291.882812 13.773438 192 13.773438 Z M 192 13.773438 " clip-rule="nonzero"/></clipPath><clipPath id="6a39d96aad"><path d="M 0.144531 0.773438 L 361.855469 0.773438 L 361.855469 362.484375 L 0.144531 362.484375 Z M 0.144531 0.773438 " clip-rule="nonzero"/></clipPath><clipPath id="a72c90c743"><path d="M 181 0.773438 C 81.117188 0.773438 0.144531 81.746094 0.144531 181.628906 C 0.144531 281.511719 81.117188 362.484375 181 362.484375 C 280.882812 362.484375 361.855469 281.511719 361.855469 181.628906 C 361.855469 81.746094 280.882812 0.773438 181 0.773438 Z M 181 0.773438 " clip-rule="nonzero"/></clipPath><clipPath id="a84f7cf6b0"><rect x="0" width="362" y="0" height="363"/></clipPath><clipPath id="44dd7ba3a7"><path d="M 77 248 L 108 248 L 108 282.230469 L 77 282.230469 Z M 77 248 " clip-rule="nonzero"/></clipPath><clipPath id="3e9b2421c7"><path d="M 256 248 L 287 248 L 287 282.230469 L 256 282.230469 Z M 256 248 " clip-rule="nonzero"/></clipPath><clipPath id="e9cc76aa03"><path d="M 72 120.230469 L 291.664062 120.230469 L 291.664062 269 L 72 269 Z M 72 120.230469 " clip-rule="nonzero"/></clipPath><clipPath id="350d62c387"><path d="M 198.375 88.890625 L 301.769531 88.890625 L 301.769531 192.285156 L 198.375 192.285156 Z M 198.375 88.890625 " clip-rule="nonzero"/></clipPath><clipPath id="f5d9609ea6"><path d="M 250.070312 88.890625 C 221.519531 88.890625 198.375 112.035156 198.375 140.589844 C 198.375 169.140625 221.519531 192.285156 250.070312 192.285156 C 278.625 192.285156 301.769531 169.140625 301.769531 140.589844 C 301.769531 112.035156 278.625 88.890625 250.070312 88.890625 Z M 250.070312 88.890625 " clip-rule="nonzero"/></clipPath><clipPath id="f9cb62b5be"><path d="M 0.375 0.890625 L 103.769531 0.890625 L 103.769531 104.285156 L 0.375 104.285156 Z M 0.375 0.890625 " clip-rule="nonzero"/></clipPath><clipPath id="588f14ba1c"><path d="M 52.070312 0.890625 C 23.519531 0.890625 0.375 24.035156 0.375 52.589844 C 0.375 81.140625 23.519531 104.285156 52.070312 104.285156 C 80.625 104.285156 103.769531 81.140625 103.769531 52.589844 C 103.769531 24.035156 80.625 0.890625 52.070312 0.890625 Z M 52.070312 0.890625 " clip-rule="nonzero"/></clipPath><clipPath id="d2a50db261"><rect x="0" width="104" y="0" height="105"/></clipPath><clipPath id="2d06630d8f"><path d="M 192.191406 82.035156 L 309.300781 82.035156 L 309.300781 199.140625 L 192.191406 199.140625 Z M 192.191406 82.035156 " clip-rule="nonzero"/></clipPath><clipPath id="15f1728165"><path d="M 250.746094 82.035156 C 218.40625 82.035156 192.191406 108.25 192.191406 140.589844 C 192.191406 172.925781 218.40625 199.140625 250.746094 199.140625 C 283.082031 199.140625 309.300781 172.925781 309.300781 140.589844 C 309.300781 108.25 283.082031 82.035156 250.746094 82.035156 Z M 250.746094 82.035156 " clip-rule="nonzero"/></clipPath><clipPath id="68eed37386"><path d="M 0.191406 0.0351562 L 117.300781 0.0351562 L 117.300781 117.140625 L 0.191406 117.140625 Z M 0.191406 0.0351562 " clip-rule="nonzero"/></clipPath><clipPath id="6225ca1485"><path d="M 58.746094 0.0351562 C 26.40625 0.0351562 0.191406 26.25 0.191406 58.589844 C 0.191406 90.925781 26.40625 117.140625 58.746094 117.140625 C 91.082031 117.140625 117.300781 90.925781 117.300781 58.589844 C 117.300781 26.25 91.082031 0.0351562 58.746094 0.0351562 Z M 58.746094 0.0351562 " clip-rule="nonzero"/></clipPath><clipPath id="645be1278a"><rect x="0" width="118" y="0" height="118"/></clipPath><clipPath id="a8ae27d7f1"><path d="M 192.191406 82.035156 L 309.191406 82.035156 L 309.191406 199.035156 L 192.191406 199.035156 Z M 192.191406 82.035156 " clip-rule="nonzero"/></clipPath><clipPath id="4edafdb05c"><path d="M 250.742188 82.035156 C 218.40625 82.035156 192.191406 108.25 192.191406 140.585938 C 192.191406 172.925781 218.40625 199.140625 250.742188 199.140625 C 283.082031 199.140625 309.296875 172.925781 309.296875 140.585938 C 309.296875 108.25 283.082031 82.035156 250.742188 82.035156 Z M 250.742188 82.035156 " clip-rule="nonzero"/></clipPath><clipPath id="71cc30324d"><path d="M 275 174 L 349 174 L 349 254 L 275 254 Z M 275 174 " clip-rule="nonzero"/></clipPath><clipPath id="8fbec4271c"><path d="M 274.550781 191.734375 L 296.289062 173.304688 L 350.144531 236.820312 L 328.40625 255.253906 Z M 274.550781 191.734375 " clip-rule="nonzero"/></clipPath><clipPath id="6a8660e8d8"><path d="M 276.835938 189.796875 L 294 175.242188 C 294.605469 174.730469 295.394531 174.476562 296.1875 174.542969 C 296.980469 174.605469 297.714844 174.984375 298.226562 175.589844 L 348.160156 234.480469 C 348.675781 235.085938 348.929688 235.875 348.863281 236.667969 C 348.796875 237.460938 348.421875 238.195312 347.8125 238.710938 L 330.652344 253.261719 C 330.046875 253.777344 329.257812 254.027344 328.464844 253.964844 C 327.671875 253.898438 326.9375 253.519531 326.421875 252.914062 L 276.488281 194.023438 C 275.976562 193.417969 275.722656 192.628906 275.789062 191.835938 C 275.851562 191.042969 276.230469 190.308594 276.835938 189.796875 Z M 276.835938 189.796875 " clip-rule="nonzero"/></clipPath><clipPath id="8213433fc2"><path d="M 0.519531 0.238281 L 73.960938 0.238281 L 73.960938 80 L 0.519531 80 Z M 0.519531 0.238281 " clip-rule="nonzero"/></clipPath><clipPath id="c9a202ba9c"><path d="M -0.449219 17.734375 L 21.289062 -0.695312 L 75.144531 62.820312 L 53.40625 81.253906 Z M -0.449219 17.734375 " clip-rule="nonzero"/></clipPath><clipPath id="c170df559d"><path d="M 1.835938 15.796875 L 19 1.242188 C 19.605469 0.730469 20.394531 0.476562 21.1875 0.542969 C 21.980469 0.605469 22.714844 0.984375 23.226562 1.589844 L 73.160156 60.480469 C 73.675781 61.085938 73.929688 61.875 73.863281 62.667969 C 73.796875 63.460938 73.421875 64.195312 72.8125 64.710938 L 55.652344 79.261719 C 55.046875 79.777344 54.257812 80.027344 53.464844 79.964844 C 52.671875 79.898438 51.9375 79.519531 51.421875 78.914062 L 1.488281 20.023438 C 0.976562 19.417969 0.722656 18.628906 0.789062 17.835938 C 0.851562 17.042969 1.230469 16.308594 1.835938 15.796875 Z M 1.835938 15.796875 " clip-rule="nonzero"/></clipPath><clipPath id="3a89357765"><rect x="0" width="74" y="0" height="80"/></clipPath><clipPath id="a2435cf0b4"><path d="M 217.367188 113.6875 L 285.617188 113.6875 L 285.617188 167.6875 L 217.367188 167.6875 Z M 217.367188 113.6875 " clip-rule="nonzero"/></clipPath></defs><g clip-path="url(#af5d99c014)"><g clip-path="url(#5671478055)"><g transform="matrix(1, 0, 0, 1, 11, 13)"><g clip-path="url(#a84f7cf6b0)"><g clip-path="url(#6a39d96aad)"><g clip-path="url(#a72c90c743)"><path fill="#b70021" d="M 0.144531 0.773438 L 361.855469 0.773438 L 361.855469 362.484375 L 0.144531 362.484375 Z M 0.144531 0.773438 " fill-opacity="1" fill-rule="nonzero"/></g></g></g></g></g></g><g clip-path="url(#44dd7ba3a7)"><path fill="#fbd333" d="M 79.1875 258.832031 L 77.78125 248.585938 L 77.78125 277.726562 C 77.78125 280.339844 79.898438 282.453125 82.507812 282.453125 L 103.007812 282.453125 C 105.621094 282.453125 107.734375 280.339844 107.734375 277.726562 L 107.734375 272.789062 L 95.1875 272.789062 C 87.289062 272.789062 80.261719 266.660156 79.1875 258.832031 " fill-opacity="1" fill-rule="nonzero"/></g><g clip-path="url(#3e9b2421c7)"><path fill="#fbd333" d="M 268.664062 272.789062 L 256.117188 272.789062 L 256.117188 277.726562 C 256.117188 280.339844 258.230469 282.453125 260.84375 282.453125 L 281.34375 282.453125 C 283.953125 282.453125 286.070312 280.339844 286.070312 277.726562 L 286.070312 248.574219 L 284.664062 258.832031 C 283.589844 266.65625 276.558594 272.789062 268.664062 272.789062 " fill-opacity="1" fill-rule="nonzero"/></g><path fill="#fbd333" d="M 151.273438 225.402344 L 212.578125 225.402344 L 214.097656 218.699219 L 149.753906 218.699219 L 151.273438 225.402344 " fill-opacity="1" fill-rule="nonzero"/><path fill="#fbd333" d="M 152.539062 230.972656 C 153.234375 234.042969 156.484375 236.636719 159.632812 236.636719 L 204.21875 236.636719 C 207.367188 236.636719 210.617188 234.042969 211.3125 230.972656 L 211.503906 230.128906 L 152.347656 230.128906 L 152.539062 230.972656 " fill-opacity="1" fill-rule="nonzero"/><path fill="#fbd333" d="M 211.914062 207.46875 L 151.9375 207.46875 C 150.621094 207.46875 149.527344 207.9375 148.847656 208.785156 C 148.171875 209.632812 147.960938 210.804688 148.25 212.085938 L 148.679688 213.976562 L 215.171875 213.976562 L 215.601562 212.085938 C 215.890625 210.804688 215.679688 209.632812 215.003906 208.785156 C 214.324219 207.9375 213.226562 207.46875 211.914062 207.46875 " fill-opacity="1" fill-rule="nonzero"/><g clip-path="url(#e9cc76aa03)"><path fill="#fbd333" d="M 247.617188 239.503906 C 238.253906 239.503906 230.667969 231.914062 230.667969 222.554688 C 230.667969 213.195312 238.253906 205.609375 247.617188 205.609375 C 256.976562 205.609375 264.5625 213.195312 264.5625 222.554688 C 264.5625 231.914062 256.976562 239.503906 247.617188 239.503906 Z M 220.210938 213.132812 L 215.925781 232.019531 C 214.734375 237.257812 209.59375 241.363281 204.222656 241.363281 L 159.632812 241.363281 C 154.261719 241.363281 149.117188 237.257812 147.929688 232.019531 L 143.640625 213.132812 C 143.035156 210.460938 143.585938 207.800781 145.15625 205.835938 C 146.726562 203.871094 149.195312 202.742188 151.9375 202.742188 L 211.914062 202.742188 C 214.65625 202.742188 217.125 203.871094 218.695312 205.835938 C 220.265625 207.800781 220.816406 210.460938 220.210938 213.132812 Z M 214.738281 260.78125 C 214.738281 263.390625 212.621094 265.507812 210.011719 265.507812 L 153.839844 265.507812 C 151.226562 265.507812 149.113281 263.390625 149.113281 260.78125 L 149.113281 250.574219 C 149.113281 247.960938 151.226562 245.847656 153.839844 245.847656 L 210.011719 245.847656 C 212.621094 245.847656 214.738281 247.960938 214.738281 250.574219 Z M 116.234375 239.503906 C 106.875 239.503906 99.289062 231.914062 99.289062 222.554688 C 99.289062 213.195312 106.875 205.609375 116.234375 205.609375 C 125.59375 205.609375 133.183594 213.195312 133.183594 222.554688 C 133.183594 231.914062 125.59375 239.503906 116.234375 239.503906 Z M 123.769531 133.277344 C 124.339844 131.925781 126.945312 130.195312 128.417969 130.195312 L 235.433594 130.195312 C 236.90625 130.195312 239.511719 131.925781 240.082031 133.28125 L 259.835938 180.191406 L 104.011719 180.195312 Z M 291.449219 169.53125 C 291.152344 166.945312 288.796875 165.074219 286.21875 165.367188 L 270.15625 167.199219 C 268.402344 167.398438 267.042969 168.585938 266.398438 170.109375 L 249.261719 129.414062 C 247.132812 124.367188 240.914062 120.234375 235.433594 120.234375 L 128.417969 120.234375 C 122.9375 120.234375 116.71875 124.367188 114.589844 129.414062 L 97.453125 170.109375 C 96.8125 168.585938 95.449219 167.398438 93.695312 167.199219 L 77.636719 165.367188 C 75.054688 165.074219 72.699219 166.945312 72.402344 169.53125 L 72.234375 171.027344 C 71.9375 173.605469 73.726562 176.355469 76.207031 177.125 L 91.585938 181.929688 C 89.101562 185.40625 85.914062 188.710938 83.117188 190.488281 C 78.796875 193.226562 75.875 199.90625 76.621094 205.335938 L 83.871094 258.191406 C 84.617188 263.621094 89.707031 268.0625 95.1875 268.0625 L 268.660156 268.0625 C 274.144531 268.0625 279.234375 263.621094 279.980469 258.191406 L 287.230469 205.335938 C 287.976562 199.90625 285.050781 193.226562 280.734375 190.488281 C 277.9375 188.710938 274.75 185.40625 272.265625 181.929688 L 287.644531 177.125 C 290.125 176.355469 291.914062 173.605469 291.621094 171.027344 L 291.449219 169.53125 " fill-opacity="1" fill-rule="nonzero"/></g><g clip-path="url(#350d62c387)"><g clip-path="url(#f5d9609ea6)"><g transform="matrix(1, 0, 0, 1, 198, 88)"><g clip-path="url(#d2a50db261)"><g clip-path="url(#f9cb62b5be)"><g clip-path="url(#588f14ba1c)"><path fill="#000000" d="M 0.375 0.890625 L 103.769531 0.890625 L 103.769531 104.285156 L 0.375 104.285156 Z M 0.375 0.890625 " fill-opacity="1" fill-rule="nonzero"/></g></g></g></g></g></g><g clip-path="url(#2d06630d8f)"><g clip-path="url(#15f1728165)"><g transform="matrix(1, 0, 0, 1, 192, 82)"><g clip-path="url(#645be1278a)"><g clip-path="url(#68eed37386)"><g clip-path="url(#6225ca1485)"><path fill="#ffffff" d="M 0.191406 0.0351562 L 117.300781 0.0351562 L 117.300781 117.140625 L 0.191406 117.140625 Z M 0.191406 0.0351562 " fill-opacity="1" fill-rule="nonzero"/></g></g></g></g></g></g><g clip-path="url(#a8ae27d7f1)"><g clip-path="url(#4edafdb05c)"><path stroke-linecap="butt" transform="matrix(0.75, 0, 0, 0.75, 192.191198, 82.034526)" fill="none" stroke-linejoin="miter" d="M 78.067993 0.000840993 C 34.953406 0.000840993 0.00027822 34.953969 0.00027822 78.068556 C 0.00027822 121.188351 34.953406 156.141478 78.067993 156.141478 C 121.187788 156.141478 156.140916 121.188351 156.140916 78.068556 C 156.140916 34.953969 121.187788 0.000840993 78.067993 0.000840993 Z M 78.067993 0.000840993 " stroke="#fbd333" stroke-width="28" stroke-opacity="1" stroke-miterlimit="4"/></g></g><g clip-path="url(#71cc30324d)"><g clip-path="url(#8fbec4271c)"><g clip-path="url(#6a8660e8d8)"><g transform="matrix(1, 0, 0, 1, 275, 174)"><g clip-path="url(#3a89357765)"><g clip-path="url(#8213433fc2)"><g clip-path="url(#c9a202ba9c)"><g clip-path="url(#c170df559d)"><path fill="#f6ce1e" d="M -0.449219 17.734375 L 21.289062 -0.695312 L 75.074219 62.734375 L 53.335938 81.167969 Z M -0.449219 17.734375 " fill-opacity="1" fill-rule="nonzero"/></g></g></g></g></g></g></g></g><g clip-path="url(#a2435cf0b4)"><path fill="#000000" d="M 240.890625 167.488281 L 217.582031 144.179688 L 226.871094 134.886719 L 240.890625 148.90625 L 276.113281 113.6875 L 285.402344 122.972656 Z M 240.890625 167.488281 " fill-opacity="1" fill-rule="nonzero"/></g></svg>