<svg xmlns="http://www.w3.org/2000/svg" xmlns:xlink="http://www.w3.org/1999/xlink" width="512" zoomAndPan="magnify" viewBox="0 0 384 383.999986" height="512" preserveAspectRatio="xMidYMid meet" version="1.0"><defs><clipPath id="a8cfd23aa4"><path d="M 11.144531 13.773438 L 372.855469 13.773438 L 372.855469 375.484375 L 11.144531 375.484375 Z M 11.144531 13.773438 " clip-rule="nonzero"/></clipPath><clipPath id="99e646d8e5"><path d="M 192 13.773438 C 92.117188 13.773438 11.144531 94.746094 11.144531 194.628906 C 11.144531 294.511719 92.117188 375.484375 192 375.484375 C 291.882812 375.484375 372.855469 294.511719 372.855469 194.628906 C 372.855469 94.746094 291.882812 13.773438 192 13.773438 Z M 192 13.773438 " clip-rule="nonzero"/></clipPath><clipPath id="679b911a71"><path d="M 0.144531 0.773438 L 361.855469 0.773438 L 361.855469 362.484375 L 0.144531 362.484375 Z M 0.144531 0.773438 " clip-rule="nonzero"/></clipPath><clipPath id="76f5c4c06f"><path d="M 181 0.773438 C 81.117188 0.773438 0.144531 81.746094 0.144531 181.628906 C 0.144531 281.511719 81.117188 362.484375 181 362.484375 C 280.882812 362.484375 361.855469 281.511719 361.855469 181.628906 C 361.855469 81.746094 280.882812 0.773438 181 0.773438 Z M 181 0.773438 " clip-rule="nonzero"/></clipPath><clipPath id="cf2878c10d"><rect x="0" width="362" y="0" height="363"/></clipPath><clipPath id="1f9be9efc1"><path d="M 236 107 L 318.171875 107 L 318.171875 234 L 236 234 Z M 236 107 " clip-rule="nonzero"/></clipPath><clipPath id="535b1c97ed"><path d="M 67.671875 100.144531 L 153 100.144531 L 153 233 L 67.671875 233 Z M 67.671875 100.144531 " clip-rule="nonzero"/></clipPath><clipPath id="dfb89c1fff"><path d="M 110 196 L 238 196 L 238 310.601562 L 110 310.601562 Z M 110 196 " clip-rule="nonzero"/></clipPath></defs><g clip-path="url(#a8cfd23aa4)"><g clip-path="url(#99e646d8e5)"><g transform="matrix(1, 0, 0, 1, 11, 13)"><g clip-path="url(#cf2878c10d)"><g clip-path="url(#679b911a71)"><g clip-path="url(#76f5c4c06f)"><path fill="#b70021" d="M 0.144531 0.773438 L 361.855469 0.773438 L 361.855469 362.484375 L 0.144531 362.484375 Z M 0.144531 0.773438 " fill-opacity="1" fill-rule="nonzero"/></g></g></g></g></g></g><g clip-path="url(#1f9be9efc1)"><path fill="#fbd333" d="M 237.898438 183.128906 C 236.609375 181.769531 236.652344 179.632812 238.007812 178.34375 C 238.03125 178.320312 238.078125 178.277344 238.121094 178.230469 C 262.089844 157.3125 283.320312 133.476562 301.347656 107.238281 C 299.296875 140.867188 305.128906 174.492188 318.347656 205.472656 C 308.46875 213.949219 299.007812 222.917969 290.039062 232.375 C 288.75 233.734375 286.613281 233.777344 285.257812 232.488281 C 285.210938 232.464844 285.167969 232.421875 285.144531 232.375 L 237.898438 183.128906 " fill-opacity="1" fill-rule="nonzero"/></g><g clip-path="url(#535b1c97ed)"><path fill="#fbd333" d="M 103.636719 231.664062 C 102.324219 232.976562 100.1875 232.976562 98.851562 231.664062 C 98.808594 231.621094 98.785156 231.597656 98.738281 231.554688 C 88.96875 220.828125 78.601562 210.679688 67.671875 201.132812 C 81.847656 169.507812 88.214844 134.945312 86.253906 100.339844 C 104.480469 129.226562 126.535156 155.507812 151.773438 178.519531 C 153.175781 179.746094 153.308594 181.882812 152.085938 183.285156 C 152.039062 183.328125 151.996094 183.371094 151.949219 183.417969 L 103.636719 231.664062 " fill-opacity="1" fill-rule="nonzero"/></g><path fill="#fbd333" d="M 244.285156 230.351562 C 245.265625 230.0625 245.796875 229.015625 245.507812 228.039062 C 245.199219 227.082031 244.175781 226.523438 243.21875 226.8125 C 227.347656 231.554688 210.414062 231.332031 194.679688 226.167969 L 177.300781 243.546875 C 174.207031 246.574219 169.265625 246.507812 166.238281 243.4375 C 163.257812 240.386719 163.257812 235.515625 166.238281 232.488281 L 185.3125 213.417969 C 189.183594 209.542969 194.523438 207.519531 199.976562 207.875 C 209.613281 208.476562 219.269531 208.007812 228.796875 206.515625 C 235.539062 205.582031 241.414062 201.488281 244.640625 195.523438 L 277.644531 229.929688 C 268.363281 255.011719 252.785156 277.265625 232.378906 294.535156 C 232.289062 292.175781 231.464844 289.90625 230.042969 288.035156 C 236.386719 287.859375 241.414062 282.5625 241.257812 276.195312 C 241.167969 273.257812 239.96875 270.453125 237.875 268.363281 L 201.378906 231.84375 C 215.578125 235.023438 230.332031 234.511719 244.261719 230.351562 L 244.285156 230.351562 " fill-opacity="1" fill-rule="nonzero"/><g clip-path="url(#dfb89c1fff)"><path fill="#fbd333" d="M 184.84375 208.898438 C 184.085938 209.476562 183.375 210.121094 182.707031 210.789062 L 163.632812 229.863281 C 159.140625 234.378906 159.140625 241.679688 163.65625 246.175781 C 168.152344 250.648438 175.429688 250.648438 179.925781 246.175781 L 195.191406 230.90625 L 235.273438 270.964844 C 238.296875 274.058594 238.277344 279 235.183594 282.050781 C 232.132812 285.03125 227.261719 285.03125 224.1875 282.050781 L 198.550781 256.390625 C 197.816406 255.675781 196.660156 255.699219 195.949219 256.410156 C 195.234375 257.144531 195.234375 258.28125 195.949219 259.015625 L 226.414062 289.480469 C 229.464844 292.554688 229.417969 297.515625 226.347656 300.542969 C 223.300781 303.570312 218.402344 303.570312 215.332031 300.542969 L 184.886719 270.078125 C 184.132812 269.363281 182.972656 269.386719 182.261719 270.144531 C 181.570312 270.855469 181.570312 271.96875 182.261719 272.703125 L 206.851562 297.292969 C 209.878906 300.363281 209.855469 305.304688 206.765625 308.355469 C 203.714844 311.359375 198.839844 311.359375 195.792969 308.355469 L 171.203125 283.761719 C 170.445312 283.050781 169.289062 283.09375 168.574219 283.828125 C 167.90625 284.542969 167.90625 285.65625 168.574219 286.367188 L 177.453125 295.269531 C 180.503906 298.339844 180.480469 303.28125 177.433594 306.328125 C 174.359375 309.355469 169.441406 309.355469 166.394531 306.328125 L 138.488281 278.421875 C 133.167969 273.101562 129.09375 266.648438 126.582031 259.527344 C 122.863281 248.933594 117.234375 239.121094 110.023438 230.507812 L 144.382812 196.125 C 156.734375 203.421875 170.554688 207.785156 184.84375 208.898438 " fill-opacity="1" fill-rule="nonzero"/></g></svg>