<svg xmlns="http://www.w3.org/2000/svg" xmlns:xlink="http://www.w3.org/1999/xlink" width="512" zoomAndPan="magnify" viewBox="0 0 384 383.999986" height="512" preserveAspectRatio="xMidYMid meet" version="1.0"><defs><clipPath id="2695a872b8"><path d="M 11.144531 13.773438 L 372.855469 13.773438 L 372.855469 375.484375 L 11.144531 375.484375 Z M 11.144531 13.773438 " clip-rule="nonzero"/></clipPath><clipPath id="91e8961b73"><path d="M 192 13.773438 C 92.117188 13.773438 11.144531 94.746094 11.144531 194.628906 C 11.144531 294.511719 92.117188 375.484375 192 375.484375 C 291.882812 375.484375 372.855469 294.511719 372.855469 194.628906 C 372.855469 94.746094 291.882812 13.773438 192 13.773438 Z M 192 13.773438 " clip-rule="nonzero"/></clipPath><clipPath id="57b1dbb025"><path d="M 0.144531 0.773438 L 361.855469 0.773438 L 361.855469 362.484375 L 0.144531 362.484375 Z M 0.144531 0.773438 " clip-rule="nonzero"/></clipPath><clipPath id="23715b178a"><path d="M 181 0.773438 C 81.117188 0.773438 0.144531 81.746094 0.144531 181.628906 C 0.144531 281.511719 81.117188 362.484375 181 362.484375 C 280.882812 362.484375 361.855469 281.511719 361.855469 181.628906 C 361.855469 81.746094 280.882812 0.773438 181 0.773438 Z M 181 0.773438 " clip-rule="nonzero"/></clipPath><clipPath id="5389d975ef"><rect x="0" width="362" y="0" height="363"/></clipPath><clipPath id="939a755a09"><path d="M 79.566406 79.566406 L 304.566406 79.566406 L 304.566406 304.566406 L 79.566406 304.566406 Z M 79.566406 79.566406 " clip-rule="nonzero"/></clipPath></defs><g clip-path="url(#2695a872b8)"><g clip-path="url(#91e8961b73)"><g transform="matrix(1, 0, 0, 1, 11, 13)"><g clip-path="url(#5389d975ef)"><g clip-path="url(#57b1dbb025)"><g clip-path="url(#23715b178a)"><path fill="#b70021" d="M 0.144531 0.773438 L 361.855469 0.773438 L 361.855469 362.484375 L 0.144531 362.484375 Z M 0.144531 0.773438 " fill-opacity="1" fill-rule="nonzero"/></g></g></g></g></g></g><g clip-path="url(#939a755a09)"><path fill="#fbd333" d="M 304.425781 141.410156 L 304.425781 138.371094 C 304.425781 125.089844 295.929688 113.757812 284.09375 109.511719 C 288.015625 106.441406 290.539062 101.675781 290.539062 96.320312 C 290.539062 87.078125 283.023438 79.5625 273.78125 79.5625 C 264.539062 79.5625 257.023438 87.078125 257.023438 96.320312 C 257.023438 97.832031 257.230469 99.289062 257.601562 100.683594 C 238.578125 86.988281 215.738281 79.5625 191.992188 79.5625 C 168.246094 79.5625 145.410156 86.988281 126.386719 100.683594 C 126.765625 99.289062 126.964844 97.832031 126.964844 96.320312 C 126.964844 87.078125 119.449219 79.5625 110.207031 79.5625 C 100.964844 79.5625 93.449219 87.078125 93.449219 96.320312 C 93.449219 101.667969 95.972656 106.441406 99.890625 109.511719 C 88.050781 113.757812 79.5625 125.089844 79.5625 138.371094 L 79.5625 141.410156 C 79.5625 146.136719 82.804688 150.121094 87.179688 151.261719 C 82.128906 164.234375 79.5625 177.917969 79.5625 192 C 79.5625 211.109375 84.4375 229.941406 93.660156 246.546875 C 93.523438 247.402344 93.453125 248.277344 93.453125 249.171875 C 93.453125 254.523438 95.976562 259.296875 99.898438 262.363281 C 88.058594 266.609375 79.5625 277.941406 79.5625 291.222656 L 79.5625 294.265625 C 79.5625 299.871094 84.125 304.441406 89.738281 304.441406 L 130.683594 304.441406 C 136.289062 304.441406 140.855469 299.878906 140.855469 294.265625 L 140.855469 292.15625 C 156.605469 300.203125 174.179688 304.433594 191.992188 304.433594 C 209.804688 304.433594 227.375 300.199219 243.125 292.15625 L 243.125 294.265625 C 243.125 299.871094 247.6875 304.441406 253.300781 304.441406 L 294.246094 304.441406 C 299.855469 304.441406 304.421875 299.878906 304.421875 294.265625 L 304.421875 291.222656 C 304.421875 277.941406 295.925781 266.609375 284.089844 262.363281 C 288.007812 259.296875 290.53125 254.527344 290.53125 249.171875 C 290.53125 248.277344 290.464844 247.398438 290.328125 246.546875 C 299.550781 229.945312 304.425781 211.109375 304.425781 192 C 304.425781 177.917969 301.859375 164.234375 296.808594 151.261719 C 301.183594 150.121094 304.425781 146.136719 304.425781 141.410156 Z M 273.78125 85.164062 C 279.933594 85.164062 284.941406 90.171875 284.941406 96.324219 C 284.941406 102.476562 279.933594 107.484375 273.78125 107.484375 C 267.628906 107.484375 262.621094 102.476562 262.621094 96.324219 C 262.621094 90.171875 267.628906 85.164062 273.78125 85.164062 Z M 110.210938 85.164062 C 116.363281 85.164062 121.371094 90.171875 121.371094 96.324219 C 121.371094 102.476562 116.363281 107.484375 110.210938 107.484375 C 104.058594 107.484375 99.054688 102.476562 99.054688 96.324219 C 99.054688 90.171875 104.058594 85.164062 110.210938 85.164062 Z M 85.164062 141.410156 L 85.164062 138.371094 C 85.164062 124.558594 96.402344 113.324219 110.210938 113.324219 C 124.019531 113.324219 135.257812 124.5625 135.257812 138.371094 L 135.257812 141.410156 C 135.257812 143.9375 133.207031 145.988281 130.683594 145.988281 L 89.742188 145.988281 C 87.21875 145.988281 85.164062 143.9375 85.164062 141.410156 Z M 110.210938 260.320312 C 104.058594 260.320312 99.054688 255.316406 99.054688 249.164062 C 99.054688 243.007812 104.058594 238.003906 110.210938 238.003906 C 116.363281 238.003906 121.371094 243.007812 121.371094 249.164062 C 121.371094 255.316406 116.363281 260.320312 110.210938 260.320312 Z M 135.261719 294.25 C 135.261719 296.773438 133.210938 298.828125 130.6875 298.828125 L 89.742188 298.828125 C 87.21875 298.828125 85.164062 296.773438 85.164062 294.25 L 85.164062 291.210938 C 85.164062 277.394531 96.402344 266.164062 110.210938 266.164062 C 124.019531 266.164062 135.257812 277.402344 135.257812 291.210938 L 135.257812 294.25 Z M 298.828125 291.214844 L 298.828125 294.253906 C 298.828125 296.78125 296.773438 298.832031 294.25 298.832031 L 253.304688 298.832031 C 250.78125 298.832031 248.730469 296.78125 248.730469 294.253906 L 248.730469 291.214844 C 248.730469 277.402344 259.96875 266.167969 273.777344 266.167969 C 287.585938 266.167969 298.824219 277.40625 298.824219 291.214844 Z M 273.78125 260.320312 C 267.628906 260.320312 262.621094 255.316406 262.621094 249.164062 C 262.621094 243.007812 267.628906 238.003906 273.78125 238.003906 C 279.933594 238.003906 284.941406 243.007812 284.941406 249.164062 C 284.941406 255.316406 279.933594 260.320312 273.78125 260.320312 Z M 287.601562 239.707031 C 284.582031 235.300781 279.515625 232.40625 273.78125 232.40625 C 264.539062 232.40625 257.023438 239.921875 257.023438 249.164062 C 257.023438 254.511719 259.546875 259.285156 263.464844 262.355469 C 253.363281 265.976562 245.703125 274.765625 243.671875 285.519531 C 227.9375 294.226562 210.101562 298.828125 191.996094 298.828125 C 173.890625 298.828125 156.054688 294.226562 140.320312 285.519531 C 138.292969 274.765625 130.632812 265.980469 120.527344 262.355469 C 124.445312 259.285156 126.96875 254.519531 126.96875 249.164062 C 126.96875 239.925781 119.453125 232.40625 110.210938 232.40625 C 104.476562 232.40625 99.410156 235.300781 96.390625 239.707031 C 89.03125 224.96875 85.164062 208.589844 85.164062 191.992188 C 85.164062 177.988281 87.832031 164.402344 93.082031 151.578125 L 130.6875 151.578125 C 136.292969 151.578125 140.863281 147.015625 140.863281 141.402344 L 140.863281 138.359375 C 140.863281 126 133.5 115.328125 122.929688 110.488281 C 142.214844 94.121094 166.5625 85.15625 191.996094 85.15625 C 217.429688 85.15625 241.777344 94.121094 261.0625 110.488281 C 250.496094 115.328125 243.128906 126 243.128906 138.359375 L 243.128906 141.402344 C 243.128906 147.011719 247.691406 151.578125 253.304688 151.578125 L 290.910156 151.578125 C 296.160156 164.402344 298.828125 177.988281 298.828125 191.992188 C 298.828125 208.589844 294.960938 224.96875 287.601562 239.703125 Z M 298.828125 141.410156 C 298.828125 143.9375 296.773438 145.988281 294.25 145.988281 L 253.304688 145.988281 C 250.78125 145.988281 248.730469 143.9375 248.730469 141.410156 L 248.730469 138.371094 C 248.730469 124.558594 259.96875 113.324219 273.777344 113.324219 C 287.585938 113.324219 298.824219 124.5625 298.824219 138.371094 L 298.824219 141.410156 Z M 191.996094 139.625 C 163.542969 139.625 140.394531 159.355469 140.394531 183.605469 C 140.394531 198.457031 149.300781 212.375 163.804688 220.453125 L 157.59375 237.191406 C 156.777344 239.394531 157.484375 241.832031 159.34375 243.261719 C 160.304688 244 161.441406 244.367188 162.578125 244.367188 C 163.65625 244.367188 164.734375 244.035156 165.660156 243.378906 L 188.03125 227.460938 C 189.339844 227.542969 190.671875 227.585938 191.996094 227.585938 C 220.449219 227.585938 243.597656 207.859375 243.597656 183.609375 C 243.597656 159.359375 220.449219 139.628906 191.996094 139.628906 Z M 191.996094 221.988281 C 190.480469 221.988281 188.949219 221.925781 187.460938 221.804688 C 186.804688 221.75 186.144531 221.933594 185.609375 222.316406 L 163.15625 238.289062 L 169.90625 220.097656 C 170.40625 218.753906 169.808594 217.253906 168.527344 216.617188 C 154.628906 209.71875 145.992188 197.066406 145.992188 183.609375 C 145.992188 162.441406 166.632812 145.226562 191.996094 145.226562 C 217.359375 145.226562 238 162.445312 238 183.609375 C 238 204.769531 217.359375 221.988281 191.996094 221.988281 Z M 220.996094 173.234375 C 220.996094 174.777344 219.738281 176.03125 218.195312 176.03125 L 165.800781 176.03125 C 164.257812 176.03125 163.003906 174.777344 163.003906 173.234375 C 163.003906 171.6875 164.257812 170.433594 165.800781 170.433594 L 218.195312 170.433594 C 219.738281 170.433594 220.996094 171.6875 220.996094 173.234375 Z M 207.023438 193.980469 C 207.023438 195.523438 205.769531 196.777344 204.222656 196.777344 L 165.796875 196.777344 C 164.253906 196.777344 162.996094 195.523438 162.996094 193.980469 C 162.996094 192.433594 164.253906 191.179688 165.796875 191.179688 L 204.222656 191.179688 C 205.769531 191.179688 207.023438 192.433594 207.023438 193.980469 Z M 207.023438 193.980469 " fill-opacity="1" fill-rule="nonzero"/></g></svg>