<svg xmlns="http://www.w3.org/2000/svg" xmlns:xlink="http://www.w3.org/1999/xlink" width="512" zoomAndPan="magnify" viewBox="0 0 384 383.999986" height="512" preserveAspectRatio="xMidYMid meet" version="1.0"><defs><clipPath id="b897af9e93"><path d="M 11.144531 11.144531 L 372.855469 11.144531 L 372.855469 372.855469 L 11.144531 372.855469 Z M 11.144531 11.144531 " clip-rule="nonzero"/></clipPath><clipPath id="0a20540975"><path d="M 192 11.144531 C 92.117188 11.144531 11.144531 92.117188 11.144531 192 C 11.144531 291.882812 92.117188 372.855469 192 372.855469 C 291.882812 372.855469 372.855469 291.882812 372.855469 192 C 372.855469 92.117188 291.882812 11.144531 192 11.144531 Z M 192 11.144531 " clip-rule="nonzero"/></clipPath><clipPath id="34d6d8aaf9"><path d="M 0.144531 0.144531 L 361.855469 0.144531 L 361.855469 361.855469 L 0.144531 361.855469 Z M 0.144531 0.144531 " clip-rule="nonzero"/></clipPath><clipPath id="09ab8cfba7"><path d="M 181 0.144531 C 81.117188 0.144531 0.144531 81.117188 0.144531 181 C 0.144531 280.882812 81.117188 361.855469 181 361.855469 C 280.882812 361.855469 361.855469 280.882812 361.855469 181 C 361.855469 81.117188 280.882812 0.144531 181 0.144531 Z M 181 0.144531 " clip-rule="nonzero"/></clipPath><clipPath id="87bbd01694"><rect x="0" width="362" y="0" height="362"/></clipPath><clipPath id="c8e7227f49"><path d="M 128.683594 91.679688 L 255.433594 91.679688 L 255.433594 288.179688 L 128.683594 288.179688 Z M 128.683594 91.679688 " clip-rule="nonzero"/></clipPath></defs><g clip-path="url(#b897af9e93)"><g clip-path="url(#0a20540975)"><g transform="matrix(1, 0, 0, 1, 11, 11)"><g clip-path="url(#87bbd01694)"><g clip-path="url(#34d6d8aaf9)"><g clip-path="url(#09ab8cfba7)"><path fill="#000000" d="M 0.144531 0.144531 L 361.855469 0.144531 L 361.855469 361.855469 L 0.144531 361.855469 Z M 0.144531 0.144531 " fill-opacity="1" fill-rule="nonzero"/></g></g></g></g></g></g><g clip-path="url(#c8e7227f49)"><path fill="#fbd333" d="M 250.734375 202.027344 C 247.707031 196.453125 243.800781 191.933594 238.992188 188.484375 C 234.183594 185.035156 228.726562 182.414062 222.632812 180.613281 C 216.542969 178.8125 210.355469 177.355469 204.113281 176.265625 L 204.113281 139.792969 C 217.289062 140.445312 231.523438 143.511719 246.789062 148.988281 L 246.789062 116.464844 C 240.542969 114.050781 233.6875 112.175781 226.199219 110.796875 C 218.707031 109.4375 211.351562 108.515625 204.113281 108.074219 L 204.113281 91.679688 L 180.476562 91.679688 L 180.476562 108.59375 C 172.453125 109.589844 165.230469 111.332031 158.832031 113.839844 C 152.4375 116.371094 147.015625 119.664062 142.550781 123.78125 C 138.089844 127.882812 134.660156 132.765625 132.285156 138.394531 C 129.910156 144.027344 128.722656 150.464844 128.722656 157.683594 C 128.722656 166.550781 130.253906 173.773438 133.339844 179.367188 C 136.402344 184.941406 140.40625 189.441406 145.308594 192.832031 C 150.214844 196.222656 155.75 198.769531 161.898438 200.472656 C 168.046875 202.179688 174.234375 203.519531 180.476562 204.496094 L 180.476562 240.449219 C 175.421875 240.351562 170.765625 240.046875 166.496094 239.546875 C 162.222656 239.050781 158.164062 238.398438 154.292969 237.574219 C 150.425781 236.75 146.652344 235.773438 142.992188 234.625 C 139.316406 233.476562 135.5625 232.136719 131.691406 230.601562 L 131.691406 262.78125 C 137.34375 265.617188 144.449219 267.839844 153.03125 269.429688 C 161.609375 271.019531 170.746094 271.976562 180.457031 272.300781 L 180.457031 288.390625 L 204.09375 288.390625 L 204.09375 271.476562 C 220.453125 269.503906 233.054688 264.523438 241.941406 256.539062 C 250.808594 248.550781 255.253906 237.539062 255.253906 223.535156 C 255.273438 214.761719 253.761719 207.601562 250.734375 202.027344 Z M 180.476562 172.125 C 174.023438 170.824219 169.214844 168.945312 166.054688 166.550781 C 162.875 164.160156 161.285156 160.652344 161.285156 156.039062 C 161.285156 151.976562 162.664062 148.625 165.441406 145.941406 C 168.21875 143.261719 173.21875 141.480469 180.457031 140.597656 L 180.457031 172.125 Z M 204.113281 239.300781 L 204.113281 208.421875 C 210.355469 209.628906 214.992188 211.410156 218.019531 213.765625 C 221.046875 216.125 222.558594 219.589844 222.558594 224.1875 C 222.558594 232.5 216.410156 237.539062 204.113281 239.300781 Z M 204.113281 239.300781 " fill-opacity="1" fill-rule="nonzero"/></g></svg>