<svg xmlns="http://www.w3.org/2000/svg" xmlns:xlink="http://www.w3.org/1999/xlink" width="512" zoomAndPan="magnify" viewBox="0 0 384 383.999986" height="512" preserveAspectRatio="xMidYMid meet" version="1.0"><defs><clipPath id="52f250d6cb"><path d="M 58 326 L 314 326 L 314 339.207031 L 58 339.207031 Z M 58 326 " clip-rule="nonzero"/></clipPath><clipPath id="d219ee7681"><path d="M 170 44.457031 L 202 44.457031 L 202 85 L 170 85 Z M 170 44.457031 " clip-rule="nonzero"/></clipPath><clipPath id="b4165b6e9d"><path d="M 38.398438 88 L 174 88 L 174 257 L 38.398438 257 Z M 38.398438 88 " clip-rule="nonzero"/></clipPath><clipPath id="82a17f9d99"><path d="M 198 88 L 333.148438 88 L 333.148438 257 L 198 257 Z M 198 88 " clip-rule="nonzero"/></clipPath></defs><g clip-path="url(#52f250d6cb)"><path fill="#f6ce1e" d="M 301.722656 326.441406 L 70.136719 326.441406 C 65.578125 326.441406 61.503906 329.5 60.230469 333.882812 L 58.589844 339.535156 L 313.273438 339.535156 L 311.628906 333.882812 C 310.355469 329.5 306.28125 326.441406 301.722656 326.441406 Z M 301.722656 326.441406 " fill-opacity="1" fill-rule="nonzero"/></g><path fill="#f6ce1e" d="M 178.164062 89.480469 L 193.695312 89.480469 L 193.695312 97.609375 L 178.164062 97.609375 Z M 178.164062 89.480469 " fill-opacity="1" fill-rule="nonzero"/><g clip-path="url(#d219ee7681)"><path fill="#f6ce1e" d="M 195.039062 84.640625 C 198.894531 80.398438 201.199219 73.835938 201.199219 66.808594 C 201.199219 54.484375 194.347656 44.457031 185.929688 44.457031 C 177.511719 44.457031 170.660156 54.484375 170.660156 66.808594 C 170.660156 73.832031 172.960938 80.398438 176.820312 84.640625 Z M 195.039062 84.640625 " fill-opacity="1" fill-rule="nonzero"/></g><path fill="#f6ce1e" d="M 178.164062 102.449219 L 193.695312 102.449219 L 193.695312 289.542969 L 178.164062 289.542969 Z M 178.164062 102.449219 " fill-opacity="1" fill-rule="nonzero"/><path fill="#f6ce1e" d="M 121.753906 308.578125 C 117.269531 308.578125 113.253906 311.589844 112 315.894531 L 110.335938 321.605469 L 261.523438 321.605469 L 259.859375 315.894531 C 258.605469 311.585938 254.59375 308.578125 250.105469 308.578125 Z M 121.753906 308.578125 " fill-opacity="1" fill-rule="nonzero"/><path fill="#f6ce1e" d="M 175.746094 294.378906 L 148.546875 294.378906 L 148.546875 303.742188 L 223.308594 303.742188 L 223.308594 294.378906 Z M 175.746094 294.378906 " fill-opacity="1" fill-rule="nonzero"/><g clip-path="url(#b4165b6e9d)"><path fill="#f6ce1e" d="M 141.683594 225.308594 L 129.894531 225.308594 L 104.203125 124.722656 C 106.320312 125.097656 108.441406 125.3125 110.527344 125.3125 C 120.351562 125.3125 127.917969 122.386719 135.238281 119.550781 C 141.050781 117.296875 146.542969 115.171875 152.394531 114.980469 C 161.011719 114.691406 168.835938 118.511719 173.324219 121.265625 L 173.324219 101.691406 C 169.738281 100.472656 158.945312 97.261719 149.292969 98.910156 C 144.257812 99.773438 139.382812 102.390625 134.21875 105.164062 C 127.011719 109.03125 119.566406 113.03125 110.523438 113.03125 C 100.085938 113.03125 94.300781 109.382812 91.457031 106.722656 C 90.476562 107.832031 89.332031 108.808594 88.011719 109.566406 C 86.851562 110.230469 85.375 109.828125 84.710938 108.667969 C 84.046875 107.511719 84.449219 106.03125 85.609375 105.367188 C 88.394531 103.769531 90.128906 100.78125 90.128906 97.574219 C 90.128906 92.625 86.105469 88.601562 81.15625 88.601562 C 76.210938 88.601562 72.1875 92.625 72.1875 97.574219 C 72.1875 102.328125 74.949219 107.320312 79.3125 111.746094 L 50.308594 225.308594 L 38.519531 225.308594 C 40.414062 242.914062 62.828125 256.859375 90.101562 256.859375 C 117.375 256.859375 139.789062 242.914062 141.683594 225.308594 Z M 124.875 225.308594 L 92.519531 225.308594 L 92.519531 120.921875 C 94.570312 121.890625 96.683594 122.71875 98.84375 123.390625 Z M 87.683594 118.328125 L 87.683594 225.308594 L 55.328125 225.308594 L 83.417969 115.351562 C 84.765625 116.398438 86.179688 117.40625 87.683594 118.328125 Z M 87.683594 118.328125 " fill-opacity="1" fill-rule="nonzero"/></g><g clip-path="url(#82a17f9d99)"><path fill="#f6ce1e" d="M 321.554688 225.308594 L 292.542969 111.746094 C 296.90625 107.324219 299.671875 102.332031 299.671875 97.578125 C 299.671875 92.628906 295.648438 88.601562 290.703125 88.601562 C 285.753906 88.601562 281.726562 92.628906 281.726562 97.578125 C 281.726562 100.785156 283.460938 103.773438 286.25 105.371094 C 287.410156 106.03125 287.8125 107.511719 287.148438 108.671875 C 286.484375 109.828125 285.003906 110.230469 283.847656 109.570312 C 282.527344 108.8125 281.382812 107.835938 280.398438 106.726562 C 277.558594 109.382812 271.769531 113.03125 261.332031 113.03125 C 252.292969 113.03125 244.847656 109.035156 237.640625 105.167969 C 232.476562 102.394531 227.601562 99.773438 222.566406 98.914062 C 212.910156 97.261719 202.121094 100.476562 198.53125 101.691406 L 198.53125 121.277344 C 203.023438 118.527344 210.847656 114.71875 219.464844 114.980469 C 225.316406 115.171875 230.808594 117.296875 236.621094 119.550781 C 243.9375 122.382812 251.507812 125.3125 261.332031 125.3125 C 263.417969 125.3125 265.539062 125.097656 267.65625 124.722656 L 241.960938 225.308594 L 230.175781 225.308594 C 232.070312 242.914062 254.480469 256.859375 281.757812 256.859375 C 309.03125 256.859375 331.445312 242.914062 333.335938 225.308594 Z M 288.445312 115.351562 L 316.53125 225.308594 L 284.179688 225.308594 L 284.179688 118.328125 C 285.679688 117.40625 287.09375 116.398438 288.445312 115.351562 Z M 279.339844 120.921875 L 279.339844 225.308594 L 246.984375 225.308594 L 273.015625 123.394531 C 275.175781 122.71875 277.292969 121.890625 279.339844 120.921875 Z M 279.339844 120.921875 " fill-opacity="1" fill-rule="nonzero"/></g></svg>