<svg xmlns="http://www.w3.org/2000/svg" xmlns:xlink="http://www.w3.org/1999/xlink" width="512" zoomAndPan="magnify" viewBox="0 0 384 383.999986" height="512" preserveAspectRatio="xMidYMid meet" version="1.0"><defs><clipPath id="f2873bcb43"><path d="M 63 41.046875 L 321 41.046875 L 321 345 L 63 345 Z M 63 41.046875 " clip-rule="nonzero"/></clipPath></defs><g clip-path="url(#f2873bcb43)"><path fill="#f6ce1e" d="M 135.757812 344.964844 L 248.472656 344.964844 C 249.964844 344.964844 285.148438 344.695312 305.839844 321.253906 C 317.738281 307.769531 322.375 289.75 319.621094 267.691406 C 311.324219 201.421875 253.261719 146.269531 230.265625 129.523438 L 258.511719 93.425781 C 259.003906 92.796875 259.410156 92.097656 259.707031 91.363281 C 263.664062 81.515625 258.871094 70.246094 248.992188 66.238281 L 236.558594 61.242188 C 235.832031 50.363281 226.757812 41.738281 215.699219 41.738281 L 168.511719 41.738281 C 157.46875 41.738281 148.402344 50.363281 147.675781 61.238281 L 135.210938 66.242188 C 125.339844 70.242188 120.542969 81.511719 124.515625 91.367188 C 124.8125 92.105469 125.214844 92.796875 125.707031 93.421875 L 153.964844 129.519531 C 130.972656 146.273438 72.894531 201.445312 64.597656 267.683594 C 61.835938 289.75 66.480469 307.769531 78.382812 321.253906 C 99.082031 344.695312 134.273438 344.964844 135.757812 344.964844 Z M 141.5625 81.984375 L 154.109375 76.945312 L 163.734375 94.785156 C 165.269531 97.636719 168.191406 99.246094 171.207031 99.246094 C 172.570312 99.246094 173.953125 98.921875 175.230469 98.226562 C 179.355469 96.003906 180.898438 90.851562 178.667969 86.730469 L 165.566406 62.445312 C 165.355469 62.058594 165.097656 61.710938 164.839844 61.378906 C 165.382812 59.847656 166.835938 58.714844 168.515625 58.714844 L 215.707031 58.714844 C 217.492188 58.714844 219.042969 59.972656 219.5 61.640625 L 219.011719 63.09375 L 206.253906 86.734375 C 204.03125 90.859375 205.570312 96.007812 209.699219 98.230469 C 210.980469 98.921875 212.355469 99.246094 213.714844 99.246094 C 216.738281 99.246094 219.660156 97.636719 221.1875 94.789062 L 230.691406 77.175781 L 242.636719 81.980469 C 243.582031 82.363281 244.160156 83.324219 244.121094 84.289062 L 213.996094 122.777344 C 207.476562 121.996094 199.121094 121.78125 192.109375 121.78125 C 185.105469 121.78125 176.753906 121.996094 170.226562 122.777344 L 140.097656 84.289062 C 140.058594 83.316406 140.628906 82.359375 141.5625 81.984375 Z M 81.4375 269.796875 C 90.316406 198.921875 162.109375 143.269531 168.269531 140.28125 C 170.152344 139.644531 178.789062 138.746094 192.109375 138.746094 C 205.433594 138.746094 214.074219 139.644531 215.746094 140.191406 C 222.125 143.269531 293.90625 198.890625 302.78125 269.796875 C 304.90625 286.792969 301.667969 300.316406 293.148438 309.984375 C 277.527344 327.722656 248.753906 327.992188 248.46875 327.992188 L 135.757812 327.992188 C 135.464844 327.992188 106.699219 327.722656 91.074219 309.984375 C 82.558594 300.3125 79.3125 286.792969 81.4375 269.796875 Z M 81.4375 269.796875 " fill-opacity="1" fill-rule="nonzero"/></g><path fill="#f6ce1e" d="M 184.671875 295.445312 L 184.671875 302.847656 C 184.671875 307.53125 188.472656 311.328125 193.15625 311.328125 C 197.847656 311.328125 201.648438 307.53125 201.648438 302.847656 L 201.648438 295.339844 C 214.589844 294.03125 224.726562 283.0625 224.726562 269.773438 L 224.726562 258.035156 C 224.726562 252.574219 222.300781 244.519531 210.757812 237.191406 C 210.28125 236.886719 209.78125 236.636719 209.261719 236.429688 L 207.40625 235.71875 C 207.261719 235.652344 207.140625 235.566406 206.992188 235.503906 L 201.648438 233.460938 L 201.648438 199.960938 C 205.171875 201.074219 207.757812 204.351562 207.757812 208.25 L 207.757812 213.726562 C 207.757812 218.417969 211.554688 222.214844 216.242188 222.214844 C 220.933594 222.214844 224.730469 218.417969 224.730469 213.726562 L 224.730469 208.25 C 224.730469 194.949219 214.59375 183.980469 201.652344 182.671875 L 201.652344 175.824219 C 201.652344 171.132812 197.851562 167.335938 193.160156 167.335938 C 188.476562 167.335938 184.675781 171.132812 184.675781 175.824219 L 184.675781 182.566406 C 170.757812 182.851562 159.519531 194.25 159.519531 208.25 L 159.519531 219.953125 C 159.519531 225.394531 161.886719 233.390625 173.179688 240.554688 C 173.65625 240.859375 174.164062 241.117188 174.691406 241.320312 L 182.640625 244.359375 L 184.679688 245.144531 L 184.679688 278.441406 C 180.121094 278.164062 176.492188 274.398438 176.492188 269.769531 L 176.492188 264.292969 C 176.492188 259.609375 172.695312 255.808594 168.003906 255.808594 C 163.320312 255.808594 159.519531 259.609375 159.519531 264.292969 L 159.519531 269.769531 C 159.515625 283.765625 170.753906 295.164062 184.671875 295.445312 Z M 176.488281 208.257812 C 176.488281 203.621094 180.117188 199.847656 184.675781 199.570312 L 184.675781 226.957031 L 184.214844 226.777344 C 184.167969 226.765625 184.121094 226.757812 184.074219 226.746094 L 181.601562 225.796875 C 178.433594 223.664062 176.488281 221.460938 176.488281 219.957031 Z M 202.320312 251.949219 C 206.046875 254.457031 207.753906 256.828125 207.753906 258.039062 L 207.753906 269.773438 C 207.753906 273.671875 205.167969 276.945312 201.644531 278.058594 L 201.644531 251.691406 Z M 202.320312 251.949219 " fill-opacity="1" fill-rule="nonzero"/></svg>