<svg xmlns="http://www.w3.org/2000/svg" xmlns:xlink="http://www.w3.org/1999/xlink" width="512" zoomAndPan="magnify" viewBox="0 0 384 383.999986" height="512" preserveAspectRatio="xMidYMid meet" version="1.0"><defs><clipPath id="ac6a31e207"><path d="M 46.871094 78 L 315 78 L 315 345.675781 L 46.871094 345.675781 Z M 46.871094 78 " clip-rule="nonzero"/></clipPath><clipPath id="4d40df01b5"><path d="M 244 16.425781 L 314 16.425781 L 314 86 L 244 86 Z M 244 16.425781 " clip-rule="nonzero"/></clipPath><clipPath id="9b59a52e3c"><path d="M 293 112 L 345.371094 112 L 345.371094 164 L 293 164 Z M 293 112 " clip-rule="nonzero"/></clipPath></defs><g clip-path="url(#ac6a31e207)"><path fill="#f6ce1e" d="M 272.769531 345.59375 L 88.128906 345.59375 C 65.386719 345.59375 46.890625 327.09375 46.890625 304.351562 L 46.890625 119.691406 C 46.890625 96.949219 65.386719 78.453125 88.128906 78.453125 L 186.582031 78.453125 C 189.957031 78.453125 192.699219 81.195312 192.699219 84.570312 C 192.699219 87.945312 189.957031 90.691406 186.582031 90.691406 L 88.128906 90.691406 C 72.140625 90.691406 59.128906 103.699219 59.128906 119.691406 L 59.128906 304.332031 C 59.128906 320.324219 72.140625 333.332031 88.128906 333.332031 L 272.769531 333.332031 C 288.761719 333.332031 301.773438 320.324219 301.773438 304.332031 L 301.773438 186.277344 C 301.773438 182.902344 304.515625 180.160156 307.890625 180.160156 C 311.265625 180.160156 314.011719 182.902344 314.011719 186.277344 L 314.011719 304.332031 C 314.03125 327.09375 295.511719 345.59375 272.769531 345.59375 Z M 272.769531 345.59375 " fill-opacity="1" fill-rule="nonzero"/></g><g clip-path="url(#4d40df01b5)"><path fill="#f6ce1e" d="M 311.898438 52.984375 C 297.113281 57.40625 285.445312 69.054688 281.042969 83.839844 C 280.492188 85.714844 277.765625 85.714844 277.214844 83.839844 C 272.792969 69.054688 261.144531 57.386719 246.355469 52.984375 C 244.480469 52.433594 244.480469 49.707031 246.355469 49.15625 C 261.144531 44.734375 272.8125 33.085938 277.214844 18.300781 C 277.765625 16.425781 280.492188 16.425781 281.042969 18.300781 C 285.464844 33.085938 297.113281 44.753906 311.898438 49.15625 C 313.773438 49.726562 313.773438 52.433594 311.898438 52.984375 Z M 311.898438 52.984375 " fill-opacity="1" fill-rule="nonzero"/></g><path fill="#f6ce1e" d="M 247.464844 118.425781 C 239.960938 121.308594 234 127.273438 231.136719 134.753906 C 230.484375 136.472656 228.058594 136.472656 227.40625 134.753906 C 224.523438 127.253906 218.5625 121.289062 211.078125 118.425781 C 209.363281 117.777344 209.363281 115.347656 211.078125 114.695312 C 218.582031 111.8125 224.542969 105.851562 227.40625 98.371094 C 228.058594 96.652344 230.484375 96.652344 231.136719 98.371094 C 234.019531 105.871094 239.980469 111.835938 247.464844 114.695312 C 249.199219 115.367188 249.199219 117.777344 247.464844 118.425781 Z M 247.464844 118.425781 " fill-opacity="1" fill-rule="nonzero"/><g clip-path="url(#9b59a52e3c)"><path fill="#f6ce1e" d="M 343.703125 139.984375 C 333.101562 143.597656 324.710938 151.96875 321.117188 162.570312 C 320.488281 164.445312 317.921875 164.445312 317.289062 162.570312 C 313.675781 151.96875 305.304688 143.578125 294.703125 139.984375 C 292.828125 139.355469 292.828125 136.789062 294.703125 136.15625 C 305.304688 132.542969 313.695312 124.171875 317.289062 113.570312 C 317.921875 111.695312 320.484375 111.695312 321.117188 113.570312 C 324.730469 124.171875 333.101562 132.5625 343.703125 136.15625 C 345.578125 136.789062 345.578125 139.355469 343.703125 139.984375 Z M 343.703125 139.984375 " fill-opacity="1" fill-rule="nonzero"/></g><path fill="#f6ce1e" d="M 168.300781 260.722656 C 137.679688 260.722656 112.765625 235.808594 112.765625 205.191406 C 112.765625 174.570312 137.679688 149.660156 168.300781 149.660156 C 198.917969 149.660156 223.832031 174.570312 223.832031 205.191406 C 223.832031 235.808594 198.917969 260.722656 168.300781 260.722656 Z M 168.300781 161.917969 C 144.433594 161.917969 125.027344 181.324219 125.027344 205.191406 C 125.027344 229.058594 144.433594 248.464844 168.300781 248.464844 C 192.167969 248.464844 211.574219 229.058594 211.574219 205.191406 C 211.574219 181.324219 192.167969 161.917969 168.300781 161.917969 Z M 168.300781 161.917969 " fill-opacity="1" fill-rule="nonzero"/><path fill="#f6ce1e" d="M 141.53125 222.839844 C 139.160156 222.839844 136.890625 221.457031 135.90625 219.128906 C 134.007812 214.726562 133.0625 210.046875 133.0625 205.191406 C 133.0625 197.058594 135.925781 189.082031 141.097656 182.785156 C 143.25 180.160156 147.097656 179.785156 149.722656 181.9375 C 152.347656 184.085938 152.722656 187.9375 150.570312 190.5625 C 147.136719 194.746094 145.320312 199.800781 145.320312 205.210938 C 145.320312 208.390625 145.953125 211.449219 147.175781 214.3125 C 148.519531 217.410156 147.078125 221.023438 143.980469 222.367188 C 143.148438 222.683594 142.339844 222.839844 141.53125 222.839844 Z M 141.53125 222.839844 " fill-opacity="1" fill-rule="nonzero"/><path fill="#f6ce1e" d="M 234 287.964844 C 230.1875 287.964844 226.359375 286.507812 223.457031 283.605469 L 192.027344 252.175781 C 189.640625 249.785156 189.640625 245.898438 192.027344 243.507812 C 194.417969 241.121094 198.308594 241.121094 200.695312 243.507812 L 232.125 274.9375 C 233.152344 275.964844 234.847656 275.964844 235.875 274.9375 C 236.902344 273.910156 236.902344 272.214844 235.875 271.1875 L 204.445312 239.757812 C 202.058594 237.371094 202.058594 233.480469 204.445312 231.09375 C 206.835938 228.703125 210.722656 228.703125 213.113281 231.09375 L 244.542969 262.519531 C 250.34375 268.324219 250.34375 277.800781 244.542969 283.605469 C 241.640625 286.527344 237.808594 287.964844 234 287.964844 Z M 234 287.964844 " fill-opacity="1" fill-rule="nonzero"/></svg>