<svg xmlns="http://www.w3.org/2000/svg" xmlns:xlink="http://www.w3.org/1999/xlink" width="512" zoomAndPan="magnify" viewBox="0 0 384 383.999986" height="512" preserveAspectRatio="xMidYMid meet" version="1.0"><defs><clipPath id="692fb41117"><path d="M 8 273 L 51 273 L 51 320.304688 L 8 320.304688 Z M 8 273 " clip-rule="nonzero"/></clipPath><clipPath id="dd8a4abcb7"><path d="M 255 273 L 297 273 L 297 320.304688 L 255 320.304688 Z M 255 273 " clip-rule="nonzero"/></clipPath><clipPath id="99f05ff410"><path d="M 1 96.367188 L 304.597656 96.367188 L 304.597656 301 L 1 301 Z M 1 96.367188 " clip-rule="nonzero"/></clipPath><clipPath id="a520207104"><path d="M 175.3125 53.105469 L 318.035156 53.105469 L 318.035156 195.828125 L 175.3125 195.828125 Z M 175.3125 53.105469 " clip-rule="nonzero"/></clipPath><clipPath id="92d5295173"><path d="M 246.671875 53.105469 C 207.261719 53.105469 175.3125 85.054688 175.3125 124.464844 C 175.3125 163.878906 207.261719 195.828125 246.671875 195.828125 C 286.085938 195.828125 318.035156 163.878906 318.035156 124.464844 C 318.035156 85.054688 286.085938 53.105469 246.671875 53.105469 Z M 246.671875 53.105469 " clip-rule="nonzero"/></clipPath><clipPath id="899f44554c"><path d="M 0.3125 0.105469 L 143.035156 0.105469 L 143.035156 142.828125 L 0.3125 142.828125 Z M 0.3125 0.105469 " clip-rule="nonzero"/></clipPath><clipPath id="15a5e8cced"><path d="M 71.671875 0.105469 C 32.261719 0.105469 0.3125 32.054688 0.3125 71.464844 C 0.3125 110.878906 32.261719 142.828125 71.671875 142.828125 C 111.085938 142.828125 143.035156 110.878906 143.035156 71.464844 C 143.035156 32.054688 111.085938 0.105469 71.671875 0.105469 Z M 71.671875 0.105469 " clip-rule="nonzero"/></clipPath><clipPath id="9dc6a2800d"><rect x="0" width="144" y="0" height="143"/></clipPath><clipPath id="9c06c169ac"><path d="M 166.777344 43.640625 L 328.429688 43.640625 L 328.429688 205.292969 L 166.777344 205.292969 Z M 166.777344 43.640625 " clip-rule="nonzero"/></clipPath><clipPath id="f036325e9e"><path d="M 247.601562 43.640625 C 202.964844 43.640625 166.777344 79.828125 166.777344 124.464844 C 166.777344 169.105469 202.964844 205.292969 247.601562 205.292969 C 292.242188 205.292969 328.429688 169.105469 328.429688 124.464844 C 328.429688 79.828125 292.242188 43.640625 247.601562 43.640625 Z M 247.601562 43.640625 " clip-rule="nonzero"/></clipPath><clipPath id="56190fbded"><path d="M 0.777344 0.640625 L 162.429688 0.640625 L 162.429688 162.292969 L 0.777344 162.292969 Z M 0.777344 0.640625 " clip-rule="nonzero"/></clipPath><clipPath id="4454b77d96"><path d="M 81.601562 0.640625 C 36.964844 0.640625 0.777344 36.828125 0.777344 81.464844 C 0.777344 126.105469 36.964844 162.292969 81.601562 162.292969 C 126.242188 162.292969 162.429688 126.105469 162.429688 81.464844 C 162.429688 36.828125 126.242188 0.640625 81.601562 0.640625 Z M 81.601562 0.640625 " clip-rule="nonzero"/></clipPath><clipPath id="d3acbaccde"><rect x="0" width="163" y="0" height="163"/></clipPath><clipPath id="ea05ae9481"><path d="M 166.777344 43.640625 L 328.425781 43.640625 L 328.425781 205.289062 L 166.777344 205.289062 Z M 166.777344 43.640625 " clip-rule="nonzero"/></clipPath><clipPath id="625ce0bc05"><path d="M 247.601562 43.640625 C 202.964844 43.640625 166.777344 79.828125 166.777344 124.464844 C 166.777344 169.105469 202.964844 205.289062 247.601562 205.289062 C 292.242188 205.289062 328.425781 169.105469 328.425781 124.464844 C 328.425781 79.828125 292.242188 43.640625 247.601562 43.640625 Z M 247.601562 43.640625 " clip-rule="nonzero"/></clipPath><clipPath id="68b0cdcb29"><path d="M 281 170 L 384 170 L 384 282 L 281 282 Z M 281 170 " clip-rule="nonzero"/></clipPath><clipPath id="00f7d6cceb"><path d="M 280.460938 195.066406 L 310.464844 169.621094 L 384.808594 257.300781 L 354.800781 282.742188 Z M 280.460938 195.066406 " clip-rule="nonzero"/></clipPath><clipPath id="1c45021c6f"><path d="M 282.746094 193.125 L 308.179688 171.5625 C 309.441406 170.492188 311.335938 170.648438 312.40625 171.910156 L 382.808594 254.941406 C 383.882812 256.203125 383.726562 258.097656 382.460938 259.167969 L 357.03125 280.730469 C 355.765625 281.804688 353.875 281.648438 352.800781 280.382812 L 282.398438 197.355469 C 281.328125 196.089844 281.484375 194.199219 282.746094 193.125 Z M 282.746094 193.125 " clip-rule="nonzero"/></clipPath><clipPath id="1300040f74"><path d="M 0.28125 0.320312 L 103 0.320312 L 103 111.921875 L 0.28125 111.921875 Z M 0.28125 0.320312 " clip-rule="nonzero"/></clipPath><clipPath id="f0a4dba635"><path d="M -0.539062 25.066406 L 29.464844 -0.378906 L 103.808594 87.300781 L 73.800781 112.742188 Z M -0.539062 25.066406 " clip-rule="nonzero"/></clipPath><clipPath id="10c1f82732"><path d="M 1.746094 23.125 L 27.179688 1.5625 C 28.441406 0.492188 30.335938 0.648438 31.40625 1.910156 L 101.808594 84.941406 C 102.882812 86.203125 102.726562 88.097656 101.460938 89.167969 L 76.03125 110.730469 C 74.765625 111.804688 72.875 111.648438 71.800781 110.382812 L 1.398438 27.355469 C 0.328125 26.089844 0.484375 24.199219 1.746094 23.125 Z M 1.746094 23.125 " clip-rule="nonzero"/></clipPath><clipPath id="46f4a1187d"><rect x="0" width="103" y="0" height="112"/></clipPath><clipPath id="0cc5dfd62d"><path d="M 186.238281 34.410156 L 360.925781 34.410156 L 360.925781 172.859375 L 186.238281 172.859375 Z M 186.238281 34.410156 " clip-rule="nonzero"/></clipPath><clipPath id="a709b3056a"><rect x="0" width="384" y="0" height="321"/></clipPath></defs><g transform="matrix(1, 0, 0, 1, 0, 2)"><g clip-path="url(#a709b3056a)"><g clip-path="url(#692fb41117)"><path fill="#fbd333" d="M 10.789062 287.691406 L 8.847656 273.550781 L 8.847656 313.777344 C 8.847656 317.382812 11.769531 320.300781 15.375 320.300781 L 43.671875 320.300781 C 47.277344 320.300781 50.195312 317.382812 50.195312 313.777344 L 50.195312 306.957031 L 32.875 306.957031 C 21.972656 306.957031 12.269531 298.496094 10.789062 287.691406 " fill-opacity="1" fill-rule="nonzero"/></g><g clip-path="url(#dd8a4abcb7)"><path fill="#fbd333" d="M 272.34375 306.957031 L 255.027344 306.957031 L 255.027344 313.773438 C 255.027344 317.382812 257.945312 320.300781 261.546875 320.300781 L 289.847656 320.300781 C 293.453125 320.300781 296.375 317.382812 296.375 313.773438 L 296.375 273.53125 L 294.433594 287.691406 C 292.949219 298.496094 283.246094 306.957031 272.34375 306.957031 " fill-opacity="1" fill-rule="nonzero"/></g><path fill="#fbd333" d="M 110.296875 241.546875 L 194.921875 241.546875 L 197.023438 232.296875 L 108.199219 232.296875 L 110.296875 241.546875 " fill-opacity="1" fill-rule="nonzero"/><path fill="#fbd333" d="M 112.042969 249.234375 C 113.003906 253.472656 117.488281 257.054688 121.835938 257.054688 L 183.386719 257.054688 C 187.730469 257.054688 192.214844 253.472656 193.179688 249.234375 L 193.441406 248.070312 L 111.777344 248.070312 L 112.042969 249.234375 " fill-opacity="1" fill-rule="nonzero"/><path fill="#fbd333" d="M 194.003906 216.789062 L 111.214844 216.789062 C 109.398438 216.789062 107.886719 217.4375 106.949219 218.605469 C 106.015625 219.777344 105.722656 221.394531 106.125 223.164062 L 106.71875 225.773438 L 198.503906 225.773438 L 199.097656 223.164062 C 199.496094 221.394531 199.207031 219.777344 198.273438 218.605469 C 197.335938 217.4375 195.820312 216.789062 194.003906 216.789062 " fill-opacity="1" fill-rule="nonzero"/><g clip-path="url(#99f05ff410)"><path fill="#fbd333" d="M 243.289062 261.011719 C 230.367188 261.011719 219.894531 250.539062 219.894531 237.613281 C 219.894531 224.695312 230.367188 214.222656 243.289062 214.222656 C 256.210938 214.222656 266.683594 224.695312 266.683594 237.613281 C 266.683594 250.539062 256.210938 261.011719 243.289062 261.011719 Z M 205.460938 224.609375 L 199.542969 250.679688 C 197.898438 257.910156 190.800781 263.578125 183.386719 263.578125 L 121.835938 263.578125 C 114.417969 263.578125 107.324219 257.910156 105.679688 250.679688 L 99.757812 224.609375 C 98.925781 220.917969 99.6875 217.25 101.851562 214.535156 C 104.019531 211.824219 107.429688 210.265625 111.214844 210.265625 L 194.007812 210.265625 C 197.789062 210.265625 201.203125 211.824219 203.371094 214.535156 C 205.535156 217.25 206.296875 220.917969 205.460938 224.609375 Z M 197.90625 290.386719 C 197.90625 293.988281 194.984375 296.910156 191.382812 296.910156 L 113.839844 296.910156 C 110.234375 296.910156 107.316406 293.988281 107.316406 290.386719 L 107.316406 276.292969 C 107.316406 272.6875 110.234375 269.769531 113.839844 269.769531 L 191.382812 269.769531 C 194.984375 269.769531 197.90625 272.6875 197.90625 276.292969 Z M 61.929688 261.011719 C 49.007812 261.011719 38.535156 250.539062 38.535156 237.613281 C 38.535156 224.695312 49.007812 214.222656 61.929688 214.222656 C 74.847656 214.222656 85.324219 224.695312 85.324219 237.613281 C 85.324219 250.539062 74.847656 261.011719 61.929688 261.011719 Z M 72.328125 114.375 C 73.121094 112.507812 76.714844 110.117188 78.746094 110.117188 L 226.472656 110.117188 C 228.507812 110.117188 232.105469 112.507812 232.890625 114.382812 L 260.160156 179.136719 L 45.058594 179.144531 Z M 303.796875 164.417969 C 303.390625 160.851562 300.140625 158.265625 296.578125 158.671875 L 274.410156 161.203125 C 271.988281 161.476562 270.105469 163.113281 269.21875 165.21875 L 245.5625 109.042969 C 242.625 102.074219 234.039062 96.371094 226.472656 96.371094 L 78.746094 96.371094 C 71.183594 96.371094 62.59375 102.074219 59.65625 109.042969 L 36.003906 165.21875 C 35.117188 163.113281 33.234375 161.476562 30.8125 161.203125 L 8.644531 158.671875 C 5.082031 158.265625 1.832031 160.851562 1.425781 164.417969 L 1.1875 166.484375 C 0.78125 170.046875 3.25 173.839844 6.675781 174.90625 L 27.90625 181.535156 C 24.472656 186.335938 20.074219 190.898438 16.214844 193.351562 C 10.25 197.128906 6.214844 206.351562 7.242188 213.84375 L 17.253906 286.808594 C 18.28125 294.304688 25.3125 300.433594 32.875 300.433594 L 272.34375 300.433594 C 279.910156 300.433594 286.9375 294.304688 287.96875 286.808594 L 297.976562 213.84375 C 299.003906 206.351562 294.96875 197.128906 289.011719 193.351562 C 285.148438 190.898438 280.75 186.335938 277.316406 181.535156 L 298.546875 174.90625 C 301.96875 173.839844 304.441406 170.046875 304.035156 166.484375 L 303.796875 164.417969 " fill-opacity="1" fill-rule="nonzero"/></g><g clip-path="url(#a520207104)"><g clip-path="url(#92d5295173)"><g transform="matrix(1, 0, 0, 1, 175, 53)"><g clip-path="url(#9dc6a2800d)"><g clip-path="url(#899f44554c)"><g clip-path="url(#15a5e8cced)"><path fill="#000000" d="M 0.3125 0.105469 L 143.035156 0.105469 L 143.035156 142.828125 L 0.3125 142.828125 Z M 0.3125 0.105469 " fill-opacity="1" fill-rule="nonzero"/></g></g></g></g></g></g><g clip-path="url(#9c06c169ac)"><g clip-path="url(#f036325e9e)"><g transform="matrix(1, 0, 0, 1, 166, 43)"><g clip-path="url(#d3acbaccde)"><g clip-path="url(#56190fbded)"><g clip-path="url(#4454b77d96)"><path fill="#ffffff" d="M 0.777344 0.640625 L 162.429688 0.640625 L 162.429688 162.292969 L 0.777344 162.292969 Z M 0.777344 0.640625 " fill-opacity="1" fill-rule="nonzero"/></g></g></g></g></g></g><g clip-path="url(#ea05ae9481)"><g clip-path="url(#625ce0bc05)"><path stroke-linecap="butt" transform="matrix(0.929196, 0, 0, 0.929196, 166.776455, 43.639654)" fill="none" stroke-linejoin="miter" d="M 86.983935 0.001045 C 38.945924 0.001045 0.000956691 38.946012 0.000956691 86.984023 C 0.000956691 135.026239 38.945924 173.967002 86.983935 173.967002 C 135.02615 173.967002 173.966913 135.026239 173.966913 86.984023 C 173.966913 38.946012 135.02615 0.001045 86.983935 0.001045 Z M 86.983935 0.001045 " stroke="#fbd333" stroke-width="22.600185" stroke-opacity="1" stroke-miterlimit="4"/></g></g><g clip-path="url(#68b0cdcb29)"><g clip-path="url(#00f7d6cceb)"><g clip-path="url(#1c45021c6f)"><g transform="matrix(1, 0, 0, 1, 281, 170)"><g clip-path="url(#46f4a1187d)"><g clip-path="url(#1300040f74)"><g clip-path="url(#f0a4dba635)"><g clip-path="url(#10c1f82732)"><path fill="#f6ce1e" d="M -0.539062 25.066406 L 29.464844 -0.378906 L 103.710938 87.179688 L 73.703125 112.625 Z M -0.539062 25.066406 " fill-opacity="1" fill-rule="nonzero"/></g></g></g></g></g></g></g></g><g clip-path="url(#0cc5dfd62d)"><path fill="#000000" d="M 246.578125 172.410156 L 186.792969 112.617188 L 210.617188 88.789062 L 246.578125 124.75 L 336.925781 34.410156 L 360.75 58.230469 Z M 246.578125 172.410156 " fill-opacity="1" fill-rule="nonzero"/></g></g></g></svg>