<svg xmlns="http://www.w3.org/2000/svg" xmlns:xlink="http://www.w3.org/1999/xlink" width="512" zoomAndPan="magnify" viewBox="0 0 384 383.999986" height="512" preserveAspectRatio="xMidYMid meet" version="1.0"><defs><clipPath id="2f87af9d16"><path d="M 9.433594 52.113281 L 374.683594 52.113281 L 374.683594 321.363281 L 9.433594 321.363281 Z M 9.433594 52.113281 " clip-rule="nonzero"/></clipPath></defs><g clip-path="url(#2f87af9d16)"><path fill="#fbd333" d="M 368.625 234.53125 C 368.625 237.722656 366.023438 240.324219 362.835938 240.324219 L 357.042969 240.324219 C 353.855469 240.324219 351.253906 237.722656 351.253906 234.53125 L 351.253906 153.457031 C 351.253906 150.269531 353.855469 147.667969 357.042969 147.667969 L 362.835938 147.667969 C 366.023438 147.667969 368.625 150.269531 368.625 153.457031 Z M 330.984375 222.949219 L 330.984375 167.9375 L 345.460938 167.9375 L 345.460938 222.949219 Z M 325.191406 254.800781 C 325.191406 257.992188 322.589844 260.59375 319.402344 260.59375 L 284.65625 260.59375 C 283.808594 260.59375 282.992188 260.964844 282.4375 261.621094 L 251.605469 298.234375 L 90.652344 298.234375 L 90.652344 156.351562 C 90.652344 153.164062 93.253906 150.5625 96.445312 150.5625 L 125.402344 150.5625 C 126.996094 150.5625 128.296875 149.261719 128.296875 147.667969 L 128.296875 101.339844 C 128.296875 98.148438 130.898438 95.546875 134.085938 95.546875 L 281.761719 95.546875 C 284.949219 95.546875 287.550781 98.148438 287.550781 101.339844 L 287.550781 127.398438 C 287.550781 128.992188 288.851562 130.292969 290.445312 130.292969 L 319.402344 130.292969 C 322.589844 130.292969 325.191406 132.894531 325.191406 136.085938 Z M 236.980469 315.609375 L 96.445312 315.609375 C 93.253906 315.609375 90.652344 313.007812 90.652344 309.816406 L 90.652344 304.027344 L 246.730469 304.027344 Z M 67.488281 286.652344 L 67.488281 182.414062 L 84.863281 182.414062 L 84.863281 286.652344 Z M 171.730469 81.070312 L 241.222656 81.070312 L 241.222656 89.757812 L 171.730469 89.757812 Z M 148.566406 69.488281 L 148.566406 63.695312 C 148.566406 60.507812 151.167969 57.90625 154.355469 57.90625 L 258.59375 57.90625 C 261.785156 57.90625 264.386719 60.507812 264.386719 63.695312 L 264.386719 69.488281 C 264.386719 72.675781 261.785156 75.277344 258.59375 75.277344 L 154.355469 75.277344 C 151.167969 75.277344 148.566406 72.675781 148.566406 69.488281 Z M 61.699219 304.046875 C 61.722656 307.847656 60.339844 310.847656 58.011719 312.078125 C 55.660156 313.3125 52.414062 312.734375 49.074219 310.472656 L 20.3125 281.710938 C 20.234375 281.640625 20.164062 281.5625 20.074219 281.496094 C 15.9375 278.179688 15.371094 275.058594 15.371094 272.175781 L 15.371094 190.828125 C 15.371094 188.292969 15.730469 185.308594 20.074219 181.824219 L 48.929688 158.75 C 52.152344 156.398438 55.410156 155.765625 57.851562 157.019531 C 60.285156 158.265625 61.722656 161.261719 61.699219 165.039062 Z M 362.835938 141.875 L 357.042969 141.875 C 350.652344 141.875 345.460938 147.066406 345.460938 153.457031 L 345.460938 162.144531 L 330.984375 162.144531 L 330.984375 136.085938 C 330.984375 129.695312 325.792969 124.503906 319.402344 124.503906 L 293.34375 124.503906 L 293.34375 101.339844 C 293.34375 94.949219 288.152344 89.757812 281.761719 89.757812 L 247.011719 89.757812 L 247.011719 81.070312 L 258.59375 81.070312 C 264.984375 81.070312 270.175781 75.878906 270.175781 69.488281 L 270.175781 63.695312 C 270.175781 57.304688 264.984375 52.113281 258.59375 52.113281 L 154.355469 52.113281 C 147.964844 52.113281 142.773438 57.304688 142.773438 63.695312 L 142.773438 69.488281 C 142.773438 75.878906 147.964844 81.070312 154.355469 81.070312 L 165.9375 81.070312 L 165.9375 89.757812 L 134.085938 89.757812 C 127.695312 89.757812 122.503906 94.949219 122.503906 101.339844 L 122.503906 144.769531 L 96.445312 144.769531 C 90.054688 144.769531 84.863281 149.960938 84.863281 156.351562 L 84.863281 176.621094 L 67.488281 176.621094 L 67.488281 165.0625 C 67.523438 159.058594 64.910156 154.125 60.488281 151.863281 C 56.019531 149.578125 50.570312 150.382812 45.410156 154.148438 L 16.457031 177.300781 C 10.359375 182.199219 9.578125 187.097656 9.578125 190.828125 L 9.578125 272.175781 C 9.578125 275.726562 10.28125 280.996094 16.332031 285.90625 L 45.175781 314.757812 C 45.296875 314.882812 45.421875 314.996094 45.570312 315.085938 C 48.816406 317.359375 52.1875 318.503906 55.308594 318.503906 C 57.21875 318.503906 59.050781 318.074219 60.703125 317.203125 C 65 314.941406 67.535156 310.007812 67.488281 304.027344 L 67.488281 292.445312 L 84.863281 292.445312 L 84.863281 309.816406 C 84.863281 316.207031 90.054688 321.398438 96.445312 321.398438 L 238.328125 321.398438 C 239.175781 321.398438 239.988281 321.027344 240.542969 320.371094 L 286 266.382812 L 319.402344 266.382812 C 325.792969 266.382812 330.984375 261.191406 330.984375 254.800781 L 330.984375 228.742188 L 345.460938 228.742188 L 345.460938 234.53125 C 345.460938 240.921875 350.652344 246.113281 357.042969 246.113281 L 362.835938 246.113281 C 369.226562 246.113281 374.417969 240.921875 374.417969 234.53125 L 374.417969 153.457031 C 374.417969 147.066406 369.226562 141.875 362.835938 141.875 " fill-opacity="1" fill-rule="nonzero"/></g><path fill="#fbd333" d="M 241.222656 179.519531 C 241.222656 181.113281 239.921875 182.414062 238.328125 182.414062 L 105.132812 182.414062 C 103.539062 182.414062 102.238281 181.113281 102.238281 179.519531 L 102.238281 170.832031 C 102.238281 169.234375 103.539062 167.9375 105.132812 167.9375 L 238.328125 167.9375 C 239.921875 167.9375 241.222656 169.234375 241.222656 170.832031 Z M 232.535156 231.636719 L 238.328125 231.636719 C 239.921875 231.636719 241.222656 232.9375 241.222656 234.53125 C 241.222656 236.128906 239.921875 237.429688 238.328125 237.429688 L 226.746094 237.429688 C 223.65625 237.429688 220.953125 234.839844 220.953125 231.886719 L 220.953125 188.203125 L 226.746094 188.203125 L 226.746094 225.847656 C 226.746094 228.992188 229.390625 231.636719 232.535156 231.636719 Z M 194.894531 231.636719 L 200.683594 231.636719 C 202.28125 231.636719 203.582031 232.9375 203.582031 234.53125 C 203.582031 236.128906 202.28125 237.429688 200.683594 237.429688 L 189.101562 237.429688 C 186.015625 237.429688 183.3125 234.839844 183.3125 231.886719 L 183.3125 188.203125 L 189.101562 188.203125 L 189.101562 225.847656 C 189.101562 228.992188 191.75 231.636719 194.894531 231.636719 Z M 157.25 231.636719 L 163.042969 231.636719 C 164.636719 231.636719 165.9375 232.9375 165.9375 234.53125 C 165.9375 236.128906 164.636719 237.429688 163.042969 237.429688 L 151.460938 237.429688 C 148.371094 237.429688 145.667969 234.839844 145.667969 231.886719 L 145.667969 188.203125 L 151.460938 188.203125 L 151.460938 225.847656 C 151.460938 228.992188 154.105469 231.636719 157.25 231.636719 Z M 119.609375 231.636719 L 125.402344 231.636719 C 126.996094 231.636719 128.296875 232.9375 128.296875 234.53125 C 128.296875 236.128906 126.996094 237.429688 125.402344 237.429688 L 113.820312 237.429688 C 110.730469 237.429688 108.027344 234.839844 108.027344 231.886719 L 108.027344 188.203125 L 113.820312 188.203125 L 113.820312 225.847656 C 113.820312 228.992188 116.464844 231.636719 119.609375 231.636719 Z M 238.328125 162.144531 L 105.132812 162.144531 C 100.335938 162.144531 96.445312 166.035156 96.445312 170.832031 L 96.445312 179.519531 C 96.445312 183.285156 98.878906 186.472656 102.238281 187.671875 L 102.238281 231.886719 C 102.238281 238.027344 107.542969 243.21875 113.820312 243.21875 L 125.402344 243.21875 C 130.195312 243.21875 134.085938 239.328125 134.085938 234.53125 C 134.085938 229.738281 130.195312 225.847656 125.402344 225.847656 L 119.609375 225.847656 L 119.609375 188.203125 L 139.878906 188.203125 L 139.878906 231.886719 C 139.878906 238.027344 145.183594 243.21875 151.460938 243.21875 L 163.042969 243.21875 C 167.839844 243.21875 171.730469 239.328125 171.730469 234.53125 C 171.730469 229.738281 167.839844 225.847656 163.042969 225.847656 L 157.25 225.847656 L 157.25 188.203125 L 177.519531 188.203125 L 177.519531 231.886719 C 177.519531 238.027344 182.824219 243.21875 189.101562 243.21875 L 200.683594 243.21875 C 205.480469 243.21875 209.371094 239.328125 209.371094 234.53125 C 209.371094 229.738281 205.480469 225.847656 200.683594 225.847656 L 194.894531 225.847656 L 194.894531 188.203125 L 215.164062 188.203125 L 215.164062 231.886719 C 215.164062 238.027344 220.46875 243.21875 226.746094 243.21875 L 238.328125 243.21875 C 243.121094 243.21875 247.011719 239.328125 247.011719 234.53125 C 247.011719 229.738281 243.121094 225.847656 238.328125 225.847656 L 232.535156 225.847656 L 232.535156 188.203125 L 238.328125 188.203125 C 243.121094 188.203125 247.011719 184.3125 247.011719 179.519531 L 247.011719 170.832031 C 247.011719 166.035156 243.121094 162.144531 238.328125 162.144531 " fill-opacity="1" fill-rule="nonzero"/><path fill="#fbd333" d="M 287.550781 231.636719 C 282.753906 231.636719 278.863281 227.746094 278.863281 222.949219 C 278.863281 218.15625 282.753906 214.265625 287.550781 214.265625 C 292.347656 214.265625 296.238281 218.15625 296.238281 222.949219 C 296.238281 227.746094 292.347656 231.636719 287.550781 231.636719 Z M 287.550781 208.472656 C 279.566406 208.472656 273.074219 214.964844 273.074219 222.949219 C 273.074219 230.9375 279.566406 237.429688 287.550781 237.429688 C 295.535156 237.429688 302.027344 230.9375 302.027344 222.949219 C 302.027344 214.964844 295.535156 208.472656 287.550781 208.472656 " fill-opacity="1" fill-rule="nonzero"/><path fill="#fbd333" d="M 287.550781 153.457031 C 289.144531 153.457031 290.445312 154.757812 290.445312 156.351562 C 290.445312 157.949219 289.144531 159.25 287.550781 159.25 C 285.957031 159.25 284.65625 157.949219 284.65625 156.351562 C 284.65625 154.757812 285.957031 153.457031 287.550781 153.457031 Z M 287.550781 165.039062 C 292.347656 165.039062 296.238281 161.148438 296.238281 156.351562 C 296.238281 151.558594 292.347656 147.667969 287.550781 147.667969 C 282.753906 147.667969 278.863281 151.558594 278.863281 156.351562 C 278.863281 161.148438 282.753906 165.039062 287.550781 165.039062 " fill-opacity="1" fill-rule="nonzero"/><path fill="#fbd333" d="M 157.25 107.128906 C 165.238281 107.128906 171.730469 113.621094 171.730469 121.605469 C 171.730469 129.59375 165.238281 136.085938 157.25 136.085938 C 149.265625 136.085938 142.773438 129.59375 142.773438 121.605469 C 142.773438 113.621094 149.265625 107.128906 157.25 107.128906 Z M 157.25 141.875 C 168.425781 141.875 177.519531 132.78125 177.519531 121.605469 C 177.519531 110.433594 168.425781 101.339844 157.25 101.339844 C 146.078125 101.339844 136.984375 110.433594 136.984375 121.605469 C 136.984375 132.78125 146.078125 141.875 157.25 141.875 " fill-opacity="1" fill-rule="nonzero"/><path fill="#fbd333" d="M 258.59375 107.128906 C 266.582031 107.128906 273.074219 113.621094 273.074219 121.605469 C 273.074219 129.59375 266.582031 136.085938 258.59375 136.085938 C 250.609375 136.085938 244.117188 129.59375 244.117188 121.605469 C 244.117188 113.621094 250.609375 107.128906 258.59375 107.128906 Z M 258.59375 141.875 C 269.769531 141.875 278.863281 132.78125 278.863281 121.605469 C 278.863281 110.433594 269.769531 101.339844 258.59375 101.339844 C 247.421875 101.339844 238.328125 110.433594 238.328125 121.605469 C 238.328125 132.78125 247.421875 141.875 258.59375 141.875 " fill-opacity="1" fill-rule="nonzero"/><path fill="#fbd333" d="M 250.757812 129.445312 C 251.324219 130.011719 252.058594 130.292969 252.804688 130.292969 C 253.550781 130.292969 254.285156 130.011719 254.851562 129.445312 L 258.59375 125.703125 L 262.339844 129.445312 C 262.90625 130.011719 263.640625 130.292969 264.386719 130.292969 C 265.132812 130.292969 265.867188 130.011719 266.433594 129.445312 C 267.566406 128.3125 267.566406 126.480469 266.433594 125.351562 L 262.691406 121.605469 L 266.433594 117.863281 C 267.566406 116.730469 267.566406 114.898438 266.433594 113.769531 C 265.304688 112.636719 263.46875 112.636719 262.339844 113.769531 L 258.59375 117.511719 L 254.851562 113.769531 C 253.71875 112.636719 251.886719 112.636719 250.757812 113.769531 C 249.625 114.898438 249.625 116.730469 250.757812 117.863281 L 254.5 121.605469 L 250.757812 125.351562 C 249.625 126.480469 249.625 128.3125 250.757812 129.445312 " fill-opacity="1" fill-rule="nonzero"/><path fill="#fbd333" d="M 149.414062 129.445312 C 149.980469 130.011719 150.714844 130.292969 151.460938 130.292969 C 152.207031 130.292969 152.941406 130.011719 153.507812 129.445312 L 157.25 125.703125 L 160.996094 129.445312 C 161.5625 130.011719 162.296875 130.292969 163.042969 130.292969 C 163.789062 130.292969 164.523438 130.011719 165.089844 129.445312 C 166.222656 128.3125 166.222656 126.480469 165.089844 125.351562 L 161.347656 121.605469 L 165.089844 117.863281 C 166.222656 116.730469 166.222656 114.898438 165.089844 113.769531 C 163.957031 112.636719 162.125 112.636719 160.996094 113.769531 L 157.25 117.511719 L 153.507812 113.769531 C 152.375 112.636719 150.542969 112.636719 149.414062 113.769531 C 148.28125 114.898438 148.28125 116.730469 149.414062 117.863281 L 153.15625 121.605469 L 149.414062 125.351562 C 148.28125 126.480469 148.28125 128.3125 149.414062 129.445312 " fill-opacity="1" fill-rule="nonzero"/><path fill="#fbd333" d="M 287.550781 249.011719 C 273.1875 249.011719 261.492188 237.328125 261.492188 222.949219 C 261.492188 208.574219 273.1875 196.890625 287.550781 196.890625 C 301.914062 196.890625 313.609375 208.574219 313.609375 222.949219 C 313.609375 237.328125 301.914062 249.011719 287.550781 249.011719 Z M 287.550781 141.875 C 295.535156 141.875 302.027344 148.367188 302.027344 156.351562 C 302.027344 164.339844 295.535156 170.832031 287.550781 170.832031 C 279.566406 170.832031 273.074219 164.339844 273.074219 156.351562 C 273.074219 148.367188 279.566406 141.875 287.550781 141.875 Z M 287.550781 176.621094 C 293.09375 176.621094 298.113281 174.382812 301.78125 170.761719 L 306.347656 197.296875 C 301.078125 193.417969 294.585938 191.101562 287.550781 191.101562 C 280.515625 191.101562 274.035156 193.417969 268.753906 197.296875 L 273.320312 170.761719 C 276.988281 174.382812 282.007812 176.621094 287.550781 176.621094 Z M 306.429688 163.683594 C 307.3125 161.398438 307.820312 158.945312 307.820312 156.351562 C 307.820312 145.179688 298.726562 136.085938 287.550781 136.085938 C 276.375 136.085938 267.28125 145.179688 267.28125 156.351562 C 267.28125 158.945312 267.792969 161.398438 268.671875 163.683594 L 261.636719 204.503906 C 257.917969 209.71875 255.699219 216.074219 255.699219 222.949219 C 255.699219 240.515625 269.984375 254.800781 287.550781 254.800781 C 305.117188 254.800781 319.402344 240.515625 319.402344 222.949219 C 319.402344 216.074219 317.183594 209.71875 313.464844 204.503906 L 306.429688 163.683594 " fill-opacity="1" fill-rule="nonzero"/></svg>