<svg xmlns="http://www.w3.org/2000/svg" xmlns:xlink="http://www.w3.org/1999/xlink" width="512" zoomAndPan="magnify" viewBox="0 0 384 383.999986" height="512" preserveAspectRatio="xMidYMid meet" version="1.0"><defs><clipPath id="7210b0e149"><path d="M 11.398438 11.398438 L 372.898438 11.398438 L 372.898438 372.898438 L 11.398438 372.898438 Z M 11.398438 11.398438 " clip-rule="nonzero"/></clipPath></defs><g clip-path="url(#7210b0e149)"><path fill="#b70021" d="M 191.996094 11.472656 C 92.296875 11.472656 11.472656 92.296875 11.472656 191.996094 C 11.472656 291.695312 92.296875 372.519531 191.996094 372.519531 C 291.695312 372.519531 372.519531 291.695312 372.519531 191.996094 C 372.519531 92.296875 291.695312 11.472656 191.996094 11.472656 Z M 191.996094 351.675781 C 103.804688 351.675781 32.3125 280.183594 32.3125 191.996094 C 32.3125 103.804688 103.804688 32.3125 191.996094 32.3125 C 280.183594 32.3125 351.675781 103.804688 351.675781 191.996094 C 351.675781 280.183594 280.183594 351.675781 191.996094 351.675781 Z M 191.996094 351.675781 " fill-opacity="1" fill-rule="nonzero"/></g><path fill="#b70021" d="M 220.6875 191.996094 C 220.6875 192.933594 220.640625 193.871094 220.550781 194.808594 C 220.457031 195.742188 220.320312 196.671875 220.136719 197.59375 C 219.953125 198.515625 219.726562 199.425781 219.453125 200.324219 C 219.179688 201.222656 218.863281 202.105469 218.503906 202.976562 C 218.144531 203.84375 217.742188 204.691406 217.300781 205.519531 C 216.855469 206.347656 216.375 207.152344 215.851562 207.9375 C 215.328125 208.71875 214.769531 209.472656 214.175781 210.199219 C 213.578125 210.921875 212.949219 211.621094 212.285156 212.285156 C 211.621094 212.949219 210.925781 213.578125 210.199219 214.175781 C 209.472656 214.769531 208.71875 215.328125 207.9375 215.851562 C 207.15625 216.375 206.347656 216.855469 205.519531 217.300781 C 204.691406 217.742188 203.84375 218.144531 202.976562 218.503906 C 202.105469 218.863281 201.222656 219.179688 200.324219 219.453125 C 199.425781 219.726562 198.515625 219.953125 197.59375 220.136719 C 196.671875 220.320312 195.742188 220.457031 194.808594 220.550781 C 193.871094 220.640625 192.933594 220.6875 191.996094 220.6875 C 191.054688 220.6875 190.117188 220.640625 189.183594 220.550781 C 188.246094 220.457031 187.316406 220.320312 186.398438 220.136719 C 185.476562 219.953125 184.566406 219.726562 183.664062 219.453125 C 182.765625 219.179688 181.882812 218.863281 181.015625 218.503906 C 180.144531 218.144531 179.296875 217.742188 178.46875 217.300781 C 177.640625 216.855469 176.835938 216.375 176.054688 215.851562 C 175.273438 215.328125 174.519531 214.769531 173.792969 214.175781 C 173.066406 213.578125 172.371094 212.949219 171.707031 212.285156 C 171.039062 211.621094 170.410156 210.921875 169.8125 210.199219 C 169.21875 209.472656 168.660156 208.71875 168.136719 207.9375 C 167.613281 207.152344 167.132812 206.347656 166.6875 205.519531 C 166.246094 204.691406 165.84375 203.84375 165.484375 202.976562 C 165.125 202.105469 164.808594 201.222656 164.535156 200.324219 C 164.265625 199.425781 164.035156 198.515625 163.851562 197.59375 C 163.667969 196.671875 163.53125 195.742188 163.4375 194.808594 C 163.347656 193.871094 163.300781 192.933594 163.300781 191.996094 C 163.300781 191.054688 163.347656 190.117188 163.4375 189.183594 C 163.53125 188.246094 163.667969 187.316406 163.851562 186.398438 C 164.035156 185.476562 164.265625 184.566406 164.535156 183.664062 C 164.808594 182.765625 165.125 181.882812 165.484375 181.015625 C 165.84375 180.144531 166.246094 179.296875 166.6875 178.46875 C 167.132812 177.640625 167.613281 176.835938 168.136719 176.054688 C 168.660156 175.273438 169.21875 174.519531 169.8125 173.792969 C 170.410156 173.066406 171.039062 172.371094 171.707031 171.707031 C 172.371094 171.039062 173.066406 170.410156 173.792969 169.8125 C 174.519531 169.21875 175.273438 168.660156 176.054688 168.136719 C 176.835938 167.613281 177.640625 167.132812 178.46875 166.6875 C 179.296875 166.246094 180.144531 165.84375 181.015625 165.484375 C 181.882812 165.125 182.765625 164.808594 183.664062 164.535156 C 184.566406 164.265625 185.476562 164.035156 186.398438 163.851562 C 187.316406 163.667969 188.246094 163.53125 189.183594 163.4375 C 190.117188 163.347656 191.054688 163.300781 191.996094 163.300781 C 192.933594 163.300781 193.871094 163.347656 194.808594 163.4375 C 195.742188 163.53125 196.671875 163.667969 197.59375 163.851562 C 198.515625 164.035156 199.425781 164.265625 200.324219 164.535156 C 201.222656 164.808594 202.105469 165.125 202.976562 165.484375 C 203.84375 165.84375 204.691406 166.246094 205.519531 166.6875 C 206.347656 167.132812 207.15625 167.613281 207.9375 168.136719 C 208.71875 168.660156 209.472656 169.21875 210.199219 169.8125 C 210.925781 170.410156 211.621094 171.039062 212.285156 171.703125 C 212.949219 172.371094 213.578125 173.066406 214.175781 173.792969 C 214.769531 174.519531 215.328125 175.273438 215.851562 176.054688 C 216.375 176.835938 216.855469 177.640625 217.300781 178.46875 C 217.742188 179.296875 218.144531 180.144531 218.503906 181.015625 C 218.863281 181.882812 219.179688 182.765625 219.453125 183.664062 C 219.726562 184.566406 219.953125 185.476562 220.136719 186.398438 C 220.320312 187.316406 220.457031 188.246094 220.550781 189.183594 C 220.640625 190.117188 220.6875 191.054688 220.6875 191.996094 Z M 220.6875 191.996094 " fill-opacity="1" fill-rule="nonzero"/><path fill="#b70021" d="M 123.164062 191.996094 C 123.164062 192.933594 123.117188 193.871094 123.027344 194.808594 C 122.933594 195.742188 122.796875 196.671875 122.613281 197.59375 C 122.429688 198.515625 122.203125 199.425781 121.929688 200.324219 C 121.65625 201.222656 121.339844 202.105469 120.980469 202.976562 C 120.621094 203.84375 120.21875 204.691406 119.777344 205.519531 C 119.335938 206.347656 118.851562 207.152344 118.328125 207.9375 C 117.808594 208.71875 117.25 209.472656 116.652344 210.199219 C 116.054688 210.921875 115.425781 211.621094 114.761719 212.285156 C 114.097656 212.949219 113.402344 213.578125 112.675781 214.175781 C 111.949219 214.769531 111.195312 215.328125 110.414062 215.851562 C 109.632812 216.375 108.828125 216.855469 107.996094 217.300781 C 107.167969 217.742188 106.320312 218.144531 105.453125 218.503906 C 104.585938 218.863281 103.699219 219.179688 102.800781 219.453125 C 101.902344 219.726562 100.992188 219.953125 100.070312 220.136719 C 99.148438 220.320312 98.21875 220.457031 97.285156 220.550781 C 96.347656 220.640625 95.410156 220.6875 94.472656 220.6875 C 93.53125 220.6875 92.59375 220.640625 91.660156 220.550781 C 90.722656 220.457031 89.796875 220.320312 88.875 220.136719 C 87.953125 219.953125 87.042969 219.726562 86.140625 219.453125 C 85.242188 219.179688 84.359375 218.863281 83.492188 218.503906 C 82.621094 218.144531 81.773438 217.742188 80.945312 217.300781 C 80.117188 216.855469 79.3125 216.375 78.53125 215.851562 C 77.75 215.328125 76.996094 214.769531 76.269531 214.175781 C 75.542969 213.578125 74.847656 212.949219 74.183594 212.285156 C 73.519531 211.621094 72.886719 210.921875 72.292969 210.199219 C 71.695312 209.472656 71.136719 208.71875 70.613281 207.9375 C 70.09375 207.152344 69.609375 206.347656 69.167969 205.519531 C 68.722656 204.691406 68.320312 203.84375 67.960938 202.976562 C 67.601562 202.105469 67.285156 201.222656 67.015625 200.324219 C 66.742188 199.425781 66.511719 198.515625 66.328125 197.59375 C 66.144531 196.671875 66.007812 195.742188 65.917969 194.808594 C 65.824219 193.871094 65.777344 192.933594 65.777344 191.996094 C 65.777344 191.054688 65.824219 190.117188 65.917969 189.183594 C 66.007812 188.246094 66.144531 187.316406 66.328125 186.398438 C 66.511719 185.476562 66.742188 184.566406 67.015625 183.664062 C 67.285156 182.765625 67.601562 181.882812 67.960938 181.015625 C 68.320312 180.144531 68.722656 179.296875 69.167969 178.46875 C 69.609375 177.640625 70.09375 176.835938 70.613281 176.054688 C 71.136719 175.273438 71.695312 174.519531 72.292969 173.792969 C 72.886719 173.066406 73.519531 172.371094 74.183594 171.707031 C 74.847656 171.039062 75.542969 170.410156 76.269531 169.8125 C 76.996094 169.21875 77.75 168.660156 78.53125 168.136719 C 79.3125 167.613281 80.117188 167.132812 80.945312 166.6875 C 81.773438 166.246094 82.621094 165.84375 83.492188 165.484375 C 84.359375 165.125 85.242188 164.808594 86.140625 164.535156 C 87.042969 164.265625 87.953125 164.035156 88.875 163.851562 C 89.796875 163.667969 90.722656 163.53125 91.660156 163.4375 C 92.59375 163.347656 93.53125 163.300781 94.472656 163.300781 C 95.410156 163.300781 96.347656 163.347656 97.285156 163.4375 C 98.21875 163.53125 99.148438 163.667969 100.070312 163.851562 C 100.992188 164.035156 101.902344 164.265625 102.800781 164.535156 C 103.699219 164.808594 104.585938 165.125 105.453125 165.484375 C 106.320312 165.84375 107.167969 166.246094 107.996094 166.6875 C 108.828125 167.132812 109.632812 167.613281 110.414062 168.136719 C 111.195312 168.660156 111.949219 169.21875 112.675781 169.8125 C 113.402344 170.410156 114.097656 171.039062 114.761719 171.703125 C 115.425781 172.371094 116.054688 173.066406 116.652344 173.792969 C 117.25 174.519531 117.808594 175.273438 118.328125 176.054688 C 118.851562 176.835938 119.335938 177.640625 119.777344 178.46875 C 120.21875 179.296875 120.621094 180.144531 120.980469 181.015625 C 121.339844 181.882812 121.65625 182.765625 121.929688 183.664062 C 122.203125 184.566406 122.429688 185.476562 122.613281 186.398438 C 122.796875 187.316406 122.933594 188.246094 123.027344 189.183594 C 123.117188 190.117188 123.164062 191.054688 123.164062 191.996094 Z M 123.164062 191.996094 " fill-opacity="1" fill-rule="nonzero"/><path fill="#b70021" d="M 318.210938 191.996094 C 318.210938 192.933594 318.164062 193.871094 318.074219 194.808594 C 317.980469 195.742188 317.84375 196.671875 317.660156 197.59375 C 317.476562 198.515625 317.246094 199.425781 316.976562 200.324219 C 316.703125 201.222656 316.386719 202.105469 316.027344 202.976562 C 315.667969 203.84375 315.265625 204.691406 314.824219 205.519531 C 314.378906 206.347656 313.898438 207.152344 313.375 207.9375 C 312.851562 208.71875 312.292969 209.472656 311.699219 210.199219 C 311.101562 210.921875 310.472656 211.621094 309.804688 212.285156 C 309.140625 212.949219 308.445312 213.578125 307.71875 214.175781 C 306.992188 214.769531 306.238281 215.328125 305.457031 215.851562 C 304.675781 216.375 303.871094 216.855469 303.042969 217.300781 C 302.214844 217.742188 301.367188 218.144531 300.496094 218.503906 C 299.628906 218.863281 298.746094 219.179688 297.847656 219.453125 C 296.945312 219.726562 296.035156 219.953125 295.113281 220.136719 C 294.191406 220.320312 293.265625 220.457031 292.328125 220.550781 C 291.394531 220.640625 290.457031 220.6875 289.515625 220.6875 C 288.578125 220.6875 287.640625 220.640625 286.703125 220.550781 C 285.769531 220.457031 284.839844 220.320312 283.917969 220.136719 C 282.996094 219.953125 282.085938 219.726562 281.1875 219.453125 C 280.289062 219.179688 279.40625 218.863281 278.535156 218.503906 C 277.667969 218.144531 276.820312 217.742188 275.992188 217.300781 C 275.164062 216.855469 274.355469 216.375 273.574219 215.851562 C 272.792969 215.328125 272.039062 214.769531 271.3125 214.175781 C 270.585938 213.578125 269.890625 212.949219 269.226562 212.285156 C 268.5625 211.621094 267.933594 210.921875 267.335938 210.199219 C 266.742188 209.472656 266.179688 208.71875 265.660156 207.9375 C 265.136719 207.152344 264.65625 206.347656 264.210938 205.519531 C 263.769531 204.691406 263.367188 203.84375 263.007812 202.976562 C 262.648438 202.105469 262.332031 201.222656 262.058594 200.324219 C 261.785156 199.425781 261.558594 198.515625 261.375 197.59375 C 261.191406 196.671875 261.054688 195.742188 260.960938 194.808594 C 260.871094 193.871094 260.824219 192.933594 260.824219 191.996094 C 260.824219 191.054688 260.871094 190.117188 260.960938 189.183594 C 261.054688 188.246094 261.191406 187.316406 261.375 186.398438 C 261.558594 185.476562 261.785156 184.566406 262.058594 183.664062 C 262.332031 182.765625 262.648438 181.882812 263.007812 181.015625 C 263.367188 180.144531 263.769531 179.296875 264.210938 178.46875 C 264.65625 177.640625 265.136719 176.835938 265.660156 176.054688 C 266.179688 175.273438 266.742188 174.519531 267.335938 173.792969 C 267.933594 173.066406 268.5625 172.371094 269.226562 171.707031 C 269.890625 171.039062 270.585938 170.410156 271.3125 169.8125 C 272.039062 169.21875 272.792969 168.660156 273.574219 168.136719 C 274.355469 167.613281 275.164062 167.132812 275.992188 166.6875 C 276.820312 166.246094 277.667969 165.84375 278.535156 165.484375 C 279.40625 165.125 280.289062 164.808594 281.1875 164.535156 C 282.085938 164.265625 282.996094 164.035156 283.917969 163.851562 C 284.839844 163.667969 285.769531 163.53125 286.703125 163.4375 C 287.640625 163.347656 288.578125 163.300781 289.515625 163.300781 C 290.457031 163.300781 291.394531 163.347656 292.328125 163.4375 C 293.265625 163.53125 294.191406 163.667969 295.113281 163.851562 C 296.035156 164.035156 296.945312 164.265625 297.847656 164.535156 C 298.746094 164.808594 299.628906 165.125 300.496094 165.484375 C 301.367188 165.84375 302.214844 166.246094 303.042969 166.6875 C 303.871094 167.132812 304.675781 167.613281 305.457031 168.136719 C 306.238281 168.660156 306.992188 169.21875 307.71875 169.8125 C 308.445312 170.410156 309.140625 171.039062 309.804688 171.703125 C 310.472656 172.371094 311.101562 173.066406 311.699219 173.792969 C 312.292969 174.519531 312.851562 175.273438 313.375 176.054688 C 313.898438 176.835938 314.378906 177.640625 314.824219 178.46875 C 315.265625 179.296875 315.667969 180.144531 316.027344 181.015625 C 316.386719 181.882812 316.703125 182.765625 316.976562 183.664062 C 317.246094 184.566406 317.476562 185.476562 317.660156 186.398438 C 317.84375 187.316406 317.980469 188.246094 318.074219 189.183594 C 318.164062 190.117188 318.210938 191.054688 318.210938 191.996094 Z M 318.210938 191.996094 " fill-opacity="1" fill-rule="nonzero"/></svg>