<svg xmlns="http://www.w3.org/2000/svg" xmlns:xlink="http://www.w3.org/1999/xlink" width="512" zoomAndPan="magnify" viewBox="0 0 384 383.999986" height="512" preserveAspectRatio="xMidYMid meet" version="1.0"><defs><clipPath id="a77a19f987"><path d="M 11.144531 13.773438 L 372.855469 13.773438 L 372.855469 375.484375 L 11.144531 375.484375 Z M 11.144531 13.773438 " clip-rule="nonzero"/></clipPath><clipPath id="2f091346c5"><path d="M 192 13.773438 C 92.117188 13.773438 11.144531 94.746094 11.144531 194.628906 C 11.144531 294.511719 92.117188 375.484375 192 375.484375 C 291.882812 375.484375 372.855469 294.511719 372.855469 194.628906 C 372.855469 94.746094 291.882812 13.773438 192 13.773438 Z M 192 13.773438 " clip-rule="nonzero"/></clipPath><clipPath id="0d6a286b7e"><path d="M 0.144531 0.773438 L 361.855469 0.773438 L 361.855469 362.484375 L 0.144531 362.484375 Z M 0.144531 0.773438 " clip-rule="nonzero"/></clipPath><clipPath id="c93f4e4ee1"><path d="M 181 0.773438 C 81.117188 0.773438 0.144531 81.746094 0.144531 181.628906 C 0.144531 281.511719 81.117188 362.484375 181 362.484375 C 280.882812 362.484375 361.855469 281.511719 361.855469 181.628906 C 361.855469 81.746094 280.882812 0.773438 181 0.773438 Z M 181 0.773438 " clip-rule="nonzero"/></clipPath><clipPath id="c27f062475"><rect x="0" width="362" y="0" height="363"/></clipPath><clipPath id="11a9f9c441"><path d="M 86 81.207031 L 301 81.207031 L 301 296 L 86 296 Z M 86 81.207031 " clip-rule="nonzero"/></clipPath></defs><g clip-path="url(#a77a19f987)"><g clip-path="url(#2f091346c5)"><g transform="matrix(1, 0, 0, 1, 11, 13)"><g clip-path="url(#c27f062475)"><g clip-path="url(#0d6a286b7e)"><g clip-path="url(#c93f4e4ee1)"><path fill="#000000" d="M 0.144531 0.773438 L 361.855469 0.773438 L 361.855469 362.484375 L 0.144531 362.484375 Z M 0.144531 0.773438 " fill-opacity="1" fill-rule="nonzero"/></g></g></g></g></g></g><path fill="#fbd333" d="M 241.480469 283.640625 C 244.222656 282.246094 246.875 280.761719 249.480469 279.144531 L 247.097656 274.652344 Z M 241.480469 283.640625 " fill-opacity="1" fill-rule="nonzero"/><g clip-path="url(#11a9f9c441)"><path fill="#fbd333" d="M 197.660156 285.84375 L 197.660156 246.558594 L 220.761719 246.558594 L 220.042969 237.570312 L 197.660156 237.570312 L 197.660156 192.625 L 216.3125 192.625 L 215.59375 183.636719 L 197.660156 183.636719 L 197.660156 138.691406 L 239.726562 138.691406 C 244.300781 153.328125 246.742188 168.308594 247.054688 183.636719 L 220.355469 183.636719 L 231.277344 192.625 L 247.054688 192.625 C 246.917969 196.851562 246.695312 200.988281 246.289062 205.03125 L 254.515625 211.816406 C 255.375 205.449219 255.882812 199.050781 256.042969 192.625 L 291.144531 192.625 C 290.828125 199.675781 289.757812 206.605469 287.929688 213.417969 C 286.101562 220.234375 283.5625 226.769531 280.3125 233.03125 L 287.414062 238.875 C 288.507812 236.847656 289.53125 234.785156 290.492188 232.691406 C 291.453125 230.597656 292.34375 228.476562 293.167969 226.324219 C 293.988281 224.171875 294.742188 221.996094 295.421875 219.796875 C 296.105469 217.597656 296.714844 215.375 297.253906 213.136719 C 297.792969 210.898438 298.257812 208.644531 298.652344 206.375 C 299.046875 204.105469 299.367188 201.824219 299.613281 199.535156 C 299.859375 197.242188 300.03125 194.949219 300.128906 192.644531 C 300.226562 190.34375 300.25 188.042969 300.199219 185.738281 C 300.148438 183.4375 300.023438 181.136719 299.824219 178.84375 C 299.625 176.546875 299.351562 174.261719 299.003906 171.984375 C 298.65625 169.707031 298.238281 167.445312 297.746094 165.195312 C 297.25 162.945312 296.6875 160.710938 296.050781 158.5 C 295.414062 156.285156 294.703125 154.09375 293.925781 151.925781 C 293.148438 149.757812 292.300781 147.617188 291.382812 145.503906 C 290.464844 143.390625 289.480469 141.3125 288.429688 139.261719 C 287.378906 137.210938 286.265625 135.199219 285.082031 133.21875 C 283.902344 131.242188 282.65625 129.304688 281.351562 127.410156 C 280.046875 125.511719 278.679688 123.65625 277.253906 121.847656 C 275.828125 120.039062 274.34375 118.277344 272.804688 116.566406 C 271.265625 114.851562 269.671875 113.191406 268.027344 111.578125 C 266.378906 109.96875 264.683594 108.414062 262.933594 106.914062 C 261.1875 105.410156 259.394531 103.96875 257.554688 102.582031 C 255.710938 101.199219 253.828125 99.875 251.902344 98.609375 C 249.976562 97.347656 248.011719 96.148438 246.007812 95.011719 C 244.003906 93.875 241.96875 92.804688 239.894531 91.796875 C 237.820312 90.792969 235.71875 89.855469 233.585938 88.988281 C 231.453125 88.117188 229.292969 87.316406 227.109375 86.589844 C 224.925781 85.859375 222.71875 85.199219 220.492188 84.613281 C 218.265625 84.023438 216.019531 83.511719 213.757812 83.066406 C 211.5 82.625 209.226562 82.253906 206.941406 81.960938 C 204.65625 81.664062 202.367188 81.441406 200.066406 81.292969 C 197.769531 81.144531 195.46875 81.074219 193.164062 81.074219 C 191.25 81.074219 189.332031 81.128906 187.421875 81.234375 C 185.507812 81.335938 183.597656 81.492188 181.691406 81.699219 C 179.789062 81.90625 177.890625 82.164062 175.996094 82.472656 C 174.105469 82.785156 172.226562 83.144531 170.351562 83.554688 C 168.480469 83.960938 166.621094 84.421875 164.773438 84.933594 C 162.925781 85.441406 161.09375 86 159.277344 86.609375 C 157.460938 87.21875 155.660156 87.875 153.878906 88.578125 C 152.097656 89.285156 150.335938 90.035156 148.59375 90.835938 C 146.851562 91.636719 145.132812 92.480469 143.4375 93.371094 C 141.742188 94.265625 140.070312 95.203125 138.425781 96.183594 C 136.777344 97.164062 135.160156 98.1875 133.570312 99.257812 C 131.980469 100.328125 130.417969 101.4375 128.886719 102.589844 C 127.355469 103.742188 125.855469 104.933594 124.390625 106.167969 C 122.921875 107.398438 121.488281 108.671875 120.089844 109.980469 C 118.691406 111.289062 117.328125 112.636719 116.003906 114.019531 C 114.675781 115.402344 113.386719 116.820312 112.136719 118.269531 C 110.886719 119.722656 109.675781 121.207031 108.503906 122.726562 C 107.335938 124.242188 106.203125 125.789062 105.117188 127.367188 C 104.03125 128.945312 102.984375 130.550781 101.984375 132.183594 C 100.980469 133.816406 100.023438 135.476562 99.113281 137.164062 C 98.199219 138.847656 97.335938 140.554688 96.511719 142.289062 C 95.691406 144.019531 94.917969 145.773438 94.191406 147.546875 C 93.464844 149.320312 92.789062 151.109375 92.15625 152.917969 C 91.527344 154.730469 90.945312 156.554688 90.414062 158.394531 C 89.882812 160.238281 89.398438 162.089844 88.964844 163.957031 C 88.535156 165.824219 88.152344 167.699219 87.820312 169.589844 C 87.488281 171.476562 87.207031 173.371094 86.976562 175.273438 C 86.746094 177.175781 86.566406 179.082031 86.441406 180.996094 C 86.3125 182.90625 86.234375 184.820312 86.210938 186.738281 C 86.183594 188.652344 86.210938 190.566406 86.289062 192.484375 C 86.367188 194.398438 86.496094 196.308594 86.675781 198.214844 C 86.859375 200.125 87.089844 202.027344 87.371094 203.921875 C 87.65625 205.816406 87.988281 207.703125 88.371094 209.582031 C 88.753906 211.457031 89.191406 213.324219 89.675781 215.175781 C 90.15625 217.03125 90.691406 218.871094 91.273438 220.695312 C 91.855469 222.523438 92.488281 224.332031 93.167969 226.121094 C 93.847656 227.914062 94.578125 229.6875 95.351562 231.4375 C 96.125 233.191406 96.949219 234.921875 97.816406 236.628906 C 98.683594 238.339844 99.597656 240.023438 100.554688 241.679688 C 101.515625 243.339844 102.515625 244.972656 103.5625 246.578125 C 104.609375 248.183594 105.699219 249.761719 106.828125 251.308594 C 107.960938 252.855469 109.128906 254.371094 110.34375 255.855469 C 111.554688 257.339844 112.804688 258.789062 114.097656 260.207031 C 115.386719 261.625 116.714844 263.003906 118.078125 264.351562 C 119.441406 265.695312 120.839844 267.003906 122.277344 268.273438 C 123.710938 269.546875 125.179688 270.777344 126.679688 271.96875 C 128.179688 273.160156 129.710938 274.308594 131.273438 275.421875 C 132.835938 276.53125 134.425781 277.597656 136.046875 278.621094 C 137.664062 279.644531 139.3125 280.625 140.984375 281.558594 C 142.65625 282.496094 144.351562 283.386719 146.074219 284.230469 C 147.792969 285.074219 149.535156 285.875 151.296875 286.625 C 153.058594 287.375 154.84375 288.078125 156.644531 288.734375 C 158.445312 289.390625 160.261719 289.996094 162.09375 290.554688 C 163.925781 291.113281 165.773438 291.621094 167.632812 292.078125 C 169.496094 292.539062 171.367188 292.945312 173.25 293.304688 C 175.132812 293.664062 177.023438 293.96875 178.921875 294.226562 C 180.820312 294.484375 182.726562 294.6875 184.636719 294.84375 C 186.546875 294.996094 188.457031 295.101562 190.375 295.152344 C 192.289062 295.203125 194.203125 295.203125 196.121094 295.152344 C 198.035156 295.101562 199.949219 295 201.859375 294.84375 C 203.769531 294.691406 205.671875 294.484375 207.574219 294.230469 C 209.472656 293.972656 211.363281 293.667969 213.246094 293.308594 C 215.128906 292.949219 217 292.542969 218.859375 292.085938 C 220.722656 291.625 222.566406 291.117188 224.402344 290.5625 L 222.738281 270.15625 C 221.210938 272.167969 219.515625 274.027344 217.648438 275.734375 C 215.785156 277.4375 213.78125 278.960938 211.636719 280.300781 C 209.496094 281.640625 207.25 282.777344 204.898438 283.707031 C 202.550781 284.636719 200.136719 285.351562 197.660156 285.84375 Z M 291.144531 183.636719 L 256.042969 183.636719 C 255.726562 168.332031 253.359375 153.351562 248.941406 138.691406 L 277.839844 138.691406 C 281.839844 145.535156 284.964844 152.757812 287.214844 160.359375 C 289.464844 167.960938 290.773438 175.71875 291.144531 183.636719 Z M 271.90625 129.703125 L 245.839844 129.703125 C 243.527344 123.25 240.554688 117.109375 236.925781 111.292969 C 233.296875 105.472656 229.089844 100.105469 224.3125 95.1875 C 229.035156 96.773438 233.617188 98.710938 238.046875 100.992188 C 242.476562 103.277344 246.710938 105.882812 250.746094 108.808594 C 254.78125 111.734375 258.574219 114.949219 262.121094 118.453125 C 265.667969 121.953125 268.929688 125.707031 271.90625 129.703125 Z M 197.660156 90.421875 C 213.523438 92.847656 227.457031 107.726562 236.445312 129.703125 L 197.660156 129.703125 Z M 162.019531 95.1875 C 157.238281 100.105469 153.035156 105.472656 149.40625 111.292969 C 145.777344 117.109375 142.804688 123.25 140.488281 129.703125 L 114.464844 129.703125 C 117.4375 125.707031 120.699219 121.957031 124.242188 118.453125 C 127.785156 114.953125 131.570312 111.738281 135.601562 108.808594 C 139.636719 105.882812 143.863281 103.277344 148.292969 100.996094 C 152.71875 98.710938 157.296875 96.773438 162.019531 95.1875 Z M 108.535156 138.691406 L 137.386719 138.691406 C 132.964844 153.347656 130.613281 168.332031 130.332031 183.636719 L 95.230469 183.636719 C 95.578125 175.714844 96.878906 167.953125 99.128906 160.351562 C 101.378906 152.746094 104.515625 145.527344 108.535156 138.691406 Z M 95.230469 192.625 L 130.332031 192.625 C 130.605469 207.933594 132.957031 222.917969 137.386719 237.570312 L 108.535156 237.570312 C 104.507812 230.738281 101.371094 223.519531 99.121094 215.917969 C 96.871094 208.3125 95.574219 200.550781 95.230469 192.625 Z M 114.464844 246.558594 L 140.488281 246.558594 C 142.796875 253.023438 145.765625 259.171875 149.398438 265 C 153.027344 270.824219 157.234375 276.199219 162.019531 281.121094 C 157.296875 279.53125 152.71875 277.589844 148.292969 275.300781 C 143.863281 273.015625 139.632812 270.40625 135.601562 267.472656 C 131.570312 264.542969 127.78125 261.324219 124.238281 257.820312 C 120.695312 254.3125 117.4375 250.5625 114.464844 246.558594 Z M 188.671875 285.84375 C 172.804688 283.460938 158.871094 268.539062 149.882812 246.558594 L 188.671875 246.558594 Z M 188.671875 237.570312 L 146.601562 237.570312 C 142.035156 222.9375 139.609375 207.953125 139.320312 192.625 L 188.671875 192.625 Z M 188.671875 183.636719 L 139.320312 183.636719 C 139.617188 168.3125 142.042969 153.328125 146.601562 138.691406 L 188.671875 138.691406 Z M 188.671875 129.703125 L 149.882812 129.703125 C 158.871094 107.726562 172.804688 92.847656 188.671875 90.421875 Z M 188.671875 129.703125 " fill-opacity="1" fill-rule="nonzero"/></g><path fill="#fbd333" d="M 225.929688 199.90625 L 232.625 280.851562 L 247.726562 256.582031 L 266.785156 292.808594 L 279.59375 286.066406 L 260.535156 249.886719 L 288.492188 251.414062 Z M 225.929688 199.90625 " fill-opacity="1" fill-rule="nonzero"/></svg>