<svg xmlns="http://www.w3.org/2000/svg" xmlns:xlink="http://www.w3.org/1999/xlink" width="512" zoomAndPan="magnify" viewBox="0 0 384 383.999986" height="512" preserveAspectRatio="xMidYMid meet" version="1.0"><defs><clipPath id="575a3fd1d3"><path d="M 18.175781 228 L 48 228 L 48 295 L 18.175781 295 Z M 18.175781 228 " clip-rule="nonzero"/></clipPath></defs><path fill="#2d3250" d="M 84.984375 337.234375 L 60.085938 284.878906 L 84.496094 277.160156 L 106.753906 327.246094 C 109.507812 333.4375 106.566406 340.671875 100.277344 343.199219 C 94.402344 345.558594 87.703125 342.945312 84.984375 337.234375 Z M 84.984375 337.234375 " fill-opacity="1" fill-rule="nonzero"/><path fill="#ffc928" d="M 98.398438 275.144531 C 88.316406 269.105469 72.183594 242.925781 75.210938 211.707031 C 59.078125 217.75 27.824219 221.777344 25.804688 226.8125 C 25.574219 227.394531 25.375 228.066406 25.210938 228.828125 C 22.65625 240.601562 28.351562 272.742188 45.183594 291.398438 C 45.972656 292.273438 46.933594 292.96875 47.984375 293.425781 C 49.234375 293.96875 50.613281 294.1875 52 293.992188 C 67.527344 291.820312 81.679688 277.929688 98.398438 275.144531 Z M 98.398438 275.144531 " fill-opacity="1" fill-rule="nonzero"/><path fill="#2d3250" d="M 98.398438 275.144531 C 88.320312 269.105469 72.1875 242.921875 75.210938 211.707031 C 103.070312 197.316406 134.589844 159.160156 140.996094 148.621094 C 138.605469 166.886719 141.984375 193.019531 151.375 220.480469 C 161.476562 250.019531 176.132812 274.089844 190.128906 286.445312 C 179.289062 288.027344 152.0625 270.273438 98.398438 275.144531 Z M 98.398438 275.144531 " fill-opacity="1" fill-rule="nonzero"/><path fill="#ffc928" d="M 216.96875 198.113281 C 233.097656 245.289062 231.492188 288.539062 213.378906 294.714844 C 206.605469 297.023438 198.484375 293.824219 190.128906 286.445312 C 176.132812 274.089844 161.472656 250.019531 151.375 220.480469 C 141.984375 193.019531 138.605469 166.886719 140.992188 148.621094 C 142.707031 135.511719 147.394531 126.457031 154.960938 123.878906 C 173.074219 117.699219 200.835938 150.9375 216.96875 198.113281 Z M 216.96875 198.113281 " fill-opacity="1" fill-rule="nonzero"/><path fill="#ffc928" d="M 283.648438 171.84375 L 256.710938 180.519531 C 255.207031 181.003906 253.671875 179.886719 253.671875 178.308594 C 253.671875 177.230469 254.414062 176.292969 255.46875 176.046875 L 283.03125 169.625 C 283.550781 169.503906 284.085938 169.753906 284.324219 170.230469 C 284.640625 170.863281 284.320312 171.625 283.648438 171.84375 Z M 283.648438 171.84375 " fill-opacity="1" fill-rule="nonzero"/><path fill="#ffc928" d="M 195.992188 71.457031 L 172.527344 104.804688 C 171.789062 105.855469 170.222656 105.835938 169.511719 104.765625 C 169.175781 104.265625 169.109375 103.632812 169.332031 103.074219 L 178.484375 80.226562 C 178.824219 79.382812 178.550781 78.414062 177.824219 77.867188 L 172.398438 73.804688 C 171.59375 73.203125 171.359375 72.097656 171.847656 71.214844 L 190.320312 38.011719 C 190.8125 37.121094 191.84375 36.675781 192.832031 36.921875 C 194.105469 37.238281 194.835938 38.570312 194.421875 39.8125 L 186.539062 63.425781 C 186.300781 64.148438 186.644531 64.9375 187.335938 65.25 L 195.285156 68.859375 C 196.285156 69.3125 196.625 70.558594 195.992188 71.457031 Z M 195.992188 71.457031 " fill-opacity="1" fill-rule="nonzero"/><path fill="#3a3683" d="M 192.636719 37.710938 C 192.003906 37.554688 191.347656 37.839844 191.03125 38.40625 L 190.320312 38.011719 L 191.03125 38.40625 L 172.558594 71.613281 C 172.339844 72.007812 171.84375 72.148438 171.449219 71.929688 C 171.058594 71.710938 170.914062 71.214844 171.132812 70.820312 L 189.605469 37.613281 C 190.28125 36.402344 191.683594 35.792969 193.03125 36.128906 C 194.765625 36.5625 195.761719 38.378906 195.195312 40.070312 L 187.316406 63.683594 C 187.207031 64.011719 187.359375 64.367188 187.675781 64.507812 L 195.625 68.117188 C 196.035156 68.304688 196.214844 68.785156 196.027344 69.195312 C 195.839844 69.605469 195.359375 69.785156 194.949219 69.601562 L 187 65.992188 C 185.925781 65.503906 185.394531 64.285156 185.765625 63.167969 L 193.648438 39.554688 C 193.914062 38.761719 193.445312 37.914062 192.636719 37.710938 Z M 192.636719 37.710938 " fill-opacity="1" fill-rule="evenodd"/><path fill="#ffc928" d="M 269.964844 97.457031 L 217.519531 141.265625 C 216.863281 141.8125 215.902344 141.765625 215.300781 141.167969 C 214.746094 140.613281 214.660156 139.746094 215.09375 139.09375 L 239.644531 102.316406 C 240.179688 101.519531 240.074219 100.457031 239.394531 99.777344 L 230.054688 90.453125 C 229.207031 89.601562 229.285156 88.207031 230.222656 87.457031 L 283.1875 45.136719 C 283.644531 44.773438 284.25 44.667969 284.800781 44.851562 C 285.875 45.207031 286.3125 46.492188 285.679688 47.429688 L 260.476562 84.722656 C 260.046875 85.355469 260.167969 86.214844 260.757812 86.703125 L 269.960938 94.363281 C 270.929688 95.167969 270.929688 96.652344 269.964844 97.457031 Z M 269.964844 97.457031 " fill-opacity="1" fill-rule="nonzero"/><path fill="#3a3683" d="M 283.828125 44.628906 C 284.109375 44.980469 284.050781 45.492188 283.699219 45.773438 L 230.730469 88.089844 C 230.171875 88.539062 230.128906 89.371094 230.632812 89.875 L 239.96875 99.199219 C 240.925781 100.152344 241.074219 101.648438 240.324219 102.769531 L 215.773438 139.546875 C 215.523438 139.921875 215.019531 140.023438 214.644531 139.773438 C 214.269531 139.523438 214.167969 139.015625 214.417969 138.640625 L 238.964844 101.867188 C 239.285156 101.390625 239.222656 100.757812 238.816406 100.351562 L 229.480469 91.027344 C 228.285156 89.835938 228.394531 87.871094 229.714844 86.820312 L 282.679688 44.5 C 283.03125 44.21875 283.546875 44.277344 283.828125 44.628906 Z M 283.828125 44.628906 " fill-opacity="1" fill-rule="evenodd"/><path fill="#ffc928" d="M 294.558594 299.90625 L 255.949219 293.480469 C 255.285156 293.371094 254.679688 293.882812 254.679688 294.554688 C 254.679688 294.996094 254.945312 295.394531 255.351562 295.5625 L 277.402344 304.738281 C 278.265625 305.097656 278.769531 306.003906 278.613281 306.929688 L 277.1875 315.464844 C 277.007812 316.554688 277.738281 317.589844 278.832031 317.78125 L 316.25 324.320312 C 316.808594 324.417969 317.363281 324.136719 317.617188 323.632812 C 317.9375 322.992188 317.671875 322.21875 317.027344 321.90625 L 294.289062 311.007812 C 293.558594 310.660156 293.226562 309.804688 293.527344 309.054688 L 296.097656 302.636719 C 296.574219 301.445312 295.824219 300.117188 294.558594 299.90625 Z M 294.558594 299.90625 " fill-opacity="1" fill-rule="nonzero"/><path fill="#3a3683" d="M 255.144531 293.347656 C 255.21875 292.902344 255.640625 292.601562 256.085938 292.675781 L 294.691406 299.105469 C 296.472656 299.398438 297.523438 301.265625 296.851562 302.941406 L 294.28125 309.359375 C 294.140625 309.710938 294.296875 310.109375 294.640625 310.273438 L 317.378906 321.171875 C 317.785156 321.367188 317.957031 321.855469 317.761719 322.261719 C 317.566406 322.667969 317.078125 322.835938 316.671875 322.644531 L 293.933594 311.742188 C 292.820312 311.207031 292.308594 309.902344 292.769531 308.753906 L 295.339844 302.335938 C 295.621094 301.625 295.175781 300.835938 294.421875 300.710938 L 255.816406 294.285156 C 255.371094 294.210938 255.070312 293.792969 255.144531 293.347656 Z M 255.144531 293.347656 " fill-opacity="1" fill-rule="evenodd"/><path fill="#ffc928" d="M 292.578125 240.820312 L 247.160156 237.984375 C 246.285156 237.929688 245.605469 237.207031 245.605469 236.335938 C 245.605469 235.496094 246.230469 234.792969 247.0625 234.691406 L 317.6875 226.113281 C 318.976562 225.957031 320.078125 227.042969 319.933594 228.335938 L 318.402344 242.089844 C 318.292969 243.105469 319.027344 244.019531 320.042969 244.128906 L 362.558594 248.746094 C 363.761719 248.875 364.738281 249.769531 364.976562 250.957031 C 365.300781 252.578125 364.140625 254.121094 362.492188 254.261719 L 296.046875 259.867188 C 294.945312 259.960938 294 259.09375 294 257.988281 L 294 242.335938 C 294 241.535156 293.378906 240.871094 292.578125 240.820312 Z M 292.578125 240.820312 " fill-opacity="1" fill-rule="nonzero"/><path fill="#3a3683" d="M 319.234375 244.042969 C 319.28125 243.597656 319.683594 243.273438 320.132812 243.320312 L 362.644531 247.9375 C 364.203125 248.105469 365.46875 249.265625 365.777344 250.796875 C 366.195312 252.898438 364.695312 254.894531 362.558594 255.074219 L 296.117188 260.679688 C 295.667969 260.71875 295.273438 260.386719 295.234375 259.9375 C 295.195312 259.488281 295.53125 259.09375 295.980469 259.058594 L 362.421875 253.449219 C 363.585938 253.351562 364.40625 252.261719 364.175781 251.117188 C 364.011719 250.28125 363.316406 249.648438 362.46875 249.554688 L 319.957031 244.941406 C 319.507812 244.894531 319.183594 244.492188 319.234375 244.042969 Z M 319.234375 244.042969 " fill-opacity="1" fill-rule="evenodd"/><path fill="#2d3250" d="M 51.269531 225.4375 C 51.601562 226.367188 51.113281 227.390625 50.183594 227.71875 L 37.1875 232.324219 C 36.257812 232.652344 35.234375 232.167969 34.90625 231.238281 C 34.574219 230.308594 35.0625 229.289062 35.992188 228.960938 L 48.988281 224.355469 C 49.917969 224.023438 50.941406 224.511719 51.269531 225.4375 Z M 56.46875 242.941406 C 56.800781 243.871094 56.3125 244.890625 55.382812 245.21875 L 42.386719 249.824219 C 41.457031 250.15625 40.433594 249.671875 40.101562 248.742188 C 39.773438 247.8125 40.261719 246.792969 41.191406 246.460938 L 54.1875 241.855469 C 55.117188 241.527344 56.140625 242.011719 56.46875 242.941406 Z M 61.667969 260.445312 C 61.996094 261.371094 61.511719 262.390625 60.582031 262.722656 L 47.585938 267.328125 C 46.652344 267.65625 45.632812 267.171875 45.300781 266.242188 C 44.972656 265.3125 45.457031 264.292969 46.390625 263.964844 L 59.386719 259.359375 C 60.316406 259.027344 61.335938 259.515625 61.667969 260.445312 Z M 66.867188 277.945312 C 67.195312 278.875 66.710938 279.894531 65.78125 280.222656 L 52.78125 284.832031 C 51.851562 285.160156 50.832031 284.675781 50.5 283.746094 C 50.171875 282.816406 50.65625 281.796875 51.585938 281.464844 L 64.585938 276.859375 C 65.515625 276.53125 66.535156 277.015625 66.867188 277.945312 Z M 66.867188 277.945312 " fill-opacity="1" fill-rule="evenodd"/><g clip-path="url(#575a3fd1d3)"><path fill="#e89c34" d="M 25.210938 228.828125 C 22.65625 240.601562 28.351562 272.742188 45.183594 291.398438 C 45.976562 292.277344 46.933594 292.96875 47.984375 293.429688 C 44.851562 295.210938 40.9375 295.316406 38.382812 292.773438 C 27.933594 282.363281 18.1875 256.914062 18.339844 236.34375 C 18.367188 232.480469 21.386719 229.425781 25.210938 228.828125 Z M 25.210938 228.828125 " fill-opacity="1" fill-rule="nonzero"/></g><path fill="#e89c34" d="M 212.804688 199.453125 C 226.574219 239.730469 225.203125 276.65625 209.738281 281.929688 C 194.273438 287.203125 170.574219 258.828125 156.800781 218.550781 C 143.03125 178.277344 144.402344 141.347656 159.867188 136.074219 C 175.332031 130.800781 199.03125 159.175781 212.804688 199.453125 Z M 212.804688 199.453125 " fill-opacity="1" fill-rule="nonzero"/><path fill="#ffc928" d="M 182.894531 211.3125 C 186.144531 220.820312 186.71875 229.226562 184.175781 230.09375 C 183.59375 230.292969 182.894531 230.078125 182.125 229.511719 C 179.550781 227.613281 176.191406 221.773438 173.6875 214.453125 C 170.4375 204.945312 169.863281 196.539062 172.40625 195.671875 C 174.949219 194.804688 179.644531 201.804688 182.894531 211.3125 Z M 182.894531 211.3125 " fill-opacity="1" fill-rule="nonzero"/><path fill="#2d3250" d="M 172.40625 195.671875 C 169.863281 196.539062 170.433594 204.949219 173.683594 214.453125 C 176.1875 221.777344 179.550781 227.613281 182.125 229.511719 L 167.035156 242.964844 C 163.277344 235.542969 159.804688 227.332031 156.804688 218.550781 C 153.925781 210.140625 151.710938 201.875 150.144531 194.011719 Z M 172.40625 195.671875 " fill-opacity="1" fill-rule="nonzero"/></svg>