<svg xmlns="http://www.w3.org/2000/svg" xmlns:xlink="http://www.w3.org/1999/xlink" width="512" zoomAndPan="magnify" viewBox="0 0 384 383.999986" height="512" preserveAspectRatio="xMidYMid meet" version="1.0"><defs><clipPath id="678211b243"><path d="M 14.828125 157 L 232 157 L 232 373.929688 L 14.828125 373.929688 Z M 14.828125 157 " clip-rule="nonzero"/></clipPath><clipPath id="38fc3407a1"><path d="M 99 25.179688 L 215 25.179688 L 215 141 L 99 141 Z M 99 25.179688 " clip-rule="nonzero"/></clipPath></defs><g clip-path="url(#678211b243)"><path fill="#3a3683" d="M 140.207031 157.007812 C 147.902344 158.214844 155.328125 160.222656 162.40625 162.933594 L 158.992188 181.902344 C 158.8125 182.855469 158.730469 183.808594 159.503906 184.257812 L 174.921875 193.15625 C 175.691406 193.597656 176.476562 193.042969 177.21875 192.425781 L 192.046875 180.070312 C 198.015625 184.90625 203.46875 190.355469 208.304688 196.320312 L 195.882812 211.007812 C 195.257812 211.75 194.710938 212.535156 195.152344 213.304688 L 204.058594 228.722656 C 204.5 229.492188 205.457031 229.398438 206.40625 229.234375 L 225.449219 225.953125 C 228.175781 233.023438 230.1875 240.453125 231.402344 248.144531 L 213.277344 254.664062 C 212.363281 254.992188 211.5 255.398438 211.5 256.289062 L 211.5 274.09375 C 211.5 274.976562 212.375 275.382812 213.277344 275.710938 L 231.414062 282.386719 C 230.207031 290.082031 228.199219 297.511719 225.480469 304.585938 L 206.519531 301.171875 C 205.566406 300.996094 204.613281 300.914062 204.164062 301.683594 L 195.265625 317.101562 C 194.824219 317.871094 195.378906 318.65625 195.996094 319.394531 L 208.351562 334.226562 C 203.515625 340.199219 198.066406 345.652344 192.101562 350.484375 L 177.410156 338.0625 C 176.671875 337.433594 175.886719 336.882812 175.117188 337.332031 L 159.699219 346.238281 C 158.929688 346.679688 159.023438 347.640625 159.1875 348.585938 L 162.46875 367.628906 C 155.394531 370.355469 147.96875 372.371094 140.269531 373.582031 L 133.757812 355.460938 C 133.429688 354.542969 133.023438 353.679688 132.132812 353.679688 L 114.328125 353.679688 C 113.445312 353.679688 113.039062 354.558594 112.710938 355.460938 L 106.035156 373.59375 C 98.339844 372.386719 90.910156 370.382812 83.828125 367.660156 L 87.25 348.699219 C 87.425781 347.742188 87.507812 346.789062 86.738281 346.34375 L 71.320312 337.445312 C 70.550781 336.996094 69.765625 337.558594 69.023438 338.179688 L 54.195312 350.53125 C 48.222656 345.695312 42.769531 340.25 37.9375 334.285156 L 50.355469 319.589844 C 50.980469 318.851562 51.53125 318.066406 51.089844 317.296875 L 42.183594 301.878906 C 41.742188 301.109375 40.78125 301.203125 39.835938 301.367188 L 20.785156 304.648438 C 18.066406 297.574219 16.050781 290.144531 14.839844 282.449219 L 32.960938 275.9375 C 33.878906 275.609375 34.742188 275.203125 34.742188 274.316406 L 34.742188 256.507812 C 34.742188 255.625 33.863281 255.222656 32.960938 254.894531 L 14.828125 248.214844 C 16.035156 240.519531 18.039062 233.089844 20.761719 226.007812 L 39.722656 229.429688 C 40.675781 229.601562 41.628906 229.691406 42.074219 228.917969 L 50.976562 213.5 C 51.417969 212.730469 50.863281 211.945312 50.242188 211.203125 L 37.890625 196.371094 C 42.726562 190.40625 48.171875 184.949219 54.136719 180.117188 L 68.832031 192.539062 C 69.570312 193.164062 70.351562 193.710938 71.125 193.269531 L 86.542969 184.363281 C 87.3125 183.921875 87.21875 182.960938 87.054688 182.015625 L 83.773438 162.96875 C 90.847656 160.246094 98.277344 158.234375 105.964844 157.019531 L 112.484375 175.140625 C 112.8125 176.050781 113.21875 176.921875 114.105469 176.921875 L 131.914062 176.921875 C 132.796875 176.921875 133.199219 176.046875 133.527344 175.140625 Z M 123.121094 220.636719 C 147.789062 220.636719 167.777344 240.632812 167.777344 265.300781 C 167.777344 289.96875 147.789062 309.957031 123.121094 309.957031 C 98.453125 309.957031 78.457031 289.96875 78.457031 265.300781 C 78.457031 240.632812 98.453125 220.636719 123.121094 220.636719 Z M 123.121094 220.636719 " fill-opacity="1" fill-rule="evenodd"/></g><path fill="#ffae29" d="M 307.996094 78.628906 C 313.625 80.199219 318.976562 82.34375 324.015625 84.984375 L 319.8125 98.808594 C 319.597656 99.507812 319.453125 100.207031 319.988281 100.605469 L 330.691406 108.582031 C 331.222656 108.980469 331.859375 108.632812 332.464844 108.238281 L 344.585938 100.335938 C 348.613281 104.457031 352.191406 108.988281 355.269531 113.855469 L 344.742188 123.707031 C 344.207031 124.207031 343.734375 124.742188 343.992188 125.355469 L 349.273438 137.613281 C 349.539062 138.222656 350.257812 138.238281 350.984375 138.199219 L 365.453125 137.417969 C 366.859375 142.921875 367.710938 148.632812 367.9375 154.464844 L 353.882812 157.734375 C 353.167969 157.898438 352.492188 158.125 352.410156 158.789062 L 350.859375 172.050781 C 350.785156 172.707031 351.394531 173.085938 352.046875 173.40625 L 364.960938 179.964844 C 363.394531 185.589844 361.25 190.949219 358.605469 195.976562 L 344.78125 191.773438 C 344.085938 191.566406 343.386719 191.421875 342.988281 191.949219 L 335.011719 202.65625 C 334.613281 203.191406 334.960938 203.824219 335.355469 204.429688 L 343.257812 216.554688 C 339.136719 220.574219 334.605469 224.160156 329.738281 227.242188 L 319.886719 216.707031 C 319.386719 216.175781 318.851562 215.695312 318.238281 215.960938 L 305.980469 221.246094 C 305.371094 221.503906 305.351562 222.230469 305.394531 222.949219 L 306.175781 237.421875 C 300.667969 238.828125 294.960938 239.679688 289.121094 239.910156 L 285.851562 225.84375 C 285.6875 225.140625 285.46875 224.457031 284.804688 224.382812 L 271.542969 222.824219 C 270.886719 222.746094 270.507812 223.363281 270.179688 224.007812 L 263.628906 236.929688 C 258.003906 235.359375 252.644531 233.210938 247.617188 230.574219 L 251.8125 216.75 C 252.027344 216.050781 252.171875 215.347656 251.636719 214.953125 L 240.929688 206.972656 C 240.402344 206.582031 239.769531 206.921875 239.164062 207.320312 L 227.039062 215.222656 C 223.019531 211.101562 219.433594 206.570312 216.351562 201.703125 L 226.886719 191.851562 C 227.417969 191.351562 227.898438 190.816406 227.632812 190.207031 L 222.347656 177.945312 C 222.085938 177.332031 221.363281 177.320312 220.640625 177.359375 L 206.171875 178.140625 C 204.765625 172.636719 203.914062 166.925781 203.683594 161.09375 L 217.742188 157.824219 C 218.453125 157.660156 219.136719 157.429688 219.210938 156.769531 L 220.765625 143.507812 C 220.847656 142.851562 220.230469 142.480469 219.585938 142.148438 L 206.664062 135.59375 C 208.234375 129.96875 210.375 124.609375 213.019531 119.578125 L 226.84375 123.78125 C 227.539062 123.996094 228.246094 124.136719 228.636719 123.605469 L 236.613281 112.902344 C 237.011719 112.363281 236.664062 111.734375 236.273438 111.128906 L 228.371094 99.003906 C 232.484375 94.980469 237.023438 91.398438 241.882812 88.316406 L 251.742188 98.851562 C 252.234375 99.382812 252.773438 99.859375 253.386719 99.597656 L 265.648438 94.3125 C 266.253906 94.054688 266.273438 93.328125 266.234375 92.609375 L 265.453125 78.136719 C 270.957031 76.726562 276.664062 75.875 282.5 75.648438 L 285.769531 89.710938 C 285.933594 90.417969 286.164062 91.101562 286.820312 91.175781 L 300.078125 92.734375 C 300.742188 92.808594 301.113281 92.191406 301.445312 91.546875 Z M 289.714844 124.519531 C 308.082031 126.679688 321.226562 143.3125 319.066406 161.679688 C 316.914062 180.046875 300.277344 193.1875 281.910156 191.035156 C 263.539062 188.882812 250.398438 172.246094 252.558594 153.878906 C 254.710938 135.511719 271.347656 122.367188 289.714844 124.519531 Z M 289.714844 124.519531 " fill-opacity="1" fill-rule="evenodd"/><g clip-path="url(#38fc3407a1)"><path fill="#f6ce1e" d="M 171.242188 27.035156 C 175.207031 28.027344 178.992188 29.425781 182.558594 31.179688 L 179.882812 40.921875 C 179.746094 41.414062 179.65625 41.90625 180.035156 42.175781 L 187.671875 47.554688 C 188.050781 47.820312 188.484375 47.566406 188.902344 47.277344 L 197.234375 41.519531 C 200.117188 44.328125 202.714844 47.429688 204.960938 50.773438 L 197.777344 57.863281 C 197.417969 58.222656 197.089844 58.601562 197.292969 59.023438 L 201.210938 67.5 C 201.40625 67.921875 201.910156 67.917969 202.417969 67.878906 L 212.515625 67.058594 C 213.609375 70.882812 214.308594 74.851562 214.578125 78.929688 L 204.808594 81.480469 C 204.316406 81.605469 203.84375 81.777344 203.804688 82.246094 L 202.964844 91.542969 C 202.921875 92.007812 203.363281 92.253906 203.816406 92.476562 L 212.976562 96.8125 C 211.984375 100.777344 210.585938 104.5625 208.828125 108.128906 L 199.089844 105.453125 C 198.597656 105.3125 198.105469 105.226562 197.835938 105.609375 L 192.460938 113.242188 C 192.191406 113.621094 192.449219 114.0625 192.734375 114.472656 L 198.492188 122.804688 C 195.683594 125.695312 192.582031 128.28125 189.238281 130.53125 L 182.148438 123.355469 C 181.789062 122.988281 181.410156 122.664062 180.988281 122.859375 L 172.511719 126.789062 C 172.089844 126.976562 172.09375 127.480469 172.132812 127.988281 L 172.953125 138.09375 C 169.128906 139.175781 165.15625 139.878906 161.082031 140.148438 L 158.53125 130.378906 C 158.402344 129.886719 158.234375 129.417969 157.765625 129.375 L 148.46875 128.535156 C 148.007812 128.496094 147.753906 128.933594 147.542969 129.386719 L 143.199219 138.546875 C 139.234375 137.554688 135.449219 136.152344 131.882812 134.40625 L 134.558594 124.660156 C 134.695312 124.167969 134.785156 123.675781 134.398438 123.410156 L 126.769531 118.03125 C 126.390625 117.769531 125.953125 118.019531 125.539062 118.304688 L 117.207031 124.0625 C 114.316406 121.25 111.726562 118.152344 109.480469 114.808594 L 116.664062 107.71875 C 117.023438 107.367188 117.34375 106.980469 117.148438 106.558594 L 113.230469 98.085938 C 113.035156 97.664062 112.527344 97.664062 112.023438 97.707031 L 101.917969 98.527344 C 100.832031 94.703125 100.132812 90.726562 99.859375 86.648438 L 109.632812 84.101562 C 110.125 83.972656 110.597656 83.804688 110.636719 83.335938 L 111.476562 74.039062 C 111.519531 73.578125 111.078125 73.324219 110.621094 73.109375 L 101.464844 68.769531 C 102.457031 64.804688 103.855469 61.023438 105.605469 57.453125 L 115.351562 60.132812 C 115.84375 60.265625 116.335938 60.355469 116.605469 59.976562 L 121.976562 52.339844 C 122.25 51.960938 121.992188 51.523438 121.707031 51.109375 L 115.949219 42.777344 C 118.757812 39.890625 121.859375 37.296875 125.203125 35.050781 L 132.292969 42.234375 C 132.644531 42.59375 133.03125 42.921875 133.453125 42.726562 L 141.929688 38.800781 C 142.347656 38.605469 142.347656 38.097656 142.300781 37.59375 L 141.488281 27.496094 C 145.308594 26.402344 149.285156 25.703125 153.359375 25.429688 L 155.910156 35.203125 C 156.035156 35.695312 156.207031 36.167969 156.675781 36.207031 L 165.972656 37.046875 C 166.433594 37.089844 166.683594 36.648438 166.898438 36.191406 Z M 159.324219 59.464844 C 172.203125 60.625 181.707031 72.011719 180.546875 84.894531 C 179.382812 97.777344 167.996094 107.277344 155.117188 106.117188 C 142.234375 104.953125 132.734375 93.574219 133.894531 80.691406 C 135.054688 67.808594 146.441406 58.304688 159.324219 59.464844 Z M 159.324219 59.464844 " fill-opacity="1" fill-rule="evenodd"/></g></svg>