<svg xmlns="http://www.w3.org/2000/svg" xmlns:xlink="http://www.w3.org/1999/xlink" width="512" zoomAndPan="magnify" viewBox="0 0 384 383.999986" height="512" preserveAspectRatio="xMidYMid meet" version="1.0"><defs><clipPath id="10799e8705"><path d="M 252 38.398438 L 351 38.398438 L 351 136 L 252 136 Z M 252 38.398438 " clip-rule="nonzero"/></clipPath></defs><path fill="#fbd333" d="M 187.183594 193.730469 C 187.183594 187.613281 196.488281 187.613281 196.488281 193.730469 L 196.488281 200.585938 C 200.320312 201.273438 203.972656 203.101562 207.382812 205.753906 C 212.179688 209.5 206.476562 216.804688 201.679688 213.058594 C 191.496094 205.128906 181.605469 213.25 185.824219 217.121094 C 190.859375 221.742188 203.066406 224.195312 205.984375 229.128906 C 211.535156 238.515625 206.101562 247.804688 196.488281 250.699219 L 196.488281 256.777344 C 196.488281 262.898438 187.183594 262.898438 187.183594 256.777344 L 187.183594 251.414062 C 182.675781 250.832031 178.003906 248.894531 173.871094 245.203125 C 169.308594 241.144531 175.488281 234.207031 180.046875 238.261719 C 188.273438 245.605469 202.628906 241.699219 197.992188 233.855469 C 197.867188 233.644531 182.4375 226.613281 179.539062 223.953125 C 169.796875 215.015625 177.339844 204.492188 187.183594 201.242188 Z M 190.746094 168.757812 C 221.941406 168.757812 247.238281 194.054688 247.238281 225.253906 C 247.238281 256.449219 221.941406 281.746094 190.746094 281.746094 C 159.546875 281.746094 134.25 256.449219 134.25 225.253906 C 134.25 194.054688 159.546875 168.757812 190.746094 168.757812 Z M 190.746094 178.0625 C 164.679688 178.0625 143.550781 199.1875 143.550781 225.253906 C 143.550781 251.316406 164.679688 272.445312 190.746094 272.445312 C 216.808594 272.445312 237.9375 251.316406 237.9375 225.253906 C 237.9375 199.1875 216.808594 178.0625 190.746094 178.0625 Z M 128.914062 300.523438 C 125.941406 293.722656 125.953125 286.449219 128.867188 279.679688 C 125.949219 272.925781 125.972656 265.644531 128.859375 258.929688 C 131.269531 253.3125 139.8125 256.980469 137.394531 262.597656 C 131.113281 277.222656 145.949219 288.128906 157.421875 293.074219 C 177.148438 301.570312 204.335938 301.5625 224.066406 293.074219 C 231.378906 289.925781 239.441406 284.8125 243.328125 277.558594 C 245.902344 272.675781 246.269531 267.542969 244.027344 262.445312 C 241.5625 256.851562 250.070312 253.113281 252.527344 258.707031 C 255.507812 265.472656 255.574219 272.832031 252.625 279.664062 C 255.519531 286.445312 255.554688 293.699219 252.582031 300.507812 C 259.59375 316.726562 249.398438 331.207031 235.097656 339.578125 C 210.402344 354.039062 171.082031 354.039062 146.390625 339.578125 C 134.214844 332.445312 126.679688 322.347656 126.679688 310.976562 C 126.679688 307.386719 127.484375 303.8125 128.914062 300.523438 Z M 135.984375 310.890625 L 135.984375 310.976562 C 135.984375 318.820312 141.75 326.125 151.078125 331.585938 C 172.796875 344.308594 208.6875 344.308594 230.410156 331.585938 C 237.835938 327.238281 245.503906 320.171875 245.503906 310.894531 C 240.941406 315.515625 234.878906 319.488281 227.734375 322.5625 C 205.65625 332.074219 175.832031 332.074219 153.753906 322.5625 C 146.609375 319.488281 140.546875 315.515625 135.984375 310.890625 Z M 135.984375 289.949219 C 136.558594 299.671875 143.046875 305.929688 151.078125 310.632812 C 172.796875 323.355469 208.6875 323.355469 230.410156 310.632812 C 237.824219 306.289062 245.503906 299.21875 245.503906 289.949219 C 240.515625 294.988281 234.148438 298.847656 227.734375 301.613281 C 205.648438 311.121094 175.84375 311.121094 153.753906 301.613281 C 147.320312 298.839844 140.980469 294.992188 135.984375 289.949219 Z M 264.871094 323.953125 C 258.921875 322.613281 260.953125 313.5625 266.90625 314.902344 C 273.59375 316.410156 280.414062 317.09375 287.265625 317.09375 C 302.855469 317.09375 316.871094 313.449219 326.933594 307.558594 C 336.148438 302.160156 341.890625 294.964844 342.023438 287.222656 C 339.125 290.148438 335.621094 292.816406 331.621094 295.160156 C 320.175781 301.859375 304.488281 306.003906 287.265625 306.003906 C 279.960938 306.003906 272.027344 305.261719 264.878906 303.746094 C 258.910156 302.484375 260.824219 293.398438 266.804688 294.664062 C 273.414062 296.066406 280.515625 296.703125 287.265625 296.703125 C 302.855469 296.703125 316.871094 293.058594 326.933594 287.167969 C 334.507812 282.726562 342.148438 275.4375 342.015625 266.011719 C 339.121094 268.9375 335.621094 271.601562 331.621094 273.945312 C 320.175781 280.648438 304.488281 284.792969 287.265625 284.792969 C 280.308594 284.792969 271.945312 284.15625 265.109375 282.765625 C 259.140625 281.574219 260.949219 272.488281 266.925781 273.683594 C 273.300781 274.976562 280.78125 275.488281 287.265625 275.488281 C 302.855469 275.488281 316.871094 271.84375 326.933594 265.953125 C 336.222656 260.511719 341.976562 253.246094 342.027344 245.433594 C 339.128906 248.359375 335.625 251.027344 331.621094 253.375 C 320.175781 260.074219 304.488281 264.222656 287.265625 264.222656 C 279.746094 264.222656 272.140625 263.417969 264.804688 261.753906 C 258.855469 260.421875 260.886719 251.367188 266.839844 252.707031 C 273.546875 254.226562 280.394531 254.917969 287.265625 254.917969 C 302.855469 254.917969 316.871094 251.273438 326.933594 245.378906 C 334.175781 241.136719 342.027344 233.894531 342.027344 224.769531 L 342.027344 224.6875 C 337.460938 229.3125 331.402344 233.285156 324.257812 236.363281 C 313.855469 240.839844 301.058594 243.488281 287.265625 243.488281 C 277.835938 243.488281 267.253906 241.667969 258.164062 239.203125 C 252.265625 237.605469 254.691406 228.625 260.597656 230.226562 C 268.933594 232.488281 278.613281 234.183594 287.265625 234.183594 C 299.78125 234.183594 311.304688 231.816406 320.585938 227.824219 C 330.050781 223.746094 342.027344 215.464844 342.027344 203.734375 C 337.460938 208.355469 331.402344 212.332031 324.257812 215.40625 C 313.855469 219.886719 301.058594 222.535156 287.265625 222.535156 C 277.066406 222.535156 266.761719 221.097656 257.050781 217.945312 C 251.242188 216.058594 254.109375 207.226562 259.917969 209.117188 C 268.6875 211.964844 278.058594 213.226562 287.265625 213.226562 C 299.78125 213.226562 311.304688 210.863281 320.585938 206.867188 C 329.90625 202.855469 342.027344 194.722656 342.027344 183.082031 C 342.027344 160.675781 304.128906 152.933594 287.265625 152.933594 C 270.640625 152.933594 246.207031 158.027344 236.050781 172.5625 C 232.566406 177.550781 224.976562 172.246094 228.457031 167.257812 C 240.542969 149.960938 267.320312 143.632812 287.265625 143.632812 C 310.144531 143.632812 351.328125 154.332031 351.328125 183.082031 C 351.328125 186.644531 350.542969 190.1875 349.132812 193.457031 C 352.070312 200.261719 352.046875 207.523438 349.089844 214.3125 C 352.023438 221.03125 352.085938 228.292969 349.175781 235.082031 C 352.078125 241.875 352.050781 249.175781 349.039062 255.976562 C 352.003906 262.695312 352.105469 269.96875 349.21875 276.78125 C 356.035156 292.910156 345.75 307.277344 331.621094 315.550781 C 320.175781 322.25 304.488281 326.398438 287.265625 326.398438 C 279.769531 326.398438 272.1875 325.601562 264.871094 323.953125 Z M 160.90625 165.289062 C 160.90625 171.40625 151.601562 171.40625 151.601562 165.289062 L 151.601562 120.597656 L 133.316406 120.597656 C 129.363281 120.597656 127.273438 116 129.707031 113.015625 L 179.648438 44.269531 C 181.535156 41.664062 185.40625 41.742188 187.21875 44.335938 L 237.261719 113.21875 C 239.511719 116.320312 237.242188 120.59375 233.503906 120.59375 L 215.214844 120.597656 L 215.214844 154.714844 C 215.214844 160.832031 205.910156 160.832031 205.910156 154.714844 L 205.910156 115.945312 C 205.910156 113.378906 207.992188 111.292969 210.5625 111.292969 L 224.382812 111.292969 L 183.410156 54.894531 L 142.4375 111.292969 L 156.253906 111.292969 C 158.824219 111.292969 160.90625 113.378906 160.90625 115.945312 Z M 61.589844 290.941406 C 61.589844 297.058594 52.285156 297.058594 52.285156 290.941406 L 52.285156 156.953125 L 33.996094 156.953125 C 30.042969 156.953125 27.953125 152.355469 30.382812 149.371094 L 80.332031 80.621094 C 82.21875 78.011719 86.085938 78.097656 87.898438 80.6875 L 137.945312 149.578125 C 140.277344 152.792969 137.742188 157.203125 133.871094 156.933594 L 114.519531 156.96875 L 115.878906 253.472656 C 115.949219 259.566406 106.683594 259.671875 106.609375 253.578125 L 105.191406 152.339844 C 105.191406 149.785156 107.265625 147.710938 109.820312 147.710938 L 125.089844 147.683594 L 84.089844 91.25 L 43.113281 147.652344 L 56.9375 147.652344 C 59.503906 147.652344 61.589844 149.734375 61.589844 152.304688 Z M 61.589844 290.941406 " fill-opacity="1" fill-rule="nonzero"/><g clip-path="url(#10799e8705)"><path fill="#000000" d="M 326.980469 98.847656 C 319.292969 98.847656 313.089844 105.050781 313.089844 112.738281 C 313.089844 120.421875 319.292969 126.625 326.980469 126.625 C 334.652344 126.625 340.867188 120.410156 340.867188 112.738281 C 340.867188 105.0625 334.652344 98.847656 326.980469 98.847656 Z M 334.984375 47.15625 C 339.308594 42.832031 345.886719 49.40625 341.5625 53.734375 L 267.972656 127.320312 C 263.648438 131.644531 257.070312 125.070312 261.398438 120.746094 Z M 275.980469 47.851562 C 268.296875 47.851562 262.09375 54.058594 262.09375 61.742188 C 262.09375 69.425781 268.296875 75.628906 275.984375 75.628906 C 283.65625 75.628906 289.871094 69.414062 289.871094 61.742188 C 289.871094 54.050781 283.667969 47.851562 275.980469 47.851562 Z M 299.175781 61.742188 C 299.175781 74.546875 288.789062 84.933594 275.984375 84.933594 C 263.1875 84.933594 252.789062 74.539062 252.789062 61.742188 C 252.789062 48.945312 263.1875 38.546875 275.980469 38.546875 C 288.773438 38.546875 299.175781 48.949219 299.175781 61.742188 Z M 326.980469 89.542969 C 339.785156 89.542969 350.171875 99.929688 350.171875 112.738281 C 350.171875 125.542969 339.785156 135.929688 326.980469 135.929688 C 314.183594 135.929688 303.785156 125.53125 303.785156 112.738281 C 303.785156 99.941406 314.183594 89.542969 326.980469 89.542969 Z M 326.980469 89.542969 " fill-opacity="1" fill-rule="nonzero"/></g></svg>