<svg xmlns="http://www.w3.org/2000/svg" xmlns:xlink="http://www.w3.org/1999/xlink" width="512" zoomAndPan="magnify" viewBox="0 0 384 383.999986" height="512" preserveAspectRatio="xMidYMid meet" version="1.0"><defs><clipPath id="74537d7331"><path d="M 68 38.398438 L 293 38.398438 L 293 368 L 68 368 Z M 68 38.398438 " clip-rule="nonzero"/></clipPath></defs><path fill="#fbd333" d="M 270.582031 196.402344 C 247.988281 164.796875 208.800781 161.222656 208.800781 161.222656 L 206.945312 120.03125 C 218.816406 130.328125 218.242188 150.492188 218.242188 150.492188 L 220.53125 153.355469 L 266.214844 143.949219 L 277.019531 128.757812 C 277.734375 107.164062 269.582031 87.28125 249.277344 71.265625 C 228.96875 55.246094 206.085938 54.960938 206.085938 54.960938 L 206.519531 40.230469 L 171.765625 41.089844 L 158.464844 49.527344 L 155.457031 63.542969 C 140.015625 63.402344 109.835938 76.988281 99.109375 91.429688 C 88.386719 105.875 75.371094 130.617188 87.382812 168.226562 C 99.398438 205.839844 152.308594 220.285156 152.308594 220.285156 L 156.457031 273.769531 C 135.578125 264.1875 134.667969 238.195312 134.667969 238.195312 L 98.828125 240.441406 L 69.792969 256.039062 C 67.074219 263.476562 73.941406 285.359375 94.675781 315.105469 C 115.414062 344.851562 158.605469 345.851562 158.605469 345.851562 L 158.890625 364.300781 L 191.210938 365.015625 L 209.660156 350.859375 L 209.800781 345.851562 C 209.800781 345.851562 251.273438 328.691406 274.300781 297.230469 C 297.324219 265.769531 293.179688 228.007812 270.582031 196.402344 Z M 155.347656 151.238281 C 136.476562 140.335938 156.519531 112.679688 156.519531 112.679688 Z M 192.730469 277.6875 L 191.558594 236.085938 C 191.558594 236.085938 218.394531 243.703125 218.511719 255.304688 C 218.511719 255.304688 219.210938 273 192.730469 277.6875 Z M 192.730469 277.6875 " fill-opacity="1" fill-rule="nonzero"/><path fill="#000000" d="M 158.238281 111.039062 C 158.074219 109.542969 156.589844 109.113281 155.621094 109.667969 C 142.441406 110.433594 126.613281 119.765625 124.761719 133.855469 C 122.511719 150.9375 137.101562 161.980469 151.355469 167.539062 C 153.796875 168.492188 154.847656 164.5625 152.441406 163.621094 C 147.125 161.546875 141.8125 158.6875 137.542969 154.933594 C 139.019531 154.273438 140.367188 153.179688 141.710938 152.339844 C 143.816406 151.039062 145.90625 149.75 147.933594 148.339844 C 148.328125 148.820312 148.792969 149.3125 149.3125 149.78125 C 147.84375 150.675781 146.441406 151.65625 145.070312 152.683594 C 143.808594 153.625 141.898438 154.636719 141.234375 156.105469 C 141.042969 156.546875 141.335938 157.089844 141.871094 156.972656 C 143.460938 156.621094 144.800781 155.085938 146.070312 154.113281 C 147.453125 153.054688 148.886719 152.058594 150.367188 151.148438 C 150.511719 151.058594 150.601562 150.949219 150.660156 150.832031 C 151.734375 151.53125 152.894531 151.972656 153.984375 151.855469 C 154.160156 157.5625 154.515625 163.210938 155.203125 168.65625 C 155.265625 169.210938 156.121094 169.445312 156.257812 168.796875 C 160.015625 150.742188 160.242188 129.332031 158.238281 111.039062 Z M 130.808594 127.8125 C 138.359375 124.121094 145.878906 119.394531 153.019531 115.007812 C 152.058594 116.113281 151.222656 117.394531 150.460938 118.746094 C 143.246094 122.738281 134.925781 126.9375 128.976562 132.695312 C 129.355469 130.914062 129.976562 129.28125 130.808594 127.8125 Z M 131.136719 147.023438 C 130.589844 145.972656 130.113281 144.886719 129.722656 143.746094 C 135.269531 141.890625 140.421875 138.015625 145.519531 134.914062 C 145.460938 135.320312 145.398438 135.738281 145.355469 136.125 C 145.308594 136.621094 145.269531 137.128906 145.238281 137.644531 C 140.429688 140.265625 135.027344 143.015625 131.1875 146.917969 C 131.15625 146.949219 131.15625 146.988281 131.136719 147.023438 Z M 133.714844 150.945312 C 132.851562 149.859375 132.070312 148.71875 131.402344 147.507812 C 131.460938 147.515625 131.519531 147.523438 131.589844 147.496094 C 136.414062 145.550781 140.742188 142.03125 145.210938 139.269531 C 145.226562 140.324219 145.308594 141.398438 145.480469 142.445312 C 143.480469 143.820312 141.457031 145.152344 139.417969 146.472656 C 137.527344 147.703125 135.003906 148.863281 133.761719 150.78125 C 133.722656 150.835938 133.722656 150.894531 133.714844 150.945312 Z M 141.429688 150.480469 C 139.753906 151.464844 137.6875 152.363281 136.351562 153.832031 C 135.546875 153.046875 134.769531 152.234375 134.0625 151.378906 C 134.128906 151.394531 134.199219 151.410156 134.269531 151.390625 C 136.21875 150.90625 137.914062 149.316406 139.539062 148.195312 C 141.625 146.761719 143.71875 145.335938 145.773438 143.859375 C 146.0625 144.980469 146.476562 146.046875 147.039062 147.023438 C 145.203125 148.238281 143.324219 149.367188 141.429688 150.480469 Z M 145.804688 132.941406 C 140.332031 135.847656 134.199219 138.742188 129.410156 142.621094 C 129.128906 141.597656 128.894531 140.550781 128.757812 139.449219 C 128.785156 139.449219 128.808594 139.464844 128.839844 139.449219 C 132.304688 138.203125 135.410156 135.289062 138.398438 133.152344 C 141.269531 131.097656 144.1875 129.109375 147.101562 127.113281 C 146.535156 129.109375 146.125 131.082031 145.804688 132.941406 Z M 147.503906 125.761719 C 144.117188 127.664062 140.800781 129.652344 137.53125 131.746094 C 134.558594 133.644531 130.847656 135.664062 128.628906 138.472656 C 128.558594 137.574219 128.53125 136.660156 128.574219 135.71875 C 128.609375 134.855469 128.714844 134.046875 128.851562 133.257812 C 128.960938 133.464844 129.183594 133.617188 129.414062 133.511719 C 136.476562 130.238281 143.101562 125.015625 149.542969 120.480469 C 148.742188 122.167969 148.066406 123.957031 147.503906 125.761719 Z M 153.859375 147.386719 C 153.019531 146.996094 152.117188 146.605469 151.289062 145.730469 C 148.195312 142.496094 148.800781 136.28125 149.160156 132.175781 C 149.648438 126.628906 151.5625 121.367188 154.535156 116.75 C 154.117188 126.738281 153.710938 137.136719 153.859375 147.386719 Z M 154.675781 113.339844 C 154.46875 113.515625 154.273438 113.710938 154.074219 113.902344 C 153.984375 113.707031 153.78125 113.5625 153.535156 113.648438 C 146.902344 116.007812 140.015625 119.730469 133.863281 123.832031 C 139.210938 118.488281 147.664062 115.648438 154.679688 113.199219 C 154.679688 113.246094 154.679688 113.289062 154.675781 113.339844 Z M 154.675781 113.339844 " fill-opacity="1" fill-rule="nonzero"/><path fill="#000000" d="M 226.714844 265.722656 C 224.757812 250.988281 208.320312 232.9375 192.363281 234.804688 C 192.289062 234.425781 192.246094 234.035156 192.171875 233.65625 C 191.941406 232.5625 190.207031 232.5625 189.980469 233.65625 C 187.460938 245.589844 189.222656 259.015625 189.453125 271.148438 C 189.601562 278.910156 187.210938 291.957031 191.019531 298.964844 C 191.0625 299.046875 191.132812 299.074219 191.191406 299.132812 C 191.726562 299.996094 192.695312 300.605469 194.109375 300.367188 C 212.605469 297.296875 229.503906 286.746094 226.714844 265.722656 Z M 192.917969 271.148438 C 192.835938 259.976562 194.363281 247.90625 192.6875 236.734375 C 198.796875 240.28125 205.480469 241.941406 211.199219 246.617188 C 214 248.90625 216.304688 251.660156 218.140625 254.707031 C 217.953125 254.78125 217.78125 254.929688 217.738281 255.128906 C 216.507812 260.667969 214.8125 265.222656 210.457031 269.085938 C 205.472656 273.515625 199.054688 274.460938 193.265625 277.128906 C 193.074219 274.980469 192.929688 272.941406 192.917969 271.148438 Z M 193.699219 294.9375 C 194.460938 290.039062 193.886719 284.042969 193.398438 278.613281 C 193.875 278.667969 194.371094 278.6875 194.863281 278.691406 C 194.746094 278.863281 194.699219 279.089844 194.820312 279.339844 C 195.214844 280.164062 195.605469 280.984375 196.015625 281.804688 C 196.613281 282.984375 196.964844 284.300781 197.777344 285.363281 C 198.070312 285.738281 198.648438 285.515625 198.707031 285.078125 C 199.003906 282.832031 197.464844 280.316406 196.0625 278.65625 C 196.789062 278.613281 197.527344 278.53125 198.277344 278.40625 C 198.511719 279.886719 198.996094 281.363281 199.46875 282.75 C 200.132812 284.664062 200.921875 287.007812 202.636719 288.214844 C 203.0625 288.511719 203.753906 288.320312 203.703125 287.707031 C 203.578125 285.871094 202.523438 284.164062 201.769531 282.503906 C 201.128906 281.0625 200.648438 279.511719 199.996094 278.058594 C 200.847656 277.851562 201.699219 277.605469 202.554688 277.304688 C 202.957031 279.074219 203.859375 280.804688 204.550781 282.425781 C 205.398438 284.398438 206.398438 286.539062 208.304688 287.648438 C 208.558594 287.792969 208.96875 287.566406 208.980469 287.273438 C 209.023438 285.15625 207.902344 283.179688 206.964844 281.335938 C 206.160156 279.777344 205.515625 278.019531 204.542969 276.53125 C 205.1875 276.25 205.832031 275.949219 206.464844 275.621094 C 206.636719 275.972656 206.933594 276.316406 207.140625 276.636719 C 207.820312 277.683594 208.507812 278.714844 209.234375 279.738281 C 210.738281 281.847656 212.042969 284.539062 214.164062 286.070312 C 214.609375 286.394531 215.09375 285.882812 215.03125 285.4375 C 214.71875 283.304688 213.074219 281.496094 211.878906 279.773438 C 210.671875 278.039062 209.425781 276.351562 208.054688 274.738281 C 208.90625 274.234375 209.726562 273.6875 210.515625 273.105469 C 211.292969 274.847656 212.433594 276.464844 213.558594 277.96875 C 214.90625 279.765625 216.507812 282.339844 218.691406 283.222656 C 213.179688 290.273438 203.273438 294.363281 193.699219 294.9375 Z M 219.636719 281.929688 C 218.941406 280.378906 217.507812 279.097656 216.464844 277.8125 C 214.929688 275.925781 213.621094 273.765625 212.03125 271.910156 C 212.691406 271.351562 213.324219 270.765625 213.917969 270.15625 C 214.644531 271.167969 215.460938 272.136719 216.253906 273.09375 C 217.53125 274.644531 218.847656 277.03125 220.777344 277.8125 C 221.074219 277.933594 221.414062 277.757812 221.40625 277.414062 C 221.386719 275.648438 220.023438 274.398438 218.953125 273.117188 C 217.734375 271.667969 216.4375 270.226562 215.058594 268.902344 C 215.753906 268.082031 216.378906 267.226562 216.921875 266.339844 C 217.535156 267.082031 218.140625 267.832031 218.753906 268.566406 C 219.488281 269.445312 220.246094 270.640625 221.449219 270.859375 C 221.746094 270.914062 222.054688 270.628906 222.003906 270.320312 C 221.820312 269.171875 220.765625 268.324219 220.027344 267.484375 C 219.273438 266.625 218.488281 265.808594 217.667969 265.011719 C 219.039062 262.3125 219.652344 259.390625 219.089844 256.40625 C 220.414062 258.894531 221.449219 261.53125 222.183594 264.25 C 224.085938 271.253906 222.816406 277.191406 219.636719 281.929688 Z M 219.636719 281.929688 " fill-opacity="1" fill-rule="nonzero"/><g clip-path="url(#74537d7331)"><path fill="#000000" d="M 291.757812 246.941406 C 291.414062 237.722656 289.515625 228.339844 285.910156 218.980469 C 277.40625 196.921875 258.667969 176.144531 236.09375 166.300781 C 236.171875 165.929688 235.855469 165.492188 235.433594 165.703125 C 235.335938 165.757812 235.234375 165.828125 235.136719 165.882812 C 227.363281 162.617188 219.152344 160.644531 210.753906 160.371094 C 210.5625 160.363281 210.410156 160.414062 210.269531 160.484375 C 209.988281 160.296875 209.628906 160.226562 209.230469 160.371094 C 209.96875 155.816406 209.550781 150.960938 209.308594 146.328125 C 209.390625 146.253906 209.476562 146.191406 209.550781 146.121094 C 210.046875 145.703125 209.734375 144.953125 209.230469 144.792969 C 209.230469 144.765625 209.230469 144.738281 209.222656 144.703125 C 209.179688 143.519531 209.132812 142.324219 209.089844 141.132812 C 209.308594 140.832031 209.25 140.433594 209.050781 140.164062 C 208.988281 138.554688 208.921875 136.949219 208.855469 135.335938 C 208.921875 135.261719 208.992188 135.199219 209.0625 135.121094 C 209.402344 134.761719 209.167969 134.277344 208.800781 134.074219 C 208.664062 130.863281 208.523438 127.65625 208.316406 124.457031 C 214.078125 131.613281 216.957031 140.660156 216.644531 151.757812 C 216.601562 153.277344 217.929688 153.910156 219.109375 153.707031 C 219.265625 154.195312 219.628906 154.613281 220.269531 154.605469 C 234.808594 154.363281 252.640625 150.582031 265.933594 144.636719 C 266.199219 144.511719 266.277344 144.214844 266.214844 143.949219 C 267.296875 144.605469 268.957031 144.179688 268.929688 142.535156 C 268.925781 142.191406 268.894531 141.851562 268.886719 141.503906 C 270.886719 139.058594 272.828125 136.523438 274.730469 134.015625 C 276.859375 131.195312 279.609375 128.429688 280.914062 125.125 C 281.242188 124.292969 280.09375 123.917969 279.558594 124.355469 C 279.253906 124.609375 278.953125 124.875 278.671875 125.15625 C 281.820312 108.175781 271.046875 89.191406 260.042969 77.4375 C 247.5625 64.101562 225.933594 51.8125 206.929688 54.148438 C 207.167969 49.523438 207.640625 44.703125 207.039062 40.140625 C 207.019531 39.972656 206.949219 39.855469 206.863281 39.761719 C 206.929688 39.722656 206.992188 39.683594 207.054688 39.648438 C 207.609375 39.335938 207.28125 38.4375 206.671875 38.714844 C 205.929688 39.046875 205.207031 39.382812 204.472656 39.722656 C 204.40625 39.675781 204.347656 39.613281 204.253906 39.597656 C 199.691406 38.894531 194.6875 39.578125 190.070312 39.644531 C 184.253906 39.726562 178.34375 39.75 172.589844 40.660156 C 172.503906 40.675781 172.4375 40.703125 172.375 40.734375 C 172.367188 40.710938 172.375 40.675781 172.367188 40.648438 C 171.714844 38.628906 166.316406 42.773438 165.347656 43.347656 C 163.847656 44.230469 162.316406 45.058594 160.804688 45.929688 C 160.226562 46.265625 159.65625 46.601562 159.066406 46.921875 C 158.84375 47.046875 158.617188 47.160156 158.394531 47.289062 C 158.265625 47.367188 158.167969 47.453125 158.117188 47.523438 L 158.007812 47.578125 C 157.421875 47.730469 157.304688 48.304688 157.53125 48.699219 C 157.496094 48.710938 157.457031 48.714844 157.425781 48.726562 C 157.417969 48.714844 157.417969 48.699219 157.40625 48.6875 C 157.355469 48.625 157.246094 48.621094 157.191406 48.660156 C 157.070312 48.738281 157.007812 48.855469 156.898438 48.9375 C 156.144531 49.210938 155.351562 49.4375 154.660156 49.835938 C 154.234375 50.09375 154.3125 50.800781 154.808594 50.921875 C 154.953125 50.957031 155.109375 50.953125 155.257812 50.988281 C 154.550781 52.445312 154.308594 54.144531 154.105469 55.867188 C 153.917969 57.566406 153.527344 60.132812 153.667969 62.449219 C 113.089844 66.859375 82.050781 96.035156 79.3125 137.453125 C 76.28125 183.566406 111.976562 211.480469 151.839844 221.90625 C 151.054688 233.070312 153.730469 245.230469 154.003906 256.425781 C 154.117188 261.171875 154.082031 265.941406 154.046875 270.714844 C 149.972656 268.003906 146.539062 265.601562 143.410156 261.5 C 143.269531 260.949219 142.953125 260.464844 142.441406 260.160156 C 138.632812 254.566406 137.085938 248.371094 136.230469 241.882812 C 136.382812 241.710938 136.550781 241.539062 136.703125 241.367188 C 137.007812 241.019531 136.566406 240.382812 136.140625 240.613281 C 136.113281 240.625 136.089844 240.636719 136.074219 240.652344 C 135.972656 239.890625 135.886719 239.132812 135.808594 238.367188 C 135.746094 237.773438 134.800781 237.484375 134.667969 238.195312 C 134.464844 239.359375 134.382812 240.523438 134.363281 241.691406 C 132.082031 243.1875 130.035156 244.996094 127.890625 246.699219 C 125.949219 248.238281 123.96875 249.726562 122.023438 251.261719 C 121.800781 250.265625 121.578125 249.269531 121.359375 248.265625 C 123.535156 246.429688 125.828125 244.777344 128.1875 243.191406 C 129.984375 241.980469 132.574219 240.871094 133.980469 239.1875 C 134.660156 238.367188 133.765625 236.414062 132.671875 237.175781 C 132.488281 237.304688 132.304688 237.425781 132.117188 237.550781 C 128.1875 235.730469 119.132812 238.003906 115.5625 238.3125 C 110.636719 238.730469 103.292969 238.082031 98.828125 240.441406 C 98.765625 240.46875 98.75 240.550781 98.808594 240.601562 C 101.996094 243.234375 110.414062 241.214844 114.164062 240.972656 C 118.34375 240.699219 122.523438 240.445312 126.707031 240.316406 C 127.125 240.300781 127.546875 240.320312 127.960938 240.34375 C 125.394531 242.058594 122.859375 243.839844 120.683594 245.996094 C 119.949219 245.171875 118.316406 245.757812 118.207031 247.015625 C 118.171875 247.347656 118.179688 247.671875 118.152344 248.003906 C 117.960938 247.734375 117.695312 247.507812 117.324219 247.472656 C 110.265625 246.796875 102.554688 249.644531 95.582031 250.890625 C 89.472656 251.980469 83.320312 252.90625 77.175781 253.808594 C 80.199219 252.375 83.226562 250.941406 86.253906 249.511719 C 90.230469 247.628906 95.039062 245.742188 98.089844 242.460938 C 99.023438 241.453125 97.847656 239.921875 96.628906 240.574219 C 92.648438 242.703125 88.902344 245.128906 84.804688 247.09375 C 79.8125 249.488281 74.574219 251.652344 70.03125 254.847656 C 70.011719 254.855469 70.007812 254.875 69.992188 254.886719 C 68.511719 255.226562 68.898438 257.765625 70.464844 257.667969 C 78.167969 257.179688 85.726562 256.199219 93.355469 255.023438 C 101.148438 253.824219 110.988281 253.488281 117.875 249.476562 C 117.988281 249.410156 118.023438 249.304688 118.09375 249.21875 C 116.96875 272.84375 133.464844 293.683594 155.117188 301.5 C 156.976562 302.167969 158.097656 300.480469 157.890625 298.941406 C 157.964844 298.777344 158.09375 298.6875 158.125 298.484375 C 159.808594 284.621094 159.464844 270.363281 159.101562 256.425781 C 158.835938 246.125 159.578125 231.6875 154.472656 221.964844 C 155.867188 221.101562 156.042969 218.605469 154.003906 218.050781 C 115.601562 207.65625 85.558594 185.226562 83.808594 142.289062 C 82.089844 100.105469 115.890625 72.140625 154.0625 64.765625 C 154.324219 65.609375 154.738281 66.339844 155.367188 66.855469 C 156.230469 67.5625 157.238281 67.417969 157.90625 66.527344 C 159.59375 64.246094 158.492188 59.753906 158.644531 56.976562 C 158.753906 55.097656 158.914062 53.199219 158.566406 51.429688 C 162.308594 51.589844 166.269531 50.9375 169.90625 50.960938 C 175.390625 51 181.046875 52.164062 186.46875 51.78125 C 186.789062 51.761719 187.023438 51.613281 187.238281 51.460938 C 187.027344 52.410156 186.953125 53.382812 186.886719 54.3125 C 186.589844 54.605469 186.269531 54.886719 185.984375 55.191406 C 185.695312 55.496094 186.03125 55.988281 186.417969 55.796875 C 186.539062 55.734375 186.664062 55.660156 186.789062 55.59375 C 186.628906 57.921875 186.371094 60.394531 186.695312 62.691406 C 186.753906 63.097656 186.957031 63.394531 187.210938 63.640625 C 185.765625 63.515625 185.449219 65.933594 186.890625 66.214844 C 229.621094 74.597656 261.101562 96.867188 265.34375 142.535156 C 265.371094 142.90625 265.511719 143.191406 265.683594 143.441406 C 265.648438 143.4375 265.628906 143.410156 265.59375 143.414062 C 259.125 144.117188 252.765625 145.875 246.367188 147.0625 C 237.875 148.640625 229.140625 149.460938 220.808594 151.800781 C 220.808594 151.78125 220.824219 151.773438 220.824219 151.757812 C 220.921875 138.308594 216.285156 125.035156 206.519531 117.328125 C 206.496094 116.875 206.035156 116.46875 205.554688 116.621094 C 205.265625 116.410156 204.996094 116.1875 204.695312 115.984375 C 204.894531 115.578125 204.570312 114.984375 203.980469 115.109375 C 203.820312 115.144531 203.660156 115.1875 203.5 115.222656 C 199.902344 113.035156 195.734375 111.519531 190.972656 110.894531 C 190.914062 110.578125 190.867188 110.242188 190.804688 109.925781 C 190.496094 108.335938 188.394531 108.929688 188.222656 110.269531 C 185.480469 131.839844 187.339844 156.207031 189.101562 177.875 C 189.179688 178.777344 189.683594 179.335938 190.292969 179.601562 C 190.539062 179.804688 190.84375 179.972656 191.242188 180.0625 C 229.234375 188.671875 262.753906 213.027344 274.503906 251.316406 C 291.066406 305.300781 235.636719 337.742188 190.898438 344.191406 C 188.960938 344.46875 188.203125 346.269531 188.375 347.976562 C 187.925781 350.125 187.875 352.167969 187.839844 354.480469 C 187.789062 357.457031 187.582031 360.542969 187.824219 363.527344 C 184.347656 361.207031 179.175781 361.726562 175.128906 361.464844 C 170.90625 361.191406 165.648438 360.679688 161.046875 361.472656 C 161.398438 360.40625 161.253906 359.007812 161.269531 357.992188 C 161.3125 356.023438 161.238281 354.074219 161.144531 352.109375 C 161.03125 349.746094 161.566406 346.113281 159.949219 344.203125 C 159.414062 343.574219 158.210938 343.574219 157.675781 344.203125 C 157.664062 344.210938 157.664062 344.21875 157.664062 344.222656 C 157.304688 343.5625 156.675781 343.035156 155.738281 342.957031 C 130.992188 340.917969 110.074219 331.515625 94.738281 311.632812 C 88.085938 303 83.3125 292.839844 79.242188 282.804688 C 75.867188 274.433594 74.605469 264.902344 69.140625 257.652344 C 69.035156 257.503906 68.730469 257.472656 68.695312 257.707031 C 65.949219 277.148438 81.488281 303.242188 93.058594 318.011719 C 108.347656 337.554688 131.730469 345.933594 155.738281 347.734375 C 156.042969 347.757812 156.316406 347.699219 156.570312 347.628906 C 156.441406 349.179688 156.535156 350.824219 156.484375 352.109375 C 156.382812 354.074219 156.308594 356.023438 156.355469 357.992188 C 156.382812 359.253906 156.089844 361.132812 156.898438 362.183594 C 157.019531 362.34375 157.164062 362.417969 157.296875 362.539062 C 156.886719 362.707031 156.472656 362.855469 156.078125 363.0625 C 155.386719 363.433594 155.65625 364.34375 156.285156 364.585938 C 161.226562 366.503906 167.539062 365.609375 172.835938 366.023438 C 177.851562 366.417969 184.035156 368.757812 188.664062 366.453125 C 188.714844 366.425781 188.703125 366.359375 188.746094 366.328125 C 190.054688 367.472656 192.351562 366.917969 192.722656 364.679688 C 198.054688 361.707031 202.476562 356.925781 207.695312 353.707031 C 209.464844 352.617188 207.808594 349.84375 206.035156 350.9375 C 201.605469 353.664062 196.835938 356.972656 192.929688 360.734375 C 192.921875 359.597656 192.878906 358.457031 192.84375 357.320312 C 192.871094 357.378906 192.886719 357.441406 192.929688 357.488281 C 193.058594 357.597656 193.035156 358.121094 193.257812 358.335938 C 193.300781 358.371094 193.371094 358.324219 193.355469 358.269531 C 192.632812 356.6875 201.855469 351.507812 207.882812 348.089844 C 207.988281 348.0625 208.09375 348.039062 208.199219 348.011719 C 208.195312 348.203125 208.195312 348.390625 208.195312 348.578125 C 208.167969 350.375 210.984375 350.433594 210.96875 348.644531 C 210.964844 348.1875 210.957031 347.738281 210.933594 347.292969 C 235.4375 340.453125 257.445312 326.839844 270.125 306.628906 C 284.492188 289.542969 292.253906 269.347656 291.804688 248.242188 C 291.84375 248.207031 291.878906 248.167969 291.917969 248.136719 C 292.347656 247.742188 292.140625 247.117188 291.757812 246.941406 Z M 122.375 252.773438 C 126.765625 250.835938 130.953125 247.363281 134.398438 243.828125 C 134.464844 244.796875 134.59375 245.757812 134.761719 246.714844 C 132.703125 248.105469 130.691406 249.546875 128.78125 251.148438 C 126.992188 252.644531 124.558594 254.332031 123.289062 256.402344 C 122.96875 255.207031 122.667969 253.996094 122.375 252.773438 Z M 150.722656 291.828125 C 152.03125 290.714844 152.792969 289.175781 153.796875 287.808594 C 153.917969 287.644531 154.054688 287.492188 154.175781 287.328125 C 154.28125 290.339844 154.453125 293.34375 154.738281 296.335938 C 136.453125 288.992188 128.410156 274.824219 123.648438 257.667969 C 125.765625 256.660156 127.484375 254.472656 129.199219 252.902344 C 131.089844 251.164062 133.003906 249.4375 134.941406 247.746094 C 135.179688 248.914062 135.496094 250.070312 135.847656 251.214844 C 135.675781 251.183594 135.488281 251.21875 135.332031 251.355469 C 134.019531 252.535156 132.652344 253.648438 131.269531 254.734375 C 130.105469 255.652344 128.640625 256.441406 127.8125 257.691406 C 127.648438 257.941406 127.882812 258.332031 128.183594 258.304688 C 129.863281 258.132812 131.359375 256.824219 132.652344 255.820312 C 133.957031 254.8125 135.113281 253.65625 136.238281 252.449219 C 136.894531 254.414062 137.671875 256.332031 138.519531 258.171875 C 138.847656 258.882812 139.238281 259.652344 139.660156 260.433594 C 138.699219 260.441406 137.765625 260.472656 136.800781 260.660156 C 136.265625 260.769531 136.222656 261.53125 136.789062 261.628906 C 137.523438 261.765625 138.234375 261.816406 138.953125 261.839844 C 138.902344 262.132812 138.882812 262.425781 138.925781 262.714844 C 137.863281 263.453125 137.023438 264.523438 137.324219 265.703125 C 137.421875 266.101562 137.984375 266.277344 138.308594 266.035156 C 138.925781 265.570312 139.292969 264.808594 139.832031 264.230469 C 140.175781 264.46875 140.609375 264.617188 141.136719 264.617188 C 141.5 264.617188 141.8125 264.546875 142.089844 264.433594 C 142.277344 264.714844 142.441406 264.996094 142.640625 265.273438 C 140.699219 266.714844 138.769531 268.527344 137.394531 270.492188 C 136.945312 271.125 137.707031 271.941406 138.359375 271.476562 C 140.265625 270.101562 142.03125 268.269531 143.46875 266.363281 C 143.730469 266.714844 143.980469 267.070312 144.257812 267.40625 C 143.578125 268.238281 142.945312 269.121094 142.296875 269.972656 C 140.878906 271.839844 139.378906 273.59375 137.863281 275.382812 C 137.378906 275.953125 138.183594 276.835938 138.8125 276.472656 C 141.523438 274.914062 144.039062 271.875 145.578125 268.910156 C 146.089844 269.449219 146.609375 269.980469 147.152344 270.464844 C 146.902344 270.859375 146.617188 271.226562 146.453125 271.449219 C 145.347656 272.9375 144.050781 274.308594 142.808594 275.683594 C 140.78125 277.941406 138.582031 280.035156 136.875 282.558594 C 136.492188 283.136719 137.355469 283.75 137.828125 283.28125 C 141.121094 280.003906 144.449219 276.78125 147.210938 273.007812 C 147.539062 272.546875 147.917969 271.964844 148.214844 271.367188 C 149.234375 272.167969 150.304688 272.828125 151.410156 273.34375 C 147.488281 277.171875 144.699219 282.464844 141.761719 286.902344 C 141.386719 287.46875 142.25 288.113281 142.703125 287.621094 C 146.558594 283.425781 149.40625 278.441406 152.820312 273.886719 C 153.21875 274.007812 153.617188 274.132812 154.023438 274.207031 C 154.019531 275.195312 154.023438 276.1875 154.023438 277.179688 C 153.121094 278.414062 152.226562 279.671875 151.359375 280.941406 C 149.691406 283.382812 147.480469 285.851562 146.703125 288.746094 C 146.605469 289.140625 147.132812 289.453125 147.4375 289.210938 C 149.507812 287.601562 150.746094 285.140625 152.15625 282.96875 C 152.785156 281.996094 153.40625 281.011719 154.023438 280.035156 C 154.03125 281.632812 154.0625 283.230469 154.101562 284.828125 C 153.546875 285.433594 152.996094 286.039062 152.484375 286.683594 C 151.328125 288.148438 150.175781 289.640625 150.011719 291.542969 C 149.976562 291.945312 150.476562 292.03125 150.722656 291.828125 Z M 275.289062 124.03125 C 274.617188 124.582031 273.941406 125.121094 273.269531 125.683594 C 271.675781 127.039062 269.957031 128.316406 268.777344 130.058594 C 268.421875 130.585938 269.070312 131.058594 269.554688 130.871094 C 271.070312 130.273438 272.222656 129.273438 273.46875 128.238281 C 274.21875 127.621094 274.917969 126.96875 275.613281 126.308594 C 275.722656 126.984375 275.835938 127.664062 275.964844 128.347656 C 274.902344 129.800781 273.914062 131.324219 272.886719 132.695312 C 271.449219 134.617188 270.035156 136.632812 268.753906 138.714844 C 268.507812 134.714844 267.972656 130.855469 267.183594 127.152344 C 268.601562 126.429688 269.890625 125.175781 271.054688 124.199219 C 272.382812 123.085938 273.648438 121.902344 274.902344 120.691406 C 275.015625 121.804688 275.140625 122.917969 275.289062 124.03125 Z M 274.726562 119.050781 C 273.40625 120.28125 272.050781 121.476562 270.648438 122.621094 C 269.464844 123.578125 267.980469 124.445312 266.800781 125.511719 C 266.542969 124.433594 266.269531 123.375 265.972656 122.324219 C 268.996094 120.328125 271.730469 117.804688 274.324219 115.257812 C 274.460938 116.519531 274.597656 117.789062 274.726562 119.050781 Z M 205.550781 40.523438 C 205.460938 41.160156 205.394531 41.816406 205.3125 42.457031 C 200.523438 44.789062 195.425781 47.460938 191.003906 50.777344 C 190.941406 50.234375 190.84375 49.703125 190.6875 49.1875 C 195.757812 46.933594 200.617188 43.4375 205.550781 40.523438 Z M 191.019531 59.429688 C 191.019531 58.933594 191.019531 58.433594 191.011719 57.9375 C 196.128906 55.332031 201.214844 51.328125 204.882812 47.042969 C 204.808594 48.191406 204.75 49.347656 204.714844 50.492188 C 200.085938 53.183594 195.273438 56.066406 191.019531 59.429688 Z M 204.691406 51.558594 C 204.679688 52.515625 204.660156 53.472656 204.679688 54.417969 C 203.410156 54.28125 202.511719 55.019531 201.476562 55.671875 C 200.019531 56.589844 198.550781 57.488281 197.070312 58.378906 C 195.691406 59.21875 194.308594 60.042969 192.921875 60.867188 C 192.296875 61.234375 191.316406 61.59375 190.890625 62.246094 C 190.914062 62.035156 190.914062 61.824219 190.933594 61.617188 C 195.835938 58.855469 200.660156 55.417969 204.691406 51.558594 Z M 197.3125 51.515625 C 195.234375 53.046875 193.066406 54.496094 191.011719 56.066406 C 191.011719 56.007812 191.003906 55.945312 191.011719 55.890625 C 191.023438 54.996094 191.082031 54.058594 191.089844 53.125 C 195.976562 50.058594 200.605469 46.355469 205.242188 43.054688 C 205.132812 44.035156 205.035156 45.015625 204.949219 46.003906 C 202.300781 47.691406 199.847656 49.648438 197.3125 51.515625 Z M 188.859375 48.136719 C 188.351562 48.644531 187.996094 49.273438 187.71875 49.953125 C 187.597656 49.546875 187.355469 49.164062 186.851562 48.96875 C 181.714844 46.96875 175.347656 47.304688 169.90625 47.441406 C 167.40625 47.503906 164.59375 47.511719 161.859375 47.828125 C 163.390625 47.058594 164.882812 46.09375 166.234375 45.324219 C 167.121094 44.820312 170.972656 43.195312 172.09375 41.675781 C 172.210938 41.890625 172.4375 42.050781 172.753906 42.039062 C 178.492188 41.816406 184.210938 41.589844 189.953125 41.539062 C 193.414062 41.511719 197.207031 41.867188 200.78125 41.53125 C 199.394531 42.246094 198.015625 42.984375 196.65625 43.785156 C 194.347656 45.144531 191.765625 46.40625 190.476562 48.625 C 190.441406 48.527344 190.414062 48.425781 190.363281 48.332031 C 190.113281 47.761719 189.273438 47.738281 188.859375 48.136719 Z M 189.808594 63.996094 C 190.207031 63.808594 190.550781 63.519531 190.722656 63.109375 C 190.796875 63.34375 190.964844 63.53125 191.226562 63.628906 C 191.945312 63.886719 192.554688 63.425781 193.171875 63.082031 C 194.679688 62.226562 196.183594 61.351562 197.679688 60.472656 C 199.222656 59.574219 200.746094 58.660156 202.269531 57.742188 C 203.265625 57.136719 204.363281 56.636719 204.921875 55.644531 C 205.316406 56.082031 206.121094 56.09375 206.566406 55.699219 C 214.304688 57.199219 221.8125 58.183594 229.242188 61.152344 C 238.472656 64.824219 246.722656 70.339844 254.097656 76.933594 C 257.929688 80.363281 261.285156 84.269531 264.195312 88.5 C 264.144531 88.523438 264.101562 88.535156 264.050781 88.574219 C 262.640625 89.621094 261.1875 90.609375 259.714844 91.578125 C 258.347656 92.476562 256.75 93.421875 255.933594 94.886719 C 255.78125 95.148438 256.003906 95.539062 256.332031 95.449219 C 257.949219 94.992188 259.277344 93.800781 260.609375 92.835938 C 262.015625 91.816406 263.398438 90.765625 264.738281 89.652344 C 264.785156 89.609375 264.816406 89.554688 264.851562 89.507812 C 265.621094 90.679688 266.390625 91.859375 267.097656 93.074219 C 265.546875 94 263.964844 94.851562 262.394531 95.75 C 260.695312 96.726562 258.839844 97.582031 257.601562 99.140625 C 257.378906 99.425781 257.5625 99.914062 257.972656 99.804688 C 259.859375 99.296875 261.464844 98.113281 263.132812 97.125 C 264.695312 96.195312 266.214844 95.195312 267.699219 94.140625 C 268.066406 94.796875 268.441406 95.457031 268.785156 96.121094 C 267.0625 97.898438 265.261719 99.558594 263.253906 101.027344 C 261.621094 102.226562 259.710938 103.167969 258.234375 104.542969 C 244.410156 81.648438 218.632812 67.675781 189.808594 63.996094 Z M 258.605469 105.167969 C 262.738281 104.277344 266.457031 100.265625 269.207031 96.953125 C 269.65625 97.851562 270.101562 98.75 270.519531 99.664062 C 269.148438 100.914062 267.75 102.136719 266.332031 103.339844 C 264.480469 104.917969 262.222656 106.378906 260.773438 108.351562 C 260.527344 108.6875 260.851562 109.320312 261.292969 109.089844 C 263.515625 107.933594 265.378906 105.882812 267.195312 104.191406 C 268.460938 103.011719 269.679688 101.773438 270.894531 100.539062 C 271.421875 101.78125 271.878906 103.027344 272.257812 104.273438 C 271.207031 105.171875 270.164062 106.070312 269.09375 106.953125 C 267.027344 108.660156 264.679688 110.128906 262.777344 112.015625 C 262.320312 112.484375 262.949219 113.378906 263.546875 113.082031 C 266.917969 111.378906 269.949219 108.449219 272.621094 105.570312 C 272.9375 106.78125 273.226562 108 273.449219 109.226562 C 271.992188 110.59375 270.488281 111.921875 268.929688 113.171875 C 267.425781 114.386719 265.621094 115.507812 264.164062 116.863281 C 262.648438 112.742188 260.773438 108.84375 258.605469 105.167969 Z M 264.671875 118.226562 C 266.527344 117.191406 268.214844 115.621094 269.789062 114.292969 C 271.175781 113.121094 272.476562 111.890625 273.691406 110.574219 C 273.867188 111.644531 274.019531 112.714844 274.152344 113.792969 C 271.429688 116.449219 268.359375 118.75 265.714844 121.460938 C 265.386719 120.367188 265.042969 119.292969 264.671875 118.226562 Z M 200.792969 350.175781 C 198.589844 351.554688 193.53125 353.96875 192.824219 356.816406 C 192.816406 356.449219 192.800781 356.082031 192.796875 355.71875 C 192.769531 354.121094 192.769531 352.601562 192.664062 351.097656 C 195.785156 350.664062 198.878906 350.105469 201.957031 349.457031 C 201.5625 349.699219 201.175781 349.9375 200.792969 350.175781 Z M 207.488281 156.15625 C 204.574219 157.914062 201.878906 160.109375 199.152344 162.136719 C 197.34375 163.480469 195.390625 164.808594 193.710938 166.378906 C 193.742188 165.582031 193.792969 164.800781 193.820312 164 C 195.71875 162.644531 197.488281 160.914062 199.234375 159.613281 C 201.996094 157.550781 205.027344 155.515625 207.375 152.960938 C 207.390625 154.03125 207.441406 155.09375 207.488281 156.15625 Z M 193.84375 137.078125 C 195.953125 135.847656 197.886719 133.945312 199.71875 132.480469 C 202.078125 130.59375 204.398438 128.636719 206.597656 126.554688 C 206.597656 127.691406 206.625 128.828125 206.65625 129.964844 C 203.96875 132.105469 201.132812 134.0625 198.351562 136.082031 C 196.964844 137.097656 195.304688 138.113281 193.917969 139.335938 C 193.886719 138.585938 193.878906 137.828125 193.84375 137.078125 Z M 207.339844 151.179688 C 207.074219 151 206.734375 150.957031 206.371094 151.195312 C 203.140625 153.367188 200.058594 155.863281 196.9375 158.191406 C 196.023438 158.878906 194.953125 159.585938 193.925781 160.363281 C 193.941406 159.609375 193.976562 158.859375 193.992188 158.097656 C 196.152344 156.734375 198.160156 155.046875 200.175781 153.5625 C 202.613281 151.773438 204.984375 149.890625 207.316406 147.964844 C 207.324219 149.035156 207.324219 150.105469 207.339844 151.179688 Z M 207.296875 145.765625 C 204.398438 147.597656 201.59375 149.535156 198.777344 151.488281 C 197.25 152.550781 195.605469 153.648438 194.058594 154.851562 C 194.066406 154.296875 194.09375 153.753906 194.09375 153.199219 C 196.703125 151.644531 199.078125 149.503906 201.425781 147.671875 C 203.410156 146.125 205.34375 144.5 207.226562 142.828125 C 207.265625 143.804688 207.28125 144.78125 207.296875 145.765625 Z M 207.132812 140.679688 C 204.734375 142.339844 202.445312 144.160156 200.128906 145.921875 C 198.1875 147.398438 196.03125 148.835938 194.085938 150.441406 C 194.085938 149.320312 194.09375 148.207031 194.078125 147.089844 C 196.289062 146.042969 198.292969 144.292969 200.207031 142.894531 C 202.597656 141.140625 204.847656 139.285156 206.964844 137.253906 C 207.023438 138.398438 207.074219 139.539062 207.132812 140.679688 Z M 206.867188 135.121094 C 204.65625 137.003906 202.363281 138.78125 200.003906 140.472656 C 198.15625 141.800781 195.910156 143 194.042969 144.5 C 194.027344 143.691406 194.027344 142.882812 194.003906 142.074219 C 195.984375 140.921875 197.757812 139.171875 199.542969 137.835938 C 202.027344 135.976562 204.429688 134.085938 206.722656 132.019531 C 206.761719 133.054688 206.816406 134.089844 206.867188 135.121094 Z M 206.605469 122.46875 C 206.625 122.484375 206.640625 122.5 206.65625 122.515625 C 206.621094 123.308594 206.628906 124.109375 206.621094 124.910156 C 206.597656 124.917969 206.570312 124.925781 206.546875 124.9375 C 203.867188 126.953125 201.222656 129.019531 198.554688 131.042969 C 197.042969 132.1875 195.203125 133.429688 193.714844 134.871094 C 193.660156 133.800781 193.601562 132.730469 193.523438 131.664062 C 194.953125 130.644531 196.3125 129.484375 197.667969 128.476562 C 200.546875 126.332031 203.523438 124.300781 206.605469 122.46875 Z M 191.910156 116.707031 C 191.660156 115.035156 191.417969 113.363281 191.117188 111.726562 C 192.71875 112.449219 194.25 113.222656 195.703125 114.039062 C 194.386719 114.546875 193.257812 115.453125 192.246094 116.40625 C 192.144531 116.5 192.023438 116.605469 191.910156 116.707031 Z M 192.3125 119.304688 C 192.792969 118.761719 193.234375 118.226562 193.644531 117.832031 C 194.335938 117.160156 195.007812 116.449219 195.753906 115.832031 C 195.941406 115.679688 196.144531 115.546875 196.363281 115.425781 C 196.714844 115.230469 196.636719 114.710938 197.035156 115.207031 C 197.082031 115.269531 197.171875 115.226562 197.171875 115.152344 C 197.175781 115.042969 197.15625 114.964844 197.140625 114.886719 C 198.003906 115.410156 198.832031 115.949219 199.644531 116.507812 C 199.238281 116.703125 198.847656 116.90625 198.457031 117.140625 C 196.363281 118.40625 193.582031 120.148438 192.78125 122.582031 C 192.644531 123.019531 193.105469 123.46875 193.527344 123.25 C 195.160156 122.429688 196.421875 120.855469 197.847656 119.734375 C 198.871094 118.929688 200.003906 118.238281 201.175781 117.636719 C 201.683594 118.019531 202.152344 118.429688 202.636719 118.824219 C 201.070312 120.019531 199.488281 121.191406 197.890625 122.351562 C 196.335938 123.480469 194.570312 124.542969 193.074219 125.832031 C 192.855469 123.636719 192.605469 121.457031 192.3125 119.304688 Z M 193.257812 128.09375 C 195.375 126.945312 197.222656 125.226562 199.125 123.789062 C 200.777344 122.539062 202.382812 121.234375 203.953125 119.898438 C 204.445312 120.332031 204.929688 120.777344 205.398438 121.230469 C 201.507812 123.28125 196.929688 125.757812 193.316406 128.839844 C 193.296875 128.59375 193.28125 128.339844 193.257812 128.09375 Z M 193.59375 168.875 C 196.109375 167.558594 198.363281 165.574219 200.605469 163.875 C 202.960938 162.082031 205.449219 160.328125 207.632812 158.289062 C 207.707031 159.238281 207.765625 160.191406 207.894531 161.125 C 204.511719 163.171875 201.382812 165.832031 198.261719 168.207031 C 196.757812 169.359375 195.015625 170.5625 193.449219 171.90625 C 193.515625 170.914062 193.542969 169.882812 193.59375 168.875 Z M 288.316406 255.519531 C 287.65625 256.273438 287 257.023438 286.351562 257.773438 C 285.011719 259.300781 283.179688 260.589844 282.34375 262.476562 C 282.160156 262.902344 282.445312 263.488281 282.980469 263.339844 C 285.035156 262.789062 286.417969 261.082031 287.78125 259.542969 C 287.914062 259.390625 288.035156 259.234375 288.15625 259.078125 L 288.15625 259.089844 C 288.070312 260.441406 287.921875 261.757812 287.757812 263.054688 C 286.9375 263.890625 286.125 264.742188 285.339844 265.617188 C 284.105469 266.984375 282.730469 268.375 282.132812 270.136719 C 281.9375 270.714844 282.601562 271.398438 283.171875 271.050781 C 284.636719 270.15625 285.589844 268.765625 286.644531 267.4375 C 286.796875 267.238281 286.972656 267.046875 287.128906 266.847656 C 286.453125 270.28125 285.511719 273.507812 284.347656 276.601562 C 283.773438 277.3125 283.195312 278.023438 282.871094 278.882812 C 282.757812 279.179688 282.9375 279.421875 283.179688 279.523438 C 281.691406 282.996094 279.957031 286.316406 278.023438 289.554688 C 280.570312 281.40625 281.789062 272.472656 281.414062 262.777344 C 279.660156 217.96875 234.21875 183.363281 193.484375 175.902344 C 195.945312 174.339844 198.195312 172.183594 200.4375 170.492188 C 203.742188 168 207.46875 165.835938 210.496094 163.015625 C 210.71875 162.808594 210.84375 162.550781 210.910156 162.28125 C 212.078125 162.519531 213.222656 162.8125 214.371094 163.085938 C 209.496094 166.757812 205.050781 170.957031 199.886719 174.292969 C 199.183594 174.75 199.921875 175.882812 200.65625 175.527344 C 206.519531 172.648438 212.054688 168.398438 216.542969 163.589844 C 217.761719 163.90625 218.945312 164.269531 220.140625 164.625 C 217.910156 166.644531 215.828125 168.859375 213.570312 170.867188 C 210.898438 173.246094 207.984375 175.316406 205.414062 177.816406 C 205.09375 178.132812 205.527344 178.757812 205.933594 178.558594 C 211.703125 175.714844 218.027344 170.601562 221.316406 164.960938 C 222.890625 165.445312 224.441406 165.976562 225.984375 166.53125 C 223.699219 168.144531 221.617188 170.050781 219.542969 171.917969 C 216.933594 174.273438 213.9375 176.539062 211.929688 179.441406 C 211.617188 179.890625 212.097656 180.382812 212.5625 180.128906 C 215.402344 178.558594 217.601562 176.046875 219.9375 173.84375 C 222.355469 171.566406 224.898438 169.382812 227.222656 167.003906 C 228.5 167.480469 229.746094 168 230.988281 168.519531 C 229.089844 169.902344 227.277344 171.40625 225.503906 172.917969 C 222.332031 175.625 218.804688 178.316406 216.226562 181.609375 C 215.9375 181.988281 216.378906 182.621094 216.828125 182.382812 C 220.5625 180.410156 223.625 177.136719 226.757812 174.355469 C 228.714844 172.621094 230.730469 170.957031 232.734375 169.289062 C 234.066406 169.878906 235.378906 170.5 236.675781 171.144531 C 234.75 172.734375 232.832031 174.316406 230.882812 175.867188 C 227.820312 178.300781 224.070312 180.714844 221.613281 183.78125 C 221.261719 184.214844 221.835938 184.804688 222.296875 184.574219 C 225.207031 183.152344 227.652344 180.667969 230.117188 178.589844 C 232.742188 176.390625 235.257812 174.058594 237.746094 171.707031 C 239.519531 172.625 241.253906 173.605469 242.957031 174.621094 C 240.457031 176.539062 237.949219 178.441406 235.4375 180.347656 C 232.957031 182.234375 230.1875 184.082031 228.191406 186.5 C 227.894531 186.855469 228.3125 187.472656 228.75 187.253906 C 231.300781 185.980469 233.425781 183.960938 235.644531 182.203125 C 238.5 179.953125 241.273438 177.601562 244.0625 175.28125 C 245.226562 175.992188 246.367188 176.738281 247.492188 177.5 C 245.507812 179.023438 243.519531 180.539062 241.546875 182.078125 C 238.945312 184.109375 235.589844 186.300781 234.097656 189.320312 C 233.914062 189.6875 234.339844 190.148438 234.722656 189.96875 C 237.445312 188.664062 239.671875 186.132812 242 184.214844 C 244.332031 182.300781 246.707031 180.460938 249.066406 178.59375 C 250.226562 179.410156 251.335938 180.289062 252.457031 181.152344 C 250.066406 183.140625 247.617188 185.042969 245.238281 187.042969 C 242.9375 188.980469 240.015625 190.960938 238.585938 193.660156 C 238.425781 193.957031 238.714844 194.347656 239.042969 194.171875 C 241.738281 192.769531 243.941406 190.167969 246.234375 188.179688 C 248.628906 186.101562 250.972656 183.957031 253.285156 181.789062 C 254.648438 182.867188 255.964844 183.988281 257.261719 185.140625 C 257.136719 185.152344 257.003906 185.1875 256.894531 185.285156 C 252.648438 188.871094 247.957031 192.523438 244.402344 196.808594 C 244.070312 197.210938 244.640625 197.886719 245.089844 197.601562 C 249.816406 194.59375 253.679688 189.914062 257.785156 186.140625 C 257.914062 186.027344 257.957031 185.898438 257.96875 185.773438 C 267.691406 194.585938 275.625 205.519531 281.234375 218.464844 C 284.707031 226.46875 286.902344 234.878906 287.835938 243.457031 C 286.867188 244.351562 285.894531 245.242188 284.933594 246.144531 C 283.582031 247.421875 282.039062 248.554688 280.996094 250.117188 C 280.847656 250.339844 281.039062 250.667969 281.316406 250.558594 C 282.820312 249.964844 283.945312 248.859375 285.105469 247.773438 C 286.089844 246.851562 287.023438 245.875 287.949219 244.890625 C 288.09375 246.390625 288.179688 247.894531 288.25 249.398438 C 287.570312 249.980469 286.902344 250.570312 286.261719 251.1875 C 284.8125 252.585938 281.925781 254.6875 281.871094 256.824219 C 281.859375 257.125 282.167969 257.273438 282.425781 257.21875 C 284.0625 256.890625 285.140625 254.945312 286.210938 253.789062 C 286.902344 253.054688 287.609375 252.332031 288.320312 251.617188 C 288.351562 252.914062 288.34375 254.214844 288.316406 255.519531 Z M 288.316406 255.519531 " fill-opacity="1" fill-rule="nonzero"/></g><path fill="#000000" d="M 261.359375 190.066406 C 257.238281 192.652344 253.578125 195.652344 250.308594 199.253906 C 249.652344 199.972656 250.59375 201.070312 251.339844 200.394531 C 254.875 197.207031 258.472656 194.066406 262.128906 191.023438 C 262.667969 190.570312 261.941406 189.703125 261.359375 190.066406 Z M 261.359375 190.066406 " fill-opacity="1" fill-rule="nonzero"/><path fill="#000000" d="M 258.984375 87.1875 C 258.382812 88.039062 257.621094 88.722656 256.746094 89.289062 C 256.15625 89.664062 255.078125 89.84375 254.804688 90.542969 C 254.722656 90.757812 254.757812 90.976562 254.964844 91.101562 C 255.738281 91.554688 256.777344 90.773438 257.429688 90.367188 C 258.476562 89.707031 259.335938 88.796875 260.03125 87.78125 C 260.460938 87.136719 259.425781 86.566406 258.984375 87.1875 Z M 258.984375 87.1875 " fill-opacity="1" fill-rule="nonzero"/><path fill="#000000" d="M 257.5 83.265625 C 256.566406 84.183594 255.574219 84.855469 254.460938 85.539062 C 254.117188 85.746094 254.285156 86.257812 254.691406 86.207031 C 255.453125 86.105469 256.011719 85.964844 256.644531 85.539062 C 257.242188 85.132812 257.75 84.613281 258.257812 84.101562 C 258.761719 83.585938 258.019531 82.757812 257.5 83.265625 Z M 257.5 83.265625 " fill-opacity="1" fill-rule="nonzero"/></svg>