<svg xmlns="http://www.w3.org/2000/svg" xmlns:xlink="http://www.w3.org/1999/xlink" width="512" zoomAndPan="magnify" viewBox="0 0 384 383.999986" height="512" preserveAspectRatio="xMidYMid meet" version="1.0"><defs><clipPath id="c433bbc1a7"><path d="M 28 18.558594 L 261 18.558594 L 261 251 L 28 251 Z M 28 18.558594 " clip-rule="nonzero"/></clipPath><clipPath id="feb2295486"><path d="M 96.46875 91.359375 L 205.933594 91.359375 L 205.933594 171.589844 L 96.46875 171.589844 Z M 96.46875 91.359375 " clip-rule="nonzero"/></clipPath></defs><g clip-path="url(#c433bbc1a7)"><path fill="#f6ce1e" d="M 144.253906 250.984375 C 80.171875 250.984375 28.035156 198.851562 28.035156 134.761719 C 28.035156 70.671875 80.164062 18.542969 144.253906 18.542969 C 208.34375 18.542969 260.476562 70.671875 260.476562 134.761719 C 260.476562 198.851562 208.335938 250.984375 144.253906 250.984375 Z M 144.253906 37.65625 C 142.664062 37.65625 141.078125 37.695312 139.488281 37.773438 C 137.902344 37.851562 136.316406 37.96875 134.738281 38.125 C 133.15625 38.28125 131.578125 38.476562 130.007812 38.707031 C 128.433594 38.941406 126.867188 39.214844 125.308594 39.523438 C 123.75 39.832031 122.203125 40.183594 120.660156 40.566406 C 119.117188 40.953125 117.585938 41.378906 116.066406 41.839844 C 114.546875 42.300781 113.035156 42.796875 111.539062 43.335938 C 110.042969 43.871094 108.5625 44.441406 107.09375 45.050781 C 105.625 45.65625 104.171875 46.300781 102.738281 46.980469 C 101.300781 47.660156 99.878906 48.375 98.480469 49.125 C 97.078125 49.871094 95.695312 50.65625 94.332031 51.472656 C 92.96875 52.289062 91.625 53.140625 90.304688 54.023438 C 88.984375 54.90625 87.683594 55.820312 86.410156 56.765625 C 85.132812 57.714844 83.878906 58.691406 82.652344 59.699219 C 81.421875 60.707031 80.21875 61.746094 79.042969 62.8125 C 77.863281 63.878906 76.714844 64.976562 75.589844 66.097656 C 74.464844 67.222656 73.371094 68.375 72.304688 69.550781 C 71.238281 70.730469 70.199219 71.933594 69.191406 73.160156 C 68.183594 74.386719 67.207031 75.640625 66.257812 76.917969 C 65.3125 78.195312 64.398438 79.492188 63.515625 80.8125 C 62.632812 82.136719 61.78125 83.476562 60.964844 84.839844 C 60.148438 86.203125 59.363281 87.585938 58.613281 88.988281 C 57.867188 90.390625 57.152344 91.808594 56.472656 93.246094 C 55.792969 94.683594 55.148438 96.132812 54.539062 97.601562 C 53.933594 99.070312 53.359375 100.554688 52.824219 102.050781 C 52.289062 103.546875 51.792969 105.054688 51.332031 106.574219 C 50.867188 108.097656 50.445312 109.628906 50.058594 111.167969 C 49.671875 112.710938 49.324219 114.261719 49.015625 115.820312 C 48.703125 117.378906 48.433594 118.941406 48.199219 120.515625 C 47.964844 122.085938 47.773438 123.664062 47.617188 125.246094 C 47.460938 126.828125 47.34375 128.410156 47.265625 130 C 47.1875 131.585938 47.148438 133.175781 47.148438 134.761719 C 47.148438 136.351562 47.1875 137.941406 47.265625 139.527344 C 47.34375 141.117188 47.460938 142.699219 47.617188 144.28125 C 47.773438 145.863281 47.964844 147.441406 48.199219 149.011719 C 48.433594 150.582031 48.703125 152.148438 49.015625 153.707031 C 49.324219 155.265625 49.671875 156.816406 50.058594 158.359375 C 50.445312 159.898438 50.867188 161.429688 51.332031 162.953125 C 51.792969 164.472656 52.289062 165.980469 52.824219 167.476562 C 53.359375 168.972656 53.933594 170.457031 54.539062 171.925781 C 55.148438 173.390625 55.792969 174.84375 56.472656 176.28125 C 57.152344 177.71875 57.867188 179.136719 58.613281 180.539062 C 59.363281 181.941406 60.148438 183.324219 60.964844 184.6875 C 61.78125 186.046875 62.632812 187.390625 63.515625 188.710938 C 64.398438 190.035156 65.3125 191.332031 66.257812 192.609375 C 67.207031 193.886719 68.183594 195.136719 69.191406 196.367188 C 70.199219 197.59375 71.238281 198.796875 72.304688 199.976562 C 73.371094 201.152344 74.464844 202.304688 75.589844 203.425781 C 76.714844 204.550781 77.863281 205.648438 79.042969 206.714844 C 80.21875 207.78125 81.421875 208.820312 82.652344 209.828125 C 83.878906 210.835938 85.132812 211.8125 86.410156 212.757812 C 87.683594 213.707031 88.984375 214.621094 90.304688 215.503906 C 91.625 216.386719 92.96875 217.238281 94.332031 218.054688 C 95.695312 218.871094 97.078125 219.652344 98.480469 220.402344 C 99.878906 221.152344 101.300781 221.867188 102.738281 222.546875 C 104.171875 223.226562 105.625 223.867188 107.09375 224.476562 C 108.5625 225.085938 110.042969 225.65625 111.539062 226.191406 C 113.035156 226.726562 114.546875 227.226562 116.066406 227.6875 C 117.585938 228.148438 119.117188 228.574219 120.660156 228.957031 C 122.203125 229.34375 123.75 229.691406 125.308594 230.003906 C 126.867188 230.3125 128.433594 230.585938 130.007812 230.816406 C 131.578125 231.050781 133.15625 231.246094 134.738281 231.402344 C 136.316406 231.558594 137.902344 231.675781 139.488281 231.753906 C 141.078125 231.828125 142.664062 231.867188 144.253906 231.867188 C 145.84375 231.867188 147.433594 231.828125 149.019531 231.753906 C 150.605469 231.675781 152.191406 231.558594 153.773438 231.402344 C 155.355469 231.246094 156.929688 231.050781 158.503906 230.816406 C 160.074219 230.585938 161.640625 230.3125 163.199219 230.003906 C 164.757812 229.691406 166.308594 229.34375 167.847656 228.957031 C 169.390625 228.574219 170.921875 228.148438 172.441406 227.6875 C 173.964844 227.226562 175.472656 226.726562 176.96875 226.191406 C 178.464844 225.65625 179.945312 225.085938 181.414062 224.476562 C 182.882812 223.867188 184.335938 223.226562 185.773438 222.546875 C 187.210938 221.867188 188.628906 221.152344 190.03125 220.402344 C 191.429688 219.652344 192.8125 218.871094 194.175781 218.054688 C 195.539062 217.238281 196.882812 216.386719 198.203125 215.503906 C 199.523438 214.621094 200.824219 213.707031 202.101562 212.757812 C 203.375 211.8125 204.628906 210.835938 205.859375 209.828125 C 207.085938 208.820312 208.289062 207.78125 209.464844 206.714844 C 210.644531 205.648438 211.792969 204.550781 212.917969 203.425781 C 214.042969 202.304688 215.136719 201.152344 216.203125 199.976562 C 217.273438 198.796875 218.308594 197.59375 219.316406 196.367188 C 220.328125 195.136719 221.304688 193.886719 222.25 192.609375 C 223.195312 191.332031 224.113281 190.035156 224.996094 188.710938 C 225.878906 187.390625 226.726562 186.046875 227.542969 184.6875 C 228.363281 183.324219 229.144531 181.941406 229.894531 180.539062 C 230.644531 179.136719 231.359375 177.71875 232.035156 176.28125 C 232.714844 174.84375 233.359375 173.390625 233.96875 171.925781 C 234.578125 170.457031 235.148438 168.972656 235.683594 167.476562 C 236.21875 165.980469 236.71875 164.472656 237.179688 162.953125 C 237.640625 161.429688 238.0625 159.898438 238.449219 158.359375 C 238.835938 156.816406 239.183594 155.265625 239.496094 153.707031 C 239.804688 152.148438 240.074219 150.582031 240.308594 149.011719 C 240.542969 147.441406 240.738281 145.863281 240.894531 144.28125 C 241.046875 142.699219 241.164062 141.117188 241.242188 139.527344 C 241.320312 137.941406 241.359375 136.351562 241.359375 134.761719 C 241.359375 133.175781 241.316406 131.585938 241.238281 130 C 241.15625 128.414062 241.039062 126.832031 240.882812 125.25 C 240.722656 123.667969 240.527344 122.09375 240.292969 120.523438 C 240.058594 118.949219 239.785156 117.386719 239.472656 115.828125 C 239.164062 114.269531 238.8125 112.722656 238.425781 111.179688 C 238.039062 109.640625 237.613281 108.109375 237.152344 106.589844 C 236.6875 105.070312 236.191406 103.5625 235.652344 102.066406 C 235.117188 100.574219 234.542969 99.089844 233.933594 97.625 C 233.328125 96.15625 232.683594 94.707031 232.003906 93.269531 C 231.320312 91.832031 230.605469 90.414062 229.859375 89.015625 C 229.109375 87.613281 228.324219 86.234375 227.507812 84.871094 C 226.691406 83.507812 225.839844 82.167969 224.957031 80.847656 C 224.074219 79.527344 223.160156 78.226562 222.210938 76.953125 C 221.265625 75.675781 220.289062 74.425781 219.28125 73.199219 C 218.273438 71.96875 217.234375 70.765625 216.167969 69.589844 C 215.101562 68.414062 214.003906 67.261719 212.882812 66.140625 C 211.757812 65.015625 210.609375 63.921875 209.429688 62.855469 C 208.253906 61.789062 207.050781 60.75 205.824219 59.742188 C 204.597656 58.734375 203.34375 57.757812 202.066406 56.8125 C 200.792969 55.867188 199.492188 54.949219 198.171875 54.066406 C 196.851562 53.183594 195.511719 52.335938 194.148438 51.519531 C 192.785156 50.699219 191.40625 49.917969 190.003906 49.167969 C 188.605469 48.417969 187.183594 47.703125 185.75 47.023438 C 184.3125 46.34375 182.863281 45.699219 181.394531 45.09375 C 179.929688 44.484375 178.445312 43.910156 176.949219 43.375 C 175.457031 42.839844 173.949219 42.339844 172.429688 41.878906 C 170.910156 41.414062 169.378906 40.992188 167.835938 40.605469 C 166.296875 40.214844 164.746094 39.867188 163.191406 39.554688 C 161.632812 39.246094 160.066406 38.972656 158.496094 38.738281 C 156.925781 38.503906 155.347656 38.308594 153.769531 38.148438 C 152.1875 37.992188 150.605469 37.875 149.015625 37.796875 C 147.429688 37.714844 145.84375 37.675781 144.253906 37.671875 Z M 144.253906 37.65625 " fill-opacity="1" fill-rule="nonzero"/></g><path fill="#f6ce1e" d="M 228.179688 263.546875 C 227.121094 263.546875 226.085938 263.394531 225.074219 263.085938 C 224.0625 262.78125 223.117188 262.335938 222.238281 261.75 C 221.359375 261.164062 220.585938 260.460938 219.914062 259.644531 C 219.242188 258.832031 218.703125 257.933594 218.296875 256.957031 C 217.890625 255.984375 217.632812 254.96875 217.527344 253.917969 C 217.421875 252.867188 217.46875 251.824219 217.671875 250.785156 C 217.875 249.75 218.222656 248.761719 218.71875 247.828125 C 219.214844 246.894531 219.832031 246.054688 220.578125 245.304688 L 250.175781 215.484375 C 250.65625 214.9375 251.191406 214.441406 251.773438 214.003906 C 252.355469 213.566406 252.976562 213.1875 253.632812 212.878906 C 254.292969 212.566406 254.976562 212.324219 255.683594 212.152344 C 256.394531 211.976562 257.113281 211.878906 257.839844 211.855469 C 258.570312 211.828125 259.292969 211.875 260.011719 212 C 260.730469 212.121094 261.429688 212.316406 262.109375 212.582031 C 262.789062 212.847656 263.433594 213.175781 264.046875 213.574219 C 264.65625 213.972656 265.222656 214.425781 265.738281 214.9375 C 266.257812 215.453125 266.71875 216.011719 267.125 216.617188 C 267.527344 217.226562 267.867188 217.867188 268.140625 218.542969 C 268.414062 219.21875 268.617188 219.914062 268.746094 220.632812 C 268.875 221.351562 268.933594 222.074219 268.917969 222.800781 C 268.898438 223.53125 268.808594 224.25 268.644531 224.960938 C 268.480469 225.671875 268.246094 226.359375 267.941406 227.019531 C 267.636719 227.683594 267.269531 228.308594 266.835938 228.894531 C 266.40625 229.484375 265.917969 230.019531 265.375 230.507812 L 235.777344 260.328125 C 234.777344 261.351562 233.617188 262.140625 232.300781 262.699219 C 230.984375 263.257812 229.609375 263.539062 228.179688 263.546875 Z M 228.179688 263.546875 " fill-opacity="1" fill-rule="nonzero"/><path fill="#f6ce1e" d="M 356.617188 363.925781 C 355.394531 363.925781 354.183594 363.808594 352.984375 363.566406 C 351.785156 363.328125 350.621094 362.96875 349.492188 362.496094 C 348.367188 362.019531 347.296875 361.441406 346.285156 360.75 C 345.277344 360.0625 344.34375 359.28125 343.488281 358.40625 L 264.734375 277.753906 C 264.3125 277.324219 263.917969 276.875 263.539062 276.40625 C 263.164062 275.9375 262.8125 275.449219 262.484375 274.945312 C 262.15625 274.441406 261.855469 273.921875 261.578125 273.390625 C 261.300781 272.855469 261.050781 272.3125 260.824219 271.753906 C 260.601562 271.195312 260.40625 270.628906 260.238281 270.050781 C 260.070312 269.472656 259.929688 268.890625 259.820312 268.296875 C 259.710938 267.707031 259.628906 267.113281 259.578125 266.511719 C 259.527344 265.914062 259.503906 265.3125 259.511719 264.714844 C 259.515625 264.113281 259.554688 263.511719 259.621094 262.914062 C 259.683594 262.316406 259.78125 261.726562 259.902344 261.136719 C 260.027344 260.546875 260.179688 259.96875 260.363281 259.394531 C 260.542969 258.820312 260.753906 258.257812 260.988281 257.707031 C 261.226562 257.152344 261.488281 256.613281 261.777344 256.085938 C 262.066406 255.558594 262.382812 255.050781 262.722656 254.554688 C 263.0625 254.058594 263.425781 253.578125 263.8125 253.117188 C 264.199219 252.660156 264.605469 252.21875 265.035156 251.796875 C 265.464844 251.378906 265.914062 250.980469 266.386719 250.605469 C 266.855469 250.230469 267.339844 249.875 267.84375 249.546875 C 268.347656 249.21875 268.867188 248.917969 269.398438 248.640625 C 269.933594 248.363281 270.480469 248.113281 271.035156 247.890625 C 271.59375 247.664062 272.164062 247.46875 272.738281 247.300781 C 273.316406 247.132812 273.902344 246.996094 274.492188 246.886719 C 275.082031 246.773438 275.675781 246.695312 276.277344 246.640625 C 276.875 246.589844 277.476562 246.566406 278.078125 246.574219 C 278.675781 246.582031 279.277344 246.617188 279.875 246.683594 C 280.472656 246.75 281.066406 246.84375 281.652344 246.96875 C 282.242188 247.09375 282.820312 247.246094 283.394531 247.425781 C 283.96875 247.609375 284.53125 247.816406 285.082031 248.054688 C 285.636719 248.289062 286.175781 248.550781 286.703125 248.84375 C 287.230469 249.132812 287.742188 249.445312 288.238281 249.785156 C 288.734375 250.125 289.210938 250.488281 289.671875 250.875 C 290.132812 251.261719 290.570312 251.671875 290.992188 252.101562 L 369.746094 332.75 C 370.375 333.394531 370.949219 334.078125 371.476562 334.804688 C 372.003906 335.53125 372.476562 336.292969 372.890625 337.089844 C 373.304688 337.886719 373.660156 338.710938 373.953125 339.558594 C 374.25 340.40625 374.480469 341.269531 374.648438 342.152344 C 374.816406 343.035156 374.917969 343.925781 374.953125 344.820312 C 374.992188 345.71875 374.960938 346.613281 374.867188 347.507812 C 374.773438 348.398438 374.613281 349.28125 374.390625 350.152344 C 374.164062 351.019531 373.878906 351.871094 373.53125 352.695312 C 373.183594 353.523438 372.773438 354.320312 372.308594 355.089844 C 371.84375 355.859375 371.324219 356.585938 370.753906 357.277344 C 370.179688 357.96875 369.558594 358.617188 368.890625 359.21875 C 368.222656 359.816406 367.515625 360.367188 366.769531 360.863281 C 366.019531 361.359375 365.238281 361.796875 364.425781 362.179688 C 363.613281 362.5625 362.777344 362.882812 361.917969 363.144531 C 361.058594 363.402344 360.183594 363.597656 359.296875 363.726562 C 358.410156 363.859375 357.515625 363.925781 356.617188 363.925781 Z M 356.617188 363.925781 " fill-opacity="1" fill-rule="nonzero"/><path fill="#f6ce1e" d="M 144.0625 216.621094 C 129.09375 216.621094 109.304688 212.332031 88.125 196.039062 C 69.527344 181.742188 60.957031 159.742188 63.328125 132.4375 C 64.472656 119.8125 67.476562 107.644531 72.34375 95.9375 C 72.5 95.59375 72.683594 95.273438 72.902344 94.964844 C 73.121094 94.660156 73.367188 94.382812 73.640625 94.125 C 73.917969 93.867188 74.210938 93.640625 74.53125 93.441406 C 74.847656 93.242188 75.183594 93.078125 75.535156 92.945312 C 75.886719 92.8125 76.246094 92.714844 76.617188 92.652344 C 76.984375 92.589844 77.359375 92.566406 77.734375 92.578125 C 78.109375 92.589844 78.480469 92.636719 78.84375 92.71875 C 79.210938 92.804688 79.566406 92.921875 79.90625 93.074219 C 80.25 93.230469 80.574219 93.414062 80.878906 93.628906 C 81.1875 93.847656 81.46875 94.09375 81.726562 94.363281 C 81.984375 94.636719 82.214844 94.933594 82.414062 95.25 C 82.613281 95.566406 82.78125 95.898438 82.914062 96.25 C 83.050781 96.601562 83.148438 96.960938 83.214844 97.332031 C 83.277344 97.699219 83.304688 98.074219 83.296875 98.449219 C 83.289062 98.824219 83.242188 99.191406 83.160156 99.558594 C 83.078125 99.925781 82.960938 100.28125 82.808594 100.625 C 78.460938 111.246094 75.765625 122.277344 74.726562 133.707031 C 72.769531 157.105469 79.628906 174.996094 95.113281 186.925781 C 133.34375 216.347656 166.03125 201.148438 166.359375 200.984375 C 166.699219 200.8125 167.054688 200.675781 167.421875 200.574219 C 167.789062 200.472656 168.164062 200.40625 168.542969 200.378906 C 168.925781 200.351562 169.304688 200.363281 169.683594 200.410156 C 170.0625 200.457031 170.429688 200.542969 170.792969 200.667969 C 171.152344 200.789062 171.5 200.945312 171.832031 201.136719 C 172.160156 201.328125 172.46875 201.550781 172.753906 201.800781 C 173.039062 202.054688 173.296875 202.332031 173.527344 202.636719 C 173.757812 202.941406 173.957031 203.265625 174.125 203.609375 C 174.289062 203.953125 174.417969 204.308594 174.511719 204.679688 C 174.609375 205.050781 174.664062 205.425781 174.683594 205.804688 C 174.703125 206.1875 174.683594 206.566406 174.628906 206.945312 C 174.574219 207.320312 174.480469 207.691406 174.351562 208.046875 C 174.21875 208.40625 174.054688 208.75 173.859375 209.074219 C 173.660156 209.402344 173.433594 209.707031 173.171875 209.984375 C 172.914062 210.265625 172.628906 210.519531 172.320312 210.742188 C 172.011719 210.964844 171.683594 211.15625 171.335938 211.316406 C 170.519531 211.738281 160.035156 216.621094 144.0625 216.621094 Z M 144.0625 216.621094 " fill-opacity="1" fill-rule="nonzero"/><g clip-path="url(#feb2295486)"><path fill="#fbd333" d="M 200.351562 134.765625 C 198.339844 137.886719 190.15625 141.085938 188.886719 141.566406 C 188.804688 141.597656 188.722656 141.632812 188.644531 141.671875 C 188.40625 141.78125 187.632812 141.996094 186.492188 140.78125 C 185.492188 139.71875 183.769531 137.019531 182.894531 135.609375 C 182.609375 135.152344 182.8125 134.546875 183.320312 134.351562 L 198.589844 128.542969 C 198.914062 128.421875 199.28125 128.511719 199.511719 128.769531 C 200.347656 129.714844 202.046875 132.132812 200.351562 134.765625 Z M 196.339844 157.691406 C 195.28125 157.992188 193.765625 158.203125 191.652344 158.074219 C 190.902344 158.03125 190.183594 157.746094 189.605469 157.265625 L 184.820312 153.292969 C 184.105469 152.699219 184.230469 151.5625 185.0625 151.144531 C 186.863281 150.238281 190.023438 149.066406 193.9375 149.375 C 195.597656 149.503906 197.039062 150.5625 197.648438 152.113281 C 197.910156 152.777344 198.152344 153.578125 198.320312 154.519531 C 198.566406 155.925781 197.714844 157.300781 196.339844 157.691406 Z M 182.058594 158.355469 L 120.347656 158.355469 C 119.730469 158.355469 119.410156 157.96875 119.828125 157.730469 L 122.609375 156.144531 C 125.765625 154.519531 129.421875 154.375 130.871094 154.390625 C 132.488281 154.40625 134.109375 154.410156 135.730469 154.410156 L 166.671875 154.410156 C 168.292969 154.410156 169.914062 154.40625 171.535156 154.390625 C 172.980469 154.375 176.640625 154.519531 179.792969 156.144531 L 182.574219 157.730469 C 182.992188 157.96875 182.671875 158.355469 182.058594 158.355469 Z M 119.511719 135.609375 C 118.632812 137.019531 116.910156 139.71875 115.910156 140.78125 C 114.769531 141.996094 113.996094 141.78125 113.757812 141.671875 C 113.679688 141.632812 113.597656 141.597656 113.519531 141.566406 C 112.246094 141.085938 104.066406 137.886719 102.054688 134.765625 C 100.355469 132.132812 102.054688 129.714844 102.894531 128.769531 C 103.121094 128.511719 103.488281 128.421875 103.8125 128.542969 L 119.085938 134.351562 C 119.589844 134.546875 119.796875 135.152344 119.511719 135.609375 Z M 117.582031 153.292969 L 112.796875 157.265625 C 112.21875 157.746094 111.503906 158.03125 110.75 158.074219 C 108.636719 158.203125 107.125 157.992188 106.066406 157.691406 C 104.6875 157.300781 103.835938 155.925781 104.085938 154.519531 C 104.25 153.578125 104.492188 152.777344 104.753906 152.113281 C 105.363281 150.5625 106.808594 149.503906 108.46875 149.375 C 112.378906 149.066406 115.539062 150.238281 117.34375 151.144531 C 118.171875 151.5625 118.296875 152.699219 117.582031 153.292969 Z M 179.210938 144.511719 C 177.992188 145.597656 176.007812 146.761719 172.871094 147.289062 C 172.871094 147.289062 164.820312 148.71875 151.203125 148.71875 C 137.585938 148.71875 129.53125 147.289062 129.53125 147.289062 C 126.398438 146.761719 124.414062 145.597656 123.195312 144.511719 C 122 143.453125 121.742188 141.6875 122.578125 140.328125 L 123.242188 139.25 C 124.488281 137.222656 126.546875 135.835938 128.894531 135.457031 C 133.925781 134.640625 141.867188 134.582031 146.792969 134.636719 C 149.699219 134.671875 152.605469 134.675781 155.511719 134.640625 C 160.429688 134.582031 168.441406 134.636719 173.507812 135.457031 C 175.855469 135.835938 177.914062 137.222656 179.160156 139.25 L 179.824219 140.328125 C 180.660156 141.6875 180.402344 143.453125 179.210938 144.511719 Z M 114.597656 111.773438 C 115.125 110.128906 116.84375 105.890625 122.183594 98.410156 C 123.285156 96.867188 125.023438 95.898438 126.914062 95.773438 C 131.808594 95.445312 141.976562 94.851562 151.203125 94.851562 C 160.429688 94.851562 170.597656 95.445312 175.488281 95.773438 C 177.382812 95.898438 179.117188 96.867188 180.21875 98.410156 C 185.558594 105.890625 187.28125 110.128906 187.804688 111.773438 C 187.929688 112.164062 187.632812 112.5625 187.21875 112.558594 L 151.203125 112.003906 L 115.183594 112.558594 C 114.769531 112.5625 114.472656 112.164062 114.597656 111.773438 Z M 205.933594 159.472656 L 205.488281 133.492188 C 205.207031 125.859375 194.617188 116.089844 194.617188 116.089844 C 195.695312 115.503906 196.894531 115.167969 198.117188 115.113281 C 199.851562 115.035156 202.3125 114.433594 201.71875 111.53125 C 201.066406 108.335938 196.171875 107.570312 193.574219 107.390625 C 192.757812 107.335938 192.117188 108.074219 192.28125 108.875 L 193.1875 113.289062 C 193.1875 113.289062 193.1875 113.292969 193.191406 113.296875 C 193.253906 113.625 192.804688 113.792969 192.628906 113.503906 L 191.824219 112.144531 C 185.421875 101.171875 182.632812 97.28125 180.285156 95.269531 C 179.222656 94.355469 177.945312 93.722656 176.578125 93.417969 C 166.4375 91.164062 151.203125 91.363281 151.203125 91.363281 C 151.203125 91.363281 135.964844 91.164062 125.824219 93.417969 C 124.457031 93.722656 123.179688 94.355469 122.117188 95.269531 C 119.769531 97.28125 116.980469 101.171875 110.582031 112.144531 L 109.773438 113.503906 C 109.597656 113.792969 109.148438 113.625 109.214844 113.296875 C 109.214844 113.292969 109.214844 113.289062 109.214844 113.289062 L 110.121094 108.875 C 110.289062 108.074219 109.644531 107.335938 108.828125 107.390625 C 106.230469 107.570312 101.335938 108.335938 100.683594 111.53125 C 100.09375 114.433594 102.554688 115.035156 104.285156 115.113281 C 105.511719 115.167969 106.707031 115.503906 107.785156 116.089844 C 107.785156 116.089844 97.199219 125.859375 96.914062 133.492188 L 96.46875 159.472656 C 96.453125 160.546875 96.878906 161.582031 97.636719 162.320312 L 97.636719 165.347656 C 97.636719 168.964844 100.59375 171.921875 104.210938 171.921875 L 116.269531 171.921875 C 118.722656 171.921875 120.726562 169.917969 120.726562 167.464844 L 120.726562 165.585938 L 181.675781 165.585938 L 181.675781 167.464844 C 181.675781 169.917969 183.679688 171.921875 186.132812 171.921875 L 198.191406 171.921875 C 201.808594 171.921875 204.765625 168.964844 204.765625 165.347656 L 204.765625 162.320312 C 205.527344 161.582031 205.953125 160.546875 205.933594 159.472656 " fill-opacity="1" fill-rule="nonzero"/></g></svg>