<svg xmlns="http://www.w3.org/2000/svg" xmlns:xlink="http://www.w3.org/1999/xlink" width="512" zoomAndPan="magnify" viewBox="0 0 384 383.999986" height="512" preserveAspectRatio="xMidYMid meet" version="1.0"><defs><clipPath id="b02f318e8d"><path d="M 81.671875 168.609375 L 290.164062 168.609375 L 290.164062 322.050781 L 81.671875 322.050781 Z M 81.671875 168.609375 " clip-rule="nonzero"/></clipPath><clipPath id="a7a357574e"><path d="M 67.898438 54.613281 L 136.382812 54.613281 L 136.382812 123.097656 L 67.898438 123.097656 Z M 67.898438 54.613281 " clip-rule="nonzero"/></clipPath><clipPath id="b56e66e904"><path d="M 102.140625 54.613281 C 83.230469 54.613281 67.898438 69.945312 67.898438 88.855469 C 67.898438 107.769531 83.230469 123.097656 102.140625 123.097656 C 121.050781 123.097656 136.382812 107.769531 136.382812 88.855469 C 136.382812 69.945312 121.050781 54.613281 102.140625 54.613281 Z M 102.140625 54.613281 " clip-rule="nonzero"/></clipPath><clipPath id="7e73989ef3"><path d="M 0.898438 0.613281 L 69.382812 0.613281 L 69.382812 69.097656 L 0.898438 69.097656 Z M 0.898438 0.613281 " clip-rule="nonzero"/></clipPath><clipPath id="8668850655"><path d="M 35.140625 0.613281 C 16.230469 0.613281 0.898438 15.945312 0.898438 34.855469 C 0.898438 53.769531 16.230469 69.097656 35.140625 69.097656 C 54.050781 69.097656 69.382812 53.769531 69.382812 34.855469 C 69.382812 15.945312 54.050781 0.613281 35.140625 0.613281 Z M 35.140625 0.613281 " clip-rule="nonzero"/></clipPath><clipPath id="7b34aca200"><rect x="0" width="70" y="0" height="70"/></clipPath><clipPath id="9879a848e9"><path d="M 125.867188 69.226562 L 217.652344 69.226562 L 217.652344 106.394531 L 125.867188 106.394531 Z M 125.867188 69.226562 " clip-rule="nonzero"/></clipPath><clipPath id="d2b8a95433"><path d="M 0.867188 0.226562 L 92.652344 0.226562 L 92.652344 37.394531 L 0.867188 37.394531 Z M 0.867188 0.226562 " clip-rule="nonzero"/></clipPath><clipPath id="56366e28ba"><rect x="0" width="93" y="0" height="38"/></clipPath><clipPath id="f08ffcc857"><path d="M 204.652344 36.617188 L 307.039062 36.617188 L 307.039062 139.003906 L 204.652344 139.003906 Z M 204.652344 36.617188 " clip-rule="nonzero"/></clipPath><clipPath id="2396461383"><path d="M 255.84375 36.617188 C 227.570312 36.617188 204.652344 59.535156 204.652344 87.808594 C 204.652344 116.082031 227.570312 139.003906 255.84375 139.003906 C 284.117188 139.003906 307.039062 116.082031 307.039062 87.808594 C 307.039062 59.535156 284.117188 36.617188 255.84375 36.617188 Z M 255.84375 36.617188 " clip-rule="nonzero"/></clipPath><clipPath id="a7cc9985f6"><path d="M 0.652344 0.617188 L 103.039062 0.617188 L 103.039062 103.003906 L 0.652344 103.003906 Z M 0.652344 0.617188 " clip-rule="nonzero"/></clipPath><clipPath id="a39bb8d3f5"><path d="M 51.84375 0.617188 C 23.570312 0.617188 0.652344 23.535156 0.652344 51.808594 C 0.652344 80.082031 23.570312 103.003906 51.84375 103.003906 C 80.117188 103.003906 103.039062 80.082031 103.039062 51.808594 C 103.039062 23.535156 80.117188 0.617188 51.84375 0.617188 Z M 51.84375 0.617188 " clip-rule="nonzero"/></clipPath><clipPath id="69e38e10c3"><rect x="0" width="104" y="0" height="104"/></clipPath><clipPath id="d1d6e6776d"><path d="M 233 46.777344 L 276 46.777344 L 276 127 L 233 127 Z M 233 46.777344 " clip-rule="nonzero"/></clipPath><clipPath id="410bbe4883"><path d="M 91.019531 76.6875 L 113.261719 76.6875 L 113.261719 98.929688 L 91.019531 98.929688 Z M 91.019531 76.6875 " clip-rule="nonzero"/></clipPath><clipPath id="8ff8972bc6"><path d="M 102.140625 76.6875 C 96 76.6875 91.019531 81.667969 91.019531 87.808594 C 91.019531 93.953125 96 98.929688 102.140625 98.929688 C 108.28125 98.929688 113.261719 93.953125 113.261719 87.808594 C 113.261719 81.667969 108.28125 76.6875 102.140625 76.6875 Z M 102.140625 76.6875 " clip-rule="nonzero"/></clipPath><clipPath id="a886cf4726"><path d="M 0.0195312 0.6875 L 22.261719 0.6875 L 22.261719 22.929688 L 0.0195312 22.929688 Z M 0.0195312 0.6875 " clip-rule="nonzero"/></clipPath><clipPath id="55fb19ef3d"><path d="M 11.140625 0.6875 C 5 0.6875 0.0195312 5.667969 0.0195312 11.808594 C 0.0195312 17.953125 5 22.929688 11.140625 22.929688 C 17.28125 22.929688 22.261719 17.953125 22.261719 11.808594 C 22.261719 5.667969 17.28125 0.6875 11.140625 0.6875 Z M 11.140625 0.6875 " clip-rule="nonzero"/></clipPath><clipPath id="27962410c9"><rect x="0" width="23" y="0" height="23"/></clipPath></defs><g clip-path="url(#b02f318e8d)"><path fill="#fbd333" d="M 279.527344 251.285156 C 275.695312 257.230469 260.109375 263.320312 257.691406 264.238281 C 257.535156 264.296875 257.382812 264.363281 257.230469 264.4375 C 256.78125 264.648438 255.300781 265.054688 253.132812 262.742188 C 251.226562 260.71875 247.945312 255.578125 246.277344 252.894531 C 245.734375 252.019531 246.125 250.863281 247.085938 250.496094 L 276.175781 239.433594 C 276.792969 239.199219 277.488281 239.371094 277.925781 239.863281 C 279.523438 241.660156 282.761719 246.269531 279.527344 251.285156 Z M 271.882812 294.949219 C 269.871094 295.523438 266.988281 295.921875 262.960938 295.679688 C 261.53125 295.59375 260.164062 295.054688 259.0625 294.136719 L 249.945312 286.570312 C 248.585938 285.4375 248.828125 283.277344 250.40625 282.480469 C 253.839844 280.753906 259.859375 278.523438 267.308594 279.105469 C 270.472656 279.351562 273.222656 281.367188 274.382812 284.324219 C 274.878906 285.585938 275.339844 287.113281 275.660156 288.902344 C 276.132812 291.589844 274.507812 294.203125 271.882812 294.949219 Z M 244.683594 296.210938 L 127.148438 296.210938 C 125.980469 296.210938 125.367188 295.476562 126.160156 295.023438 L 131.460938 292 C 137.464844 288.902344 144.433594 288.628906 147.191406 288.660156 C 150.277344 288.691406 153.363281 288.699219 156.449219 288.699219 L 215.386719 288.699219 C 218.46875 288.699219 221.554688 288.691406 224.640625 288.660156 C 227.398438 288.628906 234.367188 288.902344 240.375 292 L 245.671875 295.023438 C 246.464844 295.476562 245.855469 296.210938 244.683594 296.210938 Z M 125.554688 252.894531 C 123.886719 255.578125 120.605469 260.71875 118.699219 262.742188 C 116.53125 265.054688 115.054688 264.648438 114.601562 264.4375 C 114.453125 264.363281 114.296875 264.296875 114.144531 264.238281 C 111.722656 263.320312 96.140625 257.230469 92.308594 251.285156 C 89.074219 246.269531 92.308594 241.660156 93.90625 239.863281 C 94.34375 239.371094 95.039062 239.199219 95.660156 239.433594 L 124.746094 250.496094 C 125.710938 250.863281 126.097656 252.019531 125.554688 252.894531 Z M 121.886719 286.570312 L 112.773438 294.136719 C 111.671875 295.054688 110.304688 295.59375 108.875 295.679688 C 104.84375 295.921875 101.964844 295.523438 99.949219 294.949219 C 97.328125 294.203125 95.703125 291.589844 96.175781 288.902344 C 96.492188 287.113281 96.957031 285.585938 97.453125 284.324219 C 98.613281 281.367188 101.359375 279.351562 104.523438 279.105469 C 111.976562 278.523438 117.992188 280.753906 121.425781 282.480469 C 123.007812 283.277344 123.246094 285.4375 121.886719 286.570312 Z M 239.261719 269.847656 C 236.9375 271.910156 233.160156 274.132812 227.191406 275.136719 C 227.191406 275.136719 211.851562 277.859375 185.914062 277.859375 C 159.980469 277.859375 144.640625 275.136719 144.640625 275.136719 C 138.671875 274.132812 134.894531 271.910156 132.574219 269.847656 C 130.300781 267.828125 129.808594 264.464844 131.398438 261.875 L 132.667969 259.820312 C 135.039062 255.964844 138.960938 253.320312 143.429688 252.597656 C 153.011719 251.046875 168.136719 250.933594 177.519531 251.039062 C 183.054688 251.101562 188.589844 251.109375 194.125 251.042969 C 203.488281 250.929688 218.753906 251.035156 228.40625 252.597656 C 232.871094 253.320312 236.796875 255.964844 239.167969 259.820312 L 240.433594 261.875 C 242.027344 264.464844 241.535156 267.828125 239.261719 269.847656 Z M 116.203125 207.488281 C 117.199219 204.359375 120.476562 196.285156 130.652344 182.042969 C 132.75 179.101562 136.054688 177.257812 139.660156 177.019531 C 148.976562 176.394531 168.34375 175.261719 185.914062 175.261719 C 203.488281 175.261719 222.855469 176.394531 232.175781 177.019531 C 235.777344 177.257812 239.082031 179.101562 241.183594 182.042969 C 251.355469 196.285156 254.632812 204.359375 255.632812 207.488281 C 255.871094 208.234375 255.304688 208.996094 254.519531 208.984375 L 185.914062 207.933594 L 117.316406 208.984375 C 116.527344 208.996094 115.960938 208.234375 116.203125 207.488281 Z M 290.160156 298.335938 L 289.3125 248.859375 C 288.773438 234.320312 268.609375 215.710938 268.609375 215.710938 C 270.664062 214.597656 272.941406 213.953125 275.273438 213.847656 C 278.574219 213.707031 283.261719 212.558594 282.132812 207.035156 C 280.890625 200.945312 271.570312 199.488281 266.621094 199.144531 C 265.066406 199.039062 263.84375 200.449219 264.15625 201.972656 L 265.886719 210.375 C 265.886719 210.378906 265.886719 210.382812 265.890625 210.390625 C 266.011719 211.019531 265.152344 211.339844 264.824219 210.789062 L 263.285156 208.199219 C 251.09375 187.296875 245.78125 179.886719 241.308594 176.054688 C 239.285156 174.316406 236.855469 173.109375 234.25 172.53125 C 214.9375 168.242188 185.914062 168.621094 185.914062 168.621094 C 185.914062 168.621094 156.894531 168.242188 137.582031 172.53125 C 134.976562 173.109375 132.546875 174.316406 130.523438 176.054688 C 126.054688 179.886719 120.738281 187.296875 108.550781 208.199219 L 107.011719 210.789062 C 106.679688 211.339844 105.820312 211.019531 105.945312 210.390625 C 105.945312 210.382812 105.945312 210.378906 105.949219 210.375 L 107.675781 201.972656 C 107.992188 200.449219 106.765625 199.039062 105.214844 199.144531 C 100.265625 199.488281 90.945312 200.945312 89.703125 207.035156 C 88.574219 212.558594 93.257812 213.707031 96.5625 213.847656 C 98.894531 213.953125 101.171875 214.597656 103.222656 215.710938 C 103.222656 215.710938 83.058594 234.320312 82.519531 248.859375 L 81.671875 298.335938 C 81.636719 300.390625 82.449219 302.355469 83.898438 303.765625 L 83.898438 309.53125 C 83.898438 316.417969 89.53125 322.054688 96.417969 322.054688 L 119.386719 322.054688 C 124.054688 322.054688 127.875 318.234375 127.875 313.5625 L 127.875 309.980469 L 243.957031 309.980469 L 243.957031 313.5625 C 243.957031 318.234375 247.777344 322.054688 252.445312 322.054688 L 275.417969 322.054688 C 282.304688 322.054688 287.9375 316.417969 287.9375 309.53125 L 287.9375 303.765625 C 289.382812 302.355469 290.195312 300.390625 290.160156 298.335938 " fill-opacity="1" fill-rule="nonzero"/></g><path fill="#f6ce1e" d="M 290.089844 216.972656 C 308.652344 217.574219 327.351562 216.765625 331.980469 221.28125 C 335.183594 224.402344 334.707031 233.058594 334.722656 242.410156 C 334.816406 304.078125 338.085938 324.648438 333.113281 328.613281 C 331.671875 329.761719 327.261719 331.074219 325.113281 331.414062 C 309.675781 333.875 257.265625 336.503906 251.480469 327.566406 C 246.398438 319.722656 250.238281 249.875 249.960938 231.136719 C 249.886719 225.929688 249.886719 222.007812 252.585938 219.996094 C 258.539062 215.554688 273.214844 216.425781 290.089844 216.972656 Z M 290.089844 216.972656 " fill-opacity="1" fill-rule="evenodd"/><path fill="#f6ce1e" d="M 290.101562 216.625 C 303.109375 217.046875 316.1875 216.777344 324.453125 218.128906 C 328.082031 218.722656 330.800781 219.640625 332.222656 221.03125 C 333.546875 222.320312 334.285156 224.523438 334.671875 227.324219 C 335.226562 231.402344 335.0625 236.78125 335.070312 242.410156 C 335.136719 285.589844 336.757812 308.625 336.019531 319.921875 C 335.824219 322.871094 335.46875 325.03125 334.890625 326.550781 C 334.488281 327.617188 333.96875 328.375 333.332031 328.886719 C 331.859375 330.058594 327.359375 331.410156 325.167969 331.757812 C 314.34375 333.484375 285.375 335.292969 266.976562 333.152344 C 262.21875 332.597656 258.164062 331.777344 255.300781 330.628906 C 253.328125 329.835938 251.910156 328.875 251.1875 327.757812 C 250.558594 326.792969 250.054688 324.910156 249.667969 322.3125 C 249.101562 318.503906 248.777344 313.125 248.613281 306.832031 C 247.984375 282.421875 249.808594 244.261719 249.613281 231.140625 C 249.574219 228.511719 249.558594 226.210938 249.890625 224.308594 C 250.234375 222.328125 250.957031 220.773438 252.378906 219.714844 C 254.796875 217.910156 258.632812 216.953125 263.464844 216.507812 C 270.609375 215.851562 279.957031 216.296875 290.101562 216.625 Z M 290.078125 217.320312 C 279.96875 216.996094 270.652344 216.546875 263.53125 217.203125 C 258.855469 217.632812 255.136719 218.527344 252.792969 220.273438 C 251.515625 221.230469 250.886719 222.644531 250.574219 224.429688 C 250.25 226.292969 250.273438 228.554688 250.3125 231.132812 C 250.503906 244.246094 248.679688 282.40625 249.3125 306.8125 C 249.472656 313.070312 249.796875 318.421875 250.355469 322.210938 C 250.722656 324.675781 251.179688 326.460938 251.769531 327.378906 C 252.4375 328.40625 253.75 329.257812 255.5625 329.984375 C 258.378906 331.113281 262.371094 331.914062 267.058594 332.460938 C 285.394531 334.59375 314.269531 332.789062 325.058594 331.070312 C 327.160156 330.738281 331.484375 329.464844 332.894531 328.339844 C 333.597656 327.78125 334.109375 326.867188 334.496094 325.527344 C 334.90625 324.121094 335.167969 322.265625 335.324219 319.878906 C 336.0625 308.585938 334.4375 285.5625 334.375 242.410156 C 334.367188 236.816406 334.535156 231.472656 333.980469 227.417969 C 333.621094 224.804688 332.972656 222.734375 331.738281 221.53125 C 330.382812 220.210938 327.789062 219.378906 324.34375 218.816406 C 316.097656 217.46875 303.054688 217.742188 290.078125 217.320312 Z M 290.078125 217.320312 " fill-opacity="1" fill-rule="evenodd"/><path fill="#ffffff" d="M 259.574219 236.03125 C 260.316406 234.109375 263.035156 234.515625 266.242188 234.5 C 269.902344 234.484375 317.359375 234.070312 323.679688 235.847656 C 326.050781 236.511719 325.925781 248.519531 323.777344 249.085938 C 313.570312 251.773438 263.734375 249.234375 260.707031 248.785156 C 258.183594 248.410156 258.652344 238.410156 259.574219 236.03125 Z M 259.574219 236.03125 " fill-opacity="1" fill-rule="evenodd"/><path fill="#f6ce1e" d="M 259.25 235.90625 C 259.589844 235.023438 260.28125 234.558594 261.238281 234.328125 C 262.507812 234.023438 264.285156 234.164062 266.242188 234.152344 C 269.90625 234.136719 317.441406 233.734375 323.773438 235.511719 C 324.207031 235.632812 324.597656 236.039062 324.898438 236.6875 C 325.484375 237.964844 325.773438 240.238281 325.773438 242.503906 C 325.769531 244.769531 325.476562 247.027344 324.925781 248.277344 C 324.640625 248.925781 324.265625 249.320312 323.863281 249.421875 C 313.636719 252.113281 263.691406 249.582031 260.65625 249.128906 C 260.265625 249.070312 259.925781 248.847656 259.644531 248.472656 C 259.289062 248.003906 259.019531 247.273438 258.832031 246.386719 C 258.152344 243.105469 258.589844 237.605469 259.25 235.90625 Z M 259.898438 236.15625 C 259.265625 237.792969 258.859375 243.085938 259.515625 246.242188 C 259.652344 246.890625 259.828125 247.445312 260.066406 247.847656 C 260.253906 248.171875 260.472656 248.398438 260.757812 248.4375 C 263.78125 248.890625 313.503906 251.429688 323.6875 248.75 C 323.832031 248.710938 323.953125 248.582031 324.070312 248.402344 C 324.230469 248.164062 324.367188 247.839844 324.488281 247.453125 C 324.875 246.210938 325.074219 244.359375 325.078125 242.503906 C 325.078125 240.648438 324.886719 238.792969 324.476562 237.53125 C 324.347656 237.140625 324.203125 236.808594 324.03125 236.5625 C 323.898438 236.367188 323.753906 236.230469 323.585938 236.183594 C 317.277344 234.410156 269.898438 234.832031 266.242188 234.851562 C 264.65625 234.859375 263.1875 234.757812 262.027344 234.898438 C 261 235.019531 260.222656 235.316406 259.898438 236.15625 Z M 259.898438 236.15625 " fill-opacity="1" fill-rule="evenodd"/><path fill="#ffffff" d="M 304.34375 222.699219 C 310.722656 222.933594 322.84375 222.550781 323.792969 224.511719 C 324.265625 225.480469 324.644531 228.667969 322.691406 228.875 C 321.28125 229.027344 311.445312 228.382812 305.074219 228.1875 C 302.929688 228.117188 303 223.714844 304.34375 222.699219 Z M 304.34375 222.699219 " fill-opacity="1" fill-rule="evenodd"/><path fill="#f6ce1e" d="M 304.355469 222.347656 C 308.832031 222.515625 316.125 222.378906 320.425781 222.953125 C 321.566406 223.105469 322.503906 223.3125 323.132812 223.578125 C 323.640625 223.792969 323.964844 224.066406 324.105469 224.359375 C 324.410156 224.988281 324.683594 226.476562 324.394531 227.613281 C 324.183594 228.464844 323.671875 229.121094 322.730469 229.222656 C 321.3125 229.375 311.453125 228.734375 305.0625 228.535156 C 304.046875 228.503906 303.410156 227.6875 303.164062 226.59375 C 302.960938 225.710938 303.015625 224.652344 303.277344 223.804688 C 303.460938 223.199219 303.761719 222.699219 304.132812 222.421875 C 304.195312 222.371094 304.273438 222.347656 304.355469 222.347656 Z M 304.464844 223.050781 C 304.234375 223.269531 304.0625 223.613281 303.941406 224.011719 C 303.714844 224.75 303.667969 225.671875 303.84375 226.441406 C 304.011719 227.191406 304.382812 227.816406 305.082031 227.835938 C 311.441406 228.035156 321.246094 228.679688 322.65625 228.527344 C 323.273438 228.460938 323.582031 228 323.722656 227.441406 C 323.96875 226.46875 323.738281 225.199219 323.480469 224.660156 C 323.394531 224.484375 323.167969 224.351562 322.863281 224.222656 C 322.273438 223.972656 321.398438 223.785156 320.332031 223.644531 C 316.09375 223.078125 308.933594 223.207031 304.464844 223.050781 Z M 304.464844 223.050781 " fill-opacity="1" fill-rule="evenodd"/><path fill="#ffffff" d="M 258.019531 255.847656 C 259.039062 254.171875 266.789062 255.238281 268.804688 255.601562 C 270.082031 255.828125 270.386719 256.417969 270.277344 261.675781 C 270.167969 266.859375 267.808594 265.464844 262.671875 265.648438 C 260.960938 265.710938 258.90625 265.714844 258.191406 264.773438 C 256.792969 262.933594 257.261719 257.085938 258.019531 255.847656 Z M 278.230469 256.203125 C 279.253906 254.527344 287.003906 255.59375 289.019531 255.953125 C 290.292969 256.183594 290.597656 256.773438 290.488281 262.03125 C 290.382812 267.210938 288.023438 265.820312 282.886719 266.003906 C 281.171875 266.066406 279.117188 266.070312 278.402344 265.128906 C 277.003906 263.289062 277.476562 257.4375 278.230469 256.203125 Z M 278.285156 270.101562 C 279.308594 268.425781 287.058594 269.492188 289.074219 269.855469 C 290.347656 270.082031 290.65625 270.671875 290.546875 275.929688 C 290.4375 281.109375 288.078125 279.71875 282.941406 279.902344 C 281.226562 279.964844 279.171875 279.96875 278.457031 279.027344 C 277.058594 277.1875 277.53125 271.335938 278.285156 270.101562 Z M 298.441406 256.554688 C 299.464844 254.878906 307.214844 255.945312 309.230469 256.308594 C 310.503906 256.535156 310.8125 257.125 310.703125 262.386719 C 310.59375 267.566406 308.234375 266.171875 303.097656 266.359375 C 301.382812 266.417969 299.328125 266.425781 298.613281 265.484375 C 297.214844 263.644531 297.6875 257.792969 298.441406 256.554688 Z M 298.5 270.453125 C 299.519531 268.78125 307.269531 269.84375 309.285156 270.207031 C 310.5625 270.4375 310.867188 271.027344 310.757812 276.285156 C 310.648438 281.464844 308.289062 280.070312 303.15625 280.257812 C 301.441406 280.320312 299.386719 280.324219 298.671875 279.382812 C 297.273438 277.542969 297.742188 271.691406 298.5 270.453125 Z M 316.066406 256.132812 C 317.085938 254.457031 324.835938 255.523438 326.851562 255.886719 C 328.125 256.113281 328.433594 256.703125 328.324219 261.964844 C 328.214844 267.144531 325.855469 265.75 320.71875 265.9375 C 319.007812 266 316.953125 266.003906 316.238281 265.0625 C 314.839844 263.222656 315.3125 257.371094 316.066406 256.132812 Z M 315.929688 271.199219 C 316.949219 269.523438 324.699219 270.589844 326.714844 270.949219 C 327.992188 271.179688 328.296875 271.769531 328.1875 277.027344 C 328.078125 282.207031 325.71875 280.816406 320.582031 281 C 318.871094 281.0625 316.816406 281.066406 316.101562 280.125 C 314.699219 278.285156 315.175781 272.433594 315.929688 271.199219 Z M 257.945312 283.902344 C 258.980469 282.238281 266.722656 283.367188 268.734375 283.746094 C 270.007812 283.984375 270.308594 284.578125 270.15625 289.835938 C 270.003906 295.015625 267.65625 293.601562 262.519531 293.746094 C 260.804688 293.792969 258.75 293.78125 258.042969 292.832031 C 256.660156 290.980469 257.179688 285.132812 257.945312 283.902344 Z M 278.15625 284.425781 C 279.191406 282.761719 286.929688 283.890625 288.945312 284.269531 C 290.214844 284.507812 290.519531 285.101562 290.363281 290.359375 C 290.210938 295.539062 287.867188 294.125 282.726562 294.265625 C 281.011719 294.316406 278.957031 294.300781 278.25 293.355469 C 276.867188 291.503906 277.390625 285.65625 278.15625 284.425781 Z M 298.363281 284.949219 C 299.398438 283.285156 307.140625 284.414062 309.152344 284.792969 C 310.425781 285.03125 310.726562 285.625 310.574219 290.882812 C 310.421875 296.058594 308.074219 294.648438 302.9375 294.789062 C 301.222656 294.835938 299.167969 294.824219 298.460938 293.878906 C 297.078125 292.027344 297.597656 286.179688 298.363281 284.949219 Z M 316.25 286.0625 C 317.273438 284.386719 325.023438 285.453125 327.039062 285.8125 C 328.3125 286.042969 328.621094 286.632812 328.511719 291.890625 C 328.402344 297.070312 326.042969 295.679688 320.90625 295.863281 C 319.191406 295.925781 317.136719 295.929688 316.421875 294.988281 C 315.023438 293.148438 315.496094 287.296875 316.25 286.0625 Z M 257.550781 299.027344 C 258.574219 297.351562 266.324219 298.417969 268.339844 298.78125 C 269.613281 299.007812 269.921875 299.597656 269.8125 304.855469 C 269.703125 310.035156 267.34375 308.644531 262.207031 308.828125 C 260.492188 308.890625 258.4375 308.894531 257.722656 307.957031 C 256.324219 306.113281 256.796875 300.265625 257.550781 299.027344 Z M 277.765625 299.378906 C 278.785156 297.707031 286.535156 298.773438 288.550781 299.132812 C 289.824219 299.363281 290.132812 299.953125 290.023438 305.210938 C 289.914062 310.390625 287.554688 309 282.417969 309.183594 C 280.707031 309.246094 278.652344 309.25 277.9375 308.308594 C 276.539062 306.46875 277.011719 300.617188 277.765625 299.378906 Z M 297.976562 299.734375 C 299 298.058594 306.75 299.125 308.765625 299.488281 C 310.039062 299.714844 310.34375 300.304688 310.234375 305.5625 C 310.128906 310.746094 307.769531 309.351562 302.632812 309.539062 C 300.917969 309.597656 298.863281 309.601562 298.148438 308.664062 C 296.75 306.820312 297.222656 300.972656 297.976562 299.734375 Z M 257.25 313.980469 C 258.273438 312.308594 266.023438 313.371094 268.039062 313.734375 C 269.3125 313.964844 269.621094 314.554688 269.511719 319.8125 C 269.402344 324.992188 267.042969 323.597656 261.90625 323.785156 C 260.191406 323.847656 258.136719 323.851562 257.421875 322.910156 C 256.023438 321.070312 256.496094 315.21875 257.25 313.980469 Z M 277.464844 314.335938 C 278.484375 312.660156 286.234375 313.726562 288.25 314.089844 C 289.527344 314.316406 289.832031 314.90625 289.722656 320.164062 C 289.613281 325.34375 287.253906 323.953125 282.117188 324.136719 C 280.40625 324.199219 278.351562 324.203125 277.636719 323.265625 C 276.238281 321.421875 276.710938 315.574219 277.464844 314.335938 Z M 297.675781 314.691406 C 298.699219 313.015625 306.449219 314.082031 308.464844 314.441406 C 309.738281 314.671875 310.042969 315.261719 309.933594 320.519531 C 309.828125 325.699219 307.46875 324.308594 302.332031 324.492188 C 300.617188 324.554688 298.5625 324.558594 297.847656 323.617188 C 296.449219 321.777344 296.921875 315.925781 297.675781 314.691406 Z M 316.144531 300.839844 C 316.515625 298.96875 326.910156 299.355469 327.746094 300.113281 C 329.410156 301.609375 329.367188 318.457031 328.902344 322.480469 C 328.613281 325.007812 316.722656 325.492188 316.578125 322.757812 C 316.03125 312.234375 315.796875 302.597656 316.144531 300.839844 Z M 258.074219 269.746094 C 259.097656 268.070312 266.847656 269.136719 268.863281 269.5 C 270.136719 269.730469 270.445312 270.316406 270.332031 275.578125 C 270.226562 280.757812 267.867188 279.363281 262.730469 279.546875 C 261.015625 279.609375 258.960938 279.617188 258.246094 278.675781 C 256.847656 276.835938 257.320312 270.984375 258.074219 269.746094 Z M 258.074219 269.746094 " fill-opacity="1" fill-rule="evenodd"/><path fill="#f6ce1e" d="M 257.722656 255.664062 C 257.875 255.414062 258.144531 255.199219 258.515625 255.039062 C 258.988281 254.832031 259.636719 254.703125 260.386719 254.640625 C 263.175781 254.398438 267.441406 255 268.867188 255.257812 C 269.253906 255.328125 269.5625 255.433594 269.8125 255.636719 C 270.0625 255.84375 270.261719 256.15625 270.398438 256.664062 C 270.625 257.511719 270.679688 259.003906 270.625 261.683594 C 270.589844 263.34375 270.316406 264.367188 269.835938 264.996094 C 269.355469 265.621094 268.671875 265.898438 267.75 265.996094 C 266.527344 266.121094 264.851562 265.917969 262.6875 266 C 261.628906 266.035156 260.445312 266.050781 259.511719 265.847656 C 258.808594 265.699219 258.242188 265.421875 257.910156 264.984375 C 257.320312 264.207031 257.027344 262.757812 256.960938 261.210938 C 256.863281 258.925781 257.25 256.433594 257.722656 255.664062 Z M 258.316406 256.027344 C 257.878906 256.742188 257.566406 259.058594 257.65625 261.179688 C 257.714844 262.5625 257.941406 263.871094 258.46875 264.566406 C 258.710938 264.882812 259.140625 265.054688 259.65625 265.167969 C 260.542969 265.359375 261.660156 265.339844 262.660156 265.300781 C 264.808594 265.222656 266.46875 265.425781 267.679688 265.300781 C 268.378906 265.230469 268.917969 265.050781 269.28125 264.574219 C 269.703125 264.023438 269.898438 263.121094 269.929688 261.671875 C 269.984375 259.09375 269.941406 257.660156 269.722656 256.84375 C 269.636719 256.519531 269.527344 256.308594 269.367188 256.175781 C 269.203125 256.042969 268.996094 255.988281 268.746094 255.945312 C 267.347656 255.691406 263.175781 255.097656 260.449219 255.335938 C 259.785156 255.390625 259.207031 255.496094 258.792969 255.675781 C 258.574219 255.773438 258.40625 255.878906 258.316406 256.027344 Z M 277.933594 256.019531 C 278.085938 255.765625 278.355469 255.554688 278.726562 255.390625 C 279.199219 255.1875 279.847656 255.058594 280.601562 254.992188 C 283.386719 254.753906 287.652344 255.355469 289.078125 255.609375 C 289.464844 255.679688 289.773438 255.785156 290.023438 255.992188 C 290.273438 256.199219 290.472656 256.507812 290.609375 257.015625 C 290.835938 257.867188 290.894531 259.359375 290.835938 262.039062 C 290.804688 263.699219 290.53125 264.71875 290.046875 265.351562 C 289.566406 265.976562 288.882812 266.253906 287.960938 266.347656 C 286.738281 266.472656 285.066406 266.273438 282.898438 266.351562 C 281.839844 266.390625 280.660156 266.402344 279.722656 266.203125 C 279.023438 266.050781 278.453125 265.773438 278.125 265.339844 C 277.535156 264.5625 277.238281 263.113281 277.171875 261.5625 C 277.074219 259.277344 277.464844 256.789062 277.933594 256.019531 Z M 278.527344 256.382812 C 278.09375 257.097656 277.777344 259.414062 277.867188 261.53125 C 277.925781 262.917969 278.152344 264.222656 278.679688 264.917969 C 278.921875 265.238281 279.355469 265.410156 279.867188 265.519531 C 280.753906 265.710938 281.871094 265.691406 282.871094 265.65625 C 285.019531 265.578125 286.679688 265.78125 287.890625 265.65625 C 288.59375 265.582031 289.128906 265.402344 289.492188 264.925781 C 289.914062 264.375 290.109375 263.472656 290.140625 262.023438 C 290.195312 259.445312 290.152344 258.015625 289.9375 257.195312 C 289.847656 256.871094 289.742188 256.664062 289.578125 256.53125 C 289.417969 256.394531 289.207031 256.34375 288.957031 256.296875 C 287.5625 256.046875 283.386719 255.453125 280.660156 255.6875 C 279.996094 255.746094 279.421875 255.851562 279.007812 256.03125 C 278.789062 256.125 278.617188 256.234375 278.527344 256.382812 Z M 277.988281 269.917969 C 278.144531 269.664062 278.414062 269.453125 278.785156 269.289062 C 279.253906 269.085938 279.902344 268.957031 280.65625 268.894531 C 283.441406 268.652344 287.710938 269.253906 289.136719 269.511719 C 289.519531 269.578125 289.828125 269.6875 290.078125 269.890625 C 290.332031 270.097656 290.53125 270.40625 290.664062 270.917969 C 290.894531 271.765625 290.949219 273.257812 290.894531 275.9375 C 290.859375 277.597656 290.585938 278.617188 290.101562 279.25 C 289.625 279.875 288.941406 280.152344 288.019531 280.246094 C 286.796875 280.371094 285.121094 280.171875 282.953125 280.25 C 281.898438 280.289062 280.714844 280.300781 279.777344 280.101562 C 279.078125 279.949219 278.511719 279.671875 278.179688 279.238281 C 277.589844 278.460938 277.292969 277.011719 277.230469 275.460938 C 277.132812 273.179688 277.519531 270.6875 277.988281 269.917969 Z M 278.585938 270.28125 C 278.148438 270.996094 277.835938 273.3125 277.925781 275.433594 C 277.984375 276.816406 278.207031 278.121094 278.734375 278.816406 C 278.976562 279.136719 279.410156 279.308594 279.925781 279.421875 C 280.8125 279.609375 281.929688 279.589844 282.929688 279.554688 C 285.078125 279.476562 286.738281 279.679688 287.949219 279.554688 C 288.648438 279.480469 289.183594 279.304688 289.550781 278.828125 C 289.972656 278.273438 290.167969 277.371094 290.199219 275.921875 C 290.25 273.347656 290.210938 271.914062 289.992188 271.09375 C 289.90625 270.769531 289.796875 270.5625 289.636719 270.429688 C 289.472656 270.296875 289.265625 270.242188 289.011719 270.195312 C 287.617188 269.945312 283.441406 269.351562 280.71875 269.585938 C 280.050781 269.644531 279.476562 269.75 279.0625 269.929688 C 278.84375 270.023438 278.675781 270.132812 278.585938 270.28125 Z M 298.144531 256.375 C 298.300781 256.121094 298.570312 255.90625 298.941406 255.746094 C 299.410156 255.542969 300.058594 255.414062 300.8125 255.347656 C 303.597656 255.105469 307.867188 255.710938 309.292969 255.964844 C 309.675781 256.035156 309.984375 256.140625 310.234375 256.34375 C 310.484375 256.550781 310.6875 256.863281 310.820312 257.371094 C 311.046875 258.222656 311.105469 259.710938 311.050781 262.390625 C 311.015625 264.050781 310.742188 265.074219 310.257812 265.703125 C 309.78125 266.332031 309.09375 266.605469 308.175781 266.703125 C 306.953125 266.828125 305.277344 266.628906 303.109375 266.707031 C 302.054688 266.746094 300.871094 266.757812 299.933594 266.554688 C 299.234375 266.40625 298.667969 266.128906 298.335938 265.695312 C 297.746094 264.917969 297.449219 263.464844 297.382812 261.917969 C 297.285156 259.632812 297.675781 257.144531 298.144531 256.375 Z M 298.738281 256.738281 C 298.304688 257.449219 297.988281 259.769531 298.078125 261.886719 C 298.140625 263.273438 298.363281 264.578125 298.890625 265.273438 C 299.132812 265.589844 299.566406 265.765625 300.082031 265.875 C 300.964844 266.066406 302.085938 266.046875 303.085938 266.007812 C 305.234375 265.933594 306.894531 266.132812 308.101562 266.007812 C 308.804688 265.9375 309.339844 265.757812 309.707031 265.28125 C 310.125 264.730469 310.324219 263.828125 310.351562 262.378906 C 310.40625 259.800781 310.367188 258.367188 310.148438 257.550781 C 310.0625 257.226562 309.953125 257.015625 309.792969 256.882812 C 309.628906 256.75 309.421875 256.695312 309.167969 256.652344 C 307.773438 256.402344 303.597656 255.804688 300.871094 256.042969 C 300.207031 256.101562 299.632812 256.203125 299.21875 256.382812 C 299 256.480469 298.832031 256.589844 298.738281 256.738281 Z M 298.203125 270.273438 C 298.355469 270.019531 298.625 269.804688 298.996094 269.644531 C 299.46875 269.441406 300.117188 269.3125 300.867188 269.246094 C 303.65625 269.003906 307.921875 269.609375 309.347656 269.863281 C 309.734375 269.933594 310.042969 270.039062 310.292969 270.246094 C 310.542969 270.453125 310.742188 270.761719 310.878906 271.269531 C 311.105469 272.121094 311.164062 273.609375 311.105469 276.292969 C 311.070312 277.949219 310.796875 278.972656 310.316406 279.605469 C 309.835938 280.230469 309.152344 280.507812 308.230469 280.601562 C 307.007812 280.726562 305.335938 280.527344 303.167969 280.605469 C 302.109375 280.644531 300.925781 280.65625 299.992188 280.457031 C 299.289062 280.304688 298.722656 280.027344 298.394531 279.59375 C 297.800781 278.816406 297.507812 277.367188 297.441406 275.816406 C 297.34375 273.53125 297.730469 271.042969 298.203125 270.273438 Z M 298.796875 270.636719 C 298.359375 271.351562 298.046875 273.667969 298.136719 275.785156 C 298.195312 277.171875 298.421875 278.476562 298.949219 279.171875 C 299.191406 279.488281 299.625 279.664062 300.136719 279.773438 C 301.023438 279.964844 302.140625 279.945312 303.140625 279.910156 C 305.289062 279.832031 306.949219 280.03125 308.160156 279.90625 C 308.859375 279.835938 309.398438 279.65625 309.761719 279.179688 C 310.183594 278.628906 310.378906 277.726562 310.410156 276.277344 C 310.464844 273.699219 310.421875 272.265625 310.203125 271.449219 C 310.117188 271.125 310.007812 270.914062 309.847656 270.785156 C 309.683594 270.648438 309.476562 270.59375 309.226562 270.550781 C 307.828125 270.300781 303.65625 269.707031 300.929688 269.941406 C 300.265625 270 299.6875 270.101562 299.273438 270.285156 C 299.058594 270.378906 298.886719 270.488281 298.796875 270.636719 Z M 315.769531 255.953125 C 315.921875 255.699219 316.191406 255.484375 316.5625 255.324219 C 317.03125 255.121094 317.683594 254.992188 318.433594 254.925781 C 321.222656 254.683594 325.488281 255.289062 326.914062 255.542969 C 327.300781 255.613281 327.609375 255.71875 327.855469 255.921875 C 328.109375 256.132812 328.308594 256.441406 328.445312 256.949219 C 328.671875 257.800781 328.730469 259.289062 328.671875 261.96875 C 328.636719 263.628906 328.363281 264.652344 327.882812 265.28125 C 327.402344 265.910156 326.71875 266.183594 325.796875 266.28125 C 324.574219 266.40625 322.898438 266.207031 320.734375 266.285156 C 319.675781 266.324219 318.492188 266.335938 317.558594 266.132812 C 316.855469 265.984375 316.289062 265.707031 315.960938 265.273438 C 315.367188 264.496094 315.074219 263.042969 315.007812 261.496094 C 314.910156 259.210938 315.296875 256.722656 315.769531 255.953125 Z M 316.363281 256.316406 C 315.925781 257.027344 315.613281 259.347656 315.703125 261.464844 C 315.761719 262.851562 315.984375 264.15625 316.515625 264.851562 C 316.757812 265.167969 317.1875 265.34375 317.703125 265.453125 C 318.589844 265.644531 319.707031 265.625 320.707031 265.585938 C 322.855469 265.511719 324.515625 265.710938 325.726562 265.585938 C 326.425781 265.515625 326.964844 265.335938 327.328125 264.859375 C 327.75 264.308594 327.945312 263.40625 327.976562 261.957031 C 328.03125 259.378906 327.988281 257.945312 327.769531 257.128906 C 327.683594 256.804688 327.574219 256.59375 327.414062 256.460938 C 327.25 256.328125 327.042969 256.273438 326.792969 256.230469 C 325.394531 255.980469 321.222656 255.382812 318.496094 255.621094 C 317.832031 255.679688 317.253906 255.78125 316.839844 255.960938 C 316.621094 256.058594 316.453125 256.167969 316.363281 256.316406 Z M 315.628906 271.015625 C 315.785156 270.761719 316.054688 270.550781 316.425781 270.386719 C 316.894531 270.183594 317.546875 270.054688 318.296875 269.992188 C 321.085938 269.75 325.351562 270.351562 326.777344 270.605469 C 327.164062 270.675781 327.472656 270.785156 327.71875 270.988281 C 327.972656 271.195312 328.171875 271.503906 328.308594 272.011719 C 328.535156 272.863281 328.59375 274.355469 328.535156 277.035156 C 328.5 278.695312 328.226562 279.714844 327.746094 280.347656 C 327.265625 280.972656 326.582031 281.25 325.660156 281.34375 C 324.4375 281.46875 322.761719 281.269531 320.597656 281.347656 C 319.539062 281.386719 318.355469 281.398438 317.421875 281.199219 C 316.71875 281.046875 316.152344 280.769531 315.824219 280.335938 C 315.230469 279.558594 314.9375 278.109375 314.871094 276.558594 C 314.773438 274.277344 315.160156 271.785156 315.628906 271.015625 Z M 316.226562 271.378906 C 315.789062 272.09375 315.476562 274.410156 315.566406 276.527344 C 315.625 277.914062 315.847656 279.21875 316.378906 279.914062 C 316.621094 280.234375 317.050781 280.40625 317.566406 280.515625 C 318.453125 280.707031 319.570312 280.6875 320.570312 280.652344 C 322.71875 280.574219 324.378906 280.777344 325.589844 280.652344 C 326.289062 280.578125 326.828125 280.402344 327.191406 279.921875 C 327.613281 279.371094 327.808594 278.46875 327.839844 277.019531 C 327.894531 274.441406 327.851562 273.011719 327.632812 272.191406 C 327.546875 271.867188 327.4375 271.660156 327.277344 271.527344 C 327.113281 271.390625 326.90625 271.339844 326.65625 271.292969 C 325.257812 271.042969 321.085938 270.449219 318.359375 270.683594 C 317.691406 270.742188 317.117188 270.847656 316.703125 271.027344 C 316.488281 271.121094 316.316406 271.230469 316.226562 271.378906 Z M 257.648438 283.71875 C 257.808594 283.46875 258.078125 283.253906 258.449219 283.097656 C 258.921875 282.898438 259.574219 282.773438 260.324219 282.714844 C 263.113281 282.5 267.375 283.136719 268.800781 283.40625 C 269.183594 283.476562 269.492188 283.585938 269.738281 283.792969 C 269.988281 284 270.1875 284.3125 270.316406 284.824219 C 270.539062 285.675781 270.582031 287.164062 270.503906 289.847656 C 270.457031 291.503906 270.171875 292.523438 269.6875 293.152344 C 269.203125 293.773438 268.515625 294.042969 267.59375 294.132812 C 266.371094 294.246094 264.695312 294.03125 262.527344 294.09375 C 261.472656 294.121094 260.289062 294.125 259.355469 293.917969 C 258.65625 293.757812 258.089844 293.476562 257.761719 293.042969 C 257.179688 292.257812 256.894531 290.804688 256.84375 289.253906 C 256.765625 286.972656 257.175781 284.484375 257.648438 283.71875 Z M 258.242188 284.089844 C 257.800781 284.796875 257.464844 287.113281 257.539062 289.230469 C 257.585938 290.617188 257.800781 291.925781 258.320312 292.625 C 258.5625 292.945312 258.992188 293.121094 259.507812 293.238281 C 260.390625 293.433594 261.507812 293.421875 262.507812 293.394531 C 264.65625 293.335938 266.316406 293.550781 267.527344 293.4375 C 268.230469 293.371094 268.765625 293.195312 269.136719 292.722656 C 269.5625 292.175781 269.765625 291.273438 269.808594 289.824219 C 269.882812 287.25 269.855469 285.816406 269.644531 284.996094 C 269.558594 284.671875 269.453125 284.460938 269.292969 284.328125 C 269.128906 284.191406 268.921875 284.136719 268.671875 284.089844 C 267.277344 283.828125 263.109375 283.199219 260.378906 283.410156 C 259.714844 283.464844 259.140625 283.5625 258.722656 283.738281 C 258.503906 283.832031 258.332031 283.941406 258.242188 284.089844 Z M 277.859375 284.242188 C 278.015625 283.992188 278.285156 283.777344 278.660156 283.621094 C 279.132812 283.421875 279.78125 283.296875 280.535156 283.238281 C 283.324219 283.019531 287.582031 283.660156 289.007812 283.925781 C 289.394531 284 289.699219 284.109375 289.949219 284.316406 C 290.199219 284.523438 290.394531 284.835938 290.527344 285.347656 C 290.746094 286.195312 290.792969 287.6875 290.714844 290.371094 C 290.664062 292.027344 290.382812 293.046875 289.894531 293.675781 C 289.410156 294.296875 288.722656 294.566406 287.800781 294.652344 C 286.578125 294.769531 284.90625 294.554688 282.738281 294.617188 C 281.679688 294.644531 280.496094 294.648438 279.5625 294.4375 C 278.863281 294.28125 278.296875 294 277.972656 293.566406 C 277.386719 292.78125 277.105469 291.328125 277.050781 289.777344 C 276.972656 287.496094 277.382812 285.007812 277.859375 284.242188 Z M 278.449219 284.609375 C 278.007812 285.320312 277.675781 287.636719 277.746094 289.753906 C 277.796875 291.140625 278.007812 292.449219 278.53125 293.148438 C 278.769531 293.46875 279.203125 293.644531 279.714844 293.757812 C 280.597656 293.957031 281.71875 293.945312 282.71875 293.917969 C 284.867188 293.859375 286.523438 294.074219 287.734375 293.960938 C 288.4375 293.894531 288.976562 293.71875 289.34375 293.246094 C 289.769531 292.699219 289.972656 291.796875 290.015625 290.347656 C 290.089844 287.773438 290.0625 286.339844 289.851562 285.519531 C 289.765625 285.195312 289.660156 284.984375 289.5 284.851562 C 289.339844 284.714844 289.132812 284.660156 288.878906 284.613281 C 287.484375 284.347656 283.316406 283.71875 280.589844 283.933594 C 279.921875 283.984375 279.347656 284.085938 278.933594 284.261719 C 278.710938 284.355469 278.542969 284.460938 278.449219 284.609375 Z M 298.066406 284.765625 C 298.222656 284.511719 298.496094 284.300781 298.867188 284.144531 C 299.339844 283.941406 299.988281 283.820312 300.742188 283.761719 C 303.53125 283.542969 307.792969 284.183594 309.214844 284.449219 C 309.601562 284.523438 309.910156 284.632812 310.15625 284.839844 C 310.40625 285.046875 310.601562 285.359375 310.734375 285.867188 C 310.953125 286.71875 311 288.210938 310.921875 290.890625 C 310.871094 292.550781 310.589844 293.570312 310.101562 294.199219 C 309.617188 294.820312 308.929688 295.089844 308.007812 295.175781 C 306.785156 295.292969 305.113281 295.078125 302.945312 295.140625 C 301.886719 295.167969 300.703125 295.171875 299.769531 294.960938 C 299.070312 294.804688 298.507812 294.523438 298.179688 294.085938 C 297.597656 293.304688 297.3125 291.851562 297.261719 290.300781 C 297.179688 288.015625 297.589844 285.53125 298.066406 284.765625 Z M 298.660156 285.132812 C 298.21875 285.84375 297.882812 288.160156 297.957031 290.277344 C 298.003906 291.664062 298.21875 292.972656 298.738281 293.671875 C 298.976562 293.992188 299.410156 294.167969 299.921875 294.28125 C 300.808594 294.480469 301.925781 294.46875 302.925781 294.441406 C 305.074219 294.382812 306.730469 294.597656 307.945312 294.484375 C 308.644531 294.417969 309.183594 294.242188 309.550781 293.769531 C 309.976562 293.222656 310.183594 292.320312 310.222656 290.871094 C 310.300781 288.296875 310.269531 286.859375 310.058594 286.042969 C 309.976562 285.714844 309.867188 285.507812 309.707031 285.375 C 309.546875 285.238281 309.339844 285.183594 309.085938 285.136719 C 307.695312 284.871094 303.523438 284.242188 300.796875 284.457031 C 300.132812 284.507812 299.554688 284.609375 299.140625 284.785156 C 298.921875 284.878906 298.75 284.984375 298.660156 285.132812 Z M 315.953125 285.878906 C 316.105469 285.625 316.375 285.410156 316.75 285.25 C 317.21875 285.046875 317.867188 284.917969 318.621094 284.851562 C 321.40625 284.613281 325.671875 285.214844 327.101562 285.46875 C 327.484375 285.539062 327.792969 285.644531 328.042969 285.851562 C 328.292969 286.058594 328.492188 286.367188 328.628906 286.875 C 328.855469 287.726562 328.914062 289.214844 328.859375 291.898438 C 328.824219 293.558594 328.550781 294.578125 328.066406 295.210938 C 327.585938 295.835938 326.902344 296.113281 325.980469 296.207031 C 324.761719 296.332031 323.085938 296.132812 320.917969 296.210938 C 319.859375 296.25 318.675781 296.261719 317.742188 296.0625 C 317.042969 295.910156 316.472656 295.632812 316.144531 295.199219 C 315.554688 294.421875 315.257812 292.972656 315.191406 291.421875 C 315.09375 289.140625 315.484375 286.648438 315.953125 285.878906 Z M 316.546875 286.242188 C 316.113281 286.957031 315.796875 289.273438 315.886719 291.390625 C 315.945312 292.777344 316.171875 294.082031 316.699219 294.777344 C 316.941406 295.097656 317.375 295.269531 317.890625 295.378906 C 318.773438 295.570312 319.894531 295.550781 320.894531 295.515625 C 323.039062 295.4375 324.699219 295.636719 325.910156 295.515625 C 326.613281 295.441406 327.148438 295.261719 327.511719 294.785156 C 327.933594 294.234375 328.128906 293.332031 328.160156 291.882812 C 328.214844 289.304688 328.175781 287.871094 327.957031 287.054688 C 327.871094 286.730469 327.761719 286.523438 327.601562 286.390625 C 327.4375 286.253906 327.230469 286.203125 326.976562 286.15625 C 325.582031 285.90625 321.40625 285.3125 318.679688 285.546875 C 318.015625 285.605469 317.441406 285.710938 317.027344 285.890625 C 316.808594 285.984375 316.636719 286.09375 316.546875 286.242188 Z M 257.253906 298.84375 C 257.410156 298.59375 257.679688 298.378906 258.050781 298.21875 C 258.519531 298.011719 259.167969 297.882812 259.921875 297.820312 C 262.707031 297.578125 266.976562 298.179688 268.402344 298.4375 C 268.785156 298.507812 269.09375 298.613281 269.34375 298.816406 C 269.597656 299.023438 269.796875 299.335938 269.933594 299.84375 C 270.15625 300.691406 270.214844 302.183594 270.160156 304.863281 C 270.125 306.523438 269.851562 307.546875 269.367188 308.175781 C 268.890625 308.800781 268.203125 309.078125 267.285156 309.175781 C 266.0625 309.300781 264.386719 309.097656 262.21875 309.179688 C 261.164062 309.214844 259.980469 309.230469 259.042969 309.027344 C 258.34375 308.878906 257.777344 308.601562 257.445312 308.164062 C 256.855469 307.386719 256.558594 305.9375 256.492188 304.386719 C 256.398438 302.105469 256.785156 299.613281 257.253906 298.84375 Z M 257.851562 299.207031 C 257.414062 299.921875 257.101562 302.238281 257.191406 304.359375 C 257.25 305.742188 257.472656 307.050781 258 307.746094 C 258.242188 308.0625 258.675781 308.234375 259.191406 308.347656 C 260.074219 308.535156 261.195312 308.515625 262.195312 308.480469 C 264.34375 308.402344 266.003906 308.605469 267.210938 308.480469 C 267.914062 308.410156 268.449219 308.230469 268.816406 307.753906 C 269.238281 307.203125 269.433594 306.300781 269.464844 304.847656 C 269.515625 302.273438 269.476562 300.839844 269.257812 300.023438 C 269.171875 299.699219 269.0625 299.488281 268.902344 299.355469 C 268.738281 299.222656 268.53125 299.167969 268.277344 299.121094 C 266.882812 298.871094 262.707031 298.277344 259.980469 298.511719 C 259.316406 298.570312 258.742188 298.675781 258.328125 298.855469 C 258.109375 298.953125 257.941406 299.058594 257.851562 299.207031 Z M 277.46875 299.199219 C 277.621094 298.945312 277.890625 298.734375 278.261719 298.570312 C 278.730469 298.367188 279.382812 298.238281 280.132812 298.171875 C 282.921875 297.933594 287.1875 298.535156 288.613281 298.789062 C 289 298.859375 289.308594 298.964844 289.554688 299.171875 C 289.808594 299.378906 290.007812 299.6875 290.144531 300.195312 C 290.371094 301.046875 290.429688 302.539062 290.371094 305.21875 C 290.335938 306.878906 290.0625 307.898438 289.582031 308.53125 C 289.101562 309.15625 288.417969 309.433594 287.496094 309.527344 C 286.273438 309.652344 284.597656 309.453125 282.433594 309.53125 C 281.375 309.570312 280.191406 309.582031 279.257812 309.382812 C 278.554688 309.230469 277.988281 308.953125 277.660156 308.519531 C 277.066406 307.742188 276.773438 306.292969 276.707031 304.742188 C 276.609375 302.457031 276.996094 299.96875 277.46875 299.199219 Z M 278.0625 299.5625 C 277.625 300.277344 277.3125 302.59375 277.402344 304.710938 C 277.460938 306.097656 277.683594 307.402344 278.214844 308.097656 C 278.457031 308.417969 278.886719 308.589844 279.402344 308.699219 C 280.289062 308.890625 281.40625 308.871094 282.40625 308.835938 C 284.554688 308.757812 286.214844 308.957031 287.425781 308.835938 C 288.125 308.761719 288.664062 308.582031 289.027344 308.105469 C 289.449219 307.554688 289.644531 306.652344 289.675781 305.203125 C 289.730469 302.625 289.6875 301.191406 289.46875 300.375 C 289.382812 300.050781 289.273438 299.84375 289.113281 299.710938 C 288.949219 299.574219 288.742188 299.523438 288.492188 299.476562 C 287.09375 299.226562 282.921875 298.632812 280.195312 298.867188 C 279.53125 298.925781 278.953125 299.03125 278.539062 299.210938 C 278.320312 299.304688 278.152344 299.414062 278.0625 299.5625 Z M 297.679688 299.554688 C 297.832031 299.300781 298.101562 299.085938 298.472656 298.925781 C 298.945312 298.71875 299.59375 298.59375 300.347656 298.527344 C 303.132812 298.285156 307.398438 298.886719 308.824219 299.144531 C 309.210938 299.214844 309.519531 299.320312 309.769531 299.523438 C 310.019531 299.730469 310.21875 300.042969 310.355469 300.550781 C 310.582031 301.398438 310.640625 302.890625 310.582031 305.570312 C 310.550781 307.230469 310.273438 308.253906 309.792969 308.882812 C 309.3125 309.511719 308.628906 309.785156 307.707031 309.882812 C 306.488281 310.007812 304.8125 309.808594 302.644531 309.886719 C 301.585938 309.925781 300.40625 309.9375 299.46875 309.734375 C 298.769531 309.585938 298.199219 309.308594 297.871094 308.875 C 297.28125 308.097656 296.984375 306.644531 296.917969 305.097656 C 296.820312 302.8125 297.207031 300.324219 297.679688 299.554688 Z M 298.273438 299.917969 C 297.835938 300.628906 297.523438 302.945312 297.613281 305.066406 C 297.671875 306.453125 297.898438 307.757812 298.425781 308.453125 C 298.667969 308.769531 299.101562 308.941406 299.613281 309.054688 C 300.5 309.246094 301.621094 309.226562 302.617188 309.1875 C 304.765625 309.113281 306.425781 309.3125 307.636719 309.1875 C 308.339844 309.117188 308.875 308.9375 309.238281 308.460938 C 309.660156 307.910156 309.855469 307.007812 309.886719 305.558594 C 309.941406 302.980469 309.898438 301.546875 309.683594 300.730469 C 309.59375 300.40625 309.488281 300.195312 309.324219 300.0625 C 309.164062 299.929688 308.953125 299.875 308.703125 299.832031 C 307.308594 299.582031 303.132812 298.984375 300.40625 299.222656 C 299.742188 299.28125 299.167969 299.382812 298.753906 299.5625 C 298.535156 299.660156 298.363281 299.769531 298.273438 299.917969 Z M 256.953125 313.800781 C 257.109375 313.546875 257.378906 313.332031 257.75 313.171875 C 258.21875 312.96875 258.867188 312.839844 259.621094 312.773438 C 262.40625 312.53125 266.675781 313.136719 268.101562 313.390625 C 268.484375 313.460938 268.792969 313.566406 269.042969 313.773438 C 269.296875 313.980469 269.496094 314.289062 269.632812 314.796875 C 269.859375 315.648438 269.914062 317.136719 269.859375 319.820312 C 269.824219 321.476562 269.550781 322.5 269.066406 323.128906 C 268.589844 323.757812 267.90625 324.035156 266.984375 324.128906 C 265.761719 324.253906 264.085938 324.054688 261.917969 324.132812 C 260.863281 324.171875 259.679688 324.183594 258.742188 323.984375 C 258.042969 323.832031 257.476562 323.554688 257.144531 323.121094 C 256.554688 322.34375 256.257812 320.894531 256.191406 319.34375 C 256.097656 317.058594 256.484375 314.570312 256.953125 313.800781 Z M 257.550781 314.164062 C 257.113281 314.878906 256.800781 317.195312 256.890625 319.3125 C 256.949219 320.699219 257.171875 322.003906 257.699219 322.699219 C 257.941406 323.019531 258.375 323.191406 258.890625 323.300781 C 259.773438 323.492188 260.894531 323.472656 261.894531 323.4375 C 264.042969 323.359375 265.703125 323.558594 266.914062 323.4375 C 267.613281 323.363281 268.148438 323.183594 268.515625 322.707031 C 268.9375 322.15625 269.132812 321.253906 269.164062 319.804688 C 269.214844 317.226562 269.175781 315.792969 268.957031 314.976562 C 268.871094 314.652344 268.761719 314.441406 268.601562 314.308594 C 268.4375 314.175781 268.230469 314.121094 267.976562 314.078125 C 266.582031 313.828125 262.40625 313.234375 259.679688 313.46875 C 259.015625 313.527344 258.441406 313.632812 258.027344 313.8125 C 257.808594 313.90625 257.640625 314.015625 257.550781 314.164062 Z M 277.167969 314.152344 C 277.320312 313.902344 277.589844 313.6875 277.960938 313.527344 C 278.429688 313.320312 279.082031 313.191406 279.832031 313.128906 C 282.621094 312.886719 286.886719 313.488281 288.3125 313.746094 C 288.699219 313.816406 289.007812 313.921875 289.253906 314.125 C 289.507812 314.332031 289.707031 314.644531 289.84375 315.152344 C 290.070312 316 290.128906 317.492188 290.070312 320.171875 C 290.035156 321.832031 289.761719 322.855469 289.28125 323.484375 C 288.800781 324.109375 288.117188 324.386719 287.195312 324.484375 C 285.972656 324.609375 284.296875 324.40625 282.132812 324.488281 C 281.074219 324.523438 279.890625 324.539062 278.957031 324.335938 C 278.253906 324.1875 277.6875 323.910156 277.359375 323.476562 C 276.765625 322.699219 276.472656 321.246094 276.40625 319.695312 C 276.308594 317.414062 276.695312 314.921875 277.167969 314.152344 Z M 277.761719 314.515625 C 277.324219 315.230469 277.011719 317.546875 277.101562 319.667969 C 277.160156 321.054688 277.382812 322.359375 277.914062 323.054688 C 278.15625 323.371094 278.585938 323.542969 279.101562 323.65625 C 279.988281 323.84375 281.105469 323.828125 282.105469 323.789062 C 284.253906 323.710938 285.914062 323.914062 287.125 323.789062 C 287.824219 323.71875 288.363281 323.539062 288.726562 323.0625 C 289.148438 322.511719 289.34375 321.609375 289.375 320.15625 C 289.429688 317.582031 289.386719 316.148438 289.167969 315.332031 C 289.082031 315.007812 288.972656 314.796875 288.8125 314.664062 C 288.648438 314.53125 288.441406 314.476562 288.191406 314.429688 C 286.792969 314.179688 282.621094 313.585938 279.894531 313.820312 C 279.230469 313.878906 278.65625 313.984375 278.238281 314.164062 C 278.019531 314.261719 277.851562 314.367188 277.761719 314.515625 Z M 297.378906 314.507812 C 297.535156 314.253906 297.800781 314.042969 298.175781 313.878906 C 298.644531 313.675781 299.292969 313.546875 300.046875 313.480469 C 302.832031 313.242188 307.097656 313.84375 308.523438 314.097656 C 308.910156 314.167969 309.21875 314.273438 309.46875 314.480469 C 309.71875 314.6875 309.917969 314.996094 310.054688 315.503906 C 310.28125 316.355469 310.339844 317.847656 310.285156 320.527344 C 310.25 322.1875 309.972656 323.207031 309.492188 323.839844 C 309.015625 324.464844 308.328125 324.742188 307.40625 324.835938 C 306.1875 324.960938 304.511719 324.761719 302.34375 324.839844 C 301.285156 324.878906 300.105469 324.890625 299.167969 324.691406 C 298.46875 324.539062 297.898438 324.261719 297.570312 323.828125 C 296.980469 323.050781 296.683594 321.601562 296.617188 320.050781 C 296.519531 317.765625 296.910156 315.277344 297.378906 314.507812 Z M 297.972656 314.871094 C 297.535156 315.585938 297.222656 317.902344 297.3125 320.019531 C 297.371094 321.40625 297.597656 322.710938 298.125 323.40625 C 298.367188 323.726562 298.800781 323.898438 299.3125 324.007812 C 300.199219 324.199219 301.320312 324.179688 302.320312 324.144531 C 304.464844 324.066406 306.125 324.265625 307.335938 324.144531 C 308.039062 324.070312 308.574219 323.890625 308.9375 323.414062 C 309.359375 322.863281 309.554688 321.960938 309.585938 320.511719 C 309.640625 317.933594 309.597656 316.5 309.382812 315.683594 C 309.292969 315.359375 309.1875 315.152344 309.023438 315.019531 C 308.863281 314.882812 308.652344 314.832031 308.402344 314.785156 C 307.007812 314.535156 302.832031 313.941406 300.105469 314.175781 C 299.441406 314.234375 298.867188 314.339844 298.453125 314.519531 C 298.234375 314.613281 298.0625 314.722656 297.972656 314.871094 Z M 315.804688 300.773438 C 315.867188 300.464844 316.101562 300.179688 316.511719 299.957031 C 316.988281 299.699219 317.722656 299.5 318.605469 299.371094 C 320.898438 299.03125 324.203125 299.101562 326.179688 299.355469 C 326.800781 299.4375 327.292969 299.535156 327.597656 299.644531 C 327.777344 299.710938 327.902344 299.785156 327.980469 299.851562 C 328.160156 300.015625 328.335938 300.320312 328.484375 300.757812 C 328.777344 301.621094 329.003906 303.058594 329.164062 304.8125 C 329.695312 310.554688 329.574219 319.691406 329.25 322.519531 C 329.1875 323.066406 328.710938 323.574219 327.90625 323.953125 C 326.308594 324.707031 323.371094 325.066406 320.875 324.914062 C 319.421875 324.828125 318.117188 324.566406 317.292969 324.132812 C 316.632812 323.789062 316.257812 323.320312 316.230469 322.773438 C 315.679688 312.210938 315.453125 302.535156 315.804688 300.773438 Z M 316.488281 300.910156 C 316.140625 302.65625 316.378906 312.257812 316.925781 322.738281 C 316.941406 323.066406 317.21875 323.308594 317.617188 323.515625 C 318.375 323.917969 319.578125 324.140625 320.914062 324.21875 C 323.292969 324.363281 326.085938 324.042969 327.605469 323.324219 C 327.898438 323.183594 328.144531 323.03125 328.316406 322.863281 C 328.449219 322.730469 328.539062 322.59375 328.558594 322.4375 C 328.878906 319.636719 328.996094 310.574219 328.46875 304.875 C 328.335938 303.429688 328.160156 302.199219 327.9375 301.355469 C 327.808594 300.871094 327.683594 300.523438 327.511719 300.371094 C 327.46875 300.328125 327.371094 300.300781 327.246094 300.265625 C 326.96875 300.183594 326.570312 300.109375 326.09375 300.046875 C 324.164062 299.796875 320.945312 299.726562 318.707031 300.0625 C 317.925781 300.175781 317.269531 300.335938 316.84375 300.566406 C 316.65625 300.671875 316.515625 300.769531 316.488281 300.910156 Z M 257.777344 269.566406 C 257.933594 269.3125 258.203125 269.097656 258.574219 268.9375 C 259.042969 268.734375 259.691406 268.605469 260.445312 268.539062 C 263.230469 268.296875 267.496094 268.902344 268.925781 269.15625 C 269.308594 269.226562 269.617188 269.332031 269.867188 269.535156 C 270.117188 269.742188 270.320312 270.054688 270.453125 270.5625 C 270.679688 271.414062 270.738281 272.902344 270.683594 275.582031 C 270.648438 277.242188 270.375 278.265625 269.890625 278.894531 C 269.414062 279.523438 268.726562 279.796875 267.808594 279.894531 C 266.585938 280.019531 264.910156 279.820312 262.742188 279.898438 C 261.683594 279.933594 260.503906 279.949219 259.566406 279.746094 C 258.867188 279.597656 258.300781 279.320312 257.96875 278.886719 C 257.378906 278.109375 257.082031 276.65625 257.015625 275.109375 C 256.917969 272.824219 257.308594 270.335938 257.777344 269.566406 Z M 258.371094 269.929688 C 257.9375 270.640625 257.621094 272.960938 257.710938 275.078125 C 257.769531 276.464844 257.996094 277.769531 258.523438 278.464844 C 258.765625 278.78125 259.199219 278.957031 259.710938 279.066406 C 260.597656 279.257812 261.71875 279.238281 262.71875 279.199219 C 264.863281 279.125 266.523438 279.324219 267.734375 279.199219 C 268.4375 279.128906 268.972656 278.949219 269.335938 278.472656 C 269.757812 277.921875 269.957031 277.019531 269.984375 275.570312 C 270.039062 272.992188 270 271.558594 269.78125 270.742188 C 269.695312 270.417969 269.585938 270.207031 269.425781 270.074219 C 269.261719 269.941406 269.054688 269.886719 268.800781 269.84375 C 267.40625 269.589844 263.230469 268.996094 260.503906 269.234375 C 259.839844 269.289062 259.265625 269.394531 258.851562 269.574219 C 258.632812 269.671875 258.460938 269.78125 258.371094 269.929688 Z M 258.371094 269.929688 " fill-opacity="1" fill-rule="evenodd"/><g clip-path="url(#a7a357574e)"><g clip-path="url(#b56e66e904)"><g transform="matrix(1, 0, 0, 1, 67, 54)"><g clip-path="url(#7b34aca200)"><g clip-path="url(#7e73989ef3)"><g clip-path="url(#8668850655)"><path fill="#f6ce1e" d="M 0.898438 0.613281 L 69.382812 0.613281 L 69.382812 69.097656 L 0.898438 69.097656 Z M 0.898438 0.613281 " fill-opacity="1" fill-rule="nonzero"/></g></g></g></g></g></g><g clip-path="url(#9879a848e9)"><g transform="matrix(1, 0, 0, 1, 125, 69)"><g clip-path="url(#56366e28ba)"><g clip-path="url(#d2b8a95433)"><path fill="#f6ce1e" d="M 0.867188 0.226562 L 92.625 0.226562 L 92.625 37.394531 L 0.867188 37.394531 Z M 0.867188 0.226562 " fill-opacity="1" fill-rule="nonzero"/></g></g></g></g><g clip-path="url(#f08ffcc857)"><g clip-path="url(#2396461383)"><g transform="matrix(1, 0, 0, 1, 204, 36)"><g clip-path="url(#69e38e10c3)"><g clip-path="url(#a7cc9985f6)"><g clip-path="url(#a39bb8d3f5)"><path fill="#f6ce1e" d="M 0.652344 0.617188 L 103.039062 0.617188 L 103.039062 103.003906 L 0.652344 103.003906 Z M 0.652344 0.617188 " fill-opacity="1" fill-rule="nonzero"/></g></g></g></g></g></g><g clip-path="url(#d1d6e6776d)"><path fill="#ffffff" d="M 271.554688 90.613281 C 268.664062 87.066406 264.660156 85.078125 260.503906 83.445312 L 260.503906 61.34375 C 263.386719 61.816406 266.179688 63.105469 269.71875 64.835938 C 271.671875 65.789062 274.03125 64.976562 274.988281 63.023438 C 275.941406 61.066406 275.128906 58.710938 273.175781 57.753906 C 269.992188 56.199219 267.101562 54.847656 263.972656 54.035156 C 262.796875 53.730469 261.648438 53.519531 260.503906 53.394531 L 260.503906 50.714844 C 260.503906 48.539062 258.742188 46.777344 256.566406 46.777344 C 254.390625 46.777344 252.625 48.539062 252.625 50.714844 L 252.625 53.929688 C 248.59375 54.886719 244.863281 56.882812 242.0625 59.597656 C 238.535156 63.019531 236.730469 67.417969 236.980469 71.984375 C 237.257812 77.105469 239.433594 81.246094 243.441406 84.285156 C 246.15625 86.347656 249.390625 87.699219 252.625 88.914062 L 252.625 112.472656 C 251.863281 112.464844 251.09375 112.425781 250.316406 112.351562 C 246.167969 111.957031 242.324219 110.625 239.496094 108.601562 C 237.730469 107.332031 235.269531 107.738281 234.003906 109.507812 C 232.738281 111.277344 233.144531 113.738281 234.910156 115.003906 C 238.851562 117.824219 244.058594 119.667969 249.566406 120.195312 C 250.59375 120.292969 251.613281 120.34375 252.625 120.347656 L 252.625 122.902344 C 252.625 125.074219 254.390625 126.839844 256.566406 126.839844 C 258.742188 126.839844 260.503906 125.074219 260.503906 122.902344 L 260.503906 119.402344 C 262.054688 119.003906 263.527344 118.484375 264.894531 117.84375 C 271.226562 114.878906 274.976562 109.605469 275.460938 103.003906 C 275.785156 98.570312 274.363281 94.054688 271.554688 90.613281 Z M 244.847656 71.554688 C 244.71875 69.234375 245.628906 67.117188 247.546875 65.253906 C 248.902344 63.941406 250.683594 62.859375 252.625 62.144531 L 252.625 80.433594 C 247.808594 78.375 245.101562 76.210938 244.847656 71.554688 Z M 267.605469 102.425781 C 267.332031 106.167969 265.292969 108.957031 261.550781 110.710938 C 261.214844 110.867188 260.863281 111.015625 260.503906 111.152344 L 260.503906 92.019531 C 262.519531 92.992188 264.25 94.117188 265.449219 95.589844 C 267 97.492188 267.785156 99.980469 267.605469 102.425781 Z M 267.605469 102.425781 " fill-opacity="1" fill-rule="nonzero"/></g><g clip-path="url(#410bbe4883)"><g clip-path="url(#8ff8972bc6)"><g transform="matrix(1, 0, 0, 1, 91, 76)"><g clip-path="url(#27962410c9)"><g clip-path="url(#a886cf4726)"><g clip-path="url(#55fb19ef3d)"><path fill="#ffffff" d="M 0.0195312 0.6875 L 22.261719 0.6875 L 22.261719 22.929688 L 0.0195312 22.929688 Z M 0.0195312 0.6875 " fill-opacity="1" fill-rule="nonzero"/></g></g></g></g></g></g></svg>