<svg xmlns="http://www.w3.org/2000/svg" xmlns:xlink="http://www.w3.org/1999/xlink" width="512" zoomAndPan="magnify" viewBox="0 0 384 383.999986" height="512" preserveAspectRatio="xMidYMid meet" version="1.0"><defs><clipPath id="01dab50758"><path d="M 21.242188 237 L 362.492188 237 L 362.492188 303 L 21.242188 303 Z M 21.242188 237 " clip-rule="nonzero"/></clipPath></defs><g clip-path="url(#01dab50758)"><path fill="#65cf72" d="M 69.882812 273.46875 L 69.746094 273.46875 L 60.84375 237.527344 L 50.128906 237.527344 L 41.082031 273.089844 L 40.933594 273.089844 L 32.699219 237.554688 L 21.242188 237.554688 L 35.027344 289.757812 L 46.628906 289.757812 L 55.308594 254.222656 L 55.445312 254.222656 L 64.273438 289.757812 L 75.65625 289.757812 L 89.664062 237.554688 L 78.433594 237.554688 L 69.886719 273.472656 Z M 124.589844 255.117188 C 123.484375 253.710938 122.027344 252.617188 120.371094 251.945312 C 118.183594 251.148438 115.863281 250.789062 113.535156 250.890625 C 111.453125 250.921875 109.40625 251.4375 107.554688 252.390625 C 105.4375 253.453125 103.691406 255.117188 102.527344 257.179688 L 102.304688 257.179688 L 102.304688 237.496094 L 91.992188 237.496094 L 91.992188 289.703125 L 102.347656 289.703125 L 102.347656 269.914062 C 102.347656 266.066406 102.984375 263.308594 104.25 261.621094 C 105.515625 259.929688 107.550781 259.105469 110.378906 259.105469 C 112.859375 259.105469 114.597656 259.867188 115.554688 261.40625 C 116.511719 262.949219 117.011719 265.269531 117.011719 268.382812 L 117.011719 289.738281 L 127.371094 289.738281 L 127.371094 266.484375 C 127.386719 264.339844 127.179688 262.195312 126.75 260.089844 C 126.414062 258.292969 125.683594 256.59375 124.597656 255.125 Z M 167.246094 281.265625 L 167.246094 261.625 C 167.347656 259.671875 166.808594 257.730469 165.71875 256.109375 C 164.695312 254.714844 163.347656 253.59375 161.789062 252.855469 C 160.109375 252.046875 158.308594 251.515625 156.460938 251.277344 C 154.550781 251.015625 152.628906 250.878906 150.703125 250.878906 C 148.613281 250.878906 146.527344 251.09375 144.46875 251.5 C 142.496094 251.886719 140.609375 252.597656 138.878906 253.613281 C 137.242188 254.574219 135.84375 255.894531 134.796875 257.484375 C 133.660156 259.3125 133.03125 261.40625 132.972656 263.558594 L 143.328125 263.558594 C 143.339844 262.726562 143.527344 261.902344 143.878906 261.144531 C 144.230469 260.386719 144.742188 259.714844 145.375 259.175781 C 146.792969 258.226562 148.480469 257.761719 150.183594 257.851562 C 151.050781 257.851562 151.917969 257.90625 152.78125 258.035156 C 153.527344 258.140625 154.242188 258.386719 154.886719 258.769531 C 155.507812 259.140625 156.011719 259.671875 156.355469 260.300781 C 156.753906 261.128906 156.945312 262.042969 156.902344 262.964844 C 156.953125 263.417969 156.894531 263.878906 156.726562 264.308594 C 156.5625 264.738281 156.292969 265.117188 155.953125 265.417969 C 155.136719 266.046875 154.1875 266.484375 153.179688 266.699219 C 151.859375 267.019531 150.511719 267.238281 149.160156 267.355469 C 147.65625 267.5 146.121094 267.703125 144.574219 267.945312 C 143.003906 268.164062 141.445312 268.464844 139.902344 268.855469 C 138.441406 269.234375 137.058594 269.863281 135.808594 270.714844 C 134.59375 271.613281 133.613281 272.785156 132.941406 274.140625 C 132.128906 275.78125 131.746094 277.59375 131.8125 279.421875 C 131.773438 281.15625 132.105469 282.878906 132.792969 284.464844 C 133.417969 285.832031 134.351562 287.035156 135.527344 287.976562 C 136.742188 288.925781 138.132812 289.621094 139.621094 290.027344 C 141.257812 290.472656 142.953125 290.695312 144.648438 290.683594 C 146.972656 290.679688 149.289062 290.320312 151.503906 289.628906 C 153.722656 288.957031 155.734375 287.722656 157.335938 286.046875 C 157.386719 286.671875 157.472656 287.300781 157.589844 287.914062 C 157.714844 288.515625 157.871094 289.117188 158.0625 289.703125 L 168.609375 289.703125 C 168.019531 288.617188 167.660156 287.425781 167.554688 286.191406 C 167.351562 284.570312 167.253906 282.933594 167.246094 281.296875 Z M 156.902344 275.042969 C 156.890625 275.828125 156.824219 276.613281 156.710938 277.390625 C 156.582031 278.40625 156.25 279.394531 155.730469 280.277344 C 155.128906 281.296875 154.277344 282.140625 153.25 282.726562 C 151.792969 283.503906 150.148438 283.867188 148.5 283.78125 C 147.695312 283.78125 146.886719 283.710938 146.097656 283.5625 C 145.371094 283.433594 144.679688 283.171875 144.050781 282.789062 C 143.464844 282.417969 142.992188 281.910156 142.667969 281.296875 C 142.3125 280.570312 142.136719 279.761719 142.164062 278.949219 C 142.136719 278.113281 142.304688 277.285156 142.667969 276.539062 C 142.996094 275.921875 143.460938 275.382812 144.019531 274.960938 C 144.621094 274.527344 145.285156 274.199219 145.992188 273.976562 C 146.742188 273.730469 147.511719 273.539062 148.289062 273.394531 C 149.109375 273.25 149.933594 273.125 150.757812 273.027344 C 151.582031 272.929688 152.382812 272.804688 153.132812 272.660156 C 153.847656 272.527344 154.554688 272.34375 155.242188 272.109375 C 155.84375 271.921875 156.40625 271.613281 156.882812 271.199219 L 156.894531 275.039062 Z M 186.582031 240.539062 L 176.226562 240.539062 L 176.226562 251.945312 L 169.949219 251.945312 L 169.949219 258.890625 L 176.226562 258.890625 L 176.226562 281.195312 C 176.152344 282.78125 176.480469 284.363281 177.171875 285.792969 C 177.761719 286.925781 178.660156 287.863281 179.757812 288.511719 C 180.933594 289.171875 182.222656 289.601562 183.554688 289.789062 C 185.0625 290.011719 186.582031 290.117188 188.109375 290.117188 C 189.164062 290.117188 190.21875 290.117188 191.277344 290.042969 C 192.25 290 193.222656 289.902344 194.183594 289.746094 L 194.183594 281.703125 C 193.679688 281.808594 193.171875 281.878906 192.65625 281.921875 C 192.117188 281.921875 191.605469 282 190.980469 282 C 189.230469 282 188.054688 281.703125 187.476562 281.121094 C 186.894531 280.539062 186.597656 279.367188 186.597656 277.609375 L 186.597656 258.847656 L 194.179688 258.847656 L 194.179688 251.945312 L 186.597656 251.945312 L 186.578125 240.539062 Z M 229.394531 273.109375 C 228.722656 271.925781 227.800781 270.90625 226.691406 270.117188 C 225.515625 269.285156 224.226562 268.628906 222.859375 268.171875 C 221.414062 267.683594 219.941406 267.269531 218.449219 266.933594 C 216.992188 266.597656 215.5625 266.277344 214.144531 265.984375 C 212.875 265.726562 211.625 265.398438 210.390625 265 C 209.417969 264.695312 208.511719 264.210938 207.722656 263.558594 C 207.386719 263.289062 207.117188 262.945312 206.933594 262.550781 C 206.75 262.15625 206.660156 261.726562 206.664062 261.296875 C 206.628906 260.625 206.835938 259.96875 207.246094 259.4375 C 207.632812 258.976562 208.117188 258.613281 208.671875 258.382812 C 209.261719 258.128906 209.886719 257.96875 210.527344 257.90625 C 211.210938 257.839844 211.847656 257.800781 212.425781 257.800781 C 214.09375 257.765625 215.75 258.128906 217.246094 258.855469 C 217.949219 259.269531 218.53125 259.863281 218.929688 260.578125 C 219.328125 261.292969 219.523438 262.101562 219.503906 262.917969 L 229.34375 262.917969 C 229.238281 260.863281 228.621094 258.867188 227.558594 257.105469 C 226.59375 255.613281 225.308594 254.351562 223.804688 253.414062 C 222.214844 252.457031 220.476562 251.789062 218.65625 251.441406 C 216.699219 251.046875 214.714844 250.855469 212.71875 250.859375 C 210.710938 250.855469 208.710938 251.035156 206.742188 251.410156 C 204.886719 251.734375 203.101562 252.378906 201.46875 253.316406 C 199.921875 254.203125 198.625 255.476562 197.703125 257.003906 C 196.691406 258.832031 196.195312 260.902344 196.28125 262.996094 C 196.234375 264.472656 196.605469 265.941406 197.335938 267.222656 C 198.003906 268.363281 198.921875 269.339844 200.027344 270.078125 C 201.210938 270.859375 202.5 271.476562 203.851562 271.90625 C 205.289062 272.371094 206.765625 272.773438 208.261719 273.109375 C 211.195312 273.679688 214.089844 274.457031 216.914062 275.441406 C 218.980469 276.226562 220.011719 277.390625 220.011719 278.953125 C 220.046875 279.773438 219.816406 280.578125 219.355469 281.257812 C 218.929688 281.863281 218.363281 282.363281 217.714844 282.71875 C 217.035156 283.101562 216.296875 283.375 215.53125 283.519531 C 214.777344 283.691406 214.003906 283.78125 213.234375 283.78125 C 212.234375 283.78125 211.246094 283.660156 210.277344 283.414062 C 209.375 283.191406 208.523438 282.808594 207.757812 282.28125 C 207.027344 281.761719 206.417969 281.089844 205.972656 280.308594 C 205.492188 279.421875 205.25 278.429688 205.277344 277.421875 L 195.480469 277.421875 C 195.453125 279.5 195.96875 281.550781 196.972656 283.367188 C 197.976562 285.1875 199.425781 286.71875 201.195312 287.804688 C 202.914062 288.863281 204.804688 289.609375 206.785156 290 C 208.898438 290.441406 211.046875 290.660156 213.199219 290.660156 C 215.324219 290.660156 217.441406 290.453125 219.523438 290.035156 C 221.472656 289.683594 223.339844 288.964844 225.027344 287.925781 C 226.761719 286.84375 228.179688 285.320312 229.125 283.511719 C 230.074219 281.695312 230.523438 279.664062 230.425781 277.621094 C 230.480469 276.0625 230.125 274.519531 229.382812 273.148438 L 229.382812 273.117188 Z M 249.960938 237.46875 L 230.269531 289.671875 L 241.796875 289.671875 L 245.882812 278.042969 L 265.414062 278.042969 L 269.34375 289.671875 L 281.230469 289.671875 L 261.765625 237.46875 Z M 248.902344 269.492188 L 255.679688 250.328125 L 255.828125 250.328125 L 262.382812 269.492188 L 248.894531 269.492188 Z M 316.984375 257.019531 C 315.578125 255.160156 313.777344 253.632812 311.710938 252.558594 C 309.316406 251.378906 306.675781 250.804688 304.007812 250.886719 C 301.792969 250.859375 299.597656 251.335938 297.585938 252.269531 C 295.585938 253.253906 293.914062 254.804688 292.777344 256.730469 L 292.632812 256.730469 L 292.632812 251.941406 L 282.785156 251.941406 L 282.785156 302.976562 L 293.152344 302.976562 L 293.152344 285.027344 L 293.289062 285.027344 C 294.496094 286.84375 296.175781 288.304688 298.136719 289.253906 C 300.152344 290.214844 302.359375 290.703125 304.59375 290.679688 C 307.097656 290.71875 309.578125 290.160156 311.816406 289.042969 C 313.84375 288.007812 315.613281 286.53125 316.996094 284.726562 C 318.410156 282.867188 319.460938 280.761719 320.09375 278.515625 C 320.789062 276.140625 321.144531 273.675781 321.148438 271.199219 C 321.148438 268.59375 320.789062 265.996094 320.09375 263.484375 C 319.480469 261.152344 318.425781 258.953125 316.984375 257.011719 Z M 310.355469 275.371094 C 310.097656 276.730469 309.589844 278.035156 308.859375 279.207031 C 308.117188 280.394531 307.074219 281.363281 305.835938 282.007812 C 304.59375 282.660156 303.207031 282.96875 301.8125 282.902344 C 300.335938 282.933594 298.878906 282.570312 297.59375 281.847656 C 296.453125 281.195312 295.492188 280.277344 294.785156 279.175781 C 294.042969 278 293.523438 276.699219 293.257812 275.335938 C 292.960938 273.902344 292.8125 272.4375 292.824219 270.972656 C 292.8125 269.449219 292.960938 267.929688 293.257812 266.433594 C 293.515625 265.0625 294.023438 263.746094 294.753906 262.554688 C 295.449219 261.433594 296.398438 260.492188 297.527344 259.816406 C 298.808594 259.078125 300.269531 258.710938 301.746094 258.761719 C 303.222656 258.707031 304.683594 259.074219 305.964844 259.816406 C 307.097656 260.515625 308.0625 261.457031 308.773438 262.585938 C 309.523438 263.789062 310.058594 265.109375 310.34375 266.496094 C 310.644531 267.964844 310.777344 269.464844 310.753906 270.964844 C 310.757812 272.441406 310.628906 273.917969 310.351562 275.363281 Z M 361.382812 263.488281 C 360.75 261.152344 359.679688 258.953125 358.214844 257.019531 C 356.808594 255.160156 355.011719 253.632812 352.945312 252.558594 C 350.566406 251.378906 347.933594 250.804688 345.277344 250.875 C 343.0625 250.851562 340.871094 251.324219 338.867188 252.257812 C 336.863281 253.246094 335.191406 254.796875 334.058594 256.71875 L 333.960938 256.71875 L 333.960938 251.941406 L 324.113281 251.941406 L 324.113281 302.976562 L 334.46875 302.976562 L 334.46875 285.027344 L 334.621094 285.027344 C 335.832031 286.84375 337.503906 288.304688 339.46875 289.253906 C 341.488281 290.214844 343.695312 290.703125 345.925781 290.679688 C 348.4375 290.734375 350.925781 290.183594 353.179688 289.074219 C 355.207031 288.035156 356.972656 286.5625 358.359375 284.757812 C 359.773438 282.898438 360.824219 280.792969 361.457031 278.542969 C 362.15625 276.167969 362.511719 273.703125 362.511719 271.230469 C 362.492188 268.605469 362.113281 266 361.382812 263.480469 Z M 351.609375 275.371094 C 351.359375 276.734375 350.855469 278.035156 350.121094 279.207031 C 348.886719 280.949219 347.0625 282.175781 344.988281 282.671875 C 342.914062 283.160156 340.734375 282.882812 338.851562 281.882812 C 337.710938 281.230469 336.75 280.316406 336.046875 279.210938 C 335.300781 278.039062 334.78125 276.734375 334.503906 275.375 C 334.191406 273.910156 334.035156 272.421875 334.042969 270.925781 C 334.042969 269.40625 334.183594 267.882812 334.476562 266.390625 C 334.730469 265.015625 335.242188 263.703125 335.972656 262.507812 C 336.667969 261.394531 337.621094 260.453125 338.746094 259.769531 C 340.03125 259.035156 341.488281 258.664062 342.964844 258.714844 C 344.441406 258.664062 345.90625 259.027344 347.183594 259.769531 C 348.316406 260.46875 349.273438 261.414062 349.988281 262.539062 C 350.734375 263.742188 351.269531 265.066406 351.558594 266.449219 C 351.875 267.921875 352.03125 269.421875 352.03125 270.921875 C 352.046875 272.417969 351.910156 273.90625 351.628906 275.371094 Z M 351.609375 275.371094 " fill-opacity="1" fill-rule="nonzero"/></g><path fill="#65cf72" d="M 232.292969 98.59375 C 222.507812 88.902344 209.558594 83.085938 195.828125 82.21875 C 182.097656 81.351562 168.519531 85.496094 157.601562 93.882812 C 146.683594 102.269531 139.160156 114.335938 136.429688 127.851562 C 133.695312 141.363281 135.941406 155.414062 142.738281 167.398438 L 134.667969 196.941406 L 164.832031 189.015625 C 173.175781 193.570312 182.519531 195.960938 192.023438 195.960938 C 203.269531 195.941406 214.257812 192.585938 223.601562 186.3125 C 232.945312 180.042969 240.230469 171.140625 244.535156 160.722656 C 248.839844 150.3125 249.972656 138.855469 247.785156 127.796875 C 245.605469 116.738281 240.207031 106.578125 232.265625 98.589844 L 232.285156 98.589844 Z M 192.046875 186.332031 C 183.578125 186.332031 175.265625 184.046875 167.976562 179.722656 L 166.25 178.667969 L 148.320312 183.371094 L 153.109375 165.921875 L 151.988281 164.132812 C 146.414062 155.230469 143.949219 144.730469 144.984375 134.273438 C 146.015625 123.816406 150.480469 114 157.683594 106.367188 C 164.886719 98.730469 174.421875 93.710938 184.777344 92.097656 C 195.136719 90.488281 205.738281 92.367188 214.917969 97.449219 C 224.089844 102.53125 231.324219 110.527344 235.472656 120.175781 C 239.621094 129.828125 240.453125 140.585938 237.835938 150.761719 C 235.21875 160.9375 229.300781 169.953125 221.019531 176.390625 C 212.734375 182.832031 202.550781 186.328125 192.066406 186.332031 Z M 217.9375 150.835938 C 216.523438 150.121094 209.496094 146.675781 208.222656 146.195312 C 206.949219 145.71875 205.972656 145.488281 205.058594 146.910156 C 204.140625 148.335938 201.386719 151.539062 200.554688 152.496094 C 199.722656 153.449219 198.902344 153.550781 197.476562 152.851562 C 193.292969 151.191406 189.429688 148.816406 186.054688 145.835938 C 182.949219 142.953125 180.28125 139.628906 178.144531 135.964844 C 177.324219 134.539062 178.058594 133.765625 178.765625 133.058594 C 179.472656 132.351562 180.1875 131.402344 180.871094 130.5625 C 181.457031 129.839844 181.929688 129.042969 182.285156 128.183594 C 182.476562 127.789062 182.5625 127.355469 182.539062 126.921875 C 182.519531 126.488281 182.390625 126.0625 182.167969 125.6875 C 181.820312 124.972656 179.003906 117.964844 177.792969 115.121094 C 176.578125 112.277344 175.464844 112.722656 174.625 112.679688 C 173.796875 112.640625 172.851562 112.679688 171.90625 112.679688 C 171.183594 112.699219 170.480469 112.867188 169.824219 113.175781 C 169.171875 113.484375 168.589844 113.921875 168.121094 114.46875 C 166.515625 115.972656 165.242188 117.796875 164.375 119.824219 C 163.507812 121.847656 163.070312 124.03125 163.089844 126.234375 C 163.089844 133.25 168.183594 139.976562 168.890625 140.972656 C 169.597656 141.964844 178.921875 156.320312 193.144531 162.492188 C 195.792969 163.640625 198.496094 164.640625 201.246094 165.492188 C 204.144531 166.371094 207.214844 166.5625 210.199219 166.054688 C 212.929688 165.640625 218.636719 162.609375 219.796875 159.277344 C 220.957031 155.949219 220.976562 153.09375 220.628906 152.503906 C 220.28125 151.914062 219.394531 151.554688 217.925781 150.847656 Z M 217.9375 150.835938 " fill-opacity="1" fill-rule="evenodd"/></svg>