<svg xmlns="http://www.w3.org/2000/svg" xmlns:xlink="http://www.w3.org/1999/xlink" width="512" zoomAndPan="magnify" viewBox="0 0 384 383.999986" height="512" preserveAspectRatio="xMidYMid meet" version="1.0"><defs><clipPath id="beaefe71e4"><path d="M 12.59375 239 L 371.09375 239 L 371.09375 308.800781 L 12.59375 308.800781 Z M 12.59375 239 " clip-rule="nonzero"/></clipPath></defs><g clip-path="url(#beaefe71e4)"><path fill="#ffffff" d="M 63.695312 277.601562 L 63.554688 277.601562 L 54.199219 239.839844 L 42.941406 239.839844 L 33.4375 277.203125 L 33.285156 277.203125 L 24.632812 239.867188 L 12.59375 239.867188 L 27.078125 294.71875 L 39.269531 294.71875 L 48.386719 257.382812 L 48.53125 257.382812 L 57.800781 294.71875 L 69.757812 294.71875 L 84.476562 239.867188 L 72.675781 239.867188 L 63.699219 277.605469 Z M 121.167969 258.320312 C 120.007812 256.839844 118.476562 255.695312 116.734375 254.988281 C 114.4375 254.148438 112 253.773438 109.554688 253.878906 C 107.367188 253.910156 105.21875 254.453125 103.273438 255.457031 C 101.050781 256.570312 99.210938 258.320312 97.988281 260.488281 L 97.757812 260.488281 L 97.757812 239.808594 L 86.921875 239.808594 L 86.921875 294.660156 L 97.804688 294.660156 L 97.804688 273.867188 C 97.804688 269.824219 98.472656 266.925781 99.800781 265.152344 C 101.128906 263.375 103.269531 262.511719 106.238281 262.511719 C 108.84375 262.511719 110.671875 263.3125 111.675781 264.929688 C 112.683594 266.550781 113.207031 268.984375 113.207031 272.261719 L 113.207031 294.699219 L 124.089844 294.699219 L 124.089844 270.265625 C 124.105469 268.007812 123.890625 265.757812 123.4375 263.546875 C 123.085938 261.65625 122.316406 259.871094 121.175781 258.328125 Z M 165.980469 285.796875 L 165.980469 265.160156 C 166.089844 263.105469 165.519531 261.066406 164.378906 259.363281 C 163.300781 257.898438 161.882812 256.71875 160.246094 255.945312 C 158.484375 255.09375 156.59375 254.539062 154.648438 254.289062 C 152.644531 254.011719 150.625 253.867188 148.601562 253.867188 C 146.40625 253.867188 144.210938 254.089844 142.050781 254.523438 C 139.980469 254.925781 137.996094 255.671875 136.179688 256.742188 C 134.457031 257.75 132.992188 259.140625 131.890625 260.804688 C 130.699219 262.726562 130.035156 264.929688 129.972656 267.191406 L 140.855469 267.191406 C 140.867188 266.316406 141.0625 265.449219 141.433594 264.65625 C 141.804688 263.859375 142.339844 263.152344 143.003906 262.585938 C 144.492188 261.585938 146.265625 261.097656 148.058594 261.195312 C 148.96875 261.195312 149.878906 261.253906 150.785156 261.386719 C 151.566406 261.496094 152.320312 261.757812 152.996094 262.160156 C 153.648438 262.546875 154.179688 263.105469 154.539062 263.769531 C 154.957031 264.636719 155.160156 265.597656 155.117188 266.566406 C 155.167969 267.042969 155.105469 267.527344 154.929688 267.976562 C 154.753906 268.429688 154.476562 268.828125 154.113281 269.144531 C 153.257812 269.804688 152.261719 270.265625 151.203125 270.488281 C 149.816406 270.828125 148.402344 271.054688 146.980469 271.179688 C 145.398438 271.332031 143.789062 271.542969 142.164062 271.800781 C 140.511719 272.027344 138.875 272.34375 137.253906 272.753906 C 135.71875 273.152344 134.269531 273.816406 132.953125 274.707031 C 131.679688 275.652344 130.644531 276.882812 129.941406 278.304688 C 129.089844 280.03125 128.6875 281.9375 128.753906 283.859375 C 128.714844 285.679688 129.0625 287.488281 129.789062 289.15625 C 130.445312 290.59375 131.425781 291.859375 132.65625 292.84375 C 133.933594 293.84375 135.394531 294.574219 136.957031 295 C 138.679688 295.46875 140.457031 295.699219 142.242188 295.691406 C 144.683594 295.683594 147.113281 295.308594 149.445312 294.582031 C 151.773438 293.875 153.886719 292.578125 155.570312 290.816406 C 155.625 291.476562 155.714844 292.132812 155.835938 292.78125 C 155.96875 293.414062 156.132812 294.042969 156.332031 294.660156 L 167.410156 294.660156 C 166.792969 293.519531 166.417969 292.265625 166.304688 290.972656 C 166.09375 289.265625 165.988281 287.546875 165.980469 285.828125 Z M 155.117188 279.257812 C 155.101562 280.078125 155.03125 280.90625 154.914062 281.726562 C 154.777344 282.792969 154.425781 283.828125 153.882812 284.753906 C 153.253906 285.828125 152.355469 286.714844 151.277344 287.328125 C 149.746094 288.148438 148.019531 288.53125 146.289062 288.4375 C 145.441406 288.4375 144.59375 288.363281 143.761719 288.207031 C 143 288.074219 142.273438 287.796875 141.613281 287.394531 C 141 287.007812 140.5 286.46875 140.160156 285.828125 C 139.785156 285.0625 139.601562 284.214844 139.632812 283.359375 C 139.601562 282.484375 139.78125 281.613281 140.160156 280.828125 C 140.507812 280.179688 140.992188 279.613281 141.582031 279.171875 C 142.210938 278.714844 142.910156 278.371094 143.652344 278.136719 C 144.441406 277.875 145.25 277.675781 146.066406 277.527344 C 146.929688 277.371094 147.792969 277.238281 148.660156 277.140625 C 149.523438 277.039062 150.367188 276.90625 151.15625 276.75 C 151.90625 276.613281 152.648438 276.421875 153.367188 276.171875 C 154.003906 275.976562 154.589844 275.652344 155.09375 275.21875 L 155.105469 279.25 Z M 186.296875 243.003906 L 175.414062 243.003906 L 175.414062 254.988281 L 168.820312 254.988281 L 168.820312 262.289062 L 175.414062 262.289062 L 175.414062 285.722656 C 175.339844 287.386719 175.683594 289.050781 176.410156 290.550781 C 177.027344 291.742188 177.972656 292.726562 179.125 293.40625 C 180.359375 294.101562 181.714844 294.554688 183.113281 294.75 C 184.695312 294.984375 186.296875 295.09375 187.898438 295.09375 C 189.007812 295.09375 190.113281 295.09375 191.226562 295.015625 C 192.246094 294.972656 193.269531 294.867188 194.28125 294.703125 L 194.28125 286.253906 C 193.75 286.363281 193.214844 286.4375 192.675781 286.484375 C 192.109375 286.484375 191.570312 286.566406 190.914062 286.566406 C 189.074219 286.566406 187.839844 286.253906 187.234375 285.640625 C 186.625 285.03125 186.3125 283.800781 186.3125 281.953125 L 186.3125 262.238281 L 194.277344 262.238281 L 194.277344 254.988281 L 186.3125 254.988281 L 186.289062 243.003906 Z M 231.269531 277.222656 C 230.566406 275.980469 229.597656 274.910156 228.429688 274.082031 C 227.195312 273.207031 225.839844 272.515625 224.40625 272.039062 C 222.886719 271.523438 221.339844 271.085938 219.773438 270.738281 C 218.242188 270.382812 216.738281 270.046875 215.25 269.738281 C 213.917969 269.46875 212.601562 269.125 211.304688 268.703125 C 210.285156 268.386719 209.332031 267.875 208.503906 267.191406 C 208.148438 266.90625 207.867188 266.542969 207.671875 266.128906 C 207.480469 265.714844 207.386719 265.265625 207.390625 264.8125 C 207.355469 264.109375 207.574219 263.417969 208 262.859375 C 208.410156 262.378906 208.917969 261.996094 209.5 261.75 C 210.121094 261.484375 210.777344 261.316406 211.449219 261.253906 C 212.167969 261.183594 212.835938 261.140625 213.445312 261.140625 C 215.199219 261.101562 216.933594 261.484375 218.507812 262.25 C 219.25 262.683594 219.859375 263.304688 220.277344 264.058594 C 220.695312 264.808594 220.902344 265.65625 220.878906 266.515625 L 231.214844 266.515625 C 231.105469 264.355469 230.460938 262.261719 229.34375 260.40625 C 228.332031 258.84375 226.980469 257.515625 225.398438 256.535156 C 223.730469 255.523438 221.902344 254.824219 219.988281 254.457031 C 217.933594 254.042969 215.847656 253.84375 213.753906 253.847656 C 211.644531 253.84375 209.542969 254.035156 207.472656 254.425781 C 205.523438 254.765625 203.648438 255.445312 201.933594 256.425781 C 200.308594 257.363281 198.945312 258.699219 197.976562 260.300781 C 196.914062 262.222656 196.394531 264.398438 196.484375 266.597656 C 196.4375 268.152344 196.824219 269.691406 197.589844 271.039062 C 198.292969 272.238281 199.257812 273.265625 200.417969 274.039062 C 201.664062 274.863281 203.019531 275.507812 204.4375 275.960938 C 205.945312 276.449219 207.5 276.875 209.070312 277.222656 C 212.152344 277.824219 215.191406 278.640625 218.15625 279.675781 C 220.328125 280.5 221.414062 281.726562 221.414062 283.363281 C 221.453125 284.226562 221.207031 285.074219 220.726562 285.785156 C 220.277344 286.421875 219.683594 286.949219 219 287.320312 C 218.285156 287.722656 217.511719 288.007812 216.707031 288.164062 C 215.914062 288.34375 215.101562 288.4375 214.292969 288.4375 C 213.242188 288.4375 212.207031 288.3125 211.1875 288.050781 C 210.242188 287.816406 209.347656 287.414062 208.542969 286.863281 C 207.773438 286.316406 207.132812 285.609375 206.667969 284.789062 C 206.160156 283.859375 205.90625 282.8125 205.9375 281.757812 L 195.640625 281.757812 C 195.617188 283.9375 196.15625 286.09375 197.210938 288.003906 C 198.261719 289.914062 199.789062 291.523438 201.648438 292.664062 C 203.453125 293.777344 205.4375 294.558594 207.519531 294.972656 C 209.738281 295.433594 211.992188 295.664062 214.253906 295.664062 C 216.488281 295.664062 218.714844 295.445312 220.902344 295.011719 C 222.949219 294.640625 224.910156 293.886719 226.683594 292.792969 C 228.503906 291.65625 229.992188 290.054688 230.988281 288.152344 C 231.984375 286.246094 232.457031 284.113281 232.355469 281.964844 C 232.414062 280.328125 232.039062 278.703125 231.257812 277.265625 L 231.257812 277.234375 Z M 252.875 239.777344 L 232.191406 294.628906 L 244.300781 294.628906 L 248.589844 282.410156 L 269.109375 282.410156 L 273.242188 294.628906 L 285.726562 294.628906 L 265.277344 239.777344 Z M 251.761719 273.421875 L 258.886719 253.289062 L 259.039062 253.289062 L 265.929688 273.421875 L 251.757812 273.421875 Z M 323.289062 260.316406 C 321.808594 258.363281 319.921875 256.761719 317.75 255.632812 C 315.234375 254.394531 312.457031 253.789062 309.65625 253.875 C 307.328125 253.847656 305.023438 254.347656 302.910156 255.328125 C 300.808594 256.363281 299.050781 257.992188 297.859375 260.015625 L 297.707031 260.015625 L 297.707031 254.984375 L 287.359375 254.984375 L 287.359375 308.605469 L 298.25 308.605469 L 298.25 289.746094 L 298.394531 289.746094 C 299.664062 291.65625 301.429688 293.191406 303.488281 294.1875 C 305.605469 295.195312 307.925781 295.710938 310.273438 295.683594 C 312.902344 295.726562 315.507812 295.136719 317.859375 293.964844 C 319.988281 292.875 321.847656 291.328125 323.296875 289.433594 C 324.785156 287.480469 325.886719 285.265625 326.554688 282.902344 C 327.285156 280.410156 327.65625 277.816406 327.660156 275.21875 C 327.660156 272.476562 327.285156 269.75 326.554688 267.113281 C 325.910156 264.660156 324.800781 262.351562 323.289062 260.3125 Z M 316.324219 279.601562 C 316.054688 281.03125 315.519531 282.398438 314.75 283.628906 C 313.972656 284.878906 312.878906 285.898438 311.574219 286.578125 C 310.273438 287.261719 308.816406 287.585938 307.347656 287.515625 C 305.796875 287.546875 304.265625 287.164062 302.917969 286.40625 C 301.71875 285.722656 300.707031 284.753906 299.96875 283.597656 C 299.1875 282.363281 298.644531 280.996094 298.363281 279.566406 C 298.050781 278.058594 297.894531 276.519531 297.90625 274.976562 C 297.894531 273.378906 298.050781 271.78125 298.363281 270.210938 C 298.632812 268.769531 299.167969 267.386719 299.933594 266.136719 C 300.664062 264.957031 301.660156 263.96875 302.847656 263.257812 C 304.191406 262.484375 305.726562 262.097656 307.28125 262.148438 C 308.832031 262.089844 310.367188 262.476562 311.710938 263.257812 C 312.902344 263.992188 313.914062 264.984375 314.660156 266.167969 C 315.449219 267.429688 316.011719 268.820312 316.3125 270.277344 C 316.625 271.820312 316.769531 273.398438 316.742188 274.972656 C 316.75 276.523438 316.609375 278.074219 316.320312 279.589844 Z M 369.929688 267.117188 C 369.269531 264.660156 368.140625 262.351562 366.605469 260.316406 C 365.128906 258.363281 363.238281 256.761719 361.066406 255.632812 C 358.566406 254.394531 355.800781 253.789062 353.011719 253.863281 C 350.6875 253.835938 348.382812 254.335938 346.273438 255.316406 C 344.171875 256.351562 342.414062 257.984375 341.222656 260.003906 L 341.121094 260.003906 L 341.121094 254.984375 L 330.777344 254.984375 L 330.777344 308.605469 L 341.65625 308.605469 L 341.65625 289.746094 L 341.816406 289.746094 C 343.085938 291.65625 344.84375 293.191406 346.910156 294.1875 C 349.027344 295.195312 351.347656 295.710938 353.695312 295.683594 C 356.332031 295.742188 358.945312 295.164062 361.3125 293.996094 C 363.441406 292.910156 365.296875 291.359375 366.753906 289.464844 C 368.242188 287.511719 369.34375 285.296875 370.007812 282.933594 C 370.746094 280.441406 371.117188 277.851562 371.117188 275.25 C 371.09375 272.496094 370.699219 269.753906 369.929688 267.105469 Z M 359.664062 279.601562 C 359.402344 281.035156 358.875 282.398438 358.101562 283.628906 C 356.800781 285.460938 354.886719 286.75 352.710938 287.273438 C 350.527344 287.785156 348.238281 287.496094 346.257812 286.445312 C 345.0625 285.757812 344.050781 284.796875 343.316406 283.636719 C 342.53125 282.402344 341.984375 281.035156 341.695312 279.605469 C 341.367188 278.066406 341.203125 276.5 341.207031 274.929688 C 341.207031 273.332031 341.355469 271.734375 341.664062 270.164062 C 341.933594 268.71875 342.46875 267.339844 343.234375 266.085938 C 343.964844 264.914062 344.96875 263.925781 346.148438 263.210938 C 347.5 262.4375 349.027344 262.046875 350.582031 262.101562 C 352.132812 262.046875 353.671875 262.429688 355.011719 263.210938 C 356.203125 263.941406 357.210938 264.9375 357.960938 266.121094 C 358.746094 267.382812 359.308594 268.773438 359.609375 270.226562 C 359.941406 271.773438 360.105469 273.347656 360.105469 274.925781 C 360.121094 276.496094 359.980469 278.0625 359.683594 279.601562 Z M 359.664062 279.601562 " fill-opacity="1" fill-rule="nonzero"/></g><path fill="#ffffff" d="M 234.3125 93.867188 C 224.035156 83.679688 210.433594 77.570312 196.007812 76.660156 C 181.582031 75.75 167.316406 80.101562 155.847656 88.914062 C 144.375 97.726562 136.476562 110.40625 133.605469 124.605469 C 130.734375 138.804688 133.09375 153.566406 140.234375 166.15625 L 131.757812 197.195312 L 163.445312 188.867188 C 172.210938 193.65625 182.027344 196.167969 192.007812 196.167969 C 203.824219 196.144531 215.367188 192.621094 225.183594 186.027344 C 235.003906 179.441406 242.65625 170.089844 247.175781 159.144531 C 251.699219 148.203125 252.890625 136.164062 250.59375 124.546875 C 248.300781 112.925781 242.628906 102.253906 234.289062 93.863281 L 234.308594 93.863281 Z M 192.035156 186.050781 C 183.140625 186.050781 174.40625 183.648438 166.75 179.105469 L 164.933594 177.996094 L 146.097656 182.9375 L 151.128906 164.605469 L 149.953125 162.726562 C 144.097656 153.375 141.507812 142.339844 142.59375 131.351562 C 143.679688 120.363281 148.371094 110.050781 155.9375 102.03125 C 163.503906 94.011719 173.515625 88.734375 184.398438 87.039062 C 195.28125 85.347656 206.417969 87.320312 216.0625 92.660156 C 225.703125 98 233.296875 106.402344 237.65625 116.542969 C 242.015625 126.679688 242.886719 137.984375 240.140625 148.675781 C 237.390625 159.367188 231.175781 168.839844 222.472656 175.605469 C 213.769531 182.371094 203.070312 186.042969 192.058594 186.050781 Z M 219.234375 148.757812 C 217.75 148.003906 210.367188 144.382812 209.027344 143.878906 C 207.6875 143.378906 206.667969 143.136719 205.703125 144.632812 C 204.738281 146.128906 201.847656 149.492188 200.972656 150.496094 C 200.101562 151.5 199.238281 151.605469 197.738281 150.875 C 193.34375 149.128906 189.289062 146.632812 185.738281 143.5 C 182.476562 140.46875 179.675781 136.976562 177.429688 133.128906 C 176.566406 131.632812 177.339844 130.820312 178.082031 130.078125 C 178.824219 129.335938 179.574219 128.335938 180.296875 127.457031 C 180.910156 126.695312 181.40625 125.859375 181.777344 124.957031 C 181.980469 124.542969 182.070312 124.085938 182.046875 123.628906 C 182.027344 123.171875 181.890625 122.726562 181.65625 122.332031 C 181.292969 121.578125 178.332031 114.21875 177.058594 111.230469 C 175.785156 108.242188 174.613281 108.707031 173.734375 108.664062 C 172.859375 108.621094 171.875 108.664062 170.875 108.664062 C 170.117188 108.6875 169.375 108.863281 168.6875 109.183594 C 168.003906 109.507812 167.390625 109.972656 166.894531 110.542969 C 165.210938 112.125 163.871094 114.042969 162.957031 116.171875 C 162.046875 118.300781 161.585938 120.59375 161.609375 122.90625 C 161.609375 130.277344 166.960938 137.34375 167.703125 138.390625 C 168.445312 139.433594 178.242188 154.515625 193.183594 161 C 195.964844 162.207031 198.804688 163.257812 201.695312 164.15625 C 204.738281 165.078125 207.964844 165.28125 211.097656 164.742188 C 213.96875 164.308594 219.964844 161.125 221.183594 157.625 C 222.398438 154.128906 222.421875 151.128906 222.054688 150.507812 C 221.691406 149.886719 220.757812 149.511719 219.21875 148.765625 Z M 219.234375 148.757812 " fill-opacity="1" fill-rule="evenodd"/></svg>